<?xml version="1.0" encoding="UTF-8" standalone="no"?>
<svg
   enable-background="new 0 0 24 24"
   height="24px"
   viewBox="0 0 24 24"
   width="24px"
   fill="#000000"
   version="1.1"
   id="svg1"
   sodipodi:docname="account_tree.svg"
   inkscape:version="1.3.2 (091e20e, 2023-11-25, custom)"
   xmlns:inkscape="http://www.inkscape.org/namespaces/inkscape"
   xmlns:sodipodi="http://sodipodi.sourceforge.net/DTD/sodipodi-0.dtd"
   xmlns="http://www.w3.org/2000/svg"
   xmlns:svg="http://www.w3.org/2000/svg">
  <defs
     id="defs1" />
  <sodipodi:namedview
     id="namedview1"
     pagecolor="#ffffff"
     bordercolor="#666666"
     borderopacity="1.0"
     inkscape:showpageshadow="2"
     inkscape:pageopacity="0.0"
     inkscape:pagecheckerboard="0"
     inkscape:deskcolor="#d1d1d1"
     inkscape:zoom="53.375"
     inkscape:cx="12"
     inkscape:cy="12"
     inkscape:window-width="2400"
     inkscape:window-height="1511"
     inkscape:window-x="-9"
     inkscape:window-y="-9"
     inkscape:window-maximized="1"
     inkscape:current-layer="svg1" />
  <rect
     fill="none"
     height="24"
     width="24"
     id="rect1"
     x="0"
     y="0"
     style="display:inline" />
  <path
     id="path8"
     style="display:inline;fill:#000000;fill-opacity:1"
     d="m 15,13 v 2 6 h 7 v -8 z m 2,2 h 3 v 4 h -3 z" />
  <path
     id="path6"
     style="display:inline;fill:#000000;fill-opacity:1"
     d="m 2,3 v 2 6 H 9 V 3 Z M 4,5 H 7 V 9 H 4 Z" />
  <path
     id="path5"
     style="display:inline"
     d="M 15 3 L 15 6 L 9 6 L 9 8 L 11 8 L 11 18 L 15 18 L 15 16 L 13 16 L 13 8 L 15 8 L 15 11 L 22 11 L 22 3 L 15 3 z M 17 5 L 20 5 L 20 9 L 17 9 L 17 5 z " />
</svg>
