<?xml version="1.0" encoding="utf-8"?>
<!-- Generator: Adobe Illustrator 26.0.2, SVG Export Plug-In . SVG Version: 6.00 Build 0)  -->
<svg version="1.1" id="svg" xmlns="http://www.w3.org/2000/svg" xmlns:xlink="http://www.w3.org/1999/xlink" x="0px" y="0px"
	 viewBox="0 0 400 344.6" style="enable-background:new 0 0 400 344.6;" xml:space="preserve">
<style type="text/css">
	.st0{fill-rule:evenodd;clip-rule:evenodd;fill:#FFFFFF;stroke:#FFFFFF;stroke-miterlimit:10;}
</style>
<g id="svgg">
	<path id="path0" class="st0" d="M17.5,17.8c-0.7,0.9-0.7,297,0,297.8c0.4,0.5,13.2,0.6,176.4,0.6c165.9,0,180.1-0.1,180.9-0.9
		c0.4-0.4,0.4-253.2,0-254.6c-0.7-2.5,10.1-2.2-124.2-2.4c-118.6-0.2-121.6-0.2-122.6-0.8c-1.3-0.8-2.2-1.8-2.2-2.3
		c0-0.2-0.2-0.4-0.3-0.4c-0.2,0-0.4-0.4-0.5-0.8c-0.1-0.4-0.6-1-1-1.2c-0.8-0.4-0.9-0.8-2.1-5c-0.4-1.2-1-2.5-1.6-3.1
		c-1-1-1.7-2.9-2.7-6.5c-0.2-0.9-0.6-1.6-0.8-1.6c-0.7,0-2-2.4-2.7-5.1c-0.5-1.8-1-2.9-1.7-3.7c-1.1-1.1-2.4-4.2-2.4-5.6
		c0-0.4-0.3-1.1-0.8-1.5s-1.5-1.3-2.3-2.1l-1.5-1.4H61.7C21.5,17.2,18,17.3,17.5,17.8 M99.9,24.7c1.8,0.5,3.9,2.5,3.9,3.6
		c0,0.8,1.1,3,1.8,3.4c0.9,0.6,1.9,2.8,2.4,5.2c0.3,1.6,0.8,2.5,1.7,3.6c1.2,1.3,2,3.3,2,4.6c0,0.7,1.8,4,2.1,4
		c0.4,0,1.5,2.6,2.2,4.8c0.3,1,1,2.4,1.6,3c1.1,1.2,2.1,3.2,2.1,4.4c0,0.4,0.2,1,0.5,1.2c0.3,0.2,0.5,0.6,0.5,0.9
		c0,0.3,0.3,0.5,0.6,0.5c0.4,0,1.2,0.4,1.9,0.9l1.3,0.9h118.9c133.7,0,120.7-0.3,122.9,2.5l0.9,1.2v115.2v115.2l-0.9,1.4
		c-0.5,0.8-1.6,1.8-2.4,2.3l-1.5,0.9l-164.4,0c-142.3,0-164.6-0.1-165.8-0.5c-0.8-0.3-1.6-0.5-1.9-0.5c-0.5,0-1.1-0.5-2.2-2.1
		c-0.6-0.8-0.6-8.5-0.6-136.5V28.9l0.9-1.7c0.5-1,1.1-1.8,1.5-1.9c0.3-0.1,1.1-0.4,1.6-0.7C33.2,23.9,97.4,23.9,99.9,24.7
		 M192.4,127.9c-3,0.2-5.1,0.8-5.1,1.4c0,0.6-1.8,2-2.5,2c-0.4,0-0.7,0.2-0.8,0.5c-0.1,0.3-0.4,0.5-0.7,0.5c-0.3,0-0.5,0.1-0.5,0.3
		c0,0.2-0.7,1-1.6,1.9c-1.2,1.2-1.7,2.1-2.1,3.3c-0.4,1.6-1.8,4.1-2.6,4.6c-0.6,0.3-0.9,6.1-0.6,10.4l0.2,3.7l1.3,1.1
		c0.7,0.6,1.3,1.4,1.3,1.7c0,0.5,1.6,5.3,1.8,5.4c1.1,0.3,3,1.8,3.5,2.7c0.6,1,1,1.3,3.3,2c1.4,0.4,3.5,1,4.5,1.3
		c1,0.3,2.5,0.8,3.3,1.2c1.8,0.8,4.9,0.8,6,0.1c0.4-0.3,1.3-0.7,1.9-0.8c6.2-1.6,8.2-2.4,9.2-3.9c0.4-0.6,1.4-1.7,2.3-2.5
		c1.5-1.3,2.9-3.8,2.9-5.1c0-0.8,0.9-2.7,1.3-2.7c0.2,0,0.4-0.3,0.5-0.6c0.1-0.3,0.5-1.1,0.8-1.6c1.2-2.3,1-9.5-0.4-11.1
		c-1.3-1.6-2.2-3.4-2.4-5c-0.2-1.6-0.6-2.2-2.5-3.7c-0.6-0.5-1.1-1.1-1.1-1.4c0-0.6-1.5-1.9-2.6-2.1c-0.4-0.1-1-0.6-1.4-1.2
		C208.1,127.9,202.1,127.1,192.4,127.9 M205.2,135c0.7,0.5,1.3,1.1,1.3,1.4c0,0.3,0.7,0.8,1.5,1.2c1.8,0.9,2.8,1.9,3.4,3.8
		c0.3,0.8,0.7,1.5,1.1,1.7c2.8,0.9,2.9,10.4,0.1,12.6c-0.4,0.3-0.9,1.3-1.2,2.1c-0.3,1-0.8,1.8-1.4,2.2c-0.5,0.3-1.5,1.2-2.1,1.9
		c-1.8,1.9-5.1,2.8-9.7,2.9c-4.4,0-10-1.5-10-2.8c0-0.3-0.1-0.5-0.3-0.5c-0.9,0-3.5-3.1-3.5-4.2c0-0.3-0.5-1.1-1.2-1.7
		c-2.7-2.5-2.5-9.8,0.3-12.8c0.8-0.9,1.6-2.1,1.7-2.6c0.2-1,1.8-2.5,2.6-2.5c0.2,0,1.1-0.8,2-1.7c1.9-2,2.4-2.1,9.6-1.9
		C203.5,134.1,204,134.2,205.2,135 M180.2,183.9c-2.6,0.3-4.2,0.5-4.3,0.8c-0.1,0.2-0.3,0.4-0.5,0.4c-0.2,0-0.6,0.2-0.9,0.5
		c-0.6,0.5-2.9,1-7.1,1.6c-3.9,0.6-5.7,1-6.1,1.7c-0.6,0.8-3.1,2.4-3.8,2.4c-1,0-2.3,0.8-2.6,1.5c-0.2,0.7-1.5,1.9-2,1.9
		c-0.7,0-5.1,4.9-5.7,6.4c-0.4,1-1.1,1.8-1.9,2.3c-0.9,0.5-1.2,1-1.2,1.6c0,0.5-0.1,1.4-0.3,2.1c-0.2,0.7-0.4,1.7-0.5,2.1
		c-0.1,0.5-0.8,1.9-1.6,3.1l-1.4,2.2l-0.4,8.7c-0.4,7.7-0.4,8.7,0.1,9.3c0.5,0.6,3.7,0.6,58.2,0.6h57.7l0.2-0.7
		c0.6-1.8-0.2-10-1.2-12c-1-2.1-1.4-3.8-2.3-9.6c-0.5-3.7-0.7-4-1.7-5c-0.6-0.6-1.2-1.2-1.2-1.4c0-0.2-0.2-0.5-0.5-0.8
		c-0.3-0.3-0.6-1.2-0.7-2.1c-0.2-1.4-0.4-1.6-1.5-2.2c-0.8-0.4-1.5-1.1-2-2c-0.4-0.9-1.3-1.7-2.2-2.3c-0.9-0.5-1.8-1.4-2.1-2
		c-0.4-0.8-0.9-1.2-2.1-1.5c-0.9-0.2-1.8-0.5-2.1-0.7c-0.3-0.2-1-0.6-1.6-0.9c-0.6-0.3-1.1-0.8-1.1-1.1c0-0.7-1-1-5.2-1.7
		c-6.4-1-8.3-1.5-10-2.8C217.2,183.5,189.5,183,180.2,183.9 M216.7,190.1c2,0.4,3.6,1.1,4,1.7c0.4,0.5,3.2,1.3,4.4,1.3
		c2.5,0,5,0.9,6,2.2c0.5,0.7,1.2,1.2,1.5,1.2c1.4,0,4.5,1.9,5.6,3.3c0.6,0.8,1.4,1.6,1.7,1.8c1.2,0.4,3.5,4,3.5,5.4
		c0,0.2,0.6,0.9,1.3,1.5c1.4,1.1,2.2,3.3,2.2,6c0,1.5,0.5,3.2,1.6,4.9c2.2,3.5,1.3,6.5-2.1,7.4c-2.2,0.6-96.7,0.6-98.3,0
		c-2.9-1-3-9.1-0.1-12.1c0.7-0.7,1.7-3.6,1.7-4.8c0-1.3,1.1-3.4,2.3-4.1c0.7-0.5,1.3-1.2,1.6-2c0.5-1.7,0.9-2.1,2.4-2.8
		c0.7-0.3,1.4-0.9,1.6-1.3c0.7-1.3,1.2-1.7,3.3-2.6c1.1-0.4,2.2-1.1,2.4-1.5c0.7-1.2,3.9-2.4,7.6-2.7c1.7-0.2,2.6-0.5,4-1.4
		c1-0.6,2.3-1.3,3-1.4C182,189.3,212.4,189.3,216.7,190.1"/>
	<path id="path1" class="st0" d="M17.1,17.1L16.2,18v148.8v148.8l0.9,0.7l0.9,0.7l178-0.1c169.7-0.1,178-0.1,178.9-0.7l0.9-0.6
		V187.8c0-137.9,0.1-129.4-1.6-130.6c-0.2-0.1-55.5-0.3-122.9-0.3l-122.5,0l-1.2-1c-0.6-0.6-1.4-1.6-1.8-2.2
		c-0.4-0.7-0.8-1.2-0.9-1.2c-0.1,0-0.3-0.2-0.3-0.5c0-0.3-0.1-0.5-0.3-0.5c-0.4,0-1.3-2-1.8-4c-0.4-1.7-1.4-3.6-2.2-4.4
		c-0.5-0.5-1.5-2.8-1.5-3.6c0-0.7-1.5-3.8-2.5-5.1c-0.4-0.6-1.1-2-1.4-3.1c-0.8-2.4-1.6-4.3-2-4.3c-0.1,0-0.3-0.2-0.3-0.4
		c0-0.2-0.2-0.6-0.4-0.8c-0.2-0.2-0.6-1.1-0.9-2c-1.1-3.7-2.5-5.5-5-6.9c-1.3-0.7-2.1-0.7-44.9-0.7H18L17.1,17.1 M106.9,18.6
		c0.8,0.8,1.9,1.7,2.3,2.1s0.8,1,0.8,1.5c0,1.4,1.3,4.5,2.4,5.6c0.7,0.8,1.3,1.9,1.7,3.7c0.7,2.6,2,5,2.7,5.1c0.2,0,0.6,0.7,0.8,1.6
		c0.9,3.6,1.7,5.5,2.7,6.5c0.6,0.6,1.2,1.9,1.6,3.1c1.2,4.2,1.4,4.6,2.1,5c0.4,0.2,0.9,0.8,1,1.2c0.1,0.5,0.4,0.8,0.5,0.8
		c0.2,0,0.3,0.2,0.3,0.4c0,0.5,1,1.5,2.2,2.3c1,0.6,4,0.7,122.6,0.8c134.2,0.2,123.5,0,124.2,2.4c0.4,1.4,0.4,254.2,0,254.6
		c-0.8,0.8-15,0.9-180.9,0.9c-163.2,0-175.9,0-176.4-0.6c-0.7-0.9-0.7-297,0-297.8c0.4-0.5,3.9-0.6,44.2-0.6h43.7L106.9,18.6
		 M31.6,24.7c-0.6,0.3-1.3,0.6-1.6,0.7c-0.3,0.1-1,1-1.5,1.9l-0.9,1.7v135.6c0,128,0,135.7,0.6,136.5c1.1,1.5,1.6,2.1,2.2,2.1
		c0.3,0,1.1,0.2,1.9,0.5c1.2,0.4,23.5,0.5,165.8,0.5l164.4,0l1.5-0.9c0.8-0.5,1.9-1.5,2.4-2.3l0.9-1.4V184.4V69.3l-0.9-1.2
		c-2.1-2.8,10.8-2.5-122.9-2.5H124.5l-1.3-0.9c-0.7-0.5-1.6-0.9-1.9-0.9c-0.4,0-0.6-0.2-0.6-0.5c0-0.3-0.2-0.7-0.5-0.9
		c-0.3-0.2-0.5-0.8-0.5-1.2c0-1.2-1-3.2-2.1-4.4c-0.6-0.6-1.3-1.9-1.6-3c-0.7-2.3-1.8-4.8-2.2-4.8c-0.4,0-2.1-3.3-2.1-4
		c0-1.3-0.9-3.2-2-4.6c-0.9-1.1-1.4-2-1.7-3.6c-0.5-2.4-1.5-4.5-2.4-5.2c-0.6-0.5-1.8-2.6-1.8-3.4c0-1.1-2.1-3-3.9-3.6
		C97.4,23.9,33.2,23.9,31.6,24.7 M99.9,26.3c1.8,0.5,2.9,1.6,3.6,3.9c0.3,0.8,0.9,1.9,1.3,2.6c1,1.4,1.4,2.1,2.6,5.5
		c0.5,1.4,1.4,3.2,1.9,3.9c1,1.3,1.3,2.1,2.1,4.8c0.3,0.9,1,2.2,1.6,3.1c0.6,0.9,1.6,2.8,2.2,4.4c0.6,1.6,1.4,3.2,1.9,3.7
		c0.4,0.5,1.1,1.5,1.4,2.3c1.6,3.9,2.1,4.6,3.8,5.5c1.2,0.6,4.4,0.6,120.7,0.6c130.6,0,119.8-0.2,122,1.7c0.6,0.5,0.6,6.4,0.6,116.2
		v115.7l-1.1,1l-1.1,1H197.8c-183.3,0-167.2,0.2-168.6-2.1C28.4,299,28.3,30.8,29.1,29c0.3-0.6,1.1-1.5,2-2.1l1.5-1l32.8,0
		C90.6,25.9,98.6,26,99.9,26.3 M191.7,126.8c-3.8,0.9-4.7,1.2-5.6,2.1c-0.5,0.5-1,0.8-1.2,0.8s-0.4,0.1-0.4,0.3s-0.3,0.4-0.6,0.5
		c-0.6,0.2-1.8,1.1-3.5,2.7c-0.4,0.4-1.3,1.8-1.9,3.1c-0.6,1.3-1.5,2.8-1.9,3.3c-2.8,3.5-2.3,18.7,0.6,21.2c0.5,0.4,1.3,2,1.6,3
		c0.2,1,2,2.8,2.8,2.8c0.2,0,0.7,0.5,1.1,1.2c0.7,1.1,3,2.6,3.9,2.6c0.2,0,1.7,0.6,3.2,1.3c5.6,2.7,12.1,2.7,16.2,0.2
		c0.7-0.4,1.4-0.8,1.6-0.8c1.3,0,5.1-2,5.7-2.9c0.4-0.6,1.3-1.7,2.1-2.3c1.1-0.9,1.7-1.8,2.6-4.1c0.6-1.6,1.5-3.2,1.8-3.6
		c2.3-2.4,2.2-15,0-17.6c-0.7-0.8-1.5-2.3-2.1-3.9c-0.2-0.7-0.7-1.5-1-1.8c-0.3-0.3-0.7-0.8-0.9-1.1c-1.3-2.1-7.6-6.5-9.3-6.5
		c-0.4,0-1.7-0.2-2.8-0.5C201,126.1,194.7,126.1,191.7,126.8 M203.3,127.9c4.3,0.4,5.2,0.7,6.2,2.2c0.4,0.6,1,1.1,1.4,1.2
		c1.1,0.2,2.6,1.4,2.6,2.1c0,0.3,0.5,1,1.1,1.4c1.9,1.5,2.3,2.1,2.5,3.7c0.2,1.7,1.1,3.5,2.4,5c1.4,1.7,1.6,8.9,0.4,11.1
		c-0.3,0.6-0.7,1.3-0.8,1.6c-0.1,0.3-0.4,0.6-0.5,0.6c-0.4,0-1.3,1.9-1.3,2.7c0,1.3-1.4,3.8-2.9,5.1c-0.8,0.7-1.8,1.9-2.3,2.5
		c-1,1.5-3,2.3-9.2,3.9c-0.6,0.2-1.4,0.5-1.9,0.8c-1.1,0.8-4.2,0.7-6-0.1c-0.8-0.3-2.2-0.9-3.3-1.2c-1-0.3-3.1-0.9-4.5-1.3
		c-2.3-0.7-2.7-0.9-3.3-2c-0.5-0.9-2.4-2.3-3.5-2.7c-0.2-0.1-1.8-4.9-1.8-5.4c0-0.3-0.6-1.1-1.3-1.7l-1.3-1.1l-0.2-3.7
		c-0.3-4.3,0.1-10,0.6-10.4c0.8-0.5,2.2-2.9,2.6-4.6c0.3-1.2,0.9-2.1,2.1-3.3c0.9-0.9,1.6-1.7,1.6-1.9c0-0.2,0.2-0.3,0.5-0.3
		c0.3,0,0.6-0.2,0.7-0.5c0.1-0.3,0.5-0.5,0.8-0.5c0.7,0,2.5-1.5,2.5-2C187.2,128,195.6,127.3,203.3,127.9 M193.5,134
		c-1.7,0.1-2,0.3-3.5,1.9c-0.9,0.9-1.8,1.7-2,1.7c-0.8,0-2.4,1.5-2.6,2.5c-0.1,0.5-0.9,1.7-1.7,2.6c-2.8,3-3,10.3-0.3,12.8
		c0.7,0.6,1.2,1.4,1.2,1.7c0,1.1,2.6,4.2,3.5,4.2c0.1,0,0.3,0.2,0.3,0.5c0,1.2,5.6,2.8,10,2.8c4.5,0,7.8-1,9.7-2.9
		c0.7-0.7,1.6-1.5,2.1-1.9c0.6-0.4,1.1-1.2,1.4-2.2c0.3-0.9,0.8-1.8,1.2-2.1c2.8-2.2,2.7-11.7-0.1-12.6c-0.4-0.1-0.8-0.8-1.1-1.7
		c-0.6-1.9-1.5-2.9-3.4-3.8c-0.8-0.4-1.5-0.9-1.5-1.2C206.6,134.5,200.6,133.4,193.5,134 M201.9,135.4c1.3,0.3,2.5,1,3.4,1.7
		c0.8,0.7,1.8,1.3,2.2,1.4c0.4,0.1,0.8,0.3,0.8,0.5c0,0.2,0.2,0.3,0.5,0.3c0.3,0,0.5,0.2,0.5,0.5c0,0.3,0.2,0.5,0.3,0.5
		c0.2,0,0.3,0.2,0.3,0.4s0.6,1.5,1.2,2.8c2.1,4.2,2.3,4.8,1.7,7.4c-0.3,1.2-0.6,2.4-0.8,2.5c-0.2,0.1-0.7,1.3-1.3,2.6
		c-0.5,1.3-1.4,2.6-1.8,2.9c-0.5,0.3-1.5,1.2-2.3,2c-0.8,0.8-2,1.6-2.6,1.9c-1.7,0.7-10.8,0.6-12.3-0.1c-1.8-0.8-5.9-4.8-6.4-6.2
		c-0.2-0.7-0.8-1.9-1.4-2.7c-1.4-2-1.7-5.4-0.7-7.7c2-4.3,3.4-6.4,5.1-7.5c0.9-0.6,2.1-1.5,2.7-1.9
		C193.6,134.9,197.9,134.3,201.9,135.4 M185.2,182.6c-8.8,0.7-12.8,1.3-13.6,1.9c-0.6,0.5-4.4,1.6-6.9,2.1c-2.8,0.5-4,1-5.8,2.6
		c-0.7,0.6-1.6,1.2-1.8,1.2c-0.7,0-3.2,1.6-4.7,3.1c-0.7,0.7-1.4,1.3-1.5,1.3c-0.1,0-2.1,2-3,3c-0.3,0.4-0.8,1.2-1.2,1.8
		c-0.4,0.7-1.1,1.6-1.6,2c-1.1,1-1.3,1.4-2.5,5c-0.5,1.5-1.1,2.8-1.2,2.9c-0.9,0.6-2.4,5.7-2.4,8.1c0,0.9-0.1,3-0.3,4.7
		c-0.2,1.6-0.4,4.5-0.5,6.3l-0.2,3.4l1.1,1.2l1.1,1.2H198h57.8l0.8-1.3c1.1-1.9,0.1-16-1.3-17.7c-0.3-0.3-0.5-0.8-0.5-1
		s-0.2-1.1-0.5-1.9c-0.3-0.8-0.7-2.3-0.9-3.5c-0.5-2.4-1.5-4.7-2.4-5.5c-0.4-0.3-1-1.3-1.4-2.2c-0.4-0.9-1.4-2.4-2.3-3.3
		c-0.9-0.9-2.1-2.3-2.8-3c-0.7-0.7-1.4-1.3-1.5-1.3c-0.4,0-1.3-0.9-1.3-1.3c0-0.4-2.6-2-3.7-2.3c-0.4-0.1-1.1-0.5-1.4-0.9
		c-1-1.1-3.1-2.1-5.7-2.6c-3-0.6-6.1-1.6-6.7-2C222.2,183.2,195.3,181.8,185.2,182.6 M213.1,183.8c2.8,0.2,5.3,0.6,5.6,0.8
		c1.7,1.3,3.6,1.8,10,2.8c4.1,0.6,5.2,1,5.2,1.7c0,0.3,0.5,0.7,1.1,1.1c0.6,0.3,1.4,0.7,1.6,0.9c0.3,0.2,1.2,0.5,2.1,0.7
		c1.2,0.3,1.7,0.6,2.1,1.5c0.3,0.6,1.2,1.5,2.1,2c1,0.6,1.8,1.4,2.2,2.3c0.5,0.9,1.2,1.6,2,2c1.1,0.5,1.3,0.8,1.5,2.2
		c0.1,0.9,0.4,1.8,0.7,2.1c0.3,0.3,0.5,0.6,0.5,0.8c0,0.2,0.5,0.8,1.2,1.4c1.1,1,1.2,1.3,1.7,5c0.9,5.9,1.3,7.5,2.3,9.6
		c1,2,1.8,10.2,1.2,12l-0.2,0.7h-57.7c-54.5,0-57.7,0-58.2-0.6c-0.5-0.5-0.5-1.5-0.1-9.3l0.4-8.7l1.4-2.2c0.8-1.2,1.5-2.6,1.6-3.1
		c0.1-0.5,0.3-1.5,0.5-2.1c0.2-0.7,0.3-1.6,0.3-2.1c0-0.6,0.3-1.1,1.2-1.6c0.8-0.5,1.5-1.3,1.9-2.3c0.6-1.4,5-6.4,5.7-6.4
		c0.5,0,1.8-1.2,2-1.9c0.2-0.7,1.5-1.5,2.6-1.5c0.7,0,3.2-1.6,3.8-2.4c0.5-0.7,2.2-1.1,6.1-1.7c4.2-0.6,6.5-1.1,7.1-1.6
		c0.3-0.3,0.7-0.5,0.9-0.5c0.2,0,0.4-0.2,0.5-0.4C176.3,183.6,202.2,183,213.1,183.8 M184.5,189.7c-7,0.3-7.7,0.5-9.9,1.9
		c-1.4,0.9-2.3,1.2-4,1.4c-3.7,0.3-6.9,1.5-7.6,2.7c-0.2,0.4-1.3,1.1-2.4,1.5c-2.1,0.8-2.6,1.2-3.3,2.6c-0.2,0.4-0.9,1-1.6,1.3
		c-1.5,0.7-1.8,1.1-2.4,2.8c-0.3,0.8-0.8,1.5-1.6,2c-1.1,0.7-2.3,2.7-2.3,4.1c0,1.2-1,4-1.7,4.8c-2.8,3.1-2.8,11.1,0.1,12.1
		c1.6,0.6,96.1,0.6,98.3,0c3.4-0.9,4.3-3.9,2.1-7.4c-1.1-1.7-1.6-3.4-1.6-4.9c0-2.7-0.8-4.9-2.2-6c-0.7-0.6-1.3-1.2-1.3-1.5
		c0-1.4-2.3-4.9-3.5-5.4c-0.3-0.1-1.1-0.9-1.7-1.8c-1.1-1.5-4.2-3.3-5.6-3.3c-0.3,0-1-0.5-1.5-1.2c-1.1-1.3-3.5-2.2-6-2.2
		c-1.2,0-4.1-0.8-4.4-1.3C219.2,189.8,202,188.8,184.5,189.7 M212.2,191.1c1.7,0.3,4,0.8,5,1.2c1,0.4,3,0.9,4.3,1.1s3,0.6,3.8,0.8
		c0.8,0.2,1.8,0.4,2.2,0.5c0.5,0.1,1.2,0.6,1.7,1c0.9,0.8,4.1,2.5,4.8,2.5c1.1,0,6.9,6.4,8.1,8.8c0.7,1.4,1.6,2.8,1.9,3.3
		c0.9,0.9,1.7,3.1,2.1,5.7c0.7,4.6,1,5.9,1.3,6.9c0.5,1.2-0.1,2-2.3,3c-1.7,0.8-91.3,1.1-94.9,0.3c-3.8-0.8-4.2-2-2.3-7.4
		c0.7-1.9,1.5-4.6,1.9-6c0.8-3.1,1.6-4.8,2.4-5.3c0.4-0.2,0.7-0.6,0.7-0.9c0-0.2,0.1-0.4,0.3-0.4c0.2,0,0.4-0.4,0.5-0.8
		c0.2-0.9,2.5-3.7,3-3.7c0.2,0,1-0.8,1.9-1.7c0.9-0.9,1.8-1.7,2-1.7c0.3,0,0.8-0.1,1.1-0.3c0.3-0.2,1.2-0.6,1.9-0.9s1.6-0.9,2-1.3
		c0.8-0.7,4.3-1.9,5.7-1.9c1,0,3.4-0.6,6.5-1.6c1.3-0.4,3.9-0.9,5.7-1.2c1.8-0.2,3.7-0.4,4.1-0.5
		C190.2,190.2,209.3,190.6,212.2,191.1"/>
	<path id="path2" class="st0" d="M16.9,16.8c-1.5,1.5-1.4-4-1.3,152.2l0.1,146.1l0.7,1l0.7,1l178.7,0.1l178.7,0.1l0.8-0.7
		c1.2-1.1,1.2-0.4,1.2-131.4c0-134,0.1-127-1.8-128.4l-1-0.7l-122.6-0.1c-115.9-0.1-122.7-0.1-123.3-0.7c-0.4-0.3-1-1.2-1.4-2
		c-0.4-0.8-1.1-1.7-1.5-2.2c-0.4-0.4-1.3-2.3-1.9-4.1c-0.6-1.8-1.3-3.6-1.7-3.9c-0.9-0.8-1.5-1.9-2.2-4.3c-0.7-2.5-1.4-4-1.7-4
		c-0.4,0-1.7-2.9-2.6-5.4c-0.4-1.2-1-2.5-1.4-2.9c-1-1.2-1.7-2.6-2.4-4.9c-0.8-2.5-2.9-4.8-4.9-5.3c-0.9-0.3-15-0.4-44.9-0.4
		l-43.6,0L16.9,16.8 M106.4,16.9c2.6,1.3,3.9,3.2,5,6.9c0.2,0.8,0.7,1.7,0.9,2c0.2,0.2,0.4,0.6,0.4,0.8c0,0.2,0.1,0.4,0.3,0.4
		c0.4,0,1.3,1.9,2,4.3c0.4,1.1,1,2.5,1.4,3.1c1,1.3,2.5,4.5,2.5,5.1c0,0.7,1,3,1.5,3.6c0.9,0.9,1.8,2.7,2.2,4.4c0.5,1.9,1.4,4,1.8,4
		c0.1,0,0.3,0.2,0.3,0.5c0,0.3,0.1,0.5,0.3,0.5c0.1,0,0.6,0.5,0.9,1.2c0.4,0.7,1.2,1.7,1.8,2.2l1.2,1l122.5,0
		c67.4,0,122.7,0.1,122.9,0.3c1.7,1.2,1.6-7.3,1.6,130.6v127.7l-0.9,0.6c-0.9,0.6-9.2,0.6-178.9,0.7l-178,0.1l-0.9-0.7l-0.9-0.7
		V166.7V18l0.9-0.9l0.9-0.9h43.5C104.2,16.2,105.1,16.2,106.4,16.9 M31.1,26.9c-0.9,0.6-1.7,1.5-2,2.1c-0.8,1.9-0.7,270,0.1,271.2
		c1.5,2.2-14.6,2.1,168.6,2.1h165.6l1.1-1l1.1-1V184.5c0-109.8,0-115.7-0.6-116.2c-2.2-1.9,8.6-1.7-122-1.7
		c-116.3,0-119.5,0-120.7-0.6c-1.7-0.9-2.2-1.6-3.8-5.5c-0.3-0.8-1-1.9-1.4-2.3c-0.4-0.5-1.3-2.1-1.9-3.7c-0.6-1.6-1.6-3.6-2.2-4.4
		c-0.6-0.9-1.3-2.2-1.6-3.1c-0.8-2.6-1.1-3.4-2.1-4.8c-0.5-0.7-1.4-2.4-1.9-3.9c-1.3-3.4-1.6-4.1-2.6-5.5c-0.5-0.7-1.1-1.8-1.3-2.6
		c-1.5-4.6,0.8-4.3-38.1-4.3l-32.8,0L31.1,26.9 M99,26.9c2.9,0.5,3.3,0.9,4.5,4.6c0.2,0.8,0.6,1.5,0.8,1.8c1.1,1.1,1.6,1.9,1.9,3.1
		c1.2,3.6,1.6,4.6,2.6,6c0.6,0.9,1.4,2.4,1.7,3.4c1,3.1,1.6,4.4,2.3,5c0.4,0.3,0.6,0.8,0.6,1c0,0.2,0.2,0.6,0.5,0.9
		c0.3,0.2,0.5,0.8,0.5,1.2c0,0.4,0.2,1.2,0.5,1.7c0.3,0.5,0.5,1.2,0.5,1.5c0,0.3,0.2,0.5,0.3,0.5s0.3,0.1,0.3,0.3
		c0,0.2,0.3,0.7,0.8,1.2c0.4,0.5,1.1,1.6,1.4,2.5c1.4,3.6,2,4.4,4.1,5.1c1.3,0.5,15.1,0.5,120.8,0.5l119.3,0l1.3,1.1l1.3,1.1v115
		v115l-1.3,1.3l-1.3,1.3H198.4c-177.8,0-165.5,0.1-168.1-1.7l-1-0.7V164.5V29.5l1-0.9c0.9-0.8,2.1-1.5,3.2-1.8
		C34.5,26.4,96.7,26.6,99,26.9 M195.2,125.4c-2.8,0.4-7.9,1.9-9,2.5c-3.5,2.1-7.6,5.8-7.6,6.9c0,0.2-0.1,0.4-0.3,0.4
		c-0.2,0-0.5,0.5-0.7,1.2c-0.2,0.6-0.9,1.8-1.5,2.7c-2.8,3.8-2.6,18.2,0.3,21.7c0.2,0.3,0.9,1.5,1.5,2.7c0.7,1.3,1.7,2.6,2.5,3.3
		c0.8,0.6,1.6,1.3,1.7,1.6c0.5,0.8,2.1,2.2,2.6,2.2c0.3,0,2.1,0.8,4.1,1.8l3.6,1.8l5.7,0c5.5,0,5.7,0,7.1-0.9c0.8-0.5,2.6-1.4,4.1-2
		c2.8-1.2,7-4.8,8-6.9c0.2-0.5,0.9-1.9,1.5-3.2s1.2-2.3,1.4-2.3c2.1,0,2.2-15.5,0.1-18.3c-1.1-1.5-2.4-4-2.4-4.6
		c0-0.3-0.2-0.5-0.3-0.5c-0.2,0-0.3-0.2-0.3-0.5c0-0.5-4.5-5.1-5-5.1c-0.1,0-0.5-0.3-0.8-0.6C209.4,126.7,200,124.6,195.2,125.4
		 M203.6,126.7c1.1,0.3,2.3,0.5,2.8,0.5c1.7,0,8,4.4,9.3,6.5c0.2,0.3,0.6,0.8,0.9,1.1c0.3,0.3,0.8,1.1,1,1.8
		c0.6,1.7,1.4,3.1,2.1,3.9c2.3,2.6,2.3,15.2,0,17.6c-0.4,0.4-1.2,2-1.8,3.6c-0.9,2.2-1.5,3.1-2.6,4.1c-0.8,0.7-1.7,1.7-2.1,2.3
		c-0.6,1-4.3,2.9-5.7,2.9c-0.1,0-0.8,0.4-1.6,0.8c-4.1,2.6-10.6,2.5-16.2-0.2c-1.5-0.7-3-1.3-3.2-1.3c-0.9,0-3.2-1.5-3.9-2.6
		c-0.4-0.7-0.9-1.2-1.1-1.2c-0.8,0-2.6-1.8-2.8-2.8c-0.2-1-1-2.6-1.6-3c-2.9-2.4-3.4-17.7-0.6-21.2c0.4-0.5,1.3-2,1.9-3.3
		c0.6-1.3,1.5-2.7,1.9-3.1c1.6-1.5,2.9-2.5,3.5-2.7c0.3-0.1,0.6-0.3,0.6-0.5s0.2-0.3,0.4-0.3s0.8-0.4,1.2-0.8
		C188.4,126.7,198.6,125.4,203.6,126.7 M195,135.2c-1.8,0.3-2.6,0.7-3.8,1.7c-0.5,0.4-1.8,1.3-2.7,1.9c-1.7,1.1-3.1,3.2-5.1,7.5
		c-1,2.2-0.7,5.6,0.7,7.7c0.6,0.8,1.2,2,1.4,2.7c0.4,1.3,4.6,5.4,6.4,6.2c1.5,0.7,10.6,0.7,12.3,0.1c0.7-0.3,1.9-1.1,2.6-1.9
		c0.8-0.8,1.8-1.7,2.3-2c0.5-0.3,1.3-1.6,1.8-2.9c0.5-1.3,1.1-2.4,1.3-2.6c0.2-0.1,0.5-1.2,0.8-2.5c0.5-2.6,0.4-3.2-1.7-7.4
		c-0.7-1.4-1.2-2.6-1.2-2.8s-0.2-0.4-0.3-0.4c-0.2,0-0.3-0.2-0.3-0.5c0-0.3-0.2-0.5-0.5-0.5c-0.3,0-0.5-0.1-0.5-0.3
		c0-0.2-0.4-0.4-0.8-0.5c-0.4-0.1-1.4-0.7-2.2-1.4C203,135.2,199.1,134.4,195,135.2 M202.8,136.4c0.7,0.4,2,1.2,2.9,1.8
		c0.9,0.6,1.8,1.1,2,1.1c0.3,0,1.7,1.3,1.7,1.6c0,0.1,0.4,1,0.8,2c2.5,5.5,2.5,5.8,2,7.7c-1.5,5.1-3.8,9.1-5.2,9.1
		c-0.2,0-0.4,0.2-0.4,0.4c0,0.5-1.8,2-2.6,2.2c-0.4,0.1-1.5,0.3-2.5,0.5c-4.5,0.9-9,0.1-11.5-2.1c-1-0.9-2.2-1.9-2.6-2.3
		c-0.4-0.4-0.8-0.8-0.8-0.9s-0.6-1.5-1.4-3.1c-1.4-3-1.9-6-1.1-7.6c0.2-0.4,0.5-1,0.7-1.5c0.2-0.4,0.7-1.4,1.1-2.2
		c0.4-0.8,0.9-1.8,1.1-2.3c0.2-0.5,1-1.2,1.8-1.6c0.8-0.4,2.2-1.3,3.3-1.9C194.9,135.3,200.1,134.9,202.8,136.4 M187.9,182.1
		c-1.8,0.2-4.9,0.3-6.8,0.3c-4.1,0-10.6,1.2-12,2.1c-0.6,0.4-4.6,1.6-7,2.1c-1.6,0.3-2.4,0.7-3.4,1.7c-0.7,0.7-1.9,1.5-2.5,1.7
		c-2.3,0.9-8.8,6.7-9.8,8.8c-0.3,0.6-1,1.6-1.6,2.3c-1.2,1.3-2.4,3.5-2.4,4.3c0,0.3-0.1,0.8-0.3,1.1c-0.9,1.8-1.6,3-1.8,3.2
		c-0.6,0.5-1.4,3.7-1.7,7.1c-0.2,2.1-0.6,4.8-0.7,6.1c-0.8,5.4-0.9,9.2-0.1,10.3c1.6,2.2-3.3,2.1,60.3,2.1h57.8l0.9-1.2l0.9-1.2
		l-0.2-6.3c-0.2-6.3-1-11.5-1.9-12.8c-0.3-0.5-1.6-4.5-2.1-6.9c-0.3-1.4-0.8-2.5-1.6-3.4c-0.7-0.8-1.5-2-1.8-2.8
		c-0.6-1.2-1.1-1.9-4.7-5.6c-2.5-2.6-4.7-4.4-6.1-5c-0.8-0.4-1.9-1.1-2.6-1.7c-0.7-0.6-2.1-1.3-3.3-1.6c-5-1.4-6-1.7-6.9-2.1
		c-2.9-1.3-6.4-1.9-12.8-2.3C205.2,181.9,191.6,181.8,187.9,182.1 M216.7,183.2c4.7,0.6,6.9,1,7.5,1.5c0.6,0.4,3.7,1.4,6.7,2
		c2.6,0.5,4.6,1.5,5.7,2.6c0.3,0.3,0.9,0.7,1.4,0.9c1.1,0.3,3.7,2,3.7,2.3c0,0.4,0.9,1.3,1.3,1.3c0.2,0,0.9,0.6,1.5,1.3
		c0.7,0.7,1.9,2.1,2.8,3c0.9,0.9,1.9,2.4,2.3,3.3c0.4,0.9,1,1.9,1.4,2.2c0.9,0.8,1.9,3.1,2.4,5.5c0.2,1.1,0.6,2.7,0.9,3.5
		c0.3,0.8,0.5,1.6,0.5,1.9s0.2,0.7,0.5,1c1.4,1.7,2.4,15.8,1.3,17.7l-0.8,1.3H198h-57.8l-1.1-1.2l-1.1-1.2l0.2-3.4
		c0.1-1.9,0.3-4.7,0.5-6.3c0.2-1.6,0.3-3.7,0.3-4.7c0-2.4,1.5-7.5,2.4-8.1c0.1-0.1,0.7-1.4,1.2-2.9c1.2-3.6,1.4-4,2.5-5
		c0.5-0.5,1.2-1.4,1.6-2c0.4-0.6,0.9-1.5,1.2-1.8c0.9-1,2.8-3,3-3c0.1,0,0.7-0.6,1.5-1.3c1.5-1.5,4-3.1,4.7-3.1
		c0.3,0,1.1-0.5,1.8-1.2c1.8-1.6,3-2.1,5.8-2.6c2.5-0.5,6.3-1.6,6.9-2.1c0.8-0.6,4.8-1.2,13.6-1.9
		C189.2,182.3,212.8,182.8,216.7,183.2 M187.9,190.5c-0.5,0.1-2.3,0.3-4.1,0.5c-1.8,0.2-4.4,0.7-5.7,1.2c-3.2,1-5.5,1.6-6.5,1.6
		c-1.3,0-4.9,1.2-5.7,1.9c-0.4,0.4-1.3,0.9-2,1.3s-1.6,0.8-1.9,0.9c-0.3,0.2-0.8,0.3-1.1,0.3c-0.3,0-1.2,0.8-2,1.7
		c-0.9,0.9-1.7,1.7-1.9,1.7c-0.5,0-2.8,2.8-3,3.7c-0.1,0.4-0.3,0.8-0.5,0.8c-0.2,0-0.3,0.2-0.3,0.4c0,0.2-0.3,0.6-0.7,0.9
		c-0.9,0.6-1.6,2.2-2.4,5.3c-0.4,1.4-1.2,4.1-1.9,6c-1.9,5.4-1.6,6.6,2.3,7.4c3.6,0.8,93.2,0.5,94.9-0.3c2.2-1,2.8-1.8,2.3-3
		c-0.4-1-0.6-2.3-1.3-6.9c-0.4-2.6-1.2-4.8-2.1-5.7c-0.4-0.4-1.2-1.9-1.9-3.3c-1.2-2.4-7.1-8.8-8.1-8.8c-0.7,0-3.9-1.7-4.8-2.5
		c-0.5-0.5-1.3-0.9-1.7-1c-0.5-0.1-1.5-0.4-2.2-0.5c-0.8-0.2-2.5-0.5-3.8-0.8s-3.3-0.7-4.3-1.1C213.2,190.9,193.3,189.7,187.9,190.5
		 M211.7,191.9c1.4,0.3,3.8,0.8,5.2,1.1c1.4,0.4,4.1,0.9,6,1.3c3.2,0.6,5.8,1.5,6.2,2.3c0.1,0.2,1.4,0.9,2.8,1.6
		c4.1,2,10.4,8.5,10.4,10.9c0,0.2,0.3,0.7,0.7,1.1c1.2,1.3,1.9,3.1,2.5,6.6c0.3,1.9,0.7,4.2,0.9,5.1c0.5,2.5,0.5,2.5-1.2,3.3
		l-1.5,0.7l-47-0.1c-48.9-0.1-48.1-0.1-49-1.4c-0.4-0.6,0.5-4.7,1.1-5.6c0.3-0.4,0.9-2.5,1.3-4.8c0.4-2,1.2-4.3,1.5-4.3
		c0.1,0,0.3-0.2,0.3-0.4c0-0.2,0.5-0.9,1.1-1.6c0.6-0.7,1.3-1.6,1.5-2.1c0.6-1.5,1.6-2.8,2.1-2.8c0.2,0,1.1-0.7,2-1.6
		c1.4-1.6,2.1-1.9,5.3-3.4c0.7-0.3,1.6-0.9,2-1.2c1.2-1.2,3.6-1.8,10.6-3.1c1.2-0.2,2.8-0.6,3.4-0.9
		C183.7,191.1,205,190.7,211.7,191.9"/>
</g>
</svg>
