<svg id="svg" version="1.1" xmlns="http://www.w3.org/2000/svg" xmlns:xlink="http://www.w3.org/1999/xlink" width="400" height="337.2549019607843" viewBox="0, 0, 400,337.2549019607843"><g id="svgg"><path id="path0" d="M30.860 24.978 C 29.871 25.143,29.034 25.494,28.836 25.828 C 27.555 27.990,26.722 28.482,24.123 28.613 C 22.740 28.683,21.469 28.914,21.301 29.126 C 20.774 29.787,20.650 261.053,21.175 261.973 C 21.544 262.618,21.897 262.733,23.536 262.743 C 25.450 262.753,27.319 263.739,27.319 264.739 C 27.319 264.934,27.481 265.093,27.680 265.093 C 27.879 265.093,28.253 265.305,28.512 265.564 C 29.396 266.447,37.581 266.485,204.216 266.379 L 370.489 266.273 371.585 265.451 C 372.188 264.999,372.681 264.460,372.681 264.254 C 372.681 264.048,373.288 263.248,374.030 262.476 L 375.379 261.072 375.376 146.978 C 375.373 22.439,375.470 29.577,373.768 28.769 C 373.119 28.462,372.192 27.634,371.708 26.929 C 371.192 26.180,370.337 25.471,369.646 25.219 C 368.268 24.718,33.855 24.481,30.860 24.978 M360.699 37.268 C 362.705 39.553,362.563 32.401,362.563 131.524 C 362.563 231.874,362.753 223.366,360.466 225.601 L 359.400 226.644 200.060 226.644 L 40.720 226.644 39.500 225.900 C 38.829 225.490,38.229 225.035,38.168 224.888 C 38.106 224.741,37.877 224.621,37.659 224.621 C 37.441 224.621,36.847 223.931,36.338 223.089 L 35.413 221.558 35.413 131.573 C 35.413 48.176,35.454 41.504,35.977 40.440 C 36.671 39.026,38.589 37.155,39.956 36.559 C 40.799 36.191,68.887 36.126,200.394 36.185 L 359.810 36.256 360.699 37.268 M256.658 48.402 C 256.425 48.682,255.989 49.403,255.689 50.004 C 255.389 50.605,254.652 51.342,254.051 51.642 C 251.939 52.697,251.939 52.697,251.939 56.998 C 251.939 61.300,251.939 61.300,254.051 62.355 C 254.680 62.669,255.439 63.473,255.840 64.249 C 256.224 64.991,256.831 65.651,257.189 65.715 C 258.070 65.874,259.696 67.446,259.696 68.139 C 259.696 68.805,260.586 69.646,261.627 69.963 C 264.201 70.747,264.201 74.615,261.627 75.399 C 260.584 75.717,259.696 76.558,259.696 77.228 C 259.696 77.918,258.326 79.258,257.619 79.258 C 256.318 79.258,255.987 80.329,255.987 84.529 C 255.987 88.610,256.194 89.376,257.300 89.376 C 257.993 89.376,259.696 91.062,259.696 91.748 C 259.696 93.081,260.741 93.423,264.814 93.423 C 268.751 93.423,269.815 93.085,269.815 91.830 C 269.815 91.228,271.733 89.376,272.358 89.376 C 273.000 89.376,273.834 88.461,273.851 87.737 C 273.885 86.297,275.277 85.678,278.499 85.672 C 281.971 85.665,282.397 85.878,283.482 88.166 C 283.829 88.897,284.298 89.376,284.667 89.376 C 285.415 89.376,287.352 91.254,287.352 91.979 C 287.352 93.092,288.427 93.402,292.323 93.413 C 296.305 93.424,297.470 93.038,297.470 91.708 C 297.470 90.961,299.099 89.376,299.865 89.376 C 300.893 89.376,301.180 88.250,301.180 84.223 C 301.180 80.212,300.847 79.258,299.442 79.258 C 298.799 79.258,297.470 77.859,297.470 77.181 C 297.470 76.552,296.556 75.709,295.540 75.399 C 292.084 74.347,292.562 67.326,296.206 65.611 C 297.131 65.175,297.470 64.807,297.470 64.236 C 297.470 63.455,298.873 62.057,299.656 62.057 C 300.831 62.057,301.180 60.885,301.180 56.940 C 301.180 52.987,300.843 51.939,299.569 51.939 C 298.973 51.939,297.470 50.402,297.470 49.793 C 297.470 48.311,296.328 47.892,292.284 47.892 C 288.123 47.892,288.107 47.899,287.055 50.004 C 286.743 50.628,285.938 51.391,285.175 51.786 C 284.327 52.224,283.590 52.961,283.151 53.809 C 282.757 54.572,281.994 55.377,281.370 55.689 C 279.832 56.457,279.258 56.992,279.258 57.655 C 279.258 60.199,273.911 60.169,273.851 57.625 C 273.835 56.935,273.012 55.987,272.429 55.987 C 271.694 55.987,270.634 54.999,269.895 53.626 C 269.545 52.976,268.799 52.218,268.237 51.939 C 266.903 51.279,266.338 50.679,265.612 49.148 L 265.016 47.892 261.048 47.892 C 257.919 47.892,256.991 48.000,256.658 48.402 M142.580 60.399 C 142.255 60.755,141.990 61.293,141.990 61.597 C 141.990 62.201,140.372 63.743,139.737 63.743 C 138.573 63.744,138.280 64.757,138.280 68.775 C 138.280 72.916,138.603 73.862,140.018 73.862 C 140.296 73.862,140.853 74.213,141.257 74.642 L 141.990 75.423 141.990 96.181 L 141.990 116.940 141.101 117.829 L 140.212 118.718 114.187 118.718 C 87.187 118.718,87.352 118.710,87.352 120.072 C 87.352 120.742,85.643 122.428,84.964 122.428 C 83.693 122.428,83.305 123.641,83.305 127.608 C 83.305 131.488,83.649 132.546,84.908 132.546 C 85.470 132.546,87.352 134.551,87.352 135.149 C 87.352 136.575,87.284 136.572,114.373 136.583 C 139.995 136.594,140.220 136.599,141.101 137.293 L 141.990 137.992 141.990 156.998 L 141.990 176.005 141.101 176.704 C 140.612 177.088,140.029 177.403,139.804 177.403 C 138.627 177.403,138.280 178.574,138.280 182.549 C 138.280 186.562,138.574 187.521,139.804 187.521 C 140.469 187.521,141.990 189.015,141.990 189.668 C 141.990 190.380,143.178 191.568,143.890 191.568 C 144.530 191.568,146.037 193.083,146.037 193.726 C 146.037 194.930,147.184 195.278,151.155 195.278 C 155.107 195.278,156.155 194.940,156.155 193.667 C 156.155 193.459,156.514 192.902,156.953 192.429 L 157.750 191.568 189.668 191.568 C 224.743 191.568,222.934 191.672,222.934 189.668 C 222.934 189.015,224.455 187.521,225.120 187.521 C 226.355 187.521,226.644 186.565,226.644 182.490 C 226.644 178.470,226.312 177.403,225.061 177.403 C 224.369 177.403,222.934 175.990,222.934 175.308 C 222.934 173.675,223.717 173.715,191.884 173.704 L 162.015 173.693 161.109 172.747 L 160.202 171.801 160.202 154.896 L 160.202 137.992 161.091 137.293 C 161.974 136.598,162.165 136.594,189.886 136.594 C 220.615 136.594,218.037 136.779,219.185 134.482 C 219.485 133.881,220.222 133.144,220.822 132.844 C 222.928 131.792,222.934 131.776,222.934 127.615 C 222.934 123.604,222.514 122.428,221.079 122.428 C 220.368 122.428,219.328 121.306,218.743 119.907 L 218.247 118.718 190.114 118.718 L 161.981 118.718 161.092 117.829 L 160.202 116.940 160.202 98.162 L 160.202 79.384 161.146 78.480 L 162.090 77.576 188.207 77.489 L 214.325 77.403 214.795 76.391 C 215.438 75.006,216.529 73.862,217.207 73.862 C 218.548 73.862,218.887 72.822,218.887 68.716 C 218.887 64.730,218.591 63.744,217.395 63.744 C 216.813 63.744,214.840 61.828,214.840 61.264 C 214.840 59.638,216.182 59.694,178.388 59.725 C 144.130 59.752,143.154 59.770,142.580 60.399 M295.524 107.201 C 295.103 107.321,294.139 107.947,293.383 108.592 C 292.571 109.284,291.296 109.945,290.270 110.205 C 288.410 110.677,287.530 111.506,287.215 113.081 C 287.110 113.609,286.413 114.664,285.668 115.424 C 284.923 116.184,283.855 117.777,283.294 118.963 C 282.734 120.150,281.754 121.641,281.118 122.277 C 280.482 122.913,279.777 124.051,279.550 124.806 C 277.930 130.214,271.301 132.234,269.752 127.791 C 269.536 127.170,269.054 126.725,268.343 126.491 C 267.103 126.082,266.408 125.361,265.592 123.642 L 265.016 122.428 261.048 122.428 C 256.744 122.428,256.744 122.428,255.689 124.540 C 255.389 125.141,254.652 125.878,254.051 126.178 C 251.939 127.233,251.939 127.233,251.939 131.535 C 251.939 135.836,251.939 135.836,254.051 136.891 C 254.680 137.205,255.439 138.009,255.840 138.786 C 256.224 139.527,256.831 140.187,257.189 140.252 C 258.077 140.411,259.696 141.984,259.696 142.686 C 259.696 143.346,260.273 143.881,261.808 144.648 C 262.409 144.948,263.146 145.685,263.446 146.286 C 264.202 147.799,264.747 148.398,265.369 148.398 C 266.074 148.398,267.791 150.068,267.791 150.754 C 267.791 151.980,268.452 152.108,274.790 152.108 L 280.979 152.108 281.475 150.920 C 282.060 149.521,283.100 148.398,283.811 148.398 C 284.479 148.398,285.666 147.191,285.666 146.513 C 285.666 145.857,286.810 144.841,288.280 144.194 C 288.972 143.889,289.376 143.470,289.376 143.059 C 289.376 142.317,291.289 140.304,291.994 140.304 C 292.647 140.304,293.352 139.525,293.602 138.528 C 293.731 138.016,294.296 137.435,295.035 137.054 C 297.367 135.852,297.470 135.674,297.470 132.867 C 297.470 130.186,298.170 128.836,299.559 128.836 C 300.177 128.836,300.723 128.235,301.478 126.724 C 301.778 126.124,302.515 125.387,303.116 125.087 C 304.654 124.318,305.228 123.784,305.228 123.120 C 305.228 122.432,306.364 121.343,307.757 120.697 L 308.769 120.228 308.864 116.055 C 308.964 111.650,308.661 110.624,307.258 110.624 C 306.567 110.624,305.228 109.253,305.228 108.547 C 305.228 107.087,298.957 106.218,295.524 107.201 M271.641 163.130 C 270.721 164.914,270.093 165.599,269.378 165.599 C 268.622 165.599,267.791 166.373,267.791 167.077 C 267.791 167.781,266.209 169.307,265.067 169.705 C 264.508 169.900,263.998 170.410,263.803 170.969 C 263.405 172.111,261.879 173.693,261.175 173.693 C 260.470 173.693,259.696 174.524,259.696 175.280 C 259.696 176.022,258.862 176.790,257.200 177.579 L 255.987 178.154 255.987 186.386 L 255.987 194.618 256.914 195.012 C 259.137 195.956,259.696 196.874,259.696 199.581 C 259.696 202.140,260.083 203.035,261.187 203.035 C 261.810 203.035,263.744 204.968,263.744 205.591 C 263.744 206.617,264.790 207.083,267.095 207.083 C 269.590 207.083,270.907 207.737,271.352 209.199 C 271.939 211.126,271.963 211.131,280.406 211.119 C 288.538 211.108,289.376 210.968,289.376 209.626 C 289.376 208.167,291.310 207.083,293.913 207.083 C 296.433 207.083,297.470 206.577,297.470 205.349 C 297.470 204.709,299.204 203.035,299.867 203.035 C 300.846 203.035,301.180 202.238,301.180 199.900 C 301.180 197.346,301.885 195.857,303.297 195.427 C 305.223 194.840,305.228 194.817,305.228 186.341 C 305.228 177.864,305.223 177.841,303.297 177.254 C 301.835 176.809,301.180 175.492,301.180 172.997 C 301.180 170.717,300.715 169.646,299.723 169.645 C 299.042 169.645,297.470 168.082,297.470 167.405 C 297.470 166.151,296.302 165.599,293.647 165.599 C 290.953 165.599,290.338 165.238,289.331 163.069 L 288.861 162.057 280.575 161.967 L 272.288 161.877 271.641 163.130 M286.536 180.950 C 288.567 183.612,287.232 191.059,284.486 192.391 C 282.078 193.559,276.317 193.574,274.941 192.416 L 273.862 191.508 273.862 186.443 C 273.862 179.523,273.608 179.778,280.506 179.770 L 285.632 179.764 286.536 180.950 M162.484 279.848 C 162.069 280.318,161.929 281.682,161.799 286.509 C 161.606 293.674,161.208 295.685,159.528 297.976 C 158.848 298.904,158.102 300.330,157.870 301.145 C 157.394 302.818,154.243 306.228,151.948 307.555 C 151.210 307.981,150.403 308.621,150.154 308.976 C 149.544 309.847,147.637 310.620,145.230 310.971 C 142.804 311.325,142.764 311.362,142.281 313.769 C 141.784 316.242,142.116 316.526,145.844 316.816 C 153.127 317.383,252.384 317.053,254.722 316.454 C 257.170 315.827,257.552 315.262,256.482 313.848 C 256.209 313.488,255.987 312.843,255.987 312.414 C 255.987 311.944,255.784 311.636,255.476 311.636 C 255.195 311.636,254.702 311.495,254.380 311.324 C 254.058 311.153,253.045 310.821,252.130 310.588 C 251.110 310.328,249.775 309.601,248.678 308.708 C 247.694 307.907,246.749 307.251,246.576 307.251 C 246.403 307.251,246.211 307.131,246.150 306.984 C 246.088 306.837,245.485 306.380,244.811 305.968 C 243.908 305.418,243.255 304.553,242.336 302.694 C 241.650 301.305,240.965 300.169,240.814 300.169 C 239.267 300.169,237.807 291.956,237.782 283.123 L 237.774 280.411 235.611 279.834 C 232.239 278.936,163.278 278.949,162.484 279.848 " stroke="none" fill="#fffcff" fill-rule="evenodd"></path><path id="path1" d="M27.740 24.598 C 26.989 25.143,26.274 25.750,26.152 25.947 C 26.030 26.145,24.979 26.307,23.816 26.307 C 21.490 26.307,20.708 26.822,19.979 28.836 C 19.262 30.816,19.264 260.478,19.982 262.704 C 20.828 265.329,21.332 265.767,23.502 265.767 C 24.891 265.767,25.804 266.023,27.413 266.863 L 29.511 267.960 200.049 267.960 C 353.262 267.960,370.650 267.907,371.212 267.439 C 371.557 267.153,372.236 266.720,372.723 266.478 C 373.918 265.881,376.037 263.294,376.418 261.963 C 376.776 260.716,376.808 32.348,376.451 30.098 C 376.237 28.750,372.896 24.621,372.019 24.621 C 371.872 24.621,371.563 24.393,371.332 24.115 C 371.035 23.757,370.308 23.620,368.846 23.647 L 366.779 23.684 369.003 24.088 C 371.831 24.601,375.769 28.150,376.164 30.541 C 376.762 34.160,376.406 260.963,375.801 262.092 C 375.069 263.458,373.477 265.294,372.290 266.141 C 369.842 267.889,379.340 267.803,198.284 267.709 L 30.523 267.622 28.668 266.807 C 27.648 266.358,26.573 265.789,26.280 265.542 C 25.961 265.273,24.906 265.093,23.648 265.093 L 21.547 265.093 20.807 263.491 L 20.067 261.889 20.067 145.700 C 20.067 35.040,20.096 29.459,20.666 28.415 C 21.246 27.354,21.334 27.319,23.437 27.319 C 25.395 27.319,25.711 27.219,26.644 26.307 C 28.332 24.657,29.375 24.126,31.351 23.911 L 33.221 23.708 31.164 23.658 C 29.380 23.615,28.925 23.740,27.740 24.598 M40.779 38.051 C 39.980 38.392,38.339 39.904,37.858 40.741 C 37.524 41.323,37.437 60.113,37.437 131.582 L 37.437 221.690 38.261 222.771 C 38.714 223.365,39.610 224.100,40.251 224.404 C 41.666 225.076,358.297 225.279,359.549 224.609 C 359.907 224.418,360.504 223.665,360.876 222.936 C 361.720 221.281,361.970 41.887,361.130 40.383 C 360.898 39.968,360.338 39.212,359.886 38.702 L 359.064 37.774 200.190 37.798 C 112.809 37.811,41.074 37.925,40.779 38.051 M359.496 39.039 C 359.834 39.363,360.283 39.961,360.494 40.366 C 360.777 40.910,360.877 64.735,360.877 131.655 L 360.877 222.208 360.003 223.247 L 359.129 224.285 199.836 224.200 L 40.542 224.115 39.327 222.826 L 38.111 221.537 38.123 131.426 C 38.133 46.769,38.169 41.274,38.713 40.637 C 39.031 40.265,39.747 39.624,40.304 39.215 L 41.315 38.470 200.098 38.459 C 350.870 38.449,358.913 38.478,359.496 39.039 M256.452 47.212 C 256.059 47.370,255.396 48.054,254.978 48.731 C 254.559 49.407,253.636 50.346,252.926 50.815 C 249.591 53.022,249.421 61.249,252.675 62.932 C 253.210 63.209,254.188 64.187,254.849 65.107 C 255.509 66.027,256.217 66.779,256.421 66.779 C 256.946 66.779,258.685 68.504,258.685 69.024 C 258.685 69.261,259.519 70.073,260.540 70.826 C 261.560 71.580,262.395 72.415,262.395 72.681 C 262.395 72.948,261.560 73.783,260.540 74.536 C 259.519 75.290,258.685 76.054,258.685 76.233 C 258.685 76.734,258.888 76.638,259.950 75.632 C 260.490 75.122,261.398 74.288,261.969 73.778 C 263.201 72.678,262.944 71.571,261.285 70.837 C 260.748 70.600,259.786 69.677,259.147 68.786 C 258.507 67.896,257.457 66.857,256.814 66.477 C 256.170 66.097,255.481 65.429,255.281 64.991 C 255.082 64.554,254.450 63.829,253.878 63.380 C 251.170 61.256,251.265 61.488,251.265 56.966 L 251.265 52.857 252.480 51.808 C 253.644 50.804,254.004 50.440,256.045 48.205 C 258.001 46.062,266.759 47.060,266.782 49.428 C 266.784 49.604,267.277 50.124,267.878 50.584 C 268.479 51.044,269.467 51.954,270.072 52.607 C 270.678 53.260,271.285 53.913,271.421 54.058 C 271.941 54.610,274.654 56.998,274.761 56.998 C 275.314 56.998,274.554 56.109,273.054 55.001 C 272.053 54.261,271.038 53.214,270.798 52.673 C 270.559 52.132,269.693 51.285,268.875 50.791 C 268.014 50.270,267.233 49.486,267.023 48.929 C 266.322 47.073,259.529 45.969,256.452 47.212 M287.818 47.198 C 287.425 47.364,286.762 48.054,286.343 48.731 C 285.925 49.407,284.994 50.351,284.275 50.827 C 283.556 51.303,282.650 52.205,282.263 52.832 C 281.875 53.459,280.889 54.433,280.071 54.996 C 279.253 55.558,278.583 56.193,278.583 56.406 C 278.583 56.619,278.166 57.238,277.656 57.783 C 277.146 58.328,276.956 58.704,277.234 58.619 C 277.513 58.534,278.168 57.831,278.690 57.057 C 279.213 56.282,279.971 55.475,280.376 55.262 C 280.782 55.049,281.492 54.404,281.956 53.829 C 282.420 53.253,283.308 52.327,283.931 51.771 C 285.016 50.800,285.405 50.401,287.411 48.205 C 289.314 46.121,298.145 47.031,298.145 49.311 C 298.145 49.692,298.545 50.085,300.422 51.551 L 301.855 52.671 301.855 57.009 L 301.855 61.348 300.590 62.280 C 299.032 63.428,298.145 64.298,298.145 64.678 C 298.145 65.042,296.349 66.779,295.974 66.779 C 294.088 66.779,293.358 72.052,295.025 73.627 C 296.036 74.581,297.185 75.740,298.936 77.572 C 299.557 78.221,300.468 79.025,300.960 79.358 C 302.813 80.613,302.142 90.051,300.200 90.051 C 299.934 90.051,299.352 90.676,297.140 93.339 C 296.554 94.045,296.242 94.097,292.690 94.093 C 287.975 94.088,287.740 94.022,286.595 92.383 C 286.086 91.655,285.068 90.642,284.332 90.133 C 283.596 89.624,282.988 89.018,282.981 88.786 C 282.974 88.554,282.826 88.364,282.653 88.364 C 282.480 88.364,282.247 88.075,282.135 87.721 C 282.022 87.367,281.728 87.000,281.480 86.905 C 281.232 86.810,281.504 87.475,282.083 88.384 C 282.663 89.292,283.308 90.039,283.519 90.043 C 284.027 90.053,286.678 92.720,286.678 93.222 C 286.678 94.846,295.118 95.533,297.165 94.075 C 297.704 93.691,298.145 93.189,298.145 92.958 C 298.145 92.396,300.057 90.469,300.873 90.210 C 303.314 89.435,303.170 78.583,300.718 78.583 C 300.206 78.583,298.145 76.502,298.145 75.985 C 298.145 75.780,297.386 75.066,296.459 74.400 L 294.772 73.188 294.772 70.683 C 294.772 68.155,295.521 66.796,296.926 66.773 C 297.133 66.769,297.757 66.054,298.314 65.182 C 298.870 64.311,299.857 63.320,300.506 62.981 C 302.197 62.097,302.530 61.113,302.530 56.998 C 302.530 52.797,302.236 51.996,300.257 50.801 C 299.461 50.320,298.624 49.507,298.397 48.994 C 297.579 47.145,297.327 47.055,292.774 46.973 C 290.441 46.931,288.211 47.032,287.818 47.198 M274.874 57.661 C 274.874 57.840,275.215 58.166,275.632 58.385 C 276.387 58.781,276.388 58.779,275.749 58.059 C 275.035 57.255,274.874 57.182,274.874 57.661 M142.041 59.314 C 141.642 59.661,141.315 60.111,141.315 60.315 C 141.315 60.862,139.502 62.620,138.662 62.886 C 135.961 63.744,136.350 74.874,139.081 74.874 C 139.318 74.874,139.841 75.225,140.245 75.654 L 140.978 76.435 140.978 96.164 C 140.978 115.553,140.966 115.906,140.290 116.631 L 139.603 117.369 114.135 117.369 C 86.082 117.369,87.405 117.269,86.228 119.485 C 85.888 120.125,85.033 120.974,84.328 121.370 C 82.224 122.552,81.956 123.246,81.956 127.508 C 81.956 131.307,82.475 133.221,83.506 133.221 C 84.019 133.221,86.678 135.805,86.678 136.303 C 86.678 137.566,87.053 137.584,113.685 137.595 L 139.511 137.605 140.245 138.386 L 140.978 139.167 140.978 157.046 L 140.978 174.925 140.219 175.589 C 139.802 175.954,139.081 176.442,138.617 176.672 C 137.279 177.338,136.931 178.543,136.931 182.513 C 136.931 186.787,137.163 187.428,139.151 188.628 C 139.976 189.126,140.836 189.954,141.063 190.467 C 141.581 191.636,141.922 191.977,143.091 192.495 C 143.605 192.722,144.418 193.559,144.899 194.355 C 146.093 196.333,146.895 196.627,151.096 196.627 C 155.308 196.627,156.028 196.358,157.359 194.287 L 158.347 192.749 190.412 192.580 C 225.442 192.396,222.937 192.554,223.861 190.467 C 224.088 189.954,224.948 189.126,225.773 188.628 C 227.761 187.428,227.993 186.787,227.993 182.513 C 227.993 178.747,227.664 177.444,226.535 176.738 C 225.528 176.110,225.441 176.649,226.424 177.423 C 227.309 178.119,227.905 187.183,227.066 187.184 C 226.927 187.184,226.410 187.526,225.917 187.943 C 225.424 188.360,224.703 188.925,224.315 189.198 C 223.926 189.470,223.609 189.867,223.609 190.079 C 223.609 190.291,223.209 190.865,222.720 191.354 L 221.830 192.243 190.079 192.243 L 158.328 192.243 157.832 192.948 C 157.559 193.336,156.899 194.171,156.365 194.803 L 155.395 195.953 151.088 195.953 L 146.782 195.953 145.819 194.762 C 144.147 192.694,143.866 192.418,142.954 191.950 C 142.465 191.699,141.859 191.093,141.608 190.604 C 141.089 189.592,139.893 188.424,138.533 187.600 L 137.605 187.038 137.605 182.575 L 137.605 178.112 138.870 177.180 C 141.554 175.203,141.315 177.169,141.315 156.998 C 141.315 139.226,141.304 138.914,140.622 138.182 L 139.928 137.437 113.785 137.268 C 88.076 137.102,87.636 137.088,87.280 136.425 C 87.081 136.054,85.953 134.813,84.774 133.666 L 82.631 131.582 82.631 127.481 L 82.631 123.379 83.706 122.482 C 85.192 121.243,86.398 119.988,87.115 118.934 L 87.721 118.044 113.612 118.044 L 139.503 118.044 140.409 117.098 L 141.315 116.152 141.315 96.173 C 141.315 73.863,141.559 76.066,138.870 74.085 L 137.605 73.153 137.605 68.786 C 137.605 64.068,137.691 63.819,139.666 62.790 C 140.140 62.543,140.791 61.894,141.115 61.346 C 142.625 58.790,138.886 59.022,178.512 59.022 L 213.895 59.022 214.958 60.151 C 215.542 60.772,216.378 61.683,216.814 62.175 C 217.251 62.667,217.788 63.069,218.007 63.069 C 219.061 63.069,219.562 64.971,219.562 68.978 L 219.562 72.928 218.519 73.816 C 217.500 74.685,216.604 75.590,214.781 77.593 L 213.880 78.583 188.112 78.583 L 162.344 78.583 161.610 79.364 L 160.877 80.145 160.877 98.221 L 160.877 116.298 161.915 117.171 L 162.952 118.044 190.606 118.044 C 219.439 118.044,219.224 118.034,219.224 119.369 C 219.224 119.568,219.366 119.730,219.539 119.730 C 219.712 119.730,219.945 120.020,220.058 120.374 C 220.170 120.727,220.464 121.095,220.712 121.190 C 221.475 121.483,219.105 118.107,218.281 117.727 C 217.755 117.484,208.676 117.369,190.048 117.369 L 162.590 117.369 161.902 116.631 C 160.823 115.474,160.823 80.816,161.902 79.659 L 162.590 78.921 188.124 78.916 C 215.277 78.910,214.899 78.933,215.714 77.299 C 216.248 76.229,217.572 74.874,218.085 74.874 C 221.254 74.874,221.128 64.271,217.939 62.549 C 217.266 62.186,216.483 61.440,216.199 60.892 C 214.968 58.514,218.300 58.708,178.551 58.696 C 144.091 58.685,142.741 58.708,142.041 59.314 M257.672 77.742 C 257.237 78.205,256.690 78.583,256.457 78.583 C 253.642 78.583,253.901 88.986,256.753 90.500 C 257.394 90.841,258.242 91.696,258.638 92.401 C 260.513 95.737,269.353 95.955,270.793 92.701 C 271.036 92.154,272.053 91.101,273.054 90.362 C 274.055 89.623,274.874 88.871,274.874 88.691 C 274.874 88.196,274.765 88.260,273.159 89.703 C 271.503 91.190,271.614 91.080,270.032 92.833 L 268.892 94.098 264.770 94.098 L 260.647 94.098 259.750 93.022 C 258.512 91.537,257.256 90.330,256.202 89.613 C 254.825 88.676,254.807 80.317,256.180 79.358 C 257.895 78.160,258.850 77.288,258.658 77.096 C 258.550 76.988,258.107 77.279,257.672 77.742 M277.487 86.585 C 278.090 86.659,279.077 86.659,279.680 86.585 C 280.282 86.510,279.789 86.449,278.583 86.449 C 277.378 86.449,276.884 86.510,277.487 86.585 M275.360 87.156 C 275.000 87.419,274.795 87.724,274.904 87.833 C 275.013 87.942,275.378 87.727,275.715 87.355 C 276.431 86.563,276.284 86.481,275.360 87.156 M294.604 106.054 C 293.862 106.274,292.827 106.634,292.305 106.853 C 291.783 107.072,290.948 107.252,290.450 107.253 C 288.955 107.255,287.591 108.380,286.517 110.498 C 285.965 111.588,285.036 113.010,284.453 113.659 C 283.871 114.309,282.828 115.887,282.136 117.166 C 281.444 118.446,280.570 119.812,280.195 120.202 C 279.819 120.592,279.215 121.518,278.854 122.260 C 275.790 128.539,272.293 130.691,270.843 127.190 C 270.633 126.682,269.974 125.988,269.379 125.648 C 268.213 124.982,266.779 123.532,266.779 123.020 C 266.779 121.839,265.277 121.439,260.792 121.428 L 256.323 121.417 255.121 123.089 C 254.461 124.008,253.398 125.083,252.761 125.477 C 249.567 127.451,249.507 135.830,252.675 137.468 C 253.210 137.745,254.188 138.724,254.849 139.643 C 255.509 140.563,256.235 141.315,256.461 141.315 C 256.982 141.315,258.685 143.073,258.685 143.611 C 258.685 143.833,259.406 144.533,260.287 145.166 C 261.168 145.799,262.379 147.013,262.978 147.864 C 263.577 148.714,264.269 149.410,264.517 149.410 C 265.055 149.410,266.779 151.142,266.779 151.682 C 266.779 153.044,268.574 153.457,274.488 153.457 C 280.940 153.457,281.537 153.307,282.595 151.424 C 282.994 150.716,283.506 150.069,283.734 149.988 C 283.962 149.906,284.053 149.736,283.936 149.609 C 283.819 149.482,283.515 149.607,283.261 149.888 C 282.326 150.921,281.956 151.410,281.956 151.612 C 281.956 152.639,280.887 152.796,274.497 152.705 L 268.016 152.614 266.976 151.182 C 266.404 150.394,265.309 149.306,264.543 148.764 C 263.777 148.221,262.954 147.336,262.715 146.796 C 262.476 146.256,261.837 145.618,261.295 145.378 C 260.753 145.138,259.786 144.213,259.147 143.323 C 258.507 142.432,257.457 141.393,256.814 141.013 C 256.170 140.634,255.481 139.965,255.281 139.528 C 255.082 139.090,254.450 138.365,253.878 137.916 C 251.170 135.792,251.265 136.024,251.265 131.503 L 251.265 127.393 252.485 126.344 C 253.156 125.767,254.029 124.921,254.424 124.465 C 256.900 121.604,256.538 121.754,260.993 121.754 L 265.040 121.754 266.247 123.164 C 266.911 123.939,267.454 124.660,267.454 124.766 C 267.455 124.871,268.134 125.413,268.965 125.970 C 269.795 126.526,270.478 127.150,270.482 127.357 C 270.495 128.032,272.249 129.511,273.037 129.511 C 274.288 129.511,277.382 126.412,278.574 123.966 C 279.148 122.788,279.971 121.466,280.402 121.030 C 280.834 120.593,281.757 119.174,282.454 117.875 C 283.151 116.577,284.225 114.956,284.841 114.273 C 285.456 113.590,286.380 112.173,286.893 111.125 C 287.808 109.256,289.462 107.926,290.871 107.926 C 291.151 107.926,292.238 107.546,293.287 107.083 C 296.269 105.764,304.157 105.798,305.208 107.134 C 305.595 107.626,306.023 107.915,306.160 107.776 C 307.785 106.119,298.861 104.789,294.604 106.054 M306.239 108.490 C 306.239 108.684,306.638 109.130,307.125 109.481 C 307.612 109.831,308.447 110.473,308.980 110.907 L 309.949 111.696 309.949 115.739 L 309.949 119.782 308.959 120.684 C 307.099 122.376,306.071 123.376,304.772 124.757 C 304.057 125.517,303.289 126.138,303.064 126.138 C 302.839 126.138,302.405 126.662,302.099 127.302 C 301.794 127.942,301.121 128.729,300.604 129.051 C 298.364 130.442,298.145 130.817,298.145 133.254 C 298.145 135.346,298.061 135.614,297.107 136.568 C 295.970 137.705,296.252 137.985,297.509 136.967 C 298.182 136.423,298.316 135.958,298.425 133.789 C 298.560 131.118,298.999 130.331,300.886 129.380 C 301.295 129.174,301.870 128.526,302.164 127.940 C 302.458 127.355,303.279 126.520,303.990 126.085 C 304.700 125.651,305.688 124.694,306.185 123.960 C 306.683 123.226,307.687 122.219,308.417 121.723 C 310.140 120.553,310.236 120.248,310.258 115.852 C 310.281 111.393,310.156 110.838,308.994 110.260 C 308.499 110.014,307.677 109.436,307.167 108.975 C 306.657 108.514,306.239 108.296,306.239 108.490 M222.533 122.468 L 223.609 123.520 223.609 127.553 C 223.609 132.029,223.873 131.402,220.851 134.085 C 220.420 134.467,219.669 135.302,219.181 135.940 L 218.295 137.099 190.513 137.272 L 162.732 137.445 190.641 137.525 L 218.551 137.605 219.730 135.965 C 220.378 135.062,221.509 133.927,222.242 133.441 C 223.875 132.361,224.050 131.628,223.893 126.539 C 223.786 123.105,223.715 122.767,222.967 122.119 C 221.692 121.014,221.337 121.299,222.533 122.468 M161.458 138.284 C 160.926 138.905,160.877 140.317,160.877 155.088 L 160.877 171.215 161.657 171.948 L 162.438 172.681 192.077 172.681 L 221.717 172.681 222.663 173.588 C 223.183 174.086,223.609 174.615,223.609 174.764 C 223.609 175.169,224.723 176.391,225.092 176.391 C 225.268 176.391,225.105 176.050,224.728 175.632 C 224.351 175.215,223.767 174.391,223.430 173.801 C 222.560 172.279,224.170 172.354,192.049 172.349 L 162.681 172.344 161.947 171.563 C 160.792 170.333,160.792 139.616,161.947 138.386 C 162.351 137.957,162.536 137.605,162.360 137.605 C 162.183 137.605,161.777 137.911,161.458 138.284 M295.253 137.864 C 295.053 138.000,294.619 138.567,294.287 139.123 C 293.955 139.680,292.934 140.713,292.017 141.419 C 291.101 142.125,290.257 142.960,290.142 143.274 C 289.863 144.034,288.546 145.259,287.732 145.518 C 287.043 145.737,286.466 146.712,287.026 146.712 C 287.205 146.712,287.352 146.563,287.352 146.381 C 287.352 146.199,287.948 145.747,288.677 145.375 C 289.405 145.003,290.095 144.405,290.209 144.045 C 290.459 143.257,292.386 141.315,292.918 141.315 C 293.344 141.315,294.772 139.508,294.772 138.968 C 294.772 138.775,294.908 138.617,295.074 138.617 C 295.239 138.617,295.462 138.390,295.569 138.111 C 295.788 137.539,295.760 137.517,295.253 137.864 M285.366 148.233 C 284.737 148.880,284.388 149.410,284.592 149.410 C 285.045 149.410,286.678 147.814,286.678 147.371 C 286.678 146.903,286.622 146.940,285.366 148.233 M272.175 160.767 C 271.189 161.140,270.076 162.901,270.826 162.901 C 271.012 162.901,271.164 162.735,271.164 162.533 C 271.164 161.114,272.383 160.900,280.549 160.888 L 288.416 160.877 289.318 161.868 C 289.814 162.412,290.631 163.323,291.133 163.891 C 291.972 164.839,292.224 164.924,294.190 164.924 C 296.512 164.924,297.200 165.309,298.346 167.248 C 298.669 167.796,299.321 168.446,299.794 168.692 C 301.509 169.585,301.855 170.196,301.855 172.328 C 301.855 173.432,302.027 174.714,302.238 175.176 C 302.631 176.039,303.541 176.637,303.541 176.033 C 303.541 175.847,303.314 175.608,303.035 175.501 C 302.658 175.357,302.530 174.755,302.530 173.134 C 302.530 170.699,301.909 169.141,300.798 168.788 C 299.959 168.522,298.145 166.764,298.145 166.217 C 298.145 165.226,296.685 164.587,294.418 164.587 C 291.990 164.587,291.725 164.414,289.669 161.491 C 289.127 160.722,273.956 160.094,272.175 160.767 M269.670 163.768 C 269.012 164.425,268.996 164.621,269.620 164.382 C 269.884 164.280,270.182 163.982,270.284 163.718 C 270.523 163.094,270.328 163.110,269.670 163.768 M267.538 165.242 C 267.121 165.591,266.779 166.036,266.779 166.231 C 266.779 166.767,264.954 168.525,264.126 168.788 C 263.726 168.915,263.156 169.502,262.858 170.091 C 262.296 171.208,260.833 172.681,260.288 172.681 C 259.929 172.681,258.713 174.055,258.696 174.481 C 258.690 174.635,259.389 174.142,260.250 173.384 C 261.111 172.627,261.920 172.007,262.048 172.007 C 262.176 172.007,262.496 171.594,262.759 171.090 C 263.022 170.585,263.470 169.940,263.754 169.656 C 264.038 169.372,264.683 168.925,265.187 168.661 C 265.692 168.398,266.105 168.078,266.105 167.950 C 266.105 167.822,266.725 167.013,267.482 166.152 C 268.884 164.560,268.912 164.096,267.538 165.242 M257.841 175.717 C 257.506 176.088,257.401 176.391,257.609 176.391 C 257.816 176.391,258.149 176.088,258.347 175.717 C 258.546 175.346,258.651 175.042,258.580 175.042 C 258.510 175.042,258.177 175.346,257.841 175.717 M255.987 176.830 C 254.745 177.855,254.637 178.617,254.637 186.353 C 254.637 194.848,254.742 195.334,256.799 196.427 C 257.465 196.781,258.010 197.199,258.010 197.355 C 258.010 197.511,258.200 197.634,258.432 197.628 C 258.815 197.619,258.174 197.002,256.074 195.362 C 254.534 194.159,255.038 177.066,256.614 177.066 C 256.825 177.066,256.998 176.914,256.998 176.728 C 256.998 176.279,256.606 176.319,255.987 176.830 M304.864 177.429 L 305.902 178.467 305.902 186.393 L 305.902 194.318 304.948 195.220 C 304.423 195.716,303.512 196.552,302.924 197.077 C 301.923 197.973,301.855 198.178,301.855 200.319 C 301.855 202.422,301.782 202.654,300.941 203.241 C 299.789 204.044,298.159 205.697,297.370 206.862 C 296.813 207.685,296.577 207.757,294.448 207.757 C 292.272 207.757,292.073 207.822,291.175 208.826 C 290.649 209.414,289.814 210.325,289.318 210.850 L 288.416 211.804 280.490 211.804 L 272.565 211.804 271.527 210.767 C 270.956 210.196,270.489 209.899,270.489 210.107 C 270.489 210.316,270.862 210.859,271.317 211.314 L 272.145 212.142 280.581 212.142 L 289.018 212.142 290.388 210.287 L 291.758 208.432 293.972 208.432 C 296.237 208.432,298.145 207.603,298.145 206.620 C 298.145 206.104,300.229 204.047,300.752 204.047 C 301.704 204.047,302.530 202.108,302.530 199.874 L 302.530 197.660 304.384 196.290 L 306.239 194.920 306.239 186.483 L 306.239 178.047 305.412 177.219 C 304.956 176.764,304.413 176.391,304.205 176.391 C 303.997 176.391,304.294 176.858,304.864 177.429 M280.506 180.690 C 285.767 180.826,286.165 181.154,285.919 185.160 C 285.621 190.022,284.064 191.581,279.258 191.827 C 275.165 192.036,274.933 191.751,274.789 186.331 L 274.681 182.293 274.609 186.408 C 274.507 192.186,276.672 193.651,282.664 191.856 C 286.138 190.815,288.124 183.965,285.677 181.462 L 284.677 180.438 280.534 180.511 L 276.391 180.584 280.506 180.690 M275.404 181.306 C 274.746 181.963,274.730 182.159,275.353 181.919 C 275.617 181.818,275.916 181.519,276.017 181.256 C 276.257 180.632,276.061 180.648,275.404 181.306 M258.762 200.169 C 258.707 202.523,259.323 204.047,260.329 204.047 C 260.865 204.047,262.623 205.872,262.886 206.700 C 263.239 207.811,264.797 208.432,267.232 208.432 C 268.853 208.432,269.454 208.560,269.599 208.938 C 269.706 209.216,269.945 209.444,270.131 209.444 C 270.735 209.444,270.136 208.533,269.274 208.140 C 268.812 207.929,267.530 207.757,266.426 207.757 C 264.278 207.757,263.686 207.415,262.759 205.639 C 262.496 205.135,262.182 204.722,262.061 204.722 C 260.730 204.722,259.046 202.216,258.934 200.071 L 258.817 197.808 258.762 200.169 M162.005 278.560 C 160.712 279.349,160.634 279.701,160.369 286.003 C 160.168 290.773,159.559 294.024,158.665 295.110 C 158.435 295.388,157.824 296.830,157.306 298.314 C 156.619 300.281,155.993 301.389,154.995 302.403 C 154.242 303.169,153.347 304.182,153.007 304.655 C 152.667 305.127,151.832 305.743,151.152 306.024 C 150.472 306.304,149.358 307.039,148.677 307.658 C 147.822 308.434,146.685 308.989,145.008 309.448 C 141.753 310.340,141.259 310.825,140.794 313.591 L 140.414 315.852 141.526 316.951 L 142.637 318.050 199.624 317.962 L 256.612 317.875 257.564 317.160 C 258.443 316.499,258.516 316.270,258.516 314.176 C 258.516 311.434,257.893 310.766,254.202 309.556 C 252.928 309.139,251.523 308.460,251.078 308.049 C 250.634 307.637,249.776 307.023,249.172 306.685 C 248.568 306.347,247.875 305.886,247.633 305.661 C 247.391 305.436,246.764 304.998,246.239 304.688 C 245.715 304.378,245.011 303.652,244.675 303.074 C 244.339 302.496,243.975 301.948,243.866 301.855 C 243.756 301.762,243.259 300.838,242.761 299.802 C 242.262 298.766,241.628 297.730,241.350 297.500 C 240.177 296.526,239.119 289.373,239.122 282.429 C 239.124 277.626,241.674 277.909,198.286 277.910 C 164.131 277.911,163.037 277.931,162.005 278.560 M236.796 278.980 C 238.576 279.595,238.676 279.935,238.935 286.281 C 239.221 293.271,239.742 296.380,240.881 297.894 C 241.334 298.496,242.146 299.823,242.684 300.843 C 244.219 303.751,244.772 304.377,247.341 306.118 C 248.664 307.014,249.951 307.943,250.201 308.182 C 250.881 308.833,252.239 309.479,254.611 310.278 C 257.343 311.198,257.768 311.656,258.037 313.960 C 258.506 317.993,263.073 317.707,198.394 317.707 L 143.274 317.707 142.295 317.009 C 139.525 315.037,141.654 309.949,145.249 309.949 C 146.316 309.949,148.061 309.137,149.089 308.162 C 149.520 307.754,150.539 307.023,151.355 306.539 C 153.132 305.483,157.108 301.068,157.377 299.853 C 157.607 298.807,158.525 296.692,158.850 296.459 C 159.944 295.670,160.871 290.248,160.874 284.615 C 160.877 280.824,160.953 280.264,161.576 279.472 L 162.275 278.583 198.962 278.583 C 226.195 278.583,235.945 278.686,236.796 278.980 " stroke="none" fill="#120e12" fill-rule="evenodd"></path><path id="path2" d="M31.351 23.911 C 29.375 24.126,28.332 24.657,26.644 26.307 C 25.711 27.219,25.395 27.319,23.437 27.319 C 21.334 27.319,21.246 27.354,20.666 28.415 C 20.096 29.459,20.067 35.040,20.067 145.700 L 20.067 261.889 20.807 263.491 L 21.547 265.093 23.648 265.093 C 24.906 265.093,25.961 265.273,26.280 265.542 C 26.573 265.789,27.648 266.358,28.668 266.807 L 30.523 267.622 198.284 267.709 C 379.340 267.803,369.842 267.889,372.290 266.141 C 373.477 265.294,375.069 263.458,375.801 262.092 C 376.406 260.963,376.762 34.160,376.164 30.541 C 375.755 28.064,371.845 24.612,368.840 24.074 C 366.324 23.623,35.466 23.464,31.351 23.911 M369.646 25.219 C 370.337 25.471,371.192 26.180,371.708 26.929 C 372.192 27.634,373.119 28.462,373.768 28.769 C 375.470 29.577,375.373 22.439,375.376 146.978 L 375.379 261.072 374.030 262.476 C 373.288 263.248,372.681 264.048,372.681 264.254 C 372.681 264.460,372.188 264.999,371.585 265.451 L 370.489 266.273 204.216 266.379 C 37.581 266.485,29.396 266.447,28.512 265.564 C 28.253 265.305,27.879 265.093,27.680 265.093 C 27.481 265.093,27.319 264.934,27.319 264.739 C 27.319 263.739,25.450 262.753,23.536 262.743 C 21.897 262.733,21.544 262.618,21.175 261.973 C 20.650 261.053,20.774 29.787,21.301 29.126 C 21.469 28.914,22.740 28.683,24.123 28.613 C 26.722 28.482,27.555 27.990,28.836 25.828 C 29.034 25.494,29.871 25.143,30.860 24.978 C 33.855 24.481,368.268 24.718,369.646 25.219 M39.956 36.559 C 38.589 37.155,36.671 39.026,35.977 40.440 C 35.454 41.504,35.413 48.176,35.413 131.573 L 35.413 221.558 36.338 223.089 C 36.847 223.931,37.441 224.621,37.659 224.621 C 37.877 224.621,38.106 224.741,38.168 224.888 C 38.229 225.035,38.829 225.490,39.500 225.900 L 40.720 226.644 200.060 226.644 L 359.400 226.644 360.466 225.601 C 362.753 223.366,362.563 231.874,362.563 131.524 C 362.563 32.401,362.705 39.553,360.699 37.268 L 359.810 36.256 200.394 36.185 C 68.887 36.126,40.799 36.191,39.956 36.559 M359.886 38.702 C 360.338 39.212,360.898 39.968,361.130 40.383 C 361.970 41.887,361.720 221.281,360.876 222.936 C 360.504 223.665,359.907 224.418,359.549 224.609 C 358.297 225.279,41.666 225.076,40.251 224.404 C 39.610 224.100,38.714 223.365,38.261 222.771 L 37.437 221.690 37.437 131.582 C 37.437 60.113,37.524 41.323,37.858 40.741 C 38.339 39.904,39.980 38.392,40.779 38.051 C 41.074 37.925,112.809 37.811,200.190 37.798 L 359.064 37.774 359.886 38.702 M256.045 48.205 C 254.004 50.440,253.644 50.804,252.480 51.808 L 251.265 52.857 251.265 56.966 C 251.265 61.488,251.170 61.256,253.878 63.380 C 254.450 63.829,255.082 64.554,255.281 64.991 C 255.481 65.429,256.170 66.097,256.814 66.477 C 257.457 66.857,258.507 67.896,259.147 68.786 C 259.786 69.677,260.748 70.600,261.285 70.837 C 262.942 71.570,263.201 72.678,261.973 73.778 C 259.655 75.856,258.788 76.756,258.598 77.279 C 258.489 77.582,257.742 78.270,256.940 78.809 L 255.481 79.789 255.387 84.391 L 255.293 88.993 256.193 89.606 C 257.256 90.330,258.509 91.534,259.750 93.022 L 260.647 94.098 264.751 94.098 C 269.237 94.098,268.977 94.200,271.209 91.549 C 271.512 91.188,272.461 90.292,273.317 89.556 C 274.173 88.820,274.874 88.027,274.874 87.794 C 274.874 85.933,281.552 85.884,282.141 87.741 C 282.250 88.084,282.480 88.364,282.653 88.364 C 282.826 88.364,282.974 88.554,282.981 88.786 C 282.988 89.018,283.596 89.624,284.332 90.133 C 285.068 90.642,286.086 91.655,286.595 92.383 C 287.740 94.022,287.975 94.088,292.690 94.093 C 296.242 94.097,296.554 94.045,297.140 93.339 C 299.352 90.676,299.934 90.051,300.200 90.051 C 302.142 90.051,302.813 80.613,300.960 79.358 C 300.468 79.025,299.557 78.221,298.936 77.572 C 297.185 75.740,296.036 74.581,295.025 73.627 C 293.335 72.031,294.093 66.779,296.013 66.779 C 296.382 66.779,298.145 65.009,298.145 64.639 C 298.145 64.296,299.086 63.389,300.590 62.280 L 301.855 61.348 301.855 57.009 L 301.855 52.671 300.422 51.551 C 298.545 50.085,298.145 49.692,298.145 49.311 C 298.145 47.031,289.314 46.121,287.411 48.205 C 285.405 50.401,285.016 50.800,283.931 51.771 C 283.308 52.327,282.420 53.253,281.956 53.829 C 281.492 54.404,280.769 55.055,280.349 55.276 C 279.929 55.497,279.202 56.286,278.733 57.029 C 277.547 58.908,275.396 59.297,274.980 57.708 C 274.893 57.373,274.132 56.507,273.291 55.784 C 272.449 55.061,271.512 54.174,271.209 53.814 C 270.215 52.633,268.990 51.448,267.878 50.590 C 267.277 50.126,266.784 49.604,266.782 49.428 C 266.759 47.060,258.001 46.062,256.045 48.205 M265.612 49.148 C 266.338 50.679,266.903 51.279,268.237 51.939 C 268.799 52.218,269.545 52.976,269.895 53.626 C 270.634 54.999,271.694 55.987,272.429 55.987 C 273.012 55.987,273.835 56.935,273.851 57.625 C 273.911 60.169,279.258 60.199,279.258 57.655 C 279.258 56.992,279.832 56.457,281.370 55.689 C 281.994 55.377,282.757 54.572,283.151 53.809 C 283.590 52.961,284.327 52.224,285.175 51.786 C 285.938 51.391,286.743 50.628,287.055 50.004 C 288.107 47.899,288.123 47.892,292.284 47.892 C 296.328 47.892,297.470 48.311,297.470 49.793 C 297.470 50.402,298.973 51.939,299.569 51.939 C 300.843 51.939,301.180 52.987,301.180 56.940 C 301.180 60.885,300.831 62.057,299.656 62.057 C 298.873 62.057,297.470 63.455,297.470 64.236 C 297.470 64.807,297.131 65.175,296.206 65.611 C 292.562 67.326,292.084 74.347,295.540 75.399 C 296.556 75.709,297.470 76.552,297.470 77.181 C 297.470 77.859,298.799 79.258,299.442 79.258 C 300.847 79.258,301.180 80.212,301.180 84.223 C 301.180 88.250,300.893 89.376,299.865 89.376 C 299.099 89.376,297.470 90.961,297.470 91.708 C 297.470 93.038,296.305 93.424,292.323 93.413 C 288.427 93.402,287.352 93.092,287.352 91.979 C 287.352 91.254,285.415 89.376,284.667 89.376 C 284.298 89.376,283.829 88.897,283.482 88.166 C 282.397 85.878,281.971 85.665,278.499 85.672 C 275.277 85.678,273.885 86.297,273.851 87.737 C 273.834 88.461,273.000 89.376,272.358 89.376 C 271.733 89.376,269.815 91.228,269.815 91.830 C 269.815 93.085,268.751 93.423,264.814 93.423 C 260.741 93.423,259.696 93.081,259.696 91.748 C 259.696 91.062,257.993 89.376,257.300 89.376 C 256.194 89.376,255.987 88.610,255.987 84.529 C 255.987 80.329,256.318 79.258,257.619 79.258 C 258.326 79.258,259.696 77.918,259.696 77.228 C 259.696 76.558,260.584 75.717,261.627 75.399 C 264.201 74.615,264.201 70.747,261.627 69.963 C 260.586 69.646,259.696 68.805,259.696 68.139 C 259.696 67.446,258.070 65.874,257.189 65.715 C 256.831 65.651,256.224 64.991,255.840 64.249 C 255.439 63.473,254.680 62.669,254.051 62.355 C 251.939 61.300,251.939 61.300,251.939 56.998 C 251.939 52.697,251.939 52.697,254.051 51.642 C 254.652 51.342,255.389 50.605,255.689 50.004 C 256.744 47.892,256.744 47.892,261.048 47.892 L 265.016 47.892 265.612 49.148 M142.416 59.686 C 142.024 60.052,141.438 60.798,141.115 61.346 C 140.791 61.894,140.140 62.543,139.666 62.790 C 137.691 63.819,137.605 64.068,137.605 68.786 L 137.605 73.153 138.870 74.085 C 141.559 76.066,141.315 73.863,141.315 96.173 L 141.315 116.152 140.409 117.098 L 139.503 118.044 113.612 118.044 L 87.721 118.044 87.115 118.934 C 86.398 119.988,85.192 121.243,83.706 122.482 L 82.631 123.379 82.631 127.481 L 82.631 131.582 84.774 133.666 C 85.953 134.813,87.081 136.054,87.280 136.425 C 87.636 137.088,88.076 137.102,113.785 137.268 L 139.928 137.437 140.622 138.182 C 141.304 138.914,141.315 139.226,141.315 156.998 C 141.315 177.169,141.554 175.203,138.870 177.180 L 137.605 178.112 137.605 182.575 L 137.605 187.038 138.533 187.600 C 139.893 188.424,141.089 189.592,141.608 190.604 C 141.859 191.093,142.465 191.699,142.954 191.950 C 143.866 192.418,144.147 192.694,145.819 194.762 L 146.782 195.953 151.088 195.953 L 155.395 195.953 156.365 194.803 C 156.899 194.171,157.559 193.336,157.832 192.948 L 158.328 192.243 190.079 192.243 L 221.830 192.243 222.720 191.354 C 223.209 190.865,223.609 190.291,223.609 190.079 C 223.609 189.867,223.926 189.470,224.315 189.198 C 224.703 188.925,225.424 188.360,225.917 187.943 C 226.410 187.526,226.927 187.184,227.066 187.184 C 227.205 187.184,227.319 185.160,227.319 182.686 L 227.319 178.189 226.310 177.290 C 225.755 176.796,225.182 176.391,225.036 176.391 C 224.728 176.391,223.609 175.146,223.609 174.804 C 223.609 174.677,223.201 174.147,222.702 173.627 L 221.796 172.681 192.070 172.681 L 162.344 172.681 161.610 171.901 C 160.487 170.705,160.450 139.384,161.571 138.182 L 162.264 137.437 190.280 137.268 L 218.295 137.099 219.181 135.940 C 219.669 135.302,220.420 134.467,220.851 134.085 C 223.873 131.402,223.609 132.029,223.609 127.553 L 223.609 123.520 222.537 122.472 C 221.947 121.895,221.196 121.338,220.867 121.234 C 220.539 121.130,220.177 120.749,220.062 120.387 C 219.947 120.026,219.712 119.730,219.539 119.730 C 219.366 119.730,219.224 119.568,219.224 119.369 C 219.224 118.034,219.439 118.044,190.606 118.044 L 162.952 118.044 161.915 117.171 L 160.877 116.298 160.877 98.174 L 160.877 80.050 161.657 79.317 L 162.438 78.583 188.159 78.583 L 213.880 78.583 214.781 77.593 C 216.604 75.590,217.500 74.685,218.519 73.816 L 219.562 72.928 219.562 68.978 C 219.562 64.971,219.061 63.069,218.007 63.069 C 217.788 63.069,217.251 62.667,216.814 62.175 C 216.378 61.683,215.542 60.772,214.958 60.151 L 213.895 59.022 178.512 59.022 C 143.778 59.022,143.116 59.034,142.416 59.686 M214.223 60.255 C 214.562 60.562,214.840 61.016,214.840 61.264 C 214.840 61.828,216.813 63.744,217.395 63.744 C 218.591 63.744,218.887 64.730,218.887 68.716 C 218.887 72.822,218.548 73.862,217.207 73.862 C 216.529 73.862,215.438 75.006,214.795 76.391 L 214.325 77.403 188.207 77.489 L 162.090 77.576 161.146 78.480 L 160.202 79.384 160.202 98.162 L 160.202 116.940 161.092 117.829 L 161.981 118.718 190.114 118.718 L 218.247 118.718 218.743 119.907 C 219.328 121.306,220.368 122.428,221.079 122.428 C 222.514 122.428,222.934 123.604,222.934 127.615 C 222.934 131.776,222.928 131.792,220.822 132.844 C 220.222 133.144,219.485 133.881,219.185 134.482 C 218.037 136.779,220.615 136.594,189.886 136.594 C 162.165 136.594,161.974 136.598,161.091 137.293 L 160.202 137.992 160.202 154.896 L 160.202 171.801 161.109 172.747 L 162.015 173.693 191.884 173.704 C 223.717 173.715,222.934 173.675,222.934 175.308 C 222.934 175.990,224.369 177.403,225.061 177.403 C 226.312 177.403,226.644 178.470,226.644 182.490 C 226.644 186.565,226.355 187.521,225.120 187.521 C 224.455 187.521,222.934 189.015,222.934 189.668 C 222.934 191.672,224.743 191.568,189.668 191.568 L 157.750 191.568 156.953 192.429 C 156.514 192.902,156.155 193.459,156.155 193.667 C 156.155 194.940,155.107 195.278,151.155 195.278 C 147.184 195.278,146.037 194.930,146.037 193.726 C 146.037 193.083,144.530 191.568,143.890 191.568 C 143.178 191.568,141.990 190.380,141.990 189.668 C 141.990 189.015,140.469 187.521,139.804 187.521 C 138.574 187.521,138.280 186.562,138.280 182.549 C 138.280 178.574,138.627 177.403,139.804 177.403 C 140.029 177.403,140.612 177.088,141.101 176.704 L 141.990 176.005 141.990 156.998 L 141.990 137.992 141.101 137.293 C 140.220 136.599,139.995 136.594,114.373 136.583 C 87.284 136.572,87.352 136.575,87.352 135.149 C 87.352 134.551,85.470 132.546,84.908 132.546 C 83.649 132.546,83.305 131.488,83.305 127.608 C 83.305 123.641,83.693 122.428,84.964 122.428 C 85.643 122.428,87.352 120.742,87.352 120.072 C 87.352 118.710,87.187 118.718,114.187 118.718 L 140.212 118.718 141.101 117.829 L 141.990 116.940 141.990 96.181 L 141.990 75.423 141.257 74.642 C 140.853 74.213,140.296 73.862,140.018 73.862 C 138.603 73.862,138.280 72.916,138.280 68.775 C 138.280 64.757,138.573 63.744,139.737 63.743 C 140.372 63.743,141.990 62.201,141.990 61.597 C 141.990 61.293,142.255 60.755,142.580 60.399 C 143.436 59.461,213.191 59.321,214.223 60.255 M293.255 107.090 C 292.327 107.527,291.297 107.894,290.965 107.905 C 289.424 107.958,287.825 109.222,286.893 111.125 C 286.380 112.173,285.456 113.590,284.841 114.273 C 284.225 114.956,283.151 116.577,282.454 117.875 C 281.757 119.174,280.834 120.593,280.402 121.030 C 279.971 121.466,279.148 122.788,278.574 123.966 C 277.382 126.412,274.288 129.511,273.037 129.511 C 272.249 129.511,270.495 128.032,270.482 127.357 C 270.478 127.150,269.795 126.526,268.965 125.970 C 268.134 125.413,267.455 124.871,267.454 124.766 C 267.454 124.660,266.911 123.939,266.247 123.164 L 265.040 121.754 260.993 121.754 C 256.538 121.754,256.900 121.604,254.424 124.465 C 254.029 124.921,253.156 125.767,252.485 126.344 L 251.265 127.393 251.265 131.503 C 251.265 136.024,251.170 135.792,253.878 137.916 C 254.450 138.365,255.082 139.090,255.281 139.528 C 255.481 139.965,256.170 140.634,256.814 141.013 C 257.457 141.393,258.507 142.432,259.147 143.323 C 259.786 144.213,260.753 145.138,261.295 145.378 C 261.837 145.618,262.476 146.256,262.715 146.796 C 262.954 147.336,263.777 148.221,264.543 148.764 C 265.309 149.306,266.404 150.394,266.976 151.182 L 268.016 152.614 274.497 152.705 C 281.093 152.799,281.956 152.654,281.956 151.457 C 281.956 151.259,282.098 151.096,282.271 151.096 C 282.444 151.096,282.674 150.831,282.783 150.506 C 282.892 150.181,283.567 149.556,284.282 149.115 C 284.998 148.675,285.943 147.730,286.383 147.014 C 286.824 146.299,287.454 145.623,287.785 145.512 C 288.561 145.251,289.873 144.006,290.142 143.274 C 290.257 142.960,291.106 142.125,292.028 141.419 C 292.950 140.713,293.980 139.641,294.316 139.037 C 294.653 138.433,295.194 137.854,295.520 137.751 C 297.220 137.211,298.145 135.627,298.145 133.254 C 298.145 130.817,298.364 130.442,300.604 129.051 C 301.121 128.729,301.794 127.942,302.099 127.302 C 302.405 126.662,302.839 126.138,303.064 126.138 C 303.289 126.138,304.057 125.517,304.772 124.757 C 306.071 123.376,307.099 122.376,308.959 120.684 L 309.949 119.782 309.949 115.739 L 309.949 111.696 308.980 110.907 C 308.447 110.473,307.612 109.831,307.125 109.481 C 306.638 109.130,306.239 108.711,306.239 108.550 C 306.239 108.389,305.835 107.803,305.341 107.248 L 304.442 106.239 299.691 106.268 C 295.438 106.293,294.764 106.379,293.255 107.090 M304.611 107.472 C 304.950 107.779,305.228 108.263,305.228 108.547 C 305.228 109.253,306.567 110.624,307.258 110.624 C 308.661 110.624,308.964 111.650,308.864 116.055 L 308.769 120.228 307.757 120.697 C 306.364 121.343,305.228 122.432,305.228 123.120 C 305.228 123.784,304.654 124.318,303.116 125.087 C 302.515 125.387,301.778 126.124,301.478 126.724 C 300.723 128.235,300.177 128.836,299.559 128.836 C 298.170 128.836,297.470 130.186,297.470 132.867 C 297.470 135.674,297.367 135.852,295.035 137.054 C 294.296 137.435,293.731 138.016,293.602 138.528 C 293.352 139.525,292.647 140.304,291.994 140.304 C 291.289 140.304,289.376 142.317,289.376 143.059 C 289.376 143.470,288.972 143.889,288.280 144.194 C 286.810 144.841,285.666 145.857,285.666 146.513 C 285.666 147.191,284.479 148.398,283.811 148.398 C 283.100 148.398,282.060 149.521,281.475 150.920 L 280.979 152.108 274.790 152.108 C 268.452 152.108,267.791 151.980,267.791 150.754 C 267.791 150.068,266.074 148.398,265.369 148.398 C 264.747 148.398,264.202 147.799,263.446 146.286 C 263.146 145.685,262.409 144.948,261.808 144.648 C 260.273 143.881,259.696 143.346,259.696 142.686 C 259.696 141.984,258.077 140.411,257.189 140.252 C 256.831 140.187,256.224 139.527,255.840 138.786 C 255.439 138.009,254.680 137.205,254.051 136.891 C 251.939 135.836,251.939 135.836,251.939 131.535 C 251.939 127.233,251.939 127.233,254.051 126.178 C 254.652 125.878,255.389 125.141,255.689 124.540 C 256.744 122.428,256.744 122.428,261.048 122.428 L 265.016 122.428 265.592 123.642 C 266.408 125.361,267.103 126.082,268.343 126.491 C 269.054 126.725,269.536 127.170,269.752 127.791 C 271.301 132.234,277.930 130.214,279.550 124.806 C 279.777 124.051,280.482 122.913,281.118 122.277 C 281.754 121.641,282.734 120.150,283.294 118.963 C 283.855 117.777,284.923 116.184,285.668 115.424 C 286.413 114.664,287.110 113.609,287.215 113.081 C 287.530 111.506,288.410 110.677,290.270 110.205 C 291.296 109.945,292.571 109.284,293.383 108.592 C 295.154 107.082,295.541 106.988,300.142 106.948 C 303.286 106.920,304.108 107.017,304.611 107.472 M271.922 161.532 C 271.505 161.881,271.164 162.261,271.164 162.379 C 271.164 162.798,270.403 163.593,268.378 165.287 C 267.680 165.871,266.858 166.775,266.550 167.296 C 266.242 167.818,265.603 168.446,265.130 168.692 C 264.060 169.249,263.370 169.930,262.783 171.005 C 262.534 171.463,261.699 172.299,260.929 172.861 C 260.158 173.424,259.161 174.448,258.712 175.138 C 258.264 175.827,257.695 176.391,257.448 176.391 C 257.201 176.391,256.998 176.543,256.998 176.728 C 256.998 176.914,256.825 177.066,256.614 177.066 C 255.483 177.066,255.333 178.164,255.326 186.509 L 255.319 194.772 256.194 195.447 C 258.844 197.489,259.022 197.783,259.022 200.116 C 259.022 202.199,260.687 204.722,262.061 204.722 C 262.182 204.722,262.496 205.135,262.759 205.639 C 263.686 207.415,264.278 207.757,266.426 207.757 C 268.691 207.757,270.046 208.241,270.335 209.153 C 270.443 209.493,270.989 210.229,271.548 210.788 L 272.565 211.804 280.490 211.804 L 288.416 211.804 289.318 210.850 C 289.814 210.325,290.649 209.414,291.175 208.826 C 292.073 207.822,292.272 207.757,294.448 207.757 C 296.577 207.757,296.813 207.685,297.370 206.862 C 298.159 205.697,299.789 204.044,300.941 203.241 C 301.782 202.654,301.855 202.422,301.855 200.319 C 301.855 198.178,301.923 197.973,302.924 197.077 C 303.512 196.552,304.423 195.716,304.948 195.220 L 305.902 194.318 305.902 186.393 L 305.902 178.467 304.886 177.450 C 304.327 176.891,303.591 176.345,303.251 176.237 C 302.338 175.948,301.855 174.594,301.855 172.328 C 301.855 170.196,301.509 169.585,299.794 168.692 C 299.321 168.446,298.669 167.796,298.346 167.248 C 297.200 165.309,296.512 164.924,294.190 164.924 C 292.224 164.924,291.972 164.839,291.133 163.891 C 290.631 163.323,289.814 162.412,289.318 161.868 L 288.416 160.877 280.549 160.888 C 273.357 160.898,272.616 160.954,271.922 161.532 M289.331 163.069 C 290.338 165.238,290.953 165.599,293.647 165.599 C 296.302 165.599,297.470 166.151,297.470 167.405 C 297.470 168.082,299.042 169.645,299.723 169.645 C 300.715 169.646,301.180 170.717,301.180 172.997 C 301.180 175.492,301.835 176.809,303.297 177.254 C 305.223 177.841,305.228 177.864,305.228 186.341 C 305.228 194.817,305.223 194.840,303.297 195.427 C 301.885 195.857,301.180 197.346,301.180 199.900 C 301.180 202.238,300.846 203.035,299.867 203.035 C 299.204 203.035,297.470 204.709,297.470 205.349 C 297.470 206.577,296.433 207.083,293.913 207.083 C 291.310 207.083,289.376 208.167,289.376 209.626 C 289.376 210.968,288.538 211.108,280.406 211.119 C 271.963 211.131,271.939 211.126,271.352 209.199 C 270.907 207.737,269.590 207.083,267.095 207.083 C 264.790 207.083,263.744 206.617,263.744 205.591 C 263.744 204.968,261.810 203.035,261.187 203.035 C 260.083 203.035,259.696 202.140,259.696 199.581 C 259.696 196.874,259.137 195.956,256.914 195.012 L 255.987 194.618 255.987 186.386 L 255.987 178.154 257.200 177.579 C 258.862 176.790,259.696 176.022,259.696 175.280 C 259.696 174.524,260.470 173.693,261.175 173.693 C 261.879 173.693,263.405 172.111,263.803 170.969 C 263.998 170.410,264.508 169.900,265.067 169.705 C 266.209 169.307,267.791 167.781,267.791 167.077 C 267.791 166.373,268.622 165.599,269.378 165.599 C 270.093 165.599,270.721 164.914,271.641 163.130 L 272.288 161.877 280.575 161.967 L 288.861 162.057 289.331 163.069 M274.621 180.576 C 273.903 181.333,273.862 181.651,273.862 186.443 L 273.862 191.508 274.941 192.416 C 276.317 193.574,282.078 193.559,284.486 192.391 C 287.232 191.059,288.567 183.612,286.536 180.950 L 285.632 179.764 280.506 179.770 C 275.552 179.775,275.354 179.803,274.621 180.576 M285.677 181.462 C 288.124 183.965,286.138 190.815,282.664 191.856 C 276.801 193.612,274.536 192.169,274.536 186.676 C 274.536 180.727,274.766 180.495,280.703 180.461 L 284.677 180.438 285.677 181.462 M161.576 279.472 C 160.953 280.264,160.877 280.824,160.874 284.615 C 160.871 290.248,159.944 295.670,158.850 296.459 C 158.525 296.692,157.607 298.807,157.377 299.853 C 157.108 301.068,153.132 305.483,151.355 306.539 C 150.539 307.023,149.520 307.754,149.089 308.162 C 148.061 309.137,146.316 309.949,145.249 309.949 C 141.654 309.949,139.525 315.037,142.295 317.009 L 143.274 317.707 198.394 317.707 C 263.073 317.707,258.506 317.993,258.037 313.960 C 257.768 311.656,257.343 311.198,254.611 310.278 C 252.239 309.479,250.881 308.833,250.201 308.182 C 249.951 307.943,248.664 307.014,247.341 306.118 C 244.772 304.377,244.219 303.751,242.684 300.843 C 242.146 299.823,241.334 298.496,240.881 297.894 C 239.742 296.380,239.221 293.271,238.935 286.281 C 238.796 282.865,238.536 280.175,238.319 279.882 C 237.371 278.607,236.661 278.583,198.962 278.583 L 162.275 278.583 161.576 279.472 M235.611 279.834 L 237.774 280.411 237.782 283.123 C 237.807 291.956,239.267 300.169,240.814 300.169 C 240.965 300.169,241.650 301.305,242.336 302.694 C 243.255 304.553,243.908 305.418,244.811 305.968 C 245.485 306.380,246.088 306.837,246.150 306.984 C 246.211 307.131,246.403 307.251,246.576 307.251 C 246.749 307.251,247.694 307.907,248.678 308.708 C 249.775 309.601,251.110 310.328,252.130 310.588 C 253.045 310.821,254.058 311.153,254.380 311.324 C 254.702 311.495,255.195 311.636,255.476 311.636 C 255.784 311.636,255.987 311.944,255.987 312.414 C 255.987 312.843,256.209 313.488,256.482 313.848 C 257.552 315.262,257.170 315.827,254.722 316.454 C 252.384 317.053,153.127 317.383,145.844 316.816 C 142.116 316.526,141.784 316.242,142.281 313.769 C 142.764 311.362,142.804 311.325,145.230 310.971 C 147.637 310.620,149.544 309.847,150.154 308.976 C 150.403 308.621,151.210 307.981,151.948 307.555 C 154.243 306.228,157.394 302.818,157.870 301.145 C 158.102 300.330,158.848 298.904,159.528 297.976 C 161.208 295.685,161.606 293.674,161.799 286.509 C 161.929 281.682,162.069 280.318,162.484 279.848 C 163.278 278.949,232.239 278.936,235.611 279.834 " stroke="none" fill="#050405" fill-rule="evenodd"></path></g></svg>