<svg id="svg" version="1.1" xmlns="http://www.w3.org/2000/svg" xmlns:xlink="http://www.w3.org/1999/xlink" width="400" height="379.16666666666663" viewBox="0, 0, 400,379.16666666666663"><g id="svgg"><path id="path0" d="M192.030 14.304 C 190.041 14.374,187.915 14.666,187.287 14.956 C 185.122 15.952,184.242 16.241,182.163 16.635 C 178.317 17.365,175.065 17.837,173.883 17.837 C 172.358 17.837,171.026 18.463,169.496 19.900 C 168.812 20.543,167.423 21.289,166.388 21.569 C 163.906 22.240,162.790 22.788,161.866 23.792 C 160.982 24.753,158.483 26.186,157.691 26.186 C 156.661 26.186,155.300 27.033,154.892 27.928 C 154.667 28.423,153.705 29.193,152.754 29.640 C 151.804 30.087,150.692 30.901,150.283 31.450 C 149.873 31.999,149.379 32.590,149.183 32.763 C 147.511 34.247,145.731 36.243,145.731 36.633 C 145.731 36.988,144.691 37.951,144.308 37.951 C 143.835 37.951,142.595 39.456,142.034 40.713 C 141.774 41.293,140.994 42.103,140.300 42.512 C 139.490 42.990,138.736 43.924,138.197 45.117 C 137.634 46.363,137.007 47.122,136.298 47.416 C 135.411 47.783,135.097 48.325,134.371 50.744 C 133.755 52.792,133.125 54.023,132.206 54.969 C 131.493 55.703,130.819 56.743,130.709 57.279 C 129.295 64.131,128.932 65.454,127.806 67.854 C 125.241 73.319,125.177 100.157,127.722 103.226 C 128.355 103.989,129.410 107.149,129.813 109.488 C 130.733 114.829,130.798 115.015,132.168 116.308 C 133.195 117.276,133.732 118.287,134.399 120.507 C 134.882 122.114,135.529 123.526,135.838 123.645 C 136.909 124.056,137.805 125.056,138.498 126.614 C 138.886 127.485,139.709 128.484,140.350 128.863 C 140.986 129.239,141.885 130.284,142.349 131.186 C 142.814 132.089,143.316 132.827,143.465 132.827 C 143.859 132.827,146.490 135.290,146.490 135.659 C 146.490 136.263,152.155 141.535,153.045 141.758 C 153.541 141.883,154.191 142.338,154.488 142.770 C 155.484 144.217,156.480 144.960,157.741 145.197 C 159.094 145.451,162.429 147.403,162.429 147.942 C 162.429 148.307,164.399 149.183,166.899 149.929 C 167.792 150.195,168.994 150.864,169.570 151.414 C 170.792 152.582,173.383 153.700,174.866 153.700 C 177.230 153.700,181.705 154.908,183.302 155.977 C 186.653 158.221,206.960 158.263,211.195 156.035 C 212.977 155.098,214.641 154.570,217.387 154.071 C 221.889 153.252,223.988 152.541,225.056 151.473 C 225.626 150.903,226.753 150.239,227.562 149.997 C 228.371 149.755,229.688 149.361,230.488 149.121 C 231.289 148.882,232.385 148.191,232.924 147.586 C 233.834 146.566,237.040 144.835,238.875 144.375 C 239.310 144.265,239.943 143.693,240.281 143.103 C 240.620 142.513,241.616 141.713,242.494 141.325 C 243.477 140.892,244.483 140.037,245.111 139.102 C 245.672 138.267,246.492 137.403,246.934 137.183 C 248.250 136.527,248.937 135.829,249.559 134.518 C 249.898 133.804,250.642 133.072,251.311 132.795 C 252.090 132.472,252.703 131.796,253.168 130.744 C 253.891 129.110,254.746 128.177,255.891 127.770 C 256.261 127.639,256.661 127.229,256.780 126.859 C 257.334 125.136,258.711 122.774,259.689 121.870 C 260.860 120.787,261.856 118.788,261.865 117.506 C 261.875 116.112,262.883 113.717,264.040 112.335 C 265.067 111.109,265.305 110.360,265.853 106.641 C 266.816 100.106,267.811 96.190,268.834 94.913 C 269.472 94.115,269.427 76.589,268.786 76.376 C 268.525 76.289,268.311 75.900,268.311 75.513 C 268.311 75.125,268.160 74.714,267.975 74.600 C 267.791 74.486,267.543 73.921,267.425 73.344 C 266.563 69.127,266.326 67.832,266.022 65.655 C 265.409 61.280,265.015 59.927,264.183 59.344 C 263.740 59.034,263.378 58.534,263.378 58.233 C 263.378 57.931,263.248 57.685,263.091 57.685 C 262.700 57.685,261.860 54.908,261.858 53.611 C 261.857 52.455,261.001 50.948,259.260 49.032 C 258.634 48.344,257.750 46.883,257.296 45.787 C 256.713 44.383,256.149 43.653,255.385 43.315 C 254.665 42.996,253.962 42.141,253.292 40.772 C 252.657 39.474,252.043 38.710,251.635 38.710 C 250.870 38.710,249.662 37.429,249.033 35.951 C 248.787 35.372,248.200 34.750,247.728 34.568 C 246.572 34.121,245.471 33.056,244.782 31.717 C 244.401 30.977,243.696 30.439,242.652 30.092 C 241.533 29.720,240.891 29.201,240.383 28.259 C 239.994 27.536,239.481 26.945,239.243 26.945 C 238.033 26.945,234.552 25.142,233.273 23.854 C 232.475 23.049,231.365 22.296,230.806 22.180 C 227.610 21.515,226.360 21.007,225.184 19.899 C 223.479 18.291,223.420 18.271,217.647 17.433 C 212.357 16.665,208.931 15.874,207.286 15.040 C 206.165 14.472,198.198 14.088,192.030 14.304 M157.495 185.019 C 154.051 185.275,150.465 185.740,149.526 186.051 C 144.611 187.682,138.851 188.627,133.878 188.618 C 130.403 188.613,126.367 189.370,123.909 190.491 C 121.360 191.652,117.572 192.547,112.612 193.161 C 109.201 193.582,108.426 193.814,106.452 195.002 C 104.969 195.893,101.083 196.964,99.329 196.964 C 98.570 196.964,97.556 197.123,97.077 197.317 C 96.597 197.511,95.741 197.769,95.175 197.890 C 94.608 198.011,93.698 198.557,93.151 199.103 C 92.195 200.059,87.579 201.898,86.133 201.898 C 85.748 201.898,85.179 202.259,84.870 202.700 C 83.953 204.009,80.881 205.524,77.704 206.233 C 77.130 206.361,76.660 206.646,76.660 206.865 C 76.660 207.580,75.610 208.341,73.021 209.503 C 71.623 210.130,69.872 211.176,69.131 211.827 C 68.389 212.478,66.920 213.399,65.865 213.874 C 64.797 214.354,63.477 215.340,62.887 216.097 C 62.304 216.845,61.564 217.457,61.243 217.457 C 60.509 217.457,45.920 232.059,45.920 232.793 C 45.920 233.090,45.408 233.560,44.782 233.837 C 44.156 234.114,43.643 234.555,43.643 234.817 C 43.643 235.080,43.472 235.294,43.264 235.294 C 43.055 235.294,42.884 235.562,42.884 235.889 C 42.884 236.718,41.070 239.012,40.194 239.290 C 39.795 239.416,39.469 239.707,39.469 239.936 C 39.469 240.625,38.207 243.264,37.878 243.264 C 37.709 243.264,37.571 243.505,37.571 243.799 C 37.571 244.094,37.032 244.788,36.373 245.343 C 35.338 246.214,33.776 249.579,33.776 250.938 C 33.776 251.261,31.977 253.849,31.460 254.269 C 31.220 254.465,30.864 255.543,29.818 259.244 C 29.476 260.457,28.743 261.869,28.116 262.525 C 26.653 264.056,26.186 264.989,26.186 266.383 C 26.186 268.878,25.032 272.462,23.762 273.912 C 22.845 274.960,22.027 277.215,22.010 278.748 C 21.974 281.798,20.555 287.491,19.433 289.088 C 18.348 290.630,18.099 292.267,17.461 302.087 C 16.980 309.494,16.442 314.567,15.751 318.216 C 15.474 319.677,15.068 321.898,14.849 323.150 C 14.403 325.695,14.042 338.679,14.324 341.982 L 14.507 344.115 17.099 344.544 C 19.931 345.011,184.916 345.181,190.810 344.722 C 193.766 344.492,194.868 343.866,192.948 343.508 C 191.844 343.302,191.443 342.848,190.892 341.177 C 190.497 339.980,190.043 339.477,188.792 338.853 C 187.792 338.353,186.975 337.590,186.602 336.808 C 186.269 336.111,185.348 335.190,184.515 334.721 C 183.667 334.245,182.760 333.332,182.414 332.606 C 182.011 331.760,181.320 331.129,180.371 330.739 C 179.583 330.416,178.340 329.547,177.609 328.810 C 176.879 328.073,175.432 326.925,174.394 326.259 C 173.356 325.593,171.991 324.363,171.361 323.526 C 170.731 322.689,169.531 321.487,168.694 320.856 C 166.167 318.947,165.657 315.626,166.797 308.511 C 167.757 302.524,168.190 300.831,169.217 299.051 C 170.201 297.346,170.203 297.327,170.246 288.046 C 170.288 279.117,170.785 273.915,171.913 270.588 C 172.090 270.066,172.335 269.176,172.459 268.609 C 172.582 268.043,173.134 267.128,173.684 266.578 C 174.650 265.613,174.669 265.507,174.236 263.631 C 173.898 262.167,173.887 260.133,174.189 255.416 C 174.951 243.551,175.746 239.236,177.621 236.803 C 178.759 235.327,179.130 233.022,178.852 229.155 C 178.698 227.010,178.798 225.854,179.230 224.775 C 179.630 223.774,179.701 223.105,179.454 222.663 C 178.856 221.594,177.997 218.477,177.993 217.359 C 177.990 216.708,177.542 215.847,176.808 215.082 C 175.199 213.406,173.818 209.077,173.814 205.693 C 173.813 205.171,173.343 204.192,172.770 203.518 C 171.135 201.596,169.639 196.711,169.639 193.298 C 169.639 192.663,169.454 191.612,169.228 190.963 C 168.765 189.634,169.577 188.495,171.650 187.570 C 173.133 186.909,222.558 186.886,225.415 187.545 C 227.571 188.043,229.391 189.527,229.021 190.484 C 228.893 190.813,228.691 191.594,228.572 192.220 C 228.452 192.846,227.866 194.033,227.270 194.857 C 226.508 195.909,226.184 196.812,226.178 197.893 C 226.160 201.622,224.800 206.864,223.572 207.938 C 222.878 208.545,222.432 210.135,221.597 214.991 C 221.015 218.375,220.661 219.183,218.897 221.149 C 217.145 223.102,217.144 222.816,218.903 225.826 C 221.146 229.664,222.915 242.403,221.692 245.911 C 220.868 248.276,221.314 253.604,222.392 254.270 C 223.898 255.201,225.177 261.997,225.821 272.494 C 226.263 279.687,226.219 282.010,225.581 285.289 C 225.270 286.890,225.599 288.116,226.695 289.439 C 227.184 290.030,227.681 290.854,227.800 291.271 C 229.774 298.182,230.885 309.424,229.953 313.058 C 229.553 314.619,229.542 315.456,229.900 317.159 C 230.412 319.601,229.593 321.261,227.437 322.155 C 226.806 322.416,226.010 323.268,225.501 324.227 C 224.919 325.324,224.241 326.001,223.419 326.303 C 222.749 326.549,221.815 327.349,221.344 328.081 C 220.865 328.825,219.777 329.746,218.877 330.171 C 217.992 330.589,216.989 331.422,216.648 332.022 C 216.307 332.622,215.326 333.423,214.466 333.802 C 213.606 334.181,212.903 334.621,212.903 334.778 C 212.903 334.936,211.869 336.141,210.605 337.457 C 209.340 338.772,208.040 340.403,207.715 341.082 C 207.390 341.760,206.929 342.315,206.689 342.315 C 205.903 342.315,205.211 343.822,205.717 344.432 C 206.412 345.270,376.912 345.242,377.607 344.404 C 378.882 342.868,377.877 320.104,376.275 314.231 C 375.352 310.847,374.858 307.176,374.184 298.672 C 373.804 293.883,373.210 290.384,372.703 289.943 C 372.013 289.344,370.394 284.431,370.397 282.945 C 370.400 280.914,369.592 277.253,368.799 275.712 C 368.370 274.877,367.671 273.510,367.246 272.676 C 366.506 271.225,366.108 269.643,365.602 266.152 C 365.450 265.107,364.951 264.103,364.145 263.224 C 363.056 262.035,361.801 259.069,361.149 256.142 C 361.029 255.607,360.569 254.753,360.126 254.245 C 359.109 253.079,358.577 251.990,357.664 249.211 C 357.205 247.812,356.413 246.462,355.509 245.540 C 354.723 244.738,354.080 243.919,354.080 243.720 C 354.080 243.520,353.824 243.144,353.510 242.884 C 353.197 242.624,352.941 242.076,352.941 241.665 C 352.941 241.255,352.179 240.178,351.248 239.273 C 350.316 238.368,349.438 237.163,349.295 236.595 C 349.027 235.528,348.279 234.648,347.026 233.929 C 346.626 233.699,346.127 233.187,345.916 232.790 C 345.019 231.105,344.131 230.048,343.466 229.874 C 343.076 229.772,342.128 228.815,341.361 227.748 C 340.594 226.680,339.804 225.806,339.606 225.806 C 339.121 225.806,337.596 224.257,337.286 223.449 C 337.149 223.092,336.319 222.280,335.441 221.644 C 334.562 221.008,333.260 219.806,332.547 218.972 C 331.834 218.139,331.009 217.457,330.715 217.457 C 329.998 217.457,328.657 216.310,328.276 215.370 C 328.106 214.950,327.147 214.290,326.128 213.893 C 325.116 213.498,323.520 212.557,322.581 211.801 C 320.871 210.426,320.056 209.971,317.734 209.097 C 317.052 208.840,316.077 208.135,315.567 207.530 C 314.978 206.830,313.820 206.167,312.380 205.707 C 309.463 204.775,308.186 204.099,307.050 202.882 C 306.544 202.341,305.873 201.898,305.559 201.898 C 303.942 201.898,299.414 200.026,298.471 198.968 C 297.661 198.060,294.202 196.967,292.107 196.959 C 290.519 196.953,286.361 195.640,284.722 194.627 C 283.399 193.809,278.974 192.791,276.738 192.790 C 274.871 192.789,270.674 191.703,268.311 190.609 C 265.921 189.503,261.285 188.635,257.685 188.619 C 254.870 188.607,247.054 187.638,245.351 187.090 C 244.725 186.888,243.359 186.451,242.315 186.119 C 237.219 184.496,175.307 183.693,157.495 185.019 " stroke="none" fill="#ffffff" fill-rule="evenodd"></path><path id="path2" d="M184.630 13.371 C 183.586 13.570,181.708 14.130,180.455 14.614 C 179.203 15.099,177.751 15.574,177.230 15.671 C 170.926 16.833,168.845 17.476,167.742 18.603 C 166.833 19.532,165.405 20.304,163.567 20.860 C 162.628 21.144,160.920 22.086,159.772 22.952 C 158.624 23.819,157.087 24.759,156.357 25.042 C 155.626 25.325,154.665 25.826,154.221 26.156 C 149.522 29.646,147.361 31.537,145.735 33.581 C 144.678 34.909,143.674 36.052,143.504 36.120 C 143.334 36.187,142.550 37.097,141.761 38.140 C 140.972 39.184,139.860 40.465,139.288 40.987 C 138.717 41.509,137.778 42.689,137.203 43.609 C 136.627 44.530,135.686 45.679,135.110 46.163 C 134.535 46.647,133.854 47.602,133.597 48.285 C 132.741 50.559,132.298 51.410,131.060 53.154 C 130.289 54.241,129.495 56.150,128.924 58.287 C 128.425 60.159,127.742 62.198,127.406 62.818 C 126.122 65.189,125.907 65.964,125.403 70.019 C 123.997 81.335,123.965 87.940,125.256 100.380 C 125.664 104.313,126.559 107.780,127.165 107.780 C 127.357 107.780,127.514 108.038,127.514 108.354 C 127.514 108.670,127.668 109.225,127.857 109.588 C 128.045 109.950,128.387 110.972,128.616 111.860 C 129.601 115.677,130.008 116.750,130.796 117.612 C 131.646 118.543,132.736 120.594,133.620 122.931 C 133.891 123.645,134.848 124.945,135.747 125.819 C 136.646 126.692,137.381 127.668,137.381 127.988 C 137.381 128.307,138.128 129.228,139.040 130.034 C 139.952 130.840,140.907 131.901,141.162 132.392 C 141.416 132.883,142.420 134.106,143.393 135.109 C 144.366 136.112,145.822 137.727,146.630 138.698 C 147.438 139.668,149.061 141.174,150.236 142.044 C 151.411 142.914,153.010 144.157,153.791 144.806 C 154.571 145.455,155.889 146.210,156.720 146.484 C 157.550 146.758,158.848 147.549,159.604 148.241 C 160.360 148.934,162.031 149.871,163.317 150.323 C 165.532 151.103,167.471 152.202,168.311 153.153 C 168.774 153.678,170.292 154.214,173.055 154.830 C 175.798 155.442,178.081 156.197,179.810 157.066 C 185.047 159.696,210.070 159.510,215.750 156.799 C 217.305 156.056,218.636 155.608,221.632 154.820 C 224.429 154.085,225.536 153.621,227.135 152.516 C 227.970 151.938,229.421 151.184,230.361 150.840 C 233.177 149.808,233.927 149.409,234.770 148.496 C 235.213 148.017,236.671 147.128,238.012 146.520 C 239.353 145.912,241.169 144.717,242.047 143.865 C 242.925 143.012,243.807 142.315,244.006 142.315 C 244.205 142.315,244.760 141.903,245.239 141.399 C 245.718 140.896,246.689 139.871,247.397 139.122 C 248.104 138.374,248.822 137.761,248.991 137.761 C 249.161 137.761,249.801 137.031,250.415 136.139 C 251.029 135.247,251.965 134.285,252.495 134.002 C 253.025 133.718,253.854 132.740,254.338 131.828 C 254.821 130.917,255.320 130.171,255.446 130.171 C 255.955 130.171,258.043 127.863,258.604 126.681 C 258.934 125.987,259.600 124.991,260.085 124.468 C 261.555 122.883,262.137 121.771,263.210 118.501 C 263.775 116.779,264.377 115.370,264.549 115.370 C 265.190 115.370,266.400 111.994,267.201 107.970 C 267.714 105.395,268.594 102.488,269.036 101.907 C 271.518 98.648,271.594 74.973,269.140 69.731 C 268.266 67.864,267.816 66.354,267.188 63.188 C 266.460 59.515,265.954 57.947,265.107 56.736 C 264.010 55.168,263.529 54.100,262.628 51.233 C 262.132 49.655,261.357 48.226,260.476 47.266 C 259.719 46.440,258.873 45.224,258.597 44.562 C 258.320 43.900,257.421 42.802,256.598 42.122 C 255.775 41.441,254.872 40.438,254.591 39.892 C 254.156 39.047,252.652 37.338,249.630 34.255 C 246.466 31.027,240.483 25.735,239.704 25.475 C 238.387 25.037,235.459 23.399,234.944 22.813 C 234.185 21.948,233.414 21.556,230.387 20.493 C 229.045 20.022,227.593 19.302,227.161 18.894 C 226.025 17.821,224.778 17.270,222.201 16.705 C 218.247 15.838,216.173 15.266,214.700 14.637 C 210.879 13.005,190.934 12.165,184.630 13.371 M207.286 15.040 C 208.931 15.874,212.357 16.665,217.647 17.433 C 223.420 18.271,223.479 18.291,225.184 19.899 C 226.360 21.007,227.610 21.515,230.806 22.180 C 231.365 22.296,232.475 23.049,233.273 23.854 C 234.552 25.142,238.033 26.945,239.243 26.945 C 239.481 26.945,239.994 27.536,240.383 28.259 C 240.891 29.201,241.533 29.720,242.652 30.092 C 243.696 30.439,244.401 30.977,244.782 31.717 C 245.471 33.056,246.572 34.121,247.728 34.568 C 248.200 34.750,248.787 35.372,249.033 35.951 C 249.662 37.429,250.870 38.710,251.635 38.710 C 252.043 38.710,252.657 39.474,253.292 40.772 C 253.962 42.141,254.665 42.996,255.385 43.315 C 256.149 43.653,256.713 44.383,257.296 45.787 C 257.750 46.883,258.634 48.344,259.260 49.032 C 261.001 50.948,261.857 52.455,261.858 53.611 C 261.860 54.908,262.700 57.685,263.091 57.685 C 263.248 57.685,263.378 57.931,263.378 58.233 C 263.378 58.534,263.740 59.034,264.183 59.344 C 265.015 59.927,265.409 61.280,266.022 65.655 C 266.326 67.832,266.563 69.127,267.425 73.344 C 267.543 73.921,267.791 74.486,267.975 74.600 C 268.160 74.714,268.311 75.125,268.311 75.513 C 268.311 75.900,268.525 76.289,268.786 76.376 C 269.427 76.589,269.472 94.115,268.834 94.913 C 267.811 96.190,266.816 100.106,265.853 106.641 C 265.305 110.360,265.067 111.109,264.040 112.335 C 262.883 113.717,261.875 116.112,261.865 117.506 C 261.856 118.788,260.860 120.787,259.689 121.870 C 258.711 122.774,257.334 125.136,256.780 126.859 C 256.661 127.229,256.261 127.639,255.891 127.770 C 254.746 128.177,253.891 129.110,253.168 130.744 C 252.703 131.796,252.090 132.472,251.311 132.795 C 250.642 133.072,249.898 133.804,249.559 134.518 C 248.937 135.829,248.250 136.527,246.934 137.183 C 246.492 137.403,245.672 138.267,245.111 139.102 C 244.483 140.037,243.477 140.892,242.494 141.325 C 241.616 141.713,240.620 142.513,240.281 143.103 C 239.943 143.693,239.310 144.265,238.875 144.375 C 237.040 144.835,233.834 146.566,232.924 147.586 C 232.385 148.191,231.289 148.882,230.488 149.121 C 229.688 149.361,228.371 149.755,227.562 149.997 C 226.753 150.239,225.626 150.903,225.056 151.473 C 223.988 152.541,221.889 153.252,217.387 154.071 C 214.641 154.570,212.977 155.098,211.195 156.035 C 206.960 158.263,186.653 158.221,183.302 155.977 C 181.705 154.908,177.230 153.700,174.866 153.700 C 173.383 153.700,170.792 152.582,169.570 151.414 C 168.994 150.864,167.792 150.195,166.899 149.929 C 164.399 149.183,162.429 148.307,162.429 147.942 C 162.429 147.403,159.094 145.451,157.741 145.197 C 156.480 144.960,155.484 144.217,154.488 142.770 C 154.191 142.338,153.541 141.883,153.045 141.758 C 152.155 141.535,146.490 136.263,146.490 135.659 C 146.490 135.290,143.859 132.827,143.465 132.827 C 143.316 132.827,142.814 132.089,142.349 131.186 C 141.885 130.284,140.986 129.239,140.350 128.863 C 139.709 128.484,138.886 127.485,138.498 126.614 C 137.805 125.056,136.909 124.056,135.838 123.645 C 135.529 123.526,134.882 122.114,134.399 120.507 C 133.732 118.287,133.195 117.276,132.168 116.308 C 130.798 115.015,130.733 114.829,129.813 109.488 C 129.410 107.149,128.355 103.989,127.722 103.226 C 125.177 100.157,125.241 73.319,127.806 67.854 C 128.932 65.454,129.295 64.131,130.709 57.279 C 130.819 56.743,131.493 55.703,132.206 54.969 C 133.125 54.023,133.755 52.792,134.371 50.744 C 135.097 48.325,135.411 47.783,136.298 47.416 C 137.007 47.122,137.634 46.363,138.197 45.117 C 138.736 43.924,139.490 42.990,140.300 42.512 C 140.994 42.103,141.774 41.293,142.034 40.713 C 142.595 39.456,143.835 37.951,144.308 37.951 C 144.691 37.951,145.731 36.988,145.731 36.633 C 145.731 36.243,147.511 34.247,149.183 32.763 C 149.379 32.590,149.873 31.999,150.283 31.450 C 150.692 30.901,151.804 30.087,152.754 29.640 C 153.705 29.193,154.667 28.423,154.892 27.928 C 155.300 27.033,156.661 26.186,157.691 26.186 C 158.483 26.186,160.982 24.753,161.866 23.792 C 162.790 22.788,163.906 22.240,166.388 21.569 C 167.423 21.289,168.812 20.543,169.496 19.900 C 171.026 18.463,172.358 17.837,173.883 17.837 C 175.065 17.837,178.317 17.365,182.163 16.635 C 184.242 16.241,185.122 15.952,187.287 14.956 C 189.433 13.967,205.301 14.034,207.286 15.040 M181.025 182.557 C 175.285 182.715,168.283 183.032,165.465 183.262 C 162.647 183.491,158.634 183.680,156.546 183.680 C 151.610 183.680,144.657 184.532,140.987 185.586 C 138.406 186.327,129.263 187.858,127.425 187.857 C 125.650 187.856,121.134 188.858,118.975 189.731 C 116.741 190.635,116.100 190.818,113.662 191.249 C 108.143 192.224,105.248 192.948,103.226 193.861 C 100.886 194.917,99.362 195.364,96.582 195.810 C 94.503 196.143,91.600 197.380,90.471 198.413 C 90.076 198.775,88.985 199.309,88.046 199.599 C 85.561 200.369,83.299 201.404,82.807 201.998 C 82.570 202.283,81.475 202.909,80.373 203.391 C 76.048 205.279,75.266 205.702,74.395 206.629 C 73.898 207.158,73.340 207.590,73.155 207.590 C 72.346 207.590,68.412 209.762,67.499 210.713 C 66.948 211.287,65.752 212.075,64.842 212.465 C 63.932 212.856,62.675 213.766,62.049 214.489 C 61.423 215.212,60.202 216.198,59.336 216.679 C 58.470 217.160,57.545 217.959,57.280 218.454 C 57.015 218.950,56.653 219.355,56.477 219.355 C 56.173 219.355,50.257 225.206,48.181 227.559 C 47.650 228.160,46.754 228.992,46.189 229.407 C 45.624 229.822,45.161 230.375,45.161 230.636 C 45.161 230.897,44.471 231.753,43.627 232.538 C 42.783 233.323,41.820 234.529,41.488 235.217 C 41.155 235.906,40.290 237.016,39.564 237.684 C 38.839 238.353,38.017 239.428,37.738 240.073 C 37.460 240.719,36.623 242.000,35.881 242.919 C 35.138 243.839,34.401 244.763,34.243 244.972 C 34.085 245.180,33.639 246.120,33.251 247.059 C 32.115 249.813,31.796 250.420,31.079 251.190 C 30.706 251.590,30.119 252.831,29.776 253.948 C 28.810 257.086,27.645 259.962,27.340 259.962 C 26.880 259.962,25.476 263.067,25.023 265.085 C 24.540 267.240,22.779 271.727,22.417 271.727 C 22.129 271.727,21.450 274.111,20.850 277.230 C 20.399 279.576,18.718 284.906,18.218 285.579 C 17.761 286.193,16.317 295.029,16.321 297.185 C 16.324 298.421,16.035 300.248,14.409 309.298 C 12.651 319.082,12.113 343.591,13.624 345.102 L 14.442 345.920 104.669 345.920 L 194.895 345.920 195.895 344.972 C 196.444 344.450,196.955 343.683,197.028 343.268 C 197.239 342.083,198.357 342.152,199.997 343.451 C 203.661 346.353,195.308 346.110,291.421 346.110 C 338.581 346.110,377.444 346.004,377.782 345.874 C 379.672 345.149,380.101 335.254,378.932 319.355 C 378.338 311.279,378.318 311.130,377.239 306.452 C 376.486 303.187,375.630 297.923,374.947 292.351 C 374.505 288.751,373.880 286.246,372.958 284.384 C 372.664 283.789,372.200 282.277,371.928 281.025 C 370.604 274.926,369.783 272.211,369.036 271.454 C 368.785 271.200,368.287 270.004,367.929 268.798 C 366.383 263.578,366.089 262.734,365.348 261.385 C 364.918 260.602,364.448 259.962,364.304 259.962 C 364.160 259.962,363.667 258.724,363.210 257.211 C 362.259 254.069,361.416 252.138,360.516 251.044 C 360.173 250.626,359.490 249.260,358.998 248.008 C 358.506 246.755,357.198 244.536,356.092 243.077 C 354.985 241.617,354.080 240.242,354.080 240.020 C 354.080 239.799,353.474 239.031,352.734 238.313 C 351.994 237.596,350.945 236.239,350.403 235.298 C 349.861 234.356,348.759 232.978,347.953 232.235 C 347.148 231.492,346.490 230.722,346.490 230.524 C 346.490 230.326,345.879 229.653,345.133 229.029 C 344.386 228.404,343.575 227.657,343.330 227.368 C 341.202 224.862,332.351 216.339,331.643 216.116 C 330.800 215.850,329.034 214.153,329.033 213.609 C 329.032 213.475,328.353 213.093,327.522 212.761 C 326.692 212.429,325.368 211.584,324.581 210.884 C 323.079 209.549,321.670 208.712,319.679 207.974 C 319.023 207.730,318.169 207.237,317.782 206.878 C 316.508 205.695,314.067 204.175,313.443 204.175 C 312.645 204.175,310.882 203.285,308.483 201.670 C 307.422 200.956,306.104 200.274,305.554 200.155 C 303.783 199.771,302.312 199.130,300.759 198.065 C 299.128 196.946,296.799 196.129,293.169 195.401 C 291.917 195.150,289.867 194.471,288.615 193.891 C 287.362 193.311,284.886 192.559,283.112 192.220 C 281.338 191.881,278.947 191.425,277.799 191.207 C 275.796 190.827,274.305 190.404,272.676 189.753 C 270.026 188.696,269.069 188.505,260.342 187.297 C 255.506 186.627,252.386 186.077,250.664 185.591 C 246.746 184.485,240.360 183.681,235.495 183.681 C 233.669 183.681,228.224 183.437,223.393 183.138 C 212.090 182.438,194.263 182.194,181.025 182.557 M233.586 184.988 C 237.343 185.278,241.271 185.787,242.315 186.119 C 243.359 186.451,244.725 186.888,245.351 187.090 C 247.054 187.638,254.870 188.607,257.685 188.619 C 261.285 188.635,265.921 189.503,268.311 190.609 C 270.674 191.703,274.871 192.789,276.738 192.790 C 278.974 192.791,283.399 193.809,284.722 194.627 C 286.361 195.640,290.519 196.953,292.107 196.959 C 294.202 196.967,297.661 198.060,298.471 198.968 C 299.414 200.026,303.942 201.898,305.559 201.898 C 305.873 201.898,306.544 202.341,307.050 202.882 C 308.186 204.099,309.463 204.775,312.380 205.707 C 313.820 206.167,314.978 206.830,315.567 207.530 C 316.077 208.135,317.052 208.840,317.734 209.097 C 320.056 209.971,320.871 210.426,322.581 211.801 C 323.520 212.557,325.116 213.498,326.128 213.893 C 327.147 214.290,328.106 214.950,328.276 215.370 C 328.657 216.310,329.998 217.457,330.715 217.457 C 331.009 217.457,331.834 218.139,332.547 218.972 C 333.260 219.806,334.562 221.008,335.441 221.644 C 336.319 222.280,337.149 223.092,337.286 223.449 C 337.596 224.257,339.121 225.806,339.606 225.806 C 339.804 225.806,340.594 226.680,341.361 227.748 C 342.128 228.815,343.076 229.772,343.466 229.874 C 344.131 230.048,345.019 231.105,345.916 232.790 C 346.127 233.187,346.626 233.699,347.026 233.929 C 348.279 234.648,349.027 235.528,349.295 236.595 C 349.438 237.163,350.316 238.368,351.248 239.273 C 352.179 240.178,352.941 241.255,352.941 241.665 C 352.941 242.076,353.197 242.624,353.510 242.884 C 353.824 243.144,354.080 243.520,354.080 243.720 C 354.080 243.919,354.723 244.738,355.509 245.540 C 356.413 246.462,357.205 247.812,357.664 249.211 C 358.577 251.990,359.109 253.079,360.126 254.245 C 360.569 254.753,361.029 255.607,361.149 256.142 C 361.801 259.069,363.056 262.035,364.145 263.224 C 364.951 264.103,365.450 265.107,365.602 266.152 C 366.108 269.643,366.506 271.225,367.246 272.676 C 367.671 273.510,368.370 274.877,368.799 275.712 C 369.592 277.253,370.400 280.914,370.397 282.945 C 370.394 284.431,372.013 289.344,372.703 289.943 C 373.210 290.384,373.804 293.883,374.184 298.672 C 374.858 307.176,375.352 310.847,376.275 314.231 C 377.877 320.104,378.882 342.868,377.607 344.404 C 376.912 345.242,206.412 345.270,205.717 344.432 C 205.211 343.822,205.903 342.315,206.689 342.315 C 206.929 342.315,207.390 341.760,207.715 341.082 C 208.040 340.403,209.340 338.772,210.605 337.457 C 211.869 336.141,212.903 334.936,212.903 334.778 C 212.903 334.621,213.606 334.181,214.466 333.802 C 215.326 333.423,216.307 332.622,216.648 332.022 C 216.989 331.422,217.992 330.589,218.877 330.171 C 219.777 329.746,220.865 328.825,221.344 328.081 C 221.815 327.349,222.749 326.549,223.419 326.303 C 224.241 326.001,224.919 325.324,225.501 324.227 C 226.010 323.268,226.806 322.416,227.437 322.155 C 230.508 320.883,231.317 315.812,228.357 316.392 C 226.727 316.711,225.617 317.572,224.891 319.079 C 224.562 319.762,223.907 320.482,223.437 320.679 C 222.149 321.217,221.433 321.887,220.766 323.178 C 220.435 323.820,219.496 324.786,218.680 325.326 C 217.864 325.866,216.906 326.921,216.550 327.670 C 216.195 328.419,215.744 329.032,215.549 329.032 C 214.999 329.032,212.655 331.436,212.390 332.272 C 211.979 333.567,210.760 334.069,209.245 333.569 C 207.929 333.135,206.909 333.349,208.105 333.808 C 208.448 333.939,208.729 334.285,208.729 334.576 C 208.729 334.866,208.899 335.104,209.108 335.104 C 209.869 335.104,209.455 336.054,208.082 337.460 C 206.414 339.169,206.106 339.210,204.796 337.899 C 203.725 336.828,203.553 337.076,204.196 338.765 C 205.295 341.658,199.617 343.388,196.949 340.973 C 196.382 340.460,196.262 340.460,195.833 340.977 C 194.556 342.517,192.054 340.747,192.575 338.672 C 192.777 337.869,193.001 337.713,193.744 337.855 C 194.250 337.952,194.574 337.885,194.463 337.706 C 194.353 337.528,194.026 337.381,193.737 337.381 C 193.448 337.381,192.946 337.002,192.621 336.538 L 192.030 335.694 192.030 336.538 C 192.030 337.256,191.824 337.381,190.637 337.381 C 188.865 337.381,187.856 336.480,187.856 334.896 C 187.856 333.630,187.360 333.207,185.877 333.207 C 184.874 333.207,183.681 331.829,183.681 330.670 C 183.681 329.746,183.553 329.657,181.604 329.225 C 180.984 329.088,179.857 328.305,179.101 327.486 C 178.345 326.667,177.619 325.996,177.489 325.996 C 177.007 325.996,173.814 323.560,173.814 323.192 C 173.814 322.983,174.284 322.319,174.858 321.716 L 175.901 320.620 174.511 320.877 C 171.245 321.482,171.252 321.501,170.955 311.575 C 170.827 307.296,170.606 302.343,170.465 300.569 L 170.209 297.343 169.220 299.051 C 167.089 302.734,165.516 314.899,166.720 318.392 C 166.980 319.147,167.820 320.196,168.694 320.856 C 169.531 321.487,170.731 322.689,171.361 323.526 C 171.991 324.363,173.356 325.593,174.394 326.259 C 175.432 326.925,176.879 328.073,177.609 328.810 C 178.340 329.547,179.583 330.416,180.371 330.739 C 181.320 331.129,182.011 331.760,182.414 332.606 C 182.760 333.332,183.667 334.245,184.515 334.721 C 185.348 335.190,186.269 336.111,186.602 336.808 C 186.975 337.590,187.792 338.353,188.792 338.853 C 190.043 339.477,190.497 339.980,190.892 341.177 C 191.443 342.848,191.844 343.302,192.948 343.508 C 194.868 343.866,193.766 344.492,190.810 344.722 C 184.916 345.181,19.931 345.011,17.099 344.544 L 14.507 344.115 14.324 341.982 C 14.042 338.679,14.403 325.695,14.849 323.150 C 15.068 321.898,15.474 319.677,15.751 318.216 C 16.442 314.567,16.980 309.494,17.461 302.087 C 18.099 292.267,18.348 290.630,19.433 289.088 C 20.555 287.491,21.974 281.798,22.010 278.748 C 22.027 277.215,22.845 274.960,23.762 273.912 C 25.032 272.462,26.186 268.878,26.186 266.383 C 26.186 264.989,26.653 264.056,28.116 262.525 C 28.743 261.869,29.476 260.457,29.818 259.244 C 30.864 255.543,31.220 254.465,31.460 254.269 C 31.977 253.849,33.776 251.261,33.776 250.938 C 33.776 249.579,35.338 246.214,36.373 245.343 C 37.032 244.788,37.571 244.094,37.571 243.799 C 37.571 243.505,37.709 243.264,37.878 243.264 C 38.207 243.264,39.469 240.625,39.469 239.936 C 39.469 239.707,39.795 239.416,40.194 239.290 C 41.070 239.012,42.884 236.718,42.884 235.889 C 42.884 235.562,43.055 235.294,43.264 235.294 C 43.472 235.294,43.643 235.080,43.643 234.817 C 43.643 234.555,44.156 234.114,44.782 233.837 C 45.408 233.560,45.920 233.090,45.920 232.793 C 45.920 232.059,60.509 217.457,61.243 217.457 C 61.564 217.457,62.304 216.845,62.887 216.097 C 63.477 215.340,64.797 214.354,65.865 213.874 C 66.920 213.399,68.389 212.478,69.131 211.827 C 69.872 211.176,71.623 210.130,73.021 209.503 C 75.610 208.341,76.660 207.580,76.660 206.865 C 76.660 206.646,77.130 206.361,77.704 206.233 C 80.881 205.524,83.953 204.009,84.870 202.700 C 85.179 202.259,85.748 201.898,86.133 201.898 C 87.579 201.898,92.195 200.059,93.151 199.103 C 93.698 198.557,94.608 198.011,95.175 197.890 C 95.741 197.769,96.597 197.511,97.077 197.317 C 97.556 197.123,98.570 196.964,99.329 196.964 C 101.083 196.964,104.969 195.893,106.452 195.002 C 108.426 193.814,109.201 193.582,112.612 193.161 C 117.572 192.547,121.360 191.652,123.909 190.491 C 126.367 189.370,130.403 188.613,133.878 188.618 C 138.851 188.627,144.611 187.682,149.526 186.051 C 154.151 184.517,217.131 183.720,233.586 184.988 M171.537 187.594 C 169.552 188.526,168.774 189.661,169.228 190.963 C 169.454 191.612,169.639 192.663,169.639 193.298 C 169.639 196.711,171.135 201.596,172.770 203.518 C 173.343 204.192,173.813 205.171,173.814 205.693 C 173.818 209.077,175.199 213.406,176.808 215.082 C 177.542 215.847,177.990 216.708,177.993 217.359 C 177.997 218.477,178.856 221.594,179.454 222.663 C 179.700 223.102,179.638 223.756,179.260 224.699 C 178.945 225.487,178.755 226.936,178.821 228.050 L 178.937 230.013 197.184 229.990 C 219.098 229.963,216.899 229.266,216.583 236.138 C 216.418 239.743,216.453 240.368,216.740 238.899 C 217.435 235.336,218.500 232.036,218.844 232.380 C 219.821 233.357,220.764 244.844,219.924 245.541 C 219.145 246.188,219.208 246.419,220.303 246.926 C 223.283 248.309,222.162 231.403,218.903 225.826 C 217.144 222.816,217.145 223.102,218.897 221.149 C 220.661 219.183,221.015 218.375,221.597 214.991 C 222.432 210.135,222.878 208.545,223.572 207.938 C 224.800 206.864,226.160 201.622,226.178 197.893 C 226.184 196.812,226.508 195.909,227.270 194.857 C 227.866 194.033,228.452 192.846,228.572 192.220 C 228.691 191.594,228.893 190.813,229.021 190.484 C 229.391 189.527,227.571 188.043,225.415 187.545 C 222.667 186.911,172.896 186.956,171.537 187.594 M225.437 189.612 C 225.754 189.929,225.573 190.248,224.733 190.845 C 223.610 191.645,223.440 191.651,200.462 191.651 C 182.413 191.651,177.236 191.755,176.929 192.125 C 176.615 192.504,181.340 192.600,200.344 192.600 C 222.127 192.600,224.207 192.654,224.790 193.237 C 225.718 194.165,225.577 194.674,224.265 195.131 L 223.103 195.537 223.885 196.370 C 224.879 197.427,224.874 198.769,223.864 201.758 C 222.953 204.454,222.603 204.412,221.256 201.443 L 220.516 199.810 220.773 202.277 C 221.209 206.463,221.152 206.982,220.209 207.395 C 219.353 207.771,219.048 208.349,219.705 208.349 C 221.006 208.349,220.928 212.381,219.563 215.646 C 218.708 217.693,218.057 217.263,216.553 213.662 C 216.304 213.065,216.593 216.458,216.939 218.189 C 217.074 218.859,216.889 219.504,216.384 220.128 L 215.627 221.063 200.630 221.170 L 185.633 221.277 184.657 220.225 C 184.061 219.583,183.681 219.381,183.681 219.708 C 183.681 220.486,182.534 221.632,181.756 221.632 C 179.762 221.632,179.218 216.772,181.201 216.680 C 181.417 216.670,180.996 216.366,180.266 216.005 C 178.834 215.296,178.874 215.500,179.352 211.385 L 179.594 209.298 178.476 210.599 C 177.204 212.080,177.095 212.007,176.002 208.933 C 175.126 206.470,175.154 205.995,176.249 204.815 C 177.158 203.833,177.159 203.824,176.373 203.574 C 174.969 203.129,174.666 202.594,175.002 201.151 C 175.174 200.414,175.317 199.127,175.322 198.292 L 175.329 196.774 174.602 197.966 C 173.700 199.446,173.239 199.746,172.798 199.142 C 171.320 197.118,170.884 190.410,172.169 189.471 C 173.082 188.803,224.766 188.940,225.437 189.612 M215.256 225.397 C 216.511 226.862,216.697 227.536,216.089 228.404 C 215.403 229.385,182.064 229.730,181.101 228.767 C 179.790 227.456,181.018 225.409,183.342 225.033 C 187.706 224.327,214.603 224.633,215.256 225.397 M177.621 236.795 C 175.744 239.247,174.948 243.567,174.192 255.408 C 173.728 262.672,173.901 264.305,175.101 263.982 C 175.541 263.864,176.029 263.765,176.186 263.762 C 176.684 263.753,176.492 262.730,175.901 262.239 C 175.160 261.624,175.166 259.402,175.922 253.890 C 177.096 245.327,177.384 245.120,179.089 251.613 C 179.609 253.592,179.554 246.556,179.001 240.461 L 178.558 235.571 177.621 236.795 M221.477 254.348 C 221.380 254.827,221.201 258.207,221.080 261.860 C 220.959 265.512,220.784 270.209,220.690 272.296 C 220.544 275.534,220.575 275.812,220.897 274.194 C 221.797 269.667,222.182 268.053,222.616 266.992 L 223.078 265.862 223.322 267.751 C 223.456 268.790,223.814 271.198,224.117 273.102 C 224.880 277.900,224.852 282.494,224.053 283.293 C 223.372 283.974,223.369 283.966,224.577 284.594 C 226.505 285.597,226.688 275.379,224.971 262.619 C 224.269 257.405,221.965 251.951,221.477 254.348 M173.324 266.893 C 172.950 267.360,172.552 268.169,172.439 268.691 C 172.327 269.213,172.090 270.066,171.913 270.588 C 170.702 274.161,169.526 292.215,170.444 293.148 C 171.120 293.834,172.645 292.495,172.090 291.703 C 171.361 290.661,171.375 286.987,172.127 281.945 C 172.960 276.365,173.459 276.263,174.766 281.404 L 175.248 283.302 175.292 280.455 C 175.344 277.060,174.522 266.032,174.217 266.039 C 174.100 266.042,173.698 266.426,173.324 266.893 M225.652 289.263 C 225.555 289.741,225.379 292.609,225.261 295.636 C 225.142 298.662,224.967 302.590,224.870 304.364 C 224.719 307.140,224.747 307.352,225.073 305.882 C 225.609 303.465,227.036 299.016,227.218 299.198 C 227.433 299.413,228.044 303.560,228.455 307.590 C 228.735 310.342,228.695 311.220,228.251 312.111 C 227.949 312.719,227.744 313.251,227.797 313.293 C 230.172 315.181,230.608 313.448,229.991 304.576 C 229.573 298.562,229.152 296.005,227.800 291.271 C 227.681 290.854,227.189 290.036,226.706 289.453 L 225.829 288.393 225.652 289.263 M169.639 312.235 C 169.639 312.573,169.848 313.426,170.103 314.130 C 170.420 315.009,170.441 315.494,170.170 315.675 C 169.952 315.821,169.646 316.281,169.489 316.698 C 168.725 318.739,167.850 315.034,168.524 312.609 C 168.908 311.224,169.639 310.979,169.639 312.235 M227.874 318.100 C 228.636 319.629,227.979 320.550,226.408 320.156 C 225.203 319.854,225.144 318.946,226.252 317.766 C 227.273 316.680,227.153 316.655,227.874 318.100 M223.934 322.247 C 224.511 323.325,223.371 324.564,222.106 324.234 C 221.007 323.946,221.001 322.800,222.096 322.033 C 223.199 321.260,223.419 321.286,223.934 322.247 M219.355 327.135 C 219.355 328.088,218.694 328.448,218.000 327.872 C 217.506 327.462,217.514 327.321,218.068 326.710 C 218.791 325.911,219.355 326.097,219.355 327.135 M187.856 332.163 C 187.856 332.504,188.038 332.895,188.261 333.033 C 188.911 333.435,188.975 333.075,188.394 332.280 C 187.944 331.664,187.856 331.645,187.856 332.163 " stroke="none" fill="#000000" fill-rule="evenodd"></path><path id="path3" d="M183.681 11.969 C 178.643 12.533,177.702 12.761,176.660 13.670 C 175.351 14.813,173.527 15.560,172.030 15.566 C 169.320 15.576,165.465 17.261,165.465 18.435 C 165.465 18.931,163.830 19.734,162.822 19.734 C 161.506 19.734,158.741 21.174,157.966 22.263 C 157.458 22.976,156.449 23.599,155.008 24.089 C 153.805 24.497,152.271 25.350,151.598 25.983 C 150.926 26.617,149.544 27.726,148.527 28.450 C 146.327 30.015,145.731 30.567,145.731 31.037 C 145.731 31.230,144.620 32.504,143.264 33.867 C 141.907 35.231,140.797 36.458,140.797 36.595 C 140.797 36.947,140.074 37.798,138.406 39.406 C 136.958 40.804,135.863 42.567,135.863 43.505 C 135.863 43.782,135.479 44.105,135.009 44.223 C 134.036 44.468,132.448 46.680,132.448 47.790 C 132.448 48.198,132.277 48.638,132.068 48.767 C 131.860 48.896,131.689 49.292,131.689 49.648 C 131.689 50.003,131.317 50.463,130.863 50.669 C 129.870 51.120,128.622 53.436,128.224 55.565 C 127.631 58.744,127.378 59.422,126.341 60.616 C 124.827 62.359,124.455 63.962,124.070 70.398 C 123.883 73.529,123.542 77.970,123.313 80.266 C 122.820 85.206,122.820 85.932,123.304 90.892 C 123.508 92.979,123.781 96.907,123.911 99.620 C 124.251 106.727,124.872 109.358,126.596 111.006 C 127.054 111.444,127.595 112.728,127.873 114.042 C 128.600 117.474,129.734 120.145,130.679 120.650 C 131.521 121.101,132.178 122.296,132.588 124.124 C 132.866 125.363,133.913 126.570,135.009 126.916 C 135.479 127.065,135.869 127.473,135.877 127.824 C 135.896 128.725,136.577 129.818,138.330 131.766 C 139.165 132.694,140.361 134.111,140.987 134.917 C 141.613 135.722,142.936 137.148,143.928 138.087 C 144.919 139.025,145.731 140.023,145.731 140.303 C 145.731 140.583,146.534 141.364,147.515 142.038 C 148.497 142.712,149.841 143.776,150.501 144.402 C 152.390 146.192,153.292 146.869,153.799 146.875 C 155.085 146.890,157.370 148.038,157.924 148.946 C 158.782 150.351,159.632 150.861,162.049 151.418 C 165.116 152.124,165.081 152.109,165.357 152.838 C 165.922 154.327,168.302 155.389,172.069 155.832 C 173.613 156.013,174.434 156.362,175.451 157.267 C 179.806 161.141,215.896 161.133,219.491 157.256 C 220.129 156.567,221.205 156.140,223.557 155.639 C 227.600 154.780,228.024 154.597,229.412 153.118 C 230.161 152.319,231.187 151.749,232.410 151.454 C 234.789 150.878,236.184 150.151,237.072 149.023 C 237.729 148.187,238.585 147.702,241.618 146.450 C 242.325 146.158,243.063 145.441,243.414 144.704 C 243.781 143.934,244.289 143.454,244.736 143.454 C 245.731 143.454,247.818 141.428,247.818 140.462 C 247.818 139.917,248.141 139.592,248.861 139.412 C 250.129 139.096,251.992 137.189,251.992 136.210 C 251.992 135.764,252.353 135.408,252.956 135.256 C 253.972 135.002,255.525 133.211,255.953 131.803 C 256.092 131.344,256.518 130.869,256.900 130.748 C 258.011 130.396,259.062 129.303,259.328 128.222 C 259.464 127.672,260.025 126.818,260.574 126.324 C 262.698 124.417,263.302 123.662,263.503 122.665 C 263.617 122.097,263.817 121.120,263.947 120.493 C 264.077 119.867,264.256 118.991,264.345 118.546 C 264.435 118.102,264.845 117.650,265.257 117.542 C 266.361 117.253,267.433 114.506,267.956 110.626 C 268.386 107.424,268.909 105.996,270.079 104.821 C 271.388 103.507,271.765 100.513,271.973 89.753 C 272.296 73.089,271.701 67.897,269.176 65.353 C 268.700 64.874,268.308 64.020,268.304 63.455 C 268.276 59.594,266.922 55.214,265.317 53.792 C 264.668 53.217,264.137 52.389,264.137 51.953 C 264.137 49.425,262.204 45.553,260.934 45.535 C 260.713 45.532,260.104 44.642,259.583 43.557 C 259.034 42.418,258.100 41.225,257.369 40.733 C 256.673 40.265,255.734 39.148,255.282 38.252 C 254.748 37.194,254.026 36.432,253.226 36.080 C 252.547 35.781,251.990 35.269,251.986 34.941 C 251.977 34.026,250.030 32.035,248.861 31.744 C 248.189 31.577,247.818 31.233,247.818 30.778 C 247.818 29.891,245.622 27.704,244.731 27.704 C 244.365 27.704,243.757 27.174,243.380 26.526 C 242.743 25.432,239.629 23.529,238.475 23.529 C 238.215 23.529,237.653 23.038,237.225 22.438 C 236.369 21.236,234.523 20.225,232.573 19.890 C 230.939 19.609,229.603 18.957,229.597 18.437 C 229.588 17.658,227.019 16.364,224.614 15.928 C 220.981 15.268,219.414 14.750,218.387 13.868 C 215.754 11.605,196.388 10.545,183.681 11.969 M210.336 13.465 C 211.950 13.774,213.914 14.301,214.700 14.637 C 216.173 15.266,218.247 15.838,222.201 16.705 C 224.778 17.270,226.025 17.821,227.161 18.894 C 227.593 19.302,229.045 20.022,230.387 20.493 C 233.414 21.556,234.185 21.948,234.944 22.813 C 235.459 23.399,238.387 25.037,239.704 25.475 C 240.483 25.735,246.466 31.027,249.630 34.255 C 252.652 37.338,254.156 39.047,254.591 39.892 C 254.872 40.438,255.775 41.441,256.598 42.122 C 257.421 42.802,258.320 43.900,258.597 44.562 C 258.873 45.224,259.719 46.440,260.476 47.266 C 261.357 48.226,262.132 49.655,262.628 51.233 C 263.529 54.100,264.010 55.168,265.107 56.736 C 265.954 57.947,266.460 59.515,267.188 63.188 C 267.816 66.354,268.266 67.864,269.140 69.731 C 271.594 74.973,271.518 98.648,269.036 101.907 C 268.594 102.488,267.714 105.395,267.201 107.970 C 266.400 111.994,265.190 115.370,264.549 115.370 C 264.377 115.370,263.775 116.779,263.210 118.501 C 262.137 121.771,261.555 122.883,260.085 124.468 C 259.600 124.991,258.934 125.987,258.604 126.681 C 258.043 127.863,255.955 130.171,255.446 130.171 C 255.320 130.171,254.821 130.917,254.338 131.828 C 253.854 132.740,253.025 133.718,252.495 134.002 C 251.965 134.285,251.029 135.247,250.415 136.139 C 249.801 137.031,249.161 137.761,248.991 137.761 C 248.822 137.761,248.104 138.374,247.397 139.122 C 246.689 139.871,245.718 140.896,245.239 141.399 C 244.760 141.903,244.205 142.315,244.006 142.315 C 243.807 142.315,242.925 143.012,242.047 143.865 C 241.169 144.717,239.353 145.912,238.012 146.520 C 236.671 147.128,235.213 148.017,234.770 148.496 C 233.927 149.409,233.177 149.808,230.361 150.840 C 229.421 151.184,227.970 151.938,227.135 152.516 C 225.536 153.621,224.429 154.085,221.632 154.820 C 218.636 155.608,217.305 156.056,215.750 156.799 C 210.070 159.510,185.047 159.696,179.810 157.066 C 178.081 156.197,175.798 155.442,173.055 154.830 C 170.292 154.214,168.774 153.678,168.311 153.153 C 167.471 152.202,165.532 151.103,163.317 150.323 C 162.031 149.871,160.360 148.934,159.604 148.241 C 158.848 147.549,157.550 146.758,156.720 146.484 C 155.889 146.210,154.571 145.455,153.791 144.806 C 153.010 144.157,151.411 142.914,150.236 142.044 C 149.061 141.174,147.438 139.668,146.630 138.698 C 145.822 137.727,144.366 136.112,143.393 135.109 C 142.420 134.106,141.416 132.883,141.162 132.392 C 140.907 131.901,139.952 130.840,139.040 130.034 C 138.128 129.228,137.381 128.307,137.381 127.988 C 137.381 127.668,136.646 126.692,135.747 125.819 C 134.848 124.945,133.891 123.645,133.620 122.931 C 132.736 120.594,131.646 118.543,130.796 117.612 C 130.008 116.750,129.601 115.677,128.616 111.860 C 128.387 110.972,128.045 109.950,127.857 109.588 C 127.668 109.225,127.514 108.670,127.514 108.354 C 127.514 108.038,127.357 107.780,127.165 107.780 C 126.559 107.780,125.664 104.313,125.256 100.380 C 123.965 87.940,123.997 81.335,125.403 70.019 C 125.907 65.964,126.122 65.189,127.406 62.818 C 127.742 62.198,128.425 60.159,128.924 58.287 C 129.495 56.150,130.289 54.241,131.060 53.154 C 132.298 51.410,132.741 50.559,133.597 48.285 C 133.854 47.602,134.535 46.647,135.110 46.163 C 135.686 45.679,136.627 44.530,137.203 43.609 C 137.778 42.689,138.717 41.509,139.288 40.987 C 139.860 40.465,140.972 39.184,141.761 38.140 C 142.550 37.097,143.334 36.187,143.504 36.120 C 143.674 36.052,144.678 34.909,145.735 33.581 C 147.361 31.537,149.522 29.646,154.221 26.156 C 154.665 25.826,155.626 25.325,156.357 25.042 C 157.087 24.759,158.624 23.819,159.772 22.952 C 160.920 22.086,162.628 21.144,163.567 20.860 C 165.405 20.304,166.833 19.532,167.742 18.603 C 168.845 17.476,170.926 16.833,177.230 15.671 C 177.751 15.574,179.203 15.099,180.455 14.614 C 184.983 12.863,203.471 12.151,210.336 13.465 M184.440 180.311 C 181.622 180.475,178.463 180.794,177.419 181.019 C 174.822 181.579,166.548 182.109,153.890 182.526 C 141.575 182.932,137.171 183.548,134.725 185.207 C 133.648 185.938,131.494 186.278,125.237 186.703 C 120.281 187.040,116.777 187.933,115.535 189.174 C 114.640 190.070,113.406 190.357,108.159 190.892 C 102.734 191.445,101.933 191.660,100.415 192.972 C 99.249 193.980,98.436 194.299,96.074 194.676 C 91.817 195.357,90.661 195.774,89.184 197.164 C 88.441 197.864,87.104 198.610,86.148 198.858 C 82.237 199.873,81.519 200.186,80.352 201.386 C 79.556 202.204,78.263 202.925,76.660 203.443 C 74.874 204.021,73.898 204.599,73.122 205.536 C 72.533 206.248,71.756 206.831,71.396 206.831 C 71.035 206.831,70.578 206.972,70.380 207.145 C 70.181 207.317,69.308 207.681,68.439 207.954 C 67.295 208.312,66.669 208.802,66.171 209.726 C 65.706 210.590,65.050 211.135,64.146 211.410 C 62.034 212.053,61.218 212.543,60.725 213.466 C 60.472 213.938,59.568 214.716,58.715 215.195 C 57.015 216.151,55.994 216.917,55.066 217.932 C 54.732 218.297,53.776 219.269,52.941 220.091 C 52.106 220.914,51.188 221.831,50.900 222.130 C 42.458 230.891,40.535 233.170,40.109 234.915 C 39.975 235.466,39.420 236.064,38.786 236.342 C 37.679 236.828,37.307 237.364,36.265 239.977 C 35.945 240.779,35.361 241.519,34.968 241.622 C 33.896 241.902,32.852 243.550,32.060 246.209 C 31.604 247.740,31.044 248.788,30.485 249.154 C 29.237 249.971,28.610 251.405,28.057 254.702 C 27.643 257.164,27.420 257.689,26.576 258.188 C 25.205 258.998,23.529 263.380,23.529 266.157 C 23.529 266.511,23.173 267.098,22.738 267.461 C 21.429 268.554,20.545 270.928,19.786 275.392 C 19.248 278.561,18.828 279.946,18.119 280.895 C 16.572 282.966,16.357 283.981,15.373 293.891 C 15.064 297.002,14.587 299.906,14.312 300.343 C 12.002 304.022,10.048 340.558,11.923 345.020 C 13.124 347.879,4.206 347.628,104.509 347.628 L 194.291 347.628 196.372 346.607 C 198.070 345.774,198.613 345.662,199.321 345.998 C 202.861 347.672,200.373 347.628,291.737 347.628 L 377.862 347.628 379.295 346.205 L 380.727 344.782 380.521 328.653 C 380.290 310.497,379.806 304.712,378.239 301.328 C 377.998 300.806,377.700 300.294,377.578 300.190 C 377.170 299.840,376.471 295.531,376.471 293.362 C 376.471 288.713,374.555 280.835,373.424 280.835 C 373.050 280.835,372.441 278.239,371.873 274.224 C 371.476 271.418,371.188 270.568,370.182 269.251 C 368.849 267.504,368.379 266.264,367.711 262.731 C 367.340 260.768,366.991 260.089,365.607 258.645 C 364.363 257.347,363.943 256.605,363.930 255.686 C 363.892 252.898,362.542 249.543,361.299 249.149 C 360.822 248.997,360.391 248.331,360.118 247.321 C 359.135 243.692,358.010 241.746,356.894 241.746 C 356.475 241.746,354.839 238.909,354.839 238.183 C 354.839 237.768,354.044 237.081,352.852 236.466 C 352.152 236.105,351.738 235.522,351.579 234.676 C 351.361 233.517,350.771 232.758,346.205 227.766 C 345.527 227.024,344.972 226.280,344.972 226.112 C 344.972 225.944,344.758 225.798,344.497 225.788 C 344.236 225.777,343.355 224.950,342.540 223.950 C 341.724 222.950,340.238 221.464,339.238 220.648 C 338.238 219.833,337.411 218.963,337.400 218.717 C 337.390 218.470,336.826 217.880,336.148 217.407 C 335.470 216.933,334.823 216.415,334.712 216.257 C 334.600 216.098,333.885 215.708,333.123 215.390 C 332.361 215.072,331.442 214.310,331.080 213.697 C 330.420 212.581,329.920 212.247,327.591 211.370 C 326.901 211.110,326.090 210.415,325.782 209.820 C 325.162 208.622,324.044 207.959,321.324 207.177 C 320.104 206.826,319.198 206.259,318.596 205.469 C 317.704 204.300,317.032 203.943,314.017 203.042 C 313.169 202.789,311.906 202.000,311.211 201.290 C 310.492 200.554,309.277 199.822,308.390 199.589 C 304.418 198.548,303.722 198.254,302.657 197.163 C 301.403 195.879,299.913 195.348,295.636 194.662 C 293.762 194.361,292.580 193.963,292.176 193.497 C 291.838 193.108,291.389 192.789,291.178 192.789 C 290.968 192.789,290.601 192.555,290.363 192.269 C 289.849 191.649,288.276 191.318,283.681 190.863 C 278.299 190.331,277.334 190.098,275.910 188.990 C 274.321 187.755,270.371 186.716,267.284 186.721 C 264.498 186.726,257.685 185.893,257.685 185.548 C 257.685 184.080,250.113 182.929,237.761 182.519 C 225.318 182.106,217.339 181.596,214.421 181.029 C 209.384 180.050,194.854 179.702,184.440 180.311 M223.393 183.138 C 228.224 183.437,233.669 183.681,235.495 183.681 C 240.360 183.681,246.746 184.485,250.664 185.591 C 252.386 186.077,255.506 186.627,260.342 187.297 C 269.069 188.505,270.026 188.696,272.676 189.753 C 274.305 190.404,275.796 190.827,277.799 191.207 C 278.947 191.425,281.338 191.881,283.112 192.220 C 284.886 192.559,287.362 193.311,288.615 193.891 C 289.867 194.471,291.917 195.150,293.169 195.401 C 296.799 196.129,299.128 196.946,300.759 198.065 C 302.312 199.130,303.783 199.771,305.554 200.155 C 306.104 200.274,307.422 200.956,308.483 201.670 C 310.882 203.285,312.645 204.175,313.443 204.175 C 314.067 204.175,316.508 205.695,317.782 206.878 C 318.169 207.237,319.023 207.730,319.679 207.974 C 321.670 208.712,323.079 209.549,324.581 210.884 C 325.368 211.584,326.692 212.429,327.522 212.761 C 328.353 213.093,329.032 213.475,329.033 213.609 C 329.034 214.153,330.800 215.850,331.643 216.116 C 332.351 216.339,341.202 224.862,343.330 227.368 C 343.575 227.657,344.386 228.404,345.133 229.029 C 345.879 229.653,346.490 230.326,346.490 230.524 C 346.490 230.722,347.148 231.492,347.953 232.235 C 348.759 232.978,349.861 234.356,350.403 235.298 C 350.945 236.239,351.994 237.596,352.734 238.313 C 353.474 239.031,354.080 239.799,354.080 240.020 C 354.080 240.242,354.985 241.617,356.092 243.077 C 357.198 244.536,358.506 246.755,358.998 248.008 C 359.490 249.260,360.173 250.626,360.516 251.044 C 361.416 252.138,362.259 254.069,363.210 257.211 C 363.667 258.724,364.160 259.962,364.304 259.962 C 364.448 259.962,364.918 260.602,365.348 261.385 C 366.089 262.734,366.383 263.578,367.929 268.798 C 368.287 270.004,368.785 271.200,369.036 271.454 C 369.783 272.211,370.604 274.926,371.928 281.025 C 372.200 282.277,372.664 283.789,372.958 284.384 C 373.880 286.246,374.505 288.751,374.947 292.351 C 375.630 297.923,376.486 303.187,377.239 306.452 C 378.318 311.130,378.338 311.279,378.932 319.355 C 380.101 335.254,379.672 345.149,377.782 345.874 C 377.444 346.004,338.581 346.110,291.421 346.110 C 195.308 346.110,203.661 346.353,199.997 343.451 C 198.357 342.152,197.239 342.083,197.028 343.268 C 196.955 343.683,196.444 344.450,195.895 344.972 L 194.895 345.920 104.669 345.920 L 14.442 345.920 13.624 345.102 C 12.113 343.591,12.651 319.082,14.409 309.298 C 16.035 300.248,16.324 298.421,16.321 297.185 C 16.317 295.029,17.761 286.193,18.218 285.579 C 18.718 284.906,20.399 279.576,20.850 277.230 C 21.450 274.111,22.129 271.727,22.417 271.727 C 22.779 271.727,24.540 267.240,25.023 265.085 C 25.476 263.067,26.880 259.962,27.340 259.962 C 27.645 259.962,28.810 257.086,29.776 253.948 C 30.119 252.831,30.706 251.590,31.079 251.190 C 31.796 250.420,32.115 249.813,33.251 247.059 C 33.639 246.120,34.085 245.180,34.243 244.972 C 34.401 244.763,35.138 243.839,35.881 242.919 C 36.623 242.000,37.460 240.719,37.738 240.073 C 38.017 239.428,38.839 238.353,39.564 237.684 C 40.290 237.016,41.155 235.906,41.488 235.217 C 41.820 234.529,42.783 233.323,43.627 232.538 C 44.471 231.753,45.161 230.897,45.161 230.636 C 45.161 230.375,45.624 229.822,46.189 229.407 C 46.754 228.992,47.650 228.160,48.181 227.559 C 50.257 225.206,56.173 219.355,56.477 219.355 C 56.653 219.355,57.015 218.950,57.280 218.454 C 57.545 217.959,58.470 217.160,59.336 216.679 C 60.202 216.198,61.423 215.212,62.049 214.489 C 62.675 213.766,63.932 212.856,64.842 212.465 C 65.752 212.075,66.948 211.287,67.499 210.713 C 68.412 209.762,72.346 207.590,73.155 207.590 C 73.340 207.590,73.898 207.158,74.395 206.629 C 75.266 205.702,76.048 205.279,80.373 203.391 C 81.475 202.909,82.570 202.283,82.807 201.998 C 83.299 201.404,85.561 200.369,88.046 199.599 C 88.985 199.309,90.076 198.775,90.471 198.413 C 91.600 197.380,94.503 196.143,96.582 195.810 C 99.362 195.364,100.886 194.917,103.226 193.861 C 105.248 192.948,108.143 192.224,113.662 191.249 C 116.100 190.818,116.741 190.635,118.975 189.731 C 121.134 188.858,125.650 187.856,127.425 187.857 C 129.263 187.858,138.406 186.327,140.987 185.586 C 144.657 184.532,151.610 183.680,156.546 183.680 C 158.634 183.680,162.647 183.491,165.465 183.262 C 178.817 182.173,206.829 182.113,223.393 183.138 M172.169 189.471 C 170.880 190.413,171.321 197.123,172.805 199.151 C 173.524 200.133,175.045 197.941,175.445 195.347 C 175.566 194.563,176.029 193.410,176.473 192.786 L 177.281 191.651 200.442 191.651 C 223.441 191.651,223.610 191.645,224.733 190.845 C 225.573 190.248,225.754 189.929,225.437 189.612 C 224.766 188.940,173.082 188.803,172.169 189.471 M173.874 193.412 C 173.935 194.986,173.649 195.825,173.050 195.825 C 172.479 195.825,172.220 193.419,172.664 192.249 C 173.208 190.821,173.794 191.385,173.874 193.412 M221.651 196.507 C 220.289 197.868,220.205 198.884,221.249 201.321 C 222.577 204.418,222.944 204.480,223.864 201.758 C 224.926 198.612,224.897 197.311,223.738 196.223 L 222.809 195.349 221.651 196.507 M223.357 199.118 L 223.088 200.189 222.581 199.242 C 222.215 198.558,222.188 198.157,222.482 197.803 C 223.110 197.046,223.667 197.882,223.357 199.118 M175.945 205.110 C 175.112 206.382,175.812 210.120,177.131 211.438 C 177.829 212.136,179.487 209.476,179.560 207.540 C 179.671 204.607,177.313 203.022,175.945 205.110 M177.891 207.462 C 177.486 208.352,177.425 208.370,176.964 207.740 C 176.341 206.888,176.333 206.185,176.945 205.965 C 177.863 205.635,178.363 206.426,177.891 207.462 M217.382 209.126 C 215.739 210.768,216.466 216.091,218.435 216.847 C 219.558 217.278,221.198 211.531,220.486 209.659 C 219.727 207.661,218.975 207.532,217.382 209.126 M219.255 212.196 L 218.863 213.740 218.350 212.519 C 217.717 211.014,217.713 210.733,218.311 210.064 C 219.164 209.110,219.720 210.365,219.255 212.196 M180.132 217.845 C 179.473 218.960,179.476 219.027,180.271 220.311 C 181.519 222.331,183.776 221.593,183.776 219.165 C 183.776 216.812,181.277 215.906,180.132 217.845 M182.163 218.912 C 182.163 219.446,181.736 219.692,181.179 219.479 C 180.888 219.367,180.744 219.122,180.859 218.936 C 181.124 218.507,182.163 218.488,182.163 218.912 M183.342 225.033 C 181.018 225.409,179.790 227.456,181.101 228.767 C 182.064 229.730,215.403 229.385,216.089 228.404 C 216.697 227.536,216.511 226.862,215.256 225.397 C 214.603 224.633,187.706 224.327,183.342 225.033 M218.312 233.113 C 217.512 234.770,216.338 240.688,216.326 243.117 C 216.319 244.636,217.670 246.679,218.682 246.679 C 220.525 246.679,220.859 243.581,219.729 236.971 C 218.867 231.926,218.874 231.947,218.312 233.113 M219.317 243.295 C 219.362 244.911,219.073 245.313,218.371 244.611 C 217.948 244.189,217.939 243.747,218.321 242.140 C 218.826 240.013,219.239 240.491,219.317 243.295 M176.893 248.092 C 175.470 253.562,175.030 261.277,176.070 262.524 C 178.949 265.975,180.772 258.571,178.888 251.076 C 178.569 249.806,178.216 248.380,178.103 247.907 C 177.766 246.495,177.290 246.567,176.893 248.092 M178.092 258.508 C 178.246 260.045,178.155 260.858,177.775 261.354 C 176.886 262.517,176.398 261.294,176.652 258.544 C 177.058 254.144,177.655 254.129,178.092 258.508 M222.521 267.207 C 220.384 273.507,219.864 281.621,221.494 283.250 C 224.953 286.709,225.603 280.757,223.224 267.396 L 222.960 265.912 222.521 267.207 M223.450 280.365 C 223.335 282.443,222.936 282.976,222.277 281.931 C 222.010 281.507,222.053 280.408,222.417 278.363 C 223.020 274.965,223.677 276.237,223.450 280.365 M172.906 277.734 C 171.831 279.472,171.221 290.462,172.128 291.756 C 173.803 294.148,175.558 291.694,175.404 287.174 C 175.227 282.004,173.740 276.383,172.906 277.734 M173.866 288.591 C 173.966 290.510,173.758 290.907,172.839 290.555 C 172.218 290.316,172.263 288.263,172.941 285.964 C 173.259 284.885,173.746 286.267,173.866 288.591 M226.265 301.610 C 224.355 307.729,224.188 310.843,225.688 312.408 C 228.568 315.414,229.268 311.782,227.739 301.763 C 227.257 298.606,227.205 298.600,226.265 301.610 M227.666 309.940 C 227.710 311.333,227.233 311.810,226.582 311.026 C 226.256 310.633,226.244 310.278,226.539 309.727 C 226.762 309.310,226.962 308.487,226.983 307.900 L 227.021 306.831 227.324 307.780 C 227.492 308.302,227.645 309.274,227.666 309.940 M168.524 312.609 C 167.850 315.034,168.725 318.739,169.489 316.698 C 169.646 316.281,169.952 315.821,170.170 315.675 C 170.441 315.494,170.420 315.009,170.103 314.130 C 169.848 313.426,169.639 312.573,169.639 312.235 C 169.639 310.979,168.908 311.224,168.524 312.609 M226.252 317.766 C 225.144 318.946,225.203 319.854,226.408 320.156 C 227.979 320.550,228.636 319.629,227.874 318.100 C 227.153 316.655,227.273 316.680,226.252 317.766 M174.834 321.748 C 174.273 322.333,173.814 322.983,173.814 323.192 C 173.814 323.560,177.007 325.996,177.489 325.996 C 177.619 325.996,178.345 326.667,179.101 327.486 C 179.857 328.305,180.984 329.088,181.604 329.225 C 183.553 329.657,183.681 329.746,183.681 330.670 C 183.681 331.829,184.874 333.207,185.877 333.207 C 187.360 333.207,187.856 333.630,187.856 334.896 C 187.856 336.480,188.865 337.381,190.637 337.381 C 193.260 337.381,191.800 333.451,189.060 333.134 C 188.305 333.047,188.013 332.774,187.918 332.068 C 187.761 330.894,186.054 329.032,185.133 329.032 C 184.704 329.032,184.232 328.509,183.862 327.624 C 183.238 326.131,182.099 324.858,181.386 324.858 C 180.882 324.858,179.538 323.334,179.519 322.742 C 179.461 320.848,176.332 320.184,174.834 321.748 M222.096 322.033 C 221.001 322.800,221.007 323.946,222.106 324.234 C 223.371 324.564,224.511 323.325,223.934 322.247 C 223.419 321.286,223.199 321.260,222.096 322.033 M177.989 323.340 C 177.989 324.145,176.718 324.427,176.281 323.719 C 175.930 323.152,176.418 322.581,177.252 322.581 C 177.736 322.581,177.989 322.841,177.989 323.340 M218.068 326.710 C 217.514 327.321,217.506 327.462,218.000 327.872 C 218.694 328.448,219.355 328.088,219.355 327.135 C 219.355 326.097,218.791 325.911,218.068 326.710 M181.957 327.109 C 182.238 327.563,181.524 328.013,181.018 327.700 C 180.594 327.438,180.873 326.755,181.404 326.755 C 181.588 326.755,181.837 326.914,181.957 327.109 M204.654 334.258 C 203.535 335.625,203.576 336.679,204.796 337.899 C 206.106 339.210,206.414 339.169,208.082 337.460 C 209.455 336.054,209.869 335.104,209.108 335.104 C 208.899 335.104,208.729 334.910,208.729 334.672 C 208.729 333.090,205.850 332.798,204.654 334.258 M207.590 335.830 C 207.590 336.424,206.552 337.017,205.930 336.778 C 205.208 336.501,205.131 335.818,205.751 335.198 C 206.213 334.736,207.590 335.209,207.590 335.830 M192.565 338.712 C 192.075 340.665,194.423 342.427,195.750 341.101 C 196.422 340.428,196.312 339.884,195.274 338.765 C 194.075 337.471,192.882 337.448,192.565 338.712 " stroke="none" fill="#0f0c0c" fill-rule="evenodd"></path></g></svg>