<svg id="svg" version="1.1" xmlns="http://www.w3.org/2000/svg" xmlns:xlink="http://www.w3.org/1999/xlink" width="400" height="290.19607843137254" viewBox="0, 0, 400,290.19607843137254"><g id="svgg"><path id="path0" d="M52.467 29.052 C 52.188 29.358,51.959 29.708,51.959 29.831 C 51.959 30.504,50.425 32.221,49.822 32.221 C 49.457 32.221,48.874 32.523,48.527 32.892 L 47.896 33.564 47.885 51.833 L 47.874 70.102 46.822 70.900 C 45.782 71.689,45.722 71.698,41.365 71.698 L 36.960 71.698 36.162 73.275 C 35.570 74.445,35.131 74.933,34.458 75.167 C 33.960 75.341,33.252 75.765,32.886 76.109 L 32.221 76.734 32.221 164.877 L 32.221 253.019 32.886 253.645 C 33.252 253.988,33.960 254.412,34.458 254.586 C 35.131 254.820,35.570 255.309,36.162 256.478 C 36.650 257.442,37.149 258.055,37.446 258.055 C 38.223 258.055,40.036 259.587,40.047 260.254 C 40.053 260.586,40.360 261.141,40.730 261.488 L 41.402 262.119 211.948 262.119 C 374.009 262.119,382.516 262.094,382.940 261.611 C 383.185 261.332,383.477 260.805,383.588 260.441 C 383.847 259.591,384.989 258.448,385.840 258.187 C 386.841 257.880,387.233 257.473,387.733 256.224 C 388.068 255.387,388.465 254.971,389.232 254.654 C 389.806 254.418,390.504 254.021,390.784 253.772 C 391.266 253.344,391.292 248.557,391.292 160.958 C 391.292 73.359,391.266 68.572,390.784 68.144 C 390.504 67.895,389.806 67.498,389.232 67.261 C 388.465 66.945,388.068 66.529,387.733 65.692 C 387.482 65.066,387.090 64.398,386.862 64.208 C 386.543 63.944,365.279 63.846,295.693 63.789 L 204.940 63.716 204.248 62.969 C 203.867 62.558,203.461 61.924,203.345 61.561 C 203.075 60.710,202.406 60.084,200.996 59.361 C 200.333 59.022,199.703 58.419,199.480 57.910 C 198.807 56.373,198.667 56.208,197.802 55.930 C 196.672 55.567,196.068 55.010,195.612 53.910 C 195.147 52.788,194.617 52.271,193.162 51.524 C 191.665 50.755,191.301 49.929,191.296 47.287 C 191.291 44.853,191.143 44.599,189.201 43.697 C 188.449 43.348,188.032 42.912,187.811 42.244 C 187.452 41.154,186.818 40.514,185.788 40.198 C 185.000 39.958,184.124 38.988,183.453 37.614 C 183.183 37.060,182.495 36.454,181.644 36.021 C 180.886 35.635,180.191 35.051,180.092 34.715 C 179.724 33.475,178.674 32.225,177.998 32.223 C 177.294 32.221,176.051 31.023,175.735 30.044 C 175.174 28.303,180.745 28.445,113.816 28.471 C 54.244 28.495,52.965 28.507,52.467 29.052 M168.563 47.097 C 168.889 47.456,169.280 48.136,169.431 48.608 C 169.614 49.177,170.112 49.681,170.913 50.104 C 172.441 50.913,172.935 51.412,173.697 52.922 C 174.150 53.819,174.510 54.160,175.073 54.225 C 176.611 54.403,177.202 55.495,177.315 58.367 C 177.421 61.085,178.177 62.405,179.630 62.411 C 180.065 62.413,180.703 63.208,181.594 64.857 C 181.760 65.166,182.149 65.555,182.458 65.721 C 184.144 66.632,184.902 67.256,184.904 67.736 C 184.906 68.432,186.721 70.246,187.417 70.249 C 187.896 70.250,188.520 71.008,189.431 72.695 C 189.598 73.003,189.987 73.392,190.295 73.558 C 192.105 74.534,193.033 75.313,193.033 75.855 C 193.033 77.449,193.965 77.792,198.382 77.823 C 203.457 77.859,203.713 77.929,204.549 79.509 C 204.916 80.204,205.365 80.951,205.545 81.168 C 205.821 81.501,219.174 81.576,288.826 81.639 L 371.777 81.713 372.609 82.544 L 373.440 83.375 373.514 162.640 L 373.588 241.904 372.944 242.844 C 372.558 243.408,371.962 243.851,371.455 243.953 C 370.310 244.182,53.432 244.170,52.287 243.941 C 51.692 243.822,51.182 243.437,50.800 242.818 C 49.881 241.331,49.881 88.422,50.800 86.935 C 51.528 85.757,52.123 85.631,56.984 85.631 C 61.110 85.631,62.119 85.258,62.119 83.733 C 62.119 83.145,63.911 81.567,64.579 81.567 C 65.895 81.567,65.893 81.594,65.893 64.630 L 65.893 48.652 66.658 47.548 L 67.423 46.444 117.696 46.444 L 167.968 46.444 168.563 47.097 M211.428 106.937 C 209.378 107.277,207.437 108.336,207.060 109.320 C 206.974 109.542,206.698 109.724,206.446 109.724 C 206.194 109.724,205.713 109.983,205.376 110.299 C 205.039 110.616,204.247 111.051,203.616 111.266 C 202.718 111.573,202.262 111.997,201.531 113.207 C 201.016 114.059,199.938 115.477,199.136 116.359 C 198.334 117.240,197.678 118.177,197.678 118.439 C 197.678 118.702,197.581 119.013,197.463 119.131 C 195.458 121.136,196.033 139.080,198.143 140.348 C 199.369 141.085,200.263 142.032,200.679 143.032 C 200.973 143.741,201.644 144.477,202.600 145.138 C 203.408 145.697,204.147 146.448,204.243 146.807 C 204.339 147.166,204.556 147.460,204.726 147.460 C 204.895 147.460,205.240 147.633,205.492 147.845 C 205.744 148.057,206.800 148.477,207.837 148.779 C 208.875 149.080,210.626 149.834,211.727 150.455 C 214.412 151.967,221.925 152.344,222.915 151.016 C 223.278 150.529,226.107 149.223,228.029 148.655 C 229.156 148.322,230.291 147.818,230.551 147.537 C 231.850 146.127,233.100 144.941,233.771 144.481 C 234.182 144.199,234.817 143.317,235.182 142.521 C 235.547 141.725,235.996 141.074,236.180 141.074 C 237.041 141.074,238.270 139.075,238.448 137.389 C 238.545 136.462,238.817 134.659,239.051 133.382 C 239.550 130.670,239.589 127.759,239.162 125.109 C 238.996 124.071,238.763 122.373,238.647 121.335 C 238.407 119.206,238.032 118.383,236.575 116.787 C 235.205 115.287,234.039 113.516,233.814 112.594 C 233.675 112.022,233.329 111.739,232.417 111.447 C 231.750 111.234,230.800 110.759,230.306 110.392 C 229.812 110.025,229.269 109.724,229.099 109.724 C 228.928 109.724,228.480 109.357,228.102 108.908 C 226.269 106.729,218.335 105.791,211.428 106.937 M216.110 163.898 C 215.631 163.951,213.737 164.189,211.901 164.427 C 206.169 165.169,202.957 165.466,198.723 165.644 C 193.594 165.861,191.502 166.307,190.306 167.441 C 188.872 168.800,187.561 169.305,184.800 169.560 C 182.084 169.812,181.648 170.053,180.362 172.015 C 180.110 172.399,179.684 172.714,179.415 172.714 C 179.146 172.714,178.802 172.823,178.650 172.956 C 178.209 173.342,175.299 174.456,174.730 174.456 C 174.394 174.456,174.147 174.752,174.027 175.296 C 173.806 176.301,173.214 176.877,171.520 177.734 C 170.324 178.339,170.224 178.487,169.716 180.406 C 168.877 183.574,168.365 184.855,167.549 185.825 C 166.460 187.119,166.373 188.263,166.349 201.633 C 166.327 213.863,166.408 215.385,167.076 215.385 C 167.287 215.385,167.565 215.556,167.692 215.765 C 167.820 215.975,168.561 216.497,169.340 216.926 L 170.755 217.707 219.722 217.707 L 268.688 217.707 269.395 216.473 L 270.102 215.239 270.092 198.839 C 270.082 183.705,270.041 182.351,269.562 181.307 C 269.029 180.147,266.437 177.358,265.892 177.358 C 265.725 177.358,265.464 177.032,265.312 176.633 C 265.160 176.234,264.834 175.907,264.587 175.907 C 264.340 175.907,263.990 175.581,263.808 175.181 C 263.626 174.782,263.357 174.456,263.211 174.456 C 262.215 174.456,258.534 172.258,257.884 171.275 C 257.106 170.100,257.501 170.225,251.882 169.366 C 250.548 169.162,247.938 167.789,247.748 167.191 C 247.492 166.386,245.981 166.069,240.879 165.748 C 234.543 165.350,230.055 164.921,225.481 164.276 C 221.889 163.771,218.510 163.634,216.110 163.898 " stroke="none" fill="#ffffff" fill-rule="evenodd"></path><path id="path1" d="M51.921 27.434 C 51.501 27.662,51.069 28.081,50.962 28.366 C 50.560 29.429,49.475 30.765,49.013 30.767 C 48.750 30.768,48.064 31.239,47.489 31.814 L 46.444 32.859 46.444 50.922 L 46.444 68.984 45.772 69.616 C 45.144 70.206,44.818 70.247,40.707 70.247 L 36.314 70.247 35.574 71.218 C 35.166 71.751,34.833 72.317,34.833 72.473 C 34.833 72.860,33.571 74.020,33.151 74.020 C 32.964 74.020,32.352 74.467,31.790 75.012 L 30.769 76.004 30.769 164.877 L 30.769 253.749 31.790 254.741 C 32.352 255.287,32.983 255.733,33.191 255.733 C 33.603 255.733,34.833 256.923,34.833 257.321 C 34.833 257.852,36.344 259.507,36.829 259.507 C 37.411 259.507,38.607 260.658,38.607 261.219 C 38.607 261.421,39.066 262.033,39.628 262.579 L 40.649 263.570 211.781 263.570 L 382.912 263.570 383.909 262.810 C 384.457 262.392,384.906 261.829,384.906 261.558 C 384.906 260.948,386.371 259.507,386.992 259.507 C 387.440 259.507,388.970 257.765,388.970 257.254 C 388.970 256.912,390.234 255.733,390.601 255.733 C 390.759 255.733,391.371 255.291,391.961 254.750 L 393.033 253.768 393.033 160.958 L 393.033 68.148 391.961 67.165 C 391.371 66.625,390.740 66.183,390.560 66.183 C 390.202 66.183,388.970 64.973,388.970 64.621 C 388.970 64.501,388.627 63.954,388.209 63.406 L 387.449 62.409 296.655 62.409 L 205.860 62.409 204.962 61.053 C 204.468 60.307,204.062 59.622,204.060 59.529 C 204.058 59.437,203.340 58.911,202.464 58.361 C 201.588 57.811,200.871 57.152,200.871 56.896 C 200.871 56.318,198.823 54.282,198.241 54.282 C 198.006 54.282,197.388 53.632,196.868 52.837 C 196.341 52.032,195.283 50.974,194.478 50.447 L 193.033 49.501 193.033 47.064 C 193.033 44.624,191.977 42.671,190.659 42.671 C 190.298 42.671,188.982 41.464,188.975 41.127 C 188.964 40.626,187.436 38.911,186.839 38.730 C 185.948 38.460,184.906 37.436,184.906 36.829 C 184.906 36.355,183.256 34.833,182.742 34.833 C 182.376 34.833,181.142 33.554,181.137 33.169 C 181.130 32.667,179.234 30.769,178.740 30.769 C 178.193 30.769,177.068 29.546,177.068 28.951 C 177.068 28.690,176.631 28.143,176.097 27.736 L 175.127 26.996 113.906 27.007 C 61.389 27.017,52.576 27.078,51.921 27.434 M175.102 28.955 C 175.347 29.234,175.632 29.724,175.735 30.044 C 176.051 31.023,177.294 32.221,177.998 32.223 C 178.674 32.225,179.724 33.475,180.092 34.715 C 180.191 35.051,180.886 35.635,181.644 36.021 C 182.495 36.454,183.183 37.060,183.453 37.614 C 184.124 38.988,185.000 39.958,185.788 40.198 C 186.818 40.514,187.452 41.154,187.811 42.244 C 188.032 42.912,188.449 43.348,189.201 43.697 C 191.143 44.599,191.291 44.853,191.296 47.287 C 191.301 49.929,191.665 50.755,193.162 51.524 C 194.617 52.271,195.147 52.788,195.612 53.910 C 196.068 55.010,196.672 55.567,197.802 55.930 C 198.667 56.208,198.807 56.373,199.480 57.910 C 199.703 58.419,200.333 59.022,200.996 59.361 C 202.406 60.084,203.075 60.710,203.345 61.561 C 203.461 61.924,203.867 62.558,204.248 62.969 L 204.940 63.716 295.693 63.789 C 365.279 63.846,386.543 63.944,386.862 64.208 C 387.090 64.398,387.482 65.066,387.733 65.692 C 388.068 66.529,388.465 66.945,389.232 67.261 C 389.806 67.498,390.504 67.895,390.784 68.144 C 391.266 68.572,391.292 73.359,391.292 160.958 C 391.292 248.557,391.266 253.344,390.784 253.772 C 390.504 254.021,389.806 254.418,389.232 254.654 C 388.465 254.971,388.068 255.387,387.733 256.224 C 387.233 257.473,386.841 257.880,385.840 258.187 C 384.989 258.448,383.847 259.591,383.588 260.441 C 383.477 260.805,383.185 261.332,382.940 261.611 C 382.516 262.094,374.009 262.119,211.948 262.119 L 41.402 262.119 40.730 261.488 C 40.360 261.141,40.053 260.586,40.047 260.254 C 40.036 259.587,38.223 258.055,37.446 258.055 C 37.149 258.055,36.650 257.442,36.162 256.478 C 35.570 255.309,35.131 254.820,34.458 254.586 C 33.960 254.412,33.252 253.988,32.886 253.645 L 32.221 253.019 32.221 164.877 L 32.221 76.734 32.886 76.109 C 33.252 75.765,33.960 75.341,34.458 75.167 C 35.131 74.933,35.570 74.445,36.162 73.275 L 36.960 71.698 41.365 71.698 C 45.722 71.698,45.782 71.689,46.822 70.900 L 47.874 70.102 47.885 51.833 L 47.896 33.564 48.527 32.892 C 48.874 32.523,49.457 32.221,49.822 32.221 C 50.425 32.221,51.959 30.504,51.959 29.831 C 51.959 29.708,52.188 29.358,52.467 29.052 C 53.228 28.219,174.372 28.123,175.102 28.955 M66.658 47.548 L 65.893 48.652 65.893 64.630 C 65.893 81.594,65.895 81.567,64.579 81.567 C 63.911 81.567,62.119 83.145,62.119 83.733 C 62.119 85.258,61.110 85.631,56.984 85.631 C 52.123 85.631,51.528 85.757,50.800 86.935 C 49.881 88.422,49.881 241.331,50.800 242.818 C 51.182 243.437,51.692 243.822,52.287 243.941 C 53.432 244.170,370.310 244.182,371.455 243.953 C 371.962 243.851,372.558 243.408,372.944 242.844 L 373.588 241.904 373.514 162.640 L 373.440 83.375 372.609 82.544 L 371.777 81.713 288.826 81.639 C 219.174 81.576,205.821 81.501,205.545 81.168 C 205.365 80.951,204.916 80.204,204.549 79.509 C 203.713 77.929,203.457 77.859,198.382 77.823 C 193.965 77.792,193.033 77.449,193.033 75.855 C 193.033 75.313,192.105 74.534,190.295 73.558 C 189.987 73.392,189.598 73.003,189.431 72.695 C 188.520 71.008,187.896 70.250,187.417 70.249 C 186.721 70.246,184.906 68.432,184.904 67.736 C 184.902 67.256,184.144 66.632,182.458 65.721 C 182.149 65.555,181.760 65.166,181.594 64.857 C 180.703 63.208,180.065 62.413,179.630 62.411 C 178.177 62.405,177.421 61.085,177.315 58.367 C 177.202 55.495,176.611 54.403,175.073 54.225 C 174.510 54.160,174.150 53.819,173.697 52.922 C 172.935 51.412,172.441 50.913,170.913 50.104 C 170.112 49.681,169.614 49.177,169.431 48.608 C 169.280 48.136,168.889 47.456,168.563 47.097 L 167.968 46.444 117.696 46.444 L 67.423 46.444 66.658 47.548 M167.417 48.443 C 167.696 48.744,168.239 49.518,168.623 50.164 C 169.008 50.810,169.624 51.414,169.992 51.507 C 170.699 51.684,172.134 52.962,172.134 53.414 C 172.134 53.866,173.911 55.733,174.341 55.733 C 175.418 55.733,175.907 56.823,175.907 59.226 C 175.907 61.625,176.987 63.570,178.320 63.570 C 178.827 63.570,179.597 64.417,180.216 65.655 C 180.480 66.184,181.089 66.798,181.567 67.018 C 182.687 67.534,183.745 68.496,183.745 69.001 C 183.745 69.516,185.641 71.408,186.157 71.408 C 186.665 71.408,187.435 72.255,188.053 73.492 C 188.345 74.077,188.970 74.660,189.643 74.976 C 190.259 75.264,190.969 75.899,191.239 76.402 C 191.508 76.901,192.163 77.745,192.695 78.277 L 193.664 79.245 197.948 79.245 C 202.679 79.245,202.640 79.231,203.756 81.327 C 204.039 81.858,204.584 82.455,204.966 82.652 C 205.512 82.934,223.266 83.011,288.185 83.015 L 370.710 83.019 371.413 83.817 L 372.115 84.615 372.124 163.010 L 372.134 241.405 371.406 242.038 L 370.678 242.671 211.901 242.671 L 53.125 242.671 52.397 242.038 L 51.669 241.405 51.669 164.877 L 51.669 88.349 52.397 87.716 C 53.073 87.128,53.426 87.083,57.307 87.083 L 61.489 87.083 62.457 86.115 C 62.990 85.582,63.651 84.728,63.927 84.216 C 64.212 83.685,64.859 83.105,65.431 82.866 C 67.436 82.028,67.344 82.876,67.344 65.194 L 67.344 49.239 67.975 48.567 L 68.606 47.896 117.757 47.896 C 165.535 47.896,166.923 47.911,167.417 48.443 M214.659 104.547 C 211.228 104.985,208.102 105.631,207.178 106.092 C 206.693 106.333,206.207 106.531,206.097 106.531 C 205.988 106.531,205.293 107.102,204.555 107.800 C 203.816 108.498,202.717 109.303,202.114 109.588 C 200.939 110.145,200.686 110.396,199.513 112.177 C 199.098 112.808,198.156 113.918,197.420 114.645 C 196.327 115.722,196.010 116.280,195.693 117.680 C 195.046 120.535,194.409 122.310,193.732 123.139 C 192.581 124.549,192.400 131.842,193.469 133.752 C 193.712 134.187,194.027 134.739,194.168 134.978 C 194.309 135.218,194.834 136.785,195.335 138.462 C 196.086 140.974,196.436 141.696,197.325 142.572 C 198.597 143.825,198.895 144.201,199.278 145.037 C 199.436 145.381,200.151 146.148,200.869 146.742 C 201.586 147.336,202.342 148.064,202.550 148.360 C 202.880 148.832,206.359 150.653,206.930 150.653 C 207.047 150.653,207.640 151.108,208.247 151.664 C 211.444 154.592,227.576 154.375,227.576 151.403 C 227.576 151.201,228.500 150.673,229.629 150.230 C 232.158 149.237,235.675 146.272,236.608 144.343 C 236.949 143.640,237.509 142.957,237.854 142.826 C 238.560 142.558,240.058 139.822,240.058 138.800 C 240.058 138.120,241.468 134.364,242.298 132.831 C 243.310 130.964,243.023 125.674,241.786 123.367 C 240.636 121.222,240.272 120.271,240.064 118.868 C 239.754 116.774,238.709 114.672,237.813 114.341 C 237.324 114.160,236.636 113.269,235.292 111.079 C 235.015 110.626,234.374 110.083,233.867 109.871 C 232.920 109.474,232.139 108.888,230.624 107.437 C 229.184 106.058,226.516 105.283,220.525 104.503 C 217.999 104.175,217.552 104.178,214.659 104.547 M223.428 106.839 C 225.931 107.180,227.074 107.686,228.102 108.908 C 228.480 109.357,228.928 109.724,229.099 109.724 C 229.269 109.724,229.812 110.025,230.306 110.392 C 230.800 110.759,231.750 111.234,232.417 111.447 C 233.329 111.739,233.675 112.022,233.814 112.594 C 234.039 113.516,235.205 115.287,236.575 116.787 C 238.032 118.383,238.407 119.206,238.647 121.335 C 238.763 122.373,238.996 124.071,239.162 125.109 C 239.589 127.759,239.550 130.670,239.051 133.382 C 238.817 134.659,238.545 136.462,238.448 137.389 C 238.270 139.075,237.041 141.074,236.180 141.074 C 235.996 141.074,235.547 141.725,235.182 142.521 C 234.817 143.317,234.182 144.199,233.771 144.481 C 233.100 144.941,231.850 146.127,230.551 147.537 C 230.291 147.818,229.156 148.322,228.029 148.655 C 226.107 149.223,223.278 150.529,222.915 151.016 C 221.925 152.344,214.412 151.967,211.727 150.455 C 210.626 149.834,208.875 149.080,207.837 148.779 C 206.800 148.477,205.744 148.057,205.492 147.845 C 205.240 147.633,204.895 147.460,204.726 147.460 C 204.556 147.460,204.339 147.166,204.243 146.807 C 204.147 146.448,203.408 145.697,202.600 145.138 C 201.644 144.477,200.973 143.741,200.679 143.032 C 200.263 142.032,199.369 141.085,198.143 140.348 C 196.033 139.080,195.458 121.136,197.463 119.131 C 197.581 119.013,197.678 118.702,197.678 118.439 C 197.678 118.177,198.334 117.240,199.136 116.359 C 199.938 115.477,201.016 114.059,201.531 113.207 C 202.262 111.997,202.718 111.573,203.616 111.266 C 204.247 111.051,205.039 110.616,205.376 110.299 C 205.713 109.983,206.194 109.724,206.446 109.724 C 206.698 109.724,206.974 109.542,207.060 109.320 C 207.941 107.024,215.915 105.816,223.428 106.839 M213.062 160.996 C 207.452 161.715,205.579 162.059,204.676 162.539 C 204.100 162.846,202.975 163.160,202.177 163.237 C 192.319 164.197,188.947 164.907,187.405 166.348 C 186.574 167.124,183.950 168.070,182.628 168.070 C 181.571 168.070,180.130 168.806,179.075 169.885 C 178.474 170.500,177.080 171.329,175.529 171.992 C 173.306 172.944,172.901 173.231,172.405 174.202 C 172.057 174.883,171.413 175.537,170.751 175.880 C 169.251 176.655,167.779 178.594,167.779 179.795 C 167.779 180.315,166.648 182.293,166.351 182.293 C 166.235 182.293,165.824 182.914,165.436 183.672 L 164.731 185.051 164.731 201.474 L 164.731 217.897 165.725 218.890 L 166.719 219.884 218.129 219.960 L 269.540 220.037 270.868 219.195 C 273.146 217.750,273.195 217.325,273.082 200.290 C 272.989 186.278,272.970 185.879,272.342 184.207 C 271.988 183.265,271.698 182.114,271.698 181.649 C 271.698 180.220,270.274 177.732,268.817 176.617 C 268.087 176.058,266.967 174.958,266.328 174.172 C 265.689 173.386,265.033 172.736,264.868 172.729 C 263.903 172.682,260.568 170.938,259.741 170.048 C 258.514 168.727,257.213 168.070,255.820 168.068 C 254.176 168.066,252.638 167.555,251.589 166.662 C 249.492 164.880,248.793 164.705,239.187 163.556 C 236.950 163.289,234.657 162.837,233.843 162.503 C 231.101 161.377,217.678 160.404,213.062 160.996 M225.481 164.276 C 230.055 164.921,234.543 165.350,240.879 165.748 C 245.981 166.069,247.492 166.386,247.748 167.191 C 247.938 167.789,250.548 169.162,251.882 169.366 C 257.501 170.225,257.106 170.100,257.884 171.275 C 258.534 172.258,262.215 174.456,263.211 174.456 C 263.357 174.456,263.626 174.782,263.808 175.181 C 263.990 175.581,264.340 175.907,264.587 175.907 C 264.834 175.907,265.160 176.234,265.312 176.633 C 265.464 177.032,265.725 177.358,265.892 177.358 C 266.437 177.358,269.029 180.147,269.562 181.307 C 270.041 182.351,270.082 183.705,270.092 198.839 L 270.102 215.239 269.395 216.473 L 268.688 217.707 219.722 217.707 L 170.755 217.707 169.340 216.926 C 168.561 216.497,167.820 215.975,167.692 215.765 C 167.565 215.556,167.287 215.385,167.076 215.385 C 166.408 215.385,166.327 213.863,166.349 201.633 C 166.373 188.263,166.460 187.119,167.549 185.825 C 168.365 184.855,168.877 183.574,169.716 180.406 C 170.224 178.487,170.324 178.339,171.520 177.734 C 173.214 176.877,173.806 176.301,174.027 175.296 C 174.147 174.752,174.394 174.456,174.730 174.456 C 175.299 174.456,178.209 173.342,178.650 172.956 C 178.802 172.823,179.146 172.714,179.415 172.714 C 179.684 172.714,180.110 172.399,180.362 172.015 C 181.648 170.053,182.084 169.812,184.800 169.560 C 187.561 169.305,188.872 168.800,190.306 167.441 C 191.502 166.307,193.594 165.861,198.723 165.644 C 202.957 165.466,206.169 165.169,211.901 164.427 C 213.737 164.189,215.631 163.951,216.110 163.898 C 218.510 163.634,221.889 163.771,225.481 164.276 " stroke="none" fill="#030303" fill-rule="evenodd"></path></g></svg>