<svg id="svg" version="1.1" xmlns="http://www.w3.org/2000/svg" xmlns:xlink="http://www.w3.org/1999/xlink" width="400" height="400" viewBox="0, 0, 400,400"><g id="svgg"><path id="path0" d="M54.000 24.277 C 46.128 24.737,42.919 25.177,41.200 26.030 C 38.746 27.247,36.668 27.737,28.600 29.001 C 25.634 29.466,25.200 29.613,25.200 30.158 C 25.200 30.811,26.040 30.988,32.000 31.588 C 36.743 32.066,41.200 33.071,41.200 33.663 C 41.200 33.848,41.393 34.000,41.629 34.000 C 41.864 34.000,42.327 34.270,42.657 34.600 C 42.987 34.930,43.710 35.200,44.263 35.200 C 45.246 35.200,49.211 36.062,52.000 36.882 C 52.770 37.108,53.850 37.690,54.400 38.174 C 55.971 39.557,57.496 40.400,58.428 40.400 C 59.589 40.400,63.232 42.268,63.883 43.197 C 64.343 43.854,65.279 44.379,69.056 46.098 C 69.527 46.313,70.154 46.941,70.450 47.494 C 70.746 48.047,71.921 48.941,73.062 49.481 C 74.202 50.021,75.900 51.169,76.834 52.031 C 77.769 52.894,78.592 53.600,78.664 53.600 C 79.134 53.600,87.200 61.402,87.200 61.857 C 87.200 62.101,87.600 62.571,90.623 65.877 C 91.667 67.019,93.009 68.788,93.604 69.807 C 94.199 70.826,95.231 71.991,95.897 72.396 C 96.661 72.860,97.365 73.806,97.805 74.957 C 98.273 76.182,98.933 77.036,99.817 77.557 C 100.605 78.022,101.448 79.030,101.917 80.067 C 102.681 81.756,103.839 83.223,104.925 83.877 C 105.534 84.243,108.000 89.045,108.000 89.864 C 108.000 90.159,108.155 90.400,108.344 90.400 C 109.328 90.400,110.608 93.990,110.000 95.042 C 109.429 96.028,105.682 98.400,104.695 98.400 C 104.439 98.400,103.503 99.099,102.615 99.953 C 101.674 100.858,100.163 101.776,98.995 102.154 C 97.892 102.510,96.272 103.425,95.395 104.186 C 93.618 105.730,91.954 106.643,90.290 106.989 C 88.438 107.375,87.600 108.546,87.600 110.751 C 87.600 112.921,88.064 113.289,91.400 113.764 C 96.809 114.534,99.612 115.462,101.495 117.104 C 102.059 117.596,103.538 118.062,105.495 118.364 C 109.815 119.031,113.187 119.998,114.594 120.973 C 116.467 122.270,117.619 122.800,118.564 122.800 C 121.771 122.800,127.948 124.706,129.600 126.205 C 130.150 126.705,131.230 127.208,132.000 127.324 C 132.770 127.439,134.570 127.710,136.000 127.925 C 138.922 128.364,143.200 129.858,143.200 130.439 C 143.200 131.110,151.213 133.200,153.789 133.200 C 154.787 133.200,156.800 131.263,156.800 130.302 C 156.800 129.942,156.980 129.536,157.200 129.400 C 157.420 129.264,157.600 128.825,157.600 128.425 C 157.600 128.025,157.841 127.498,158.135 127.254 C 158.818 126.687,159.400 123.925,160.212 117.400 C 160.994 111.118,161.457 109.098,162.593 107.000 C 163.595 105.152,164.796 99.517,164.811 96.600 C 164.824 93.833,166.061 88.651,167.361 85.913 C 167.958 84.654,168.521 83.034,168.613 82.313 C 168.704 81.591,169.065 78.750,169.413 76.000 C 170.215 69.683,170.923 66.712,171.985 65.221 C 172.717 64.193,173.229 61.459,172.765 61.052 C 171.967 60.352,167.230 61.934,166.032 63.300 C 165.309 64.125,164.412 64.800,164.039 64.800 C 163.665 64.800,163.189 64.950,162.980 65.134 C 162.771 65.318,161.747 65.782,160.704 66.165 C 159.662 66.549,158.488 67.270,158.097 67.768 C 157.246 68.850,156.340 69.362,153.748 70.227 C 152.676 70.585,151.440 71.265,151.000 71.740 C 148.371 74.575,142.400 74.590,142.400 71.762 C 142.400 71.549,141.502 70.391,140.405 69.187 C 137.389 65.882,137.356 65.836,136.629 63.931 C 136.151 62.679,135.545 61.937,134.575 61.415 C 133.819 61.007,133.200 60.454,133.200 60.186 C 133.200 59.918,132.930 59.474,132.600 59.200 C 132.270 58.926,132.000 58.369,132.000 57.961 C 132.000 57.554,131.505 56.964,130.899 56.651 C 129.644 56.002,128.475 54.804,127.825 53.499 C 127.579 53.007,126.628 52.190,125.710 51.684 C 124.793 51.178,123.666 50.155,123.206 49.410 C 122.739 48.654,121.610 47.689,120.648 47.223 C 119.700 46.764,118.349 45.672,117.644 44.795 C 116.939 43.918,116.103 43.200,115.787 43.200 C 114.946 43.200,111.139 40.777,110.142 39.607 C 109.640 39.017,108.259 38.278,106.811 37.823 C 105.284 37.344,103.676 36.464,102.608 35.523 C 101.656 34.685,100.600 34.000,100.262 34.000 C 99.924 34.000,99.536 33.820,99.400 33.600 C 99.264 33.380,98.625 33.200,97.981 33.200 C 96.506 33.200,91.598 31.261,91.335 30.575 C 91.052 29.837,90.359 29.640,85.002 28.771 C 77.108 27.491,75.495 27.120,73.400 26.108 C 71.640 25.257,58.855 23.716,56.600 24.083 C 56.380 24.119,55.210 24.206,54.000 24.277 M121.300 153.465 C 120.585 153.754,120.565 241.205,121.280 241.920 C 121.917 242.557,209.239 242.622,210.426 241.986 C 211.120 241.614,211.200 241.110,211.202 237.086 C 211.206 230.824,211.678 228.355,213.310 226.077 C 214.049 225.045,214.909 223.390,215.221 222.400 C 215.553 221.345,216.411 220.005,217.294 219.162 C 218.122 218.371,218.800 217.603,218.800 217.456 C 218.800 217.033,221.351 214.825,221.855 214.812 C 222.106 214.805,223.120 214.002,224.109 213.027 C 225.391 211.764,226.353 211.183,227.454 211.009 C 228.304 210.875,230.170 210.503,231.600 210.182 C 233.030 209.861,234.503 209.598,234.873 209.599 C 237.140 209.602,237.400 208.016,237.400 194.204 L 237.400 181.408 234.800 180.923 C 233.015 180.589,226.435 180.430,213.800 180.414 C 203.680 180.402,194.687 180.273,193.815 180.129 C 192.117 179.849,188.400 176.625,188.400 175.433 C 188.400 173.625,186.377 168.894,185.085 167.680 C 184.554 167.181,183.901 166.013,183.635 165.086 C 183.369 164.159,182.964 162.860,182.735 162.200 C 182.506 161.540,182.223 160.581,182.107 160.068 C 181.990 159.555,181.288 158.547,180.547 157.828 C 179.806 157.108,179.200 156.132,179.200 155.660 C 179.200 153.087,180.530 153.197,149.700 153.232 C 134.355 153.249,121.575 153.354,121.300 153.465 M172.576 161.262 C 173.891 161.861,176.000 164.943,176.000 166.266 C 176.000 167.161,177.238 169.342,178.085 169.940 C 178.964 170.561,179.325 171.390,180.605 175.737 C 181.200 177.758,181.834 179.088,182.386 179.475 C 183.364 180.160,185.200 184.040,185.200 185.421 C 185.200 186.179,185.519 186.719,186.529 187.667 C 186.568 187.704,195.330 187.847,206.000 187.984 C 227.239 188.258,227.524 188.291,229.088 190.679 C 229.936 191.972,230.418 200.400,229.644 200.400 C 229.400 200.400,229.200 200.670,229.200 201.000 C 229.200 201.330,228.930 201.600,228.600 201.600 C 228.270 201.600,228.000 201.739,228.000 201.909 C 228.000 202.275,225.918 203.364,224.132 203.933 C 223.435 204.155,222.130 205.070,221.232 205.968 C 220.334 206.866,219.268 207.600,218.863 207.600 C 218.017 207.600,212.072 213.271,211.256 214.856 C 210.957 215.437,210.322 216.121,209.845 216.376 C 208.988 216.835,208.308 218.053,207.822 220.000 C 207.069 223.014,206.544 224.338,205.603 225.600 C 205.029 226.370,204.316 227.985,204.020 229.188 C 203.385 231.765,202.547 233.254,201.085 234.405 C 200.022 235.241,200.000 235.241,165.911 235.121 L 131.800 235.000 130.553 234.110 C 128.113 232.370,128.200 233.737,128.200 197.169 L 128.200 163.738 129.320 162.269 L 130.441 160.800 151.002 160.800 C 165.687 160.800,171.852 160.932,172.576 161.262 M260.404 203.957 C 258.970 204.356,258.849 205.569,258.823 219.886 L 258.800 232.372 257.608 233.730 C 256.544 234.942,256.125 235.118,253.708 235.364 C 249.690 235.773,246.753 236.731,245.600 238.010 C 244.648 239.065,243.005 240.087,241.513 240.551 C 241.135 240.669,240.572 241.358,240.263 242.083 C 239.623 243.584,238.553 244.870,237.430 245.487 C 236.565 245.962,235.696 248.617,235.234 252.200 C 234.892 254.845,234.018 257.600,233.520 257.600 C 233.344 257.600,233.200 257.870,233.200 258.200 C 233.200 258.530,232.930 258.800,232.600 258.800 C 232.270 258.800,232.000 258.980,232.000 259.200 C 232.000 259.420,231.743 259.600,231.429 259.600 C 231.114 259.600,230.619 259.827,230.329 260.105 C 228.764 261.598,228.714 261.600,184.481 261.606 C 160.787 261.609,141.200 261.744,140.956 261.906 C 139.107 263.129,139.168 261.035,139.288 319.532 C 139.389 368.701,139.464 374.321,140.030 374.887 C 140.599 375.456,152.207 375.546,260.086 375.815 L 379.512 376.113 379.956 375.283 C 380.752 373.794,380.570 205.028,379.771 204.229 C 379.107 203.564,262.767 203.299,260.404 203.957 M370.290 212.180 C 372.744 213.665,372.801 214.222,372.787 236.371 C 372.774 257.778,372.875 256.802,370.537 258.100 C 369.409 258.727,367.909 258.800,356.244 258.800 C 347.607 258.800,342.625 258.957,341.473 259.265 L 339.735 259.730 340.468 261.246 C 340.870 262.079,341.200 263.298,341.200 263.955 C 341.200 264.611,341.399 265.655,341.643 266.274 C 342.040 267.286,342.361 268.967,343.064 273.735 C 343.197 274.634,343.106 275.454,342.845 275.715 C 342.600 275.960,342.400 276.815,342.400 277.616 C 342.400 278.417,342.132 279.956,341.804 281.036 C 341.477 282.116,341.207 283.377,341.204 283.839 C 341.199 284.880,340.072 287.200,339.571 287.200 C 339.367 287.200,339.200 287.366,339.200 287.569 C 339.200 287.772,338.705 288.451,338.100 289.077 C 337.495 289.704,336.280 291.035,335.400 292.035 C 333.630 294.048,331.819 295.246,329.400 296.005 C 328.520 296.280,327.477 296.843,327.083 297.255 C 324.130 300.337,311.263 300.309,309.096 297.216 C 308.819 296.821,307.784 296.222,306.796 295.886 C 303.653 294.818,302.893 294.338,302.145 292.951 C 301.744 292.205,301.060 291.483,300.626 291.345 C 299.304 290.925,297.600 288.724,297.600 287.435 C 297.600 287.174,296.901 286.234,296.047 285.345 C 293.441 282.633,292.199 272.881,293.758 267.373 C 294.065 266.288,294.419 264.945,294.544 264.389 C 294.668 263.833,295.407 262.663,296.185 261.789 C 298.469 259.222,298.378 259.185,289.120 258.902 C 280.315 258.634,280.232 258.583,279.462 252.950 C 279.020 249.721,278.824 249.207,277.297 247.275 C 276.373 246.106,275.438 244.486,275.219 243.675 C 274.658 241.601,273.811 240.542,272.503 240.281 C 268.355 239.451,266.624 235.554,266.469 226.699 C 266.261 214.826,266.973 212.405,270.903 211.617 C 274.961 210.803,368.894 211.336,370.290 212.180 M368.025 266.805 C 373.188 267.784,372.854 264.156,372.717 317.800 C 372.587 368.995,372.801 365.382,369.800 367.081 L 368.200 367.987 318.154 367.993 L 268.108 368.000 267.044 367.163 C 264.892 365.471,264.640 364.196,264.619 354.924 L 264.600 346.448 265.589 345.524 C 267.603 343.643,268.021 343.613,292.200 343.600 C 304.740 343.593,315.245 343.433,315.544 343.243 C 316.626 342.557,316.015 331.056,314.755 328.400 C 313.351 325.441,312.977 324.323,312.214 320.800 C 311.059 315.467,310.789 314.789,309.177 313.177 C 307.032 311.032,307.502 306.841,309.894 306.783 C 310.282 306.774,313.694 306.781,317.474 306.799 C 324.455 306.833,326.168 306.553,327.616 305.142 C 328.208 304.564,332.184 302.800,332.893 302.800 C 333.776 302.800,336.295 301.333,337.600 300.059 C 338.370 299.307,339.846 298.167,340.880 297.524 C 341.914 296.882,342.882 295.971,343.032 295.500 C 343.470 294.119,345.488 291.030,347.000 289.428 C 347.929 288.442,348.400 287.557,348.400 286.796 C 348.400 286.166,348.658 284.513,348.972 283.125 C 349.287 281.736,349.808 278.522,350.130 275.983 C 351.198 267.562,352.492 266.400,360.808 266.400 C 363.604 266.400,366.851 266.582,368.025 266.805 M284.072 267.900 C 285.336 269.260,285.556 270.274,286.217 277.800 C 286.835 284.832,287.118 286.400,287.772 286.400 C 289.060 286.400,290.965 291.408,290.349 293.174 C 289.401 295.894,283.310 295.969,274.400 293.372 C 273.190 293.020,271.568 292.575,270.795 292.385 C 266.443 291.312,264.852 289.868,264.524 286.688 C 264.107 282.647,264.926 280.952,268.719 278.004 C 269.423 277.457,270.000 276.795,270.000 276.533 C 270.000 276.272,270.968 275.600,272.152 275.040 C 273.910 274.208,274.422 273.728,274.945 272.420 C 275.755 270.396,277.463 268.844,280.120 267.719 C 282.786 266.589,282.858 266.592,284.072 267.900 M233.438 269.000 C 234.249 269.550,235.142 270.000,235.423 270.000 C 236.403 270.000,238.335 271.383,239.041 272.587 C 239.914 274.080,241.909 276.000,242.586 276.000 C 242.862 276.000,243.698 276.719,244.444 277.598 C 245.329 278.641,246.147 279.206,246.800 279.224 C 249.998 279.312,253.741 280.687,254.800 282.163 C 258.987 287.995,256.861 290.847,247.733 291.639 C 245.189 291.860,242.363 292.281,241.454 292.573 C 239.057 293.345,234.779 294.274,230.200 295.017 C 223.930 296.034,222.000 296.493,222.000 296.967 C 222.000 297.649,218.859 299.379,216.144 300.191 C 214.128 300.793,213.583 301.147,213.096 302.167 C 212.770 302.850,211.986 303.653,211.352 303.951 C 210.718 304.249,209.930 304.622,209.600 304.781 C 209.270 304.939,208.572 305.928,208.048 306.979 C 207.498 308.083,206.554 309.208,205.811 309.646 C 204.930 310.167,204.355 310.937,203.980 312.102 C 202.736 315.966,201.596 318.475,200.785 319.132 C 199.365 320.282,198.544 325.388,198.160 335.464 L 197.882 342.775 198.967 343.187 C 199.670 343.455,208.945 343.602,225.326 343.606 C 259.422 343.614,257.386 342.855,257.109 355.459 C 256.923 363.908,256.531 365.207,253.605 367.058 L 251.800 368.200 201.800 368.200 L 151.800 368.200 150.000 367.192 C 146.711 365.351,146.869 367.819,146.832 317.549 C 146.795 266.259,146.325 270.927,151.716 268.976 L 154.200 268.078 193.082 268.039 L 231.964 268.000 233.438 269.000 " stroke="none" fill="#0e0e0e" fill-rule="evenodd"></path><path id="path1" d="M36.498 22.585 C 34.262 22.958,33.225 23.367,31.981 24.367 C 30.812 25.306,29.733 25.759,28.083 26.003 C 20.942 27.058,18.772 27.935,17.853 30.135 C 17.347 31.347,16.799 31.894,14.041 33.948 L 13.083 34.662 14.559 35.574 C 16.121 36.540,16.309 36.534,20.200 35.392 C 24.614 34.097,26.931 34.183,31.200 35.800 C 33.183 36.551,35.550 37.054,40.600 37.796 C 47.744 38.845,48.976 39.149,49.506 39.999 C 50.212 41.129,52.598 42.213,55.723 42.824 C 57.976 43.264,58.559 43.545,59.091 44.447 C 59.733 45.534,62.513 47.130,65.229 47.972 C 66.123 48.249,67.096 49.008,67.829 49.998 C 68.488 50.890,69.349 51.591,69.800 51.605 C 71.003 51.640,72.396 52.539,72.939 53.629 C 73.204 54.163,74.245 55.140,75.251 55.800 C 77.184 57.069,84.000 63.788,84.000 64.425 C 84.000 64.631,84.230 64.800,84.511 64.800 C 85.140 64.800,86.285 66.100,86.918 67.531 C 87.450 68.734,88.198 69.459,89.457 69.987 C 89.946 70.193,90.609 71.121,91.002 72.150 C 91.498 73.448,92.053 74.124,92.990 74.568 C 94.510 75.290,95.001 75.831,95.376 77.200 C 95.798 78.739,96.494 80.000,96.922 80.000 C 97.621 80.000,99.057 81.867,100.375 84.490 C 101.149 86.031,102.128 87.339,102.806 87.740 C 105.525 89.346,105.826 95.600,103.184 95.600 C 102.091 95.600,100.625 96.504,99.106 98.115 C 98.195 99.081,97.346 99.600,96.676 99.600 C 96.110 99.600,95.536 99.780,95.400 100.000 C 95.264 100.220,94.737 100.400,94.228 100.400 C 93.660 100.400,92.506 101.172,91.239 102.400 C 89.723 103.869,88.865 104.400,88.011 104.400 C 87.371 104.400,86.745 104.566,86.619 104.769 C 86.494 104.972,85.898 105.247,85.295 105.380 C 82.664 105.960,80.132 112.052,81.713 114.001 C 82.617 115.115,84.981 115.942,88.600 116.409 C 91.641 116.802,92.542 117.100,94.400 118.328 C 96.818 119.926,99.326 120.755,101.827 120.782 C 104.114 120.807,107.616 121.907,108.800 122.973 C 110.206 124.238,111.540 124.667,116.893 125.580 C 121.025 126.284,121.738 126.525,122.863 127.600 C 123.565 128.271,124.603 128.920,125.170 129.043 C 125.736 129.166,126.722 129.431,127.360 129.633 C 127.998 129.835,129.142 130.000,129.902 130.000 C 132.198 130.000,136.099 131.194,136.981 132.167 C 138.226 133.539,139.824 133.993,147.600 135.178 C 149.320 135.440,150.133 135.828,151.328 136.957 C 153.147 138.673,154.497 138.807,157.067 137.524 C 160.610 135.754,161.314 134.026,162.396 124.435 C 163.007 119.029,163.347 117.283,163.917 116.635 C 165.632 114.687,166.283 112.044,166.809 104.899 C 167.219 99.331,167.673 97.305,168.970 95.244 C 170.278 93.166,171.998 83.755,172.001 78.663 C 172.001 77.474,172.286 76.800,174.167 73.533 C 175.790 70.714,176.612 60.238,175.432 57.414 C 174.308 54.724,170.000 54.417,170.000 57.027 C 170.000 57.342,169.752 57.600,169.449 57.600 C 169.146 57.600,168.674 57.870,168.400 58.200 C 168.126 58.530,167.483 58.800,166.970 58.800 C 165.561 58.800,163.948 59.622,162.476 61.089 C 161.119 62.442,158.863 63.600,157.582 63.600 C 156.674 63.600,154.400 65.483,154.400 66.236 C 154.400 66.546,154.121 66.800,153.780 66.800 C 153.439 66.800,152.668 67.054,152.067 67.365 C 151.465 67.677,149.630 68.209,147.988 68.549 L 145.003 69.167 144.116 68.083 C 143.628 67.487,143.222 66.809,143.214 66.575 C 143.197 66.053,142.156 64.921,140.478 63.600 C 139.779 63.050,139.206 62.268,139.204 61.862 C 139.198 60.751,137.737 58.921,136.636 58.645 C 135.997 58.484,135.514 57.953,135.232 57.100 C 134.708 55.517,133.283 53.805,132.200 53.458 C 131.760 53.316,130.993 52.487,130.497 51.615 C 129.990 50.726,128.848 49.592,127.897 49.033 C 126.963 48.484,125.979 47.533,125.710 46.918 C 125.393 46.195,124.544 45.490,123.310 44.924 C 122.052 44.347,121.157 43.596,120.689 42.724 C 120.036 41.509,118.469 40.400,117.405 40.400 C 117.166 40.400,116.059 39.545,114.945 38.500 C 113.114 36.781,110.032 35.219,108.400 35.183 C 108.070 35.176,107.334 34.495,106.765 33.670 C 105.695 32.121,104.826 31.721,100.453 30.766 C 99.076 30.466,98.000 29.944,97.453 29.312 C 96.002 27.635,93.566 26.865,87.032 26.017 C 85.284 25.790,84.140 25.436,83.927 25.056 C 83.353 24.030,81.137 23.127,77.800 22.560 C 73.569 21.841,40.840 21.860,36.498 22.585 M73.000 23.747 C 76.810 24.399,78.565 24.850,79.827 25.501 C 81.126 26.172,84.835 27.128,88.107 27.634 C 89.815 27.899,92.065 28.567,93.107 29.119 C 97.530 31.462,98.637 31.976,99.292 31.987 C 100.443 32.008,103.336 33.264,104.400 34.203 C 105.280 34.980,106.231 35.542,108.895 36.857 C 109.277 37.046,109.784 37.200,110.023 37.200 C 110.262 37.200,110.689 37.425,110.973 37.700 C 112.638 39.314,114.065 40.334,116.150 41.400 C 117.442 42.060,118.950 43.188,119.501 43.906 C 120.053 44.624,121.103 45.496,121.835 45.843 C 122.566 46.190,123.915 47.358,124.832 48.437 C 125.748 49.517,126.706 50.400,126.960 50.400 C 127.465 50.400,129.600 52.678,129.600 53.216 C 129.600 53.400,130.409 54.131,131.398 54.842 C 132.471 55.612,133.391 56.671,133.679 57.466 C 133.944 58.200,134.260 58.803,134.380 58.806 C 134.985 58.824,137.186 61.249,138.368 63.200 C 139.101 64.410,140.363 66.123,141.172 67.006 C 141.981 67.889,143.072 69.374,143.595 70.306 C 144.623 72.134,145.100 72.306,146.738 71.437 C 149.063 70.204,152.310 68.800,152.840 68.799 C 153.559 68.797,155.429 67.596,157.154 66.030 C 157.899 65.353,158.676 64.800,158.880 64.800 C 159.773 64.800,163.866 62.635,165.312 61.397 C 166.182 60.652,167.415 59.929,168.051 59.789 C 169.561 59.457,171.390 58.535,172.004 57.796 C 172.424 57.289,172.584 57.331,173.170 58.104 C 175.274 60.882,175.056 64.439,172.378 71.000 C 171.606 72.890,170.007 81.824,169.995 84.307 C 169.989 85.464,168.994 88.876,167.693 92.200 C 167.263 93.300,166.698 95.730,166.440 97.600 C 165.486 104.491,164.741 108.263,163.831 110.800 C 162.372 114.871,161.687 117.860,161.175 122.400 C 160.011 132.712,156.726 137.243,152.048 134.986 C 150.924 134.444,149.699 134.000,149.326 134.000 C 146.610 134.000,141.773 132.552,139.183 130.963 C 138.403 130.485,136.693 129.881,135.383 129.620 C 129.436 128.435,127.196 127.734,125.600 126.558 C 124.524 125.765,118.144 124.000,116.355 124.000 C 115.897 124.000,114.054 123.309,112.261 122.464 C 108.475 120.681,106.522 120.000,105.195 120.000 C 103.988 120.000,97.600 117.978,97.600 117.596 C 97.600 117.180,94.686 116.208,91.000 115.393 C 83.992 113.845,83.472 113.459,84.260 110.400 C 84.953 107.707,85.092 107.589,90.718 104.887 C 91.443 104.539,92.438 103.852,92.930 103.361 C 93.763 102.528,98.036 100.400,98.876 100.400 C 99.084 100.400,99.916 99.771,100.727 99.003 C 101.537 98.234,102.964 97.289,103.899 96.903 C 104.833 96.516,105.598 96.065,105.599 95.900 C 105.599 95.735,105.848 95.600,106.151 95.600 C 108.862 95.600,106.773 89.065,102.636 84.601 C 102.166 84.094,101.382 82.896,100.895 81.939 C 100.407 80.983,99.196 79.399,98.204 78.420 C 97.212 77.442,96.400 76.390,96.400 76.084 C 96.400 75.778,95.500 74.660,94.400 73.600 C 93.300 72.540,92.400 71.507,92.400 71.305 C 92.400 71.104,91.587 70.053,90.594 68.971 C 89.600 67.889,88.297 66.373,87.698 65.602 C 86.689 64.304,83.153 60.411,80.800 58.008 C 80.250 57.446,78.990 56.366,78.000 55.607 C 77.010 54.848,75.219 53.366,74.020 52.314 C 72.821 51.261,71.617 50.400,71.343 50.400 C 71.070 50.400,69.843 49.522,68.617 48.449 C 67.390 47.375,65.895 46.397,65.293 46.275 C 64.692 46.153,63.210 45.310,62.000 44.403 C 59.914 42.838,56.785 41.200,55.884 41.200 C 55.216 41.200,52.400 39.873,52.400 39.558 C 52.400 39.062,47.140 37.297,43.800 36.673 C 40.620 36.079,38.525 35.466,37.006 34.684 C 36.007 34.171,30.678 33.218,28.742 33.208 C 25.272 33.189,19.933 30.714,21.290 29.753 C 22.553 28.858,24.313 28.090,25.600 27.873 C 26.370 27.743,28.000 27.464,29.223 27.252 C 30.445 27.040,33.055 26.248,35.023 25.492 C 37.486 24.545,39.908 23.961,42.800 23.617 C 45.110 23.343,47.180 23.051,47.400 22.968 C 48.534 22.539,69.710 23.184,73.000 23.747 M119.690 151.202 C 117.518 152.526,117.579 151.078,117.693 198.383 C 117.811 247.146,117.609 243.542,120.287 244.662 C 122.028 245.390,208.563 245.462,212.164 244.739 C 215.730 244.022,216.997 242.549,216.560 239.623 C 215.662 233.606,217.212 223.125,219.144 222.156 C 220.530 221.460,222.000 219.929,222.000 219.179 C 222.000 218.315,222.620 217.826,224.477 217.229 C 225.290 216.967,226.590 216.098,227.368 215.298 C 228.966 213.652,231.364 212.846,234.738 212.818 C 240.254 212.772,240.400 212.311,240.400 194.880 L 240.400 180.483 238.986 179.241 L 237.572 178.000 216.486 177.994 C 193.851 177.987,194.847 178.075,193.815 176.000 C 193.432 175.230,192.507 174.024,191.760 173.320 C 191.012 172.617,190.400 171.666,190.400 171.208 C 190.400 169.020,188.045 163.603,187.091 163.597 C 186.649 163.594,185.175 159.668,185.193 158.544 C 185.209 157.557,183.733 154.901,182.500 153.697 C 181.785 152.998,181.200 152.283,181.200 152.108 C 181.200 150.147,122.829 149.288,119.690 151.202 M178.637 152.261 C 179.191 152.624,180.208 153.749,180.896 154.761 C 181.584 155.772,182.296 156.702,182.477 156.826 C 182.659 156.950,183.345 158.594,184.003 160.479 C 184.660 162.363,185.882 164.962,186.719 166.253 C 188.200 168.539,189.200 170.868,189.200 172.032 C 189.200 173.126,192.424 177.535,193.832 178.366 C 195.215 179.182,195.687 179.200,215.494 179.200 C 236.013 179.200,238.400 179.354,238.400 180.680 C 238.400 180.966,238.580 181.200,238.800 181.200 C 239.390 181.200,239.269 206.087,238.668 208.397 C 238.106 210.553,237.243 211.065,233.331 211.559 C 229.341 212.063,227.481 212.729,225.745 214.277 C 224.895 215.034,223.611 215.934,222.892 216.276 C 222.173 216.619,221.188 217.461,220.704 218.149 C 220.220 218.837,219.152 220.032,218.331 220.805 C 217.219 221.853,216.682 222.813,216.221 224.583 C 215.881 225.889,215.422 227.138,215.201 227.359 C 214.981 227.579,214.794 228.129,214.787 228.580 C 214.780 229.031,214.510 229.749,214.187 230.176 C 213.441 231.163,213.366 238.648,214.086 240.230 C 214.693 241.561,213.416 242.762,210.590 243.518 C 206.988 244.481,122.501 244.180,120.890 243.198 C 118.742 241.889,118.800 243.158,118.800 197.174 C 118.800 149.565,118.604 153.481,121.055 152.057 C 122.439 151.253,177.395 151.447,178.637 152.261 M130.510 164.100 C 129.365 166.197,129.419 228.770,130.568 230.669 C 131.852 232.791,133.641 232.888,168.877 232.735 C 199.353 232.603,199.969 232.585,200.692 231.800 C 201.534 230.887,201.988 229.784,203.202 225.704 C 203.676 224.111,204.229 222.705,204.431 222.581 C 204.764 222.375,205.608 220.701,207.346 216.800 C 207.689 216.030,208.607 214.715,209.385 213.878 C 210.163 213.040,210.800 212.265,210.800 212.154 C 210.800 211.513,214.605 208.029,216.972 206.501 C 218.497 205.517,219.982 204.475,220.272 204.186 C 220.561 203.896,221.924 203.111,223.299 202.442 C 227.216 200.536,227.207 200.548,227.310 196.891 C 227.382 194.313,227.263 193.534,226.700 192.911 C 226.315 192.485,226.000 192.003,226.000 191.840 C 226.000 190.273,225.319 190.208,206.229 189.967 C 184.516 189.692,184.802 189.743,183.588 185.886 C 183.297 184.959,182.820 183.916,182.529 183.569 C 182.238 183.221,182.000 182.726,182.000 182.469 C 182.000 182.211,181.849 182.000,181.665 182.000 C 181.234 182.000,179.200 177.861,179.200 176.986 C 179.200 176.060,178.084 173.757,176.521 171.455 C 175.794 170.385,175.200 169.243,175.200 168.917 C 175.200 168.269,174.214 166.363,173.081 164.822 C 171.662 162.891,170.776 162.812,150.310 162.806 L 131.221 162.800 130.510 164.100 M169.800 165.749 C 170.460 165.914,171.385 166.126,171.855 166.221 C 172.747 166.400,174.000 168.869,174.000 170.446 C 174.000 171.511,175.100 173.462,176.485 174.854 C 177.082 175.454,177.675 176.452,177.803 177.072 C 178.518 180.544,179.503 182.991,180.649 184.144 C 181.336 184.835,182.201 186.210,182.572 187.200 C 183.537 189.777,183.881 190.095,187.010 191.310 L 189.820 192.400 206.495 192.400 L 223.171 192.400 224.186 193.893 C 226.529 197.341,224.792 201.600,221.043 201.600 C 220.243 201.600,216.462 204.411,216.067 205.300 C 215.993 205.465,215.776 205.600,215.583 205.600 C 214.671 205.600,211.693 207.830,211.241 208.853 C 210.961 209.485,209.929 210.660,208.947 211.465 C 207.249 212.856,205.600 215.591,205.600 217.016 C 205.600 218.001,204.383 219.874,203.402 220.399 C 202.357 220.958,201.600 222.901,201.600 225.024 C 201.600 225.886,201.285 227.358,200.900 228.294 L 200.200 229.997 168.120 229.999 C 134.776 230.000,132.132 229.879,131.131 228.302 C 130.766 227.727,130.687 169.064,131.049 167.712 C 131.654 165.455,133.717 165.222,152.000 165.341 C 161.130 165.401,169.140 165.585,169.800 165.749 M258.408 201.714 C 256.519 202.669,256.412 203.411,256.406 215.588 C 256.400 227.755,256.073 230.712,254.636 231.609 C 253.650 232.225,249.830 233.164,248.200 233.192 C 245.496 233.237,242.754 234.654,242.241 236.271 C 242.085 236.761,241.516 237.197,240.859 237.328 C 239.598 237.580,237.206 239.828,237.189 240.776 C 237.183 241.119,236.479 241.831,235.625 242.358 C 234.384 243.123,233.976 243.686,233.598 245.158 C 232.880 247.948,232.336 249.239,231.114 251.058 C 230.501 251.970,230.000 253.194,230.000 253.777 C 230.000 254.411,229.574 255.233,228.942 255.819 L 227.883 256.800 184.160 256.800 C 137.291 256.800,139.108 256.716,137.766 258.934 C 137.021 260.166,137.000 261.764,137.000 318.277 L 137.000 376.354 137.991 377.277 L 138.981 378.200 258.591 378.316 C 324.376 378.380,378.975 378.323,379.923 378.188 C 383.544 377.675,383.197 387.028,383.199 289.862 C 383.200 194.957,383.419 202.573,380.661 201.611 C 378.791 200.960,259.701 201.059,258.408 201.714 M380.878 203.475 L 382.000 204.550 382.000 289.644 L 382.000 374.739 380.964 375.969 L 379.929 377.200 260.034 377.200 L 140.139 377.200 139.170 376.168 L 138.200 375.136 138.200 318.868 C 138.200 259.130,138.151 260.754,139.981 259.313 C 140.459 258.937,150.539 258.823,184.158 258.813 L 227.716 258.800 229.446 257.706 C 231.216 256.586,233.200 253.622,233.200 252.097 C 233.200 250.024,235.288 244.966,236.727 243.554 C 237.537 242.758,238.397 241.768,238.638 241.354 C 238.879 240.939,239.869 240.014,240.838 239.298 C 241.807 238.582,243.304 237.412,244.165 236.698 C 246.053 235.132,247.964 234.481,252.199 233.964 C 257.447 233.323,257.559 232.955,257.583 216.318 L 257.600 204.436 258.618 203.418 L 259.636 202.400 319.696 202.400 L 379.756 202.400 380.878 203.475 M272.800 213.476 C 272.470 213.597,271.435 214.432,270.500 215.331 L 268.800 216.967 268.800 225.055 C 268.800 231.127,268.929 233.275,269.317 233.671 C 269.601 233.962,270.088 234.822,270.400 235.583 C 271.081 237.247,271.919 238.131,273.679 239.040 C 275.132 239.791,275.545 240.258,276.628 242.375 C 277.029 243.159,277.776 244.264,278.288 244.832 C 279.603 246.289,280.794 249.736,281.076 252.900 C 281.208 254.385,281.470 255.600,281.658 255.600 C 281.846 255.600,282.000 255.852,282.000 256.159 C 282.000 256.993,286.239 257.600,292.058 257.600 L 297.050 257.600 298.182 258.781 C 299.482 260.138,299.404 260.531,296.941 265.028 C 294.297 269.858,294.316 280.896,296.973 283.000 C 297.251 283.220,297.985 284.480,298.605 285.800 C 299.606 287.930,302.440 291.200,303.286 291.200 C 303.458 291.200,303.600 291.393,303.600 291.629 C 303.600 292.182,304.618 293.200,305.171 293.200 C 305.407 293.200,305.600 293.372,305.600 293.582 C 305.600 293.792,306.275 294.085,307.100 294.234 C 307.925 294.382,309.050 294.731,309.600 295.010 C 315.906 298.203,318.982 298.361,325.000 295.802 C 325.660 295.522,326.920 295.051,327.800 294.756 C 330.859 293.730,332.780 292.130,337.608 286.588 C 341.922 281.635,342.063 266.038,337.835 261.475 C 336.297 259.817,336.504 259.298,339.108 258.272 C 340.578 257.694,342.557 257.599,353.308 257.596 C 365.925 257.591,368.594 257.333,370.256 255.953 C 370.701 255.584,370.800 252.009,370.800 236.390 L 370.800 217.277 369.045 215.339 L 367.290 213.400 320.345 213.328 C 294.525 213.289,273.130 213.355,272.800 213.476 M366.925 217.122 L 368.000 218.244 368.000 236.858 L 368.000 255.472 366.500 255.935 C 365.518 256.239,360.295 256.434,351.382 256.499 C 336.487 256.609,336.085 256.673,335.185 259.040 C 334.668 260.401,335.631 262.626,337.104 263.471 C 339.704 264.963,340.138 282.994,337.594 283.802 C 336.787 284.058,335.875 285.204,334.890 287.200 C 334.511 287.969,333.712 288.831,333.115 289.114 C 332.518 289.398,331.371 290.433,330.566 291.415 C 329.326 292.929,328.883 293.201,327.652 293.204 C 326.853 293.207,325.300 293.497,324.200 293.849 C 321.909 294.583,315.252 294.723,313.142 294.082 C 312.404 293.857,310.450 293.369,308.800 292.996 C 305.946 292.351,305.747 292.232,304.710 290.551 C 303.920 289.270,303.284 288.717,302.396 288.539 C 301.085 288.277,300.400 287.394,300.400 285.968 C 300.400 284.631,297.659 279.200,296.985 279.200 C 295.953 279.200,296.019 269.268,297.055 268.674 C 297.860 268.211,299.423 265.621,299.755 264.200 C 300.623 260.486,300.691 259.806,300.303 258.695 C 299.685 256.922,297.984 256.400,292.820 256.400 C 290.397 256.400,287.159 256.185,285.624 255.921 L 282.833 255.443 282.416 253.502 C 282.187 252.434,282.000 250.953,282.000 250.211 C 282.000 247.962,281.124 244.897,280.237 244.043 C 279.777 243.600,278.989 242.864,278.488 242.406 C 277.986 241.949,277.477 241.083,277.356 240.481 C 277.138 239.391,275.453 237.988,273.691 237.429 C 273.193 237.271,272.800 236.820,272.800 236.406 C 272.800 235.999,272.440 234.826,272.000 233.800 C 270.653 230.657,270.806 219.192,272.220 217.338 L 273.241 216.000 319.546 216.000 L 365.850 216.000 366.925 217.122 M354.830 269.852 C 353.868 271.076,353.381 272.712,352.821 276.600 C 352.600 278.140,352.037 280.390,351.571 281.600 C 351.104 282.810,350.586 284.430,350.419 285.200 C 349.806 288.024,349.144 289.829,348.283 291.030 C 347.797 291.707,346.538 293.549,345.484 295.124 C 344.431 296.700,343.215 298.178,342.783 298.409 C 342.350 298.641,340.926 299.786,339.617 300.954 C 338.308 302.122,336.373 303.399,335.318 303.792 C 334.263 304.185,332.339 305.142,331.042 305.918 C 328.035 307.717,326.910 307.935,318.332 308.383 C 313.829 308.619,310.963 308.941,310.432 309.273 C 309.496 309.857,309.335 310.997,310.120 311.480 C 311.255 312.178,312.510 314.572,313.180 317.315 C 313.567 318.902,314.286 321.010,314.778 322.000 C 317.583 327.650,318.726 341.965,316.545 344.145 L 315.491 345.200 292.307 345.200 C 263.236 345.200,266.270 344.021,266.473 355.235 C 266.600 362.195,266.602 362.206,267.800 364.101 L 269.000 365.999 317.440 365.999 L 365.880 366.000 367.640 364.761 C 371.146 362.292,370.800 367.470,370.800 317.529 C 370.800 269.562,370.937 272.373,368.496 270.100 L 367.099 268.800 361.379 268.800 C 355.677 268.800,355.655 268.804,354.830 269.852 M282.000 270.400 C 281.670 270.613,280.635 270.791,279.700 270.794 C 278.765 270.797,278.000 270.946,278.000 271.125 C 278.000 271.303,277.679 271.798,277.287 272.225 C 276.895 272.651,276.161 273.675,275.655 274.500 C 275.149 275.325,274.524 276.001,274.267 276.001 C 273.807 276.002,270.891 278.415,267.921 281.253 C 264.427 284.591,266.442 290.400,271.093 290.400 C 273.271 290.400,278.647 291.400,279.370 291.939 C 281.092 293.224,288.121 293.705,288.557 292.567 C 288.947 291.552,288.862 291.300,287.663 289.914 C 285.862 287.832,284.044 280.550,284.013 275.294 C 284.001 273.304,283.243 269.993,282.803 270.006 C 282.691 270.009,282.330 270.187,282.000 270.400 M151.705 271.596 C 150.992 271.980,150.135 272.522,149.800 272.800 C 149.259 273.249,149.202 278.342,149.295 317.885 L 149.400 362.465 151.325 364.232 L 153.250 366.000 202.325 365.995 L 251.400 365.990 252.396 364.495 C 254.258 361.700,254.400 360.998,254.400 354.573 C 254.400 348.468,254.038 346.400,252.969 346.400 C 252.693 346.400,252.392 346.175,252.300 345.900 C 252.170 345.510,246.312 345.353,225.567 345.187 C 198.999 344.973,197.883 344.910,195.985 343.519 C 194.658 342.546,194.907 338.516,196.995 327.200 C 197.299 325.550,197.766 322.955,198.031 321.432 C 198.368 319.500,198.971 317.931,200.030 316.232 C 200.865 314.895,201.784 313.019,202.074 312.063 C 202.393 311.011,203.350 309.543,204.504 308.336 C 205.551 307.240,206.679 305.820,207.011 305.179 C 207.342 304.538,208.105 303.758,208.707 303.445 C 210.150 302.694,211.600 301.411,211.600 300.885 C 211.600 300.653,212.995 299.775,214.700 298.934 C 216.405 298.092,218.452 296.945,219.248 296.383 C 220.772 295.309,222.029 294.868,226.600 293.808 C 230.672 292.863,232.424 292.382,234.000 291.776 C 236.224 290.922,239.396 290.470,245.200 290.184 C 251.849 289.855,254.791 288.680,254.018 286.662 C 252.302 282.186,251.826 281.747,247.910 281.038 C 244.670 280.450,242.920 279.327,238.800 275.192 C 237.590 273.977,235.758 272.492,234.729 271.892 L 232.858 270.800 192.929 270.849 C 155.761 270.895,152.910 270.946,151.705 271.596 M366.000 271.532 C 366.000 271.715,366.450 272.106,367.000 272.400 L 368.000 272.935 368.000 317.087 L 368.000 361.238 366.942 362.219 L 365.883 363.200 317.406 363.200 L 268.928 363.200 268.464 362.181 C 267.813 360.752,267.826 347.534,268.480 346.880 C 268.842 346.518,274.702 346.400,292.400 346.400 C 309.647 346.400,316.106 346.275,316.846 345.926 C 320.274 344.308,319.361 322.833,315.714 319.319 C 315.211 318.835,314.800 318.238,314.800 317.994 C 314.800 317.750,314.543 316.706,314.228 315.675 C 313.914 314.644,313.554 313.318,313.428 312.728 C 313.302 312.138,312.935 311.393,312.614 311.071 C 311.599 310.056,313.670 309.671,321.400 309.434 C 330.384 309.160,330.837 309.069,332.751 307.155 C 333.606 306.300,334.582 305.600,334.921 305.600 C 335.259 305.600,336.045 305.338,336.668 305.017 C 337.290 304.697,338.385 304.203,339.101 303.919 C 339.884 303.609,340.643 302.896,341.007 302.129 C 341.358 301.389,342.324 300.461,343.306 299.920 C 344.361 299.339,345.302 298.406,345.800 297.446 C 346.240 296.599,347.410 295.072,348.400 294.053 C 349.993 292.413,350.291 291.809,350.987 288.800 C 351.541 286.405,352.035 285.191,352.658 284.694 C 353.873 283.723,354.334 282.087,354.735 277.323 C 355.247 271.233,355.282 271.200,361.209 271.200 C 363.844 271.200,366.000 271.350,366.000 271.532 M233.607 273.103 C 234.161 273.486,236.198 275.362,238.134 277.272 C 241.619 280.709,243.828 282.000,246.222 282.000 C 248.572 282.000,250.696 283.572,251.730 286.076 C 252.601 288.187,252.510 288.213,242.478 288.750 C 233.255 289.245,230.605 289.777,228.663 291.527 C 227.903 292.211,224.323 293.126,222.200 293.178 C 220.495 293.220,217.086 294.905,216.310 296.088 C 215.901 296.712,214.851 297.350,213.527 297.779 C 211.528 298.427,209.648 300.002,209.614 301.057 C 209.606 301.308,209.181 301.618,208.669 301.747 C 207.389 302.068,205.882 303.561,205.393 304.991 C 205.170 305.647,204.604 306.374,204.136 306.607 C 202.592 307.377,202.132 307.971,201.161 310.448 C 200.632 311.797,199.802 313.164,199.315 313.486 C 198.162 314.250,196.835 317.845,196.563 320.944 C 196.271 324.255,195.605 327.270,195.004 328.000 C 193.626 329.672,193.115 332.337,193.058 338.157 C 192.970 347.025,190.517 346.386,224.651 346.394 C 248.485 346.399,251.155 346.464,251.637 347.045 C 253.070 348.772,252.549 361.758,251.001 362.894 C 250.780 363.056,228.830 363.191,202.222 363.194 L 153.844 363.200 152.722 362.125 L 151.600 361.050 151.600 317.497 C 151.600 272.069,151.554 273.345,153.207 272.696 C 154.947 272.013,232.601 272.406,233.607 273.103 M281.220 273.910 C 282.500 275.329,284.009 282.673,284.003 287.451 C 283.999 290.160,283.373 290.716,281.271 289.875 C 280.336 289.501,277.632 289.150,274.367 288.978 C 267.955 288.642,268.000 288.669,268.000 285.200 C 268.000 282.364,268.232 281.925,270.000 281.403 C 271.335 281.009,272.800 279.627,272.800 278.762 C 272.800 278.315,273.221 277.971,273.968 277.807 C 275.182 277.540,277.200 275.936,277.200 275.238 C 277.200 272.958,279.636 272.153,281.220 273.910 " stroke="none" fill="#a0a0a0" fill-rule="evenodd"></path><path id="path2" d="M47.400 22.968 C 47.180 23.051,45.110 23.343,42.800 23.617 C 40.024 23.947,37.447 24.554,35.200 25.407 C 30.435 27.215,30.443 27.211,32.000 27.047 C 32.770 26.966,34.390 26.503,35.600 26.018 C 43.955 22.672,71.695 22.331,77.824 25.499 C 79.260 26.241,83.101 27.300,83.653 27.105 C 83.954 26.999,83.390 26.690,82.400 26.419 C 81.410 26.147,80.252 25.740,79.827 25.514 C 76.499 23.742,50.710 21.717,47.400 22.968 M27.200 27.600 C 26.228 27.911,26.233 27.920,27.400 27.920 C 28.060 27.920,29.050 27.776,29.600 27.600 C 30.572 27.289,30.567 27.280,29.400 27.280 C 28.740 27.280,27.750 27.424,27.200 27.600 M86.400 27.665 C 90.013 28.405,93.838 29.739,94.400 30.455 C 94.678 30.809,97.598 32.003,98.149 31.987 C 98.397 31.981,97.790 31.566,96.800 31.065 C 95.810 30.565,94.309 29.755,93.465 29.265 C 91.927 28.373,87.114 27.158,85.474 27.248 C 84.993 27.274,85.410 27.462,86.400 27.665 M23.000 28.728 C 20.652 30.063,20.688 30.013,21.440 30.844 C 22.270 31.761,26.705 33.197,28.742 33.208 C 30.678 33.218,36.007 34.171,37.006 34.684 C 38.987 35.703,44.959 37.243,46.600 37.159 C 47.040 37.136,46.680 36.952,45.800 36.750 C 43.048 36.118,39.841 35.137,38.800 34.609 C 37.545 33.973,35.053 33.441,29.200 32.562 C 22.274 31.522,20.546 30.280,24.086 28.885 C 25.595 28.290,25.914 28.051,25.200 28.049 C 24.650 28.047,23.660 28.353,23.000 28.728 M99.946 32.616 C 100.686 32.937,101.480 33.200,101.710 33.200 C 101.939 33.200,103.044 33.885,104.164 34.722 C 106.345 36.352,108.671 37.462,109.070 37.063 C 109.205 36.929,108.974 36.710,108.557 36.578 C 107.268 36.168,105.446 35.127,104.400 34.203 C 103.309 33.239,100.394 31.991,99.292 32.016 C 98.911 32.024,99.206 32.294,99.946 32.616 M49.779 38.221 C 51.088 38.765,52.258 39.361,52.379 39.545 C 52.753 40.115,55.540 41.287,56.085 41.104 C 56.368 41.009,55.925 40.707,55.100 40.434 C 54.275 40.161,53.600 39.772,53.600 39.569 C 53.600 39.366,53.345 39.200,53.033 39.200 C 52.722 39.200,52.407 39.065,52.333 38.900 C 52.110 38.397,49.229 37.199,48.286 37.217 C 47.749 37.227,48.337 37.623,49.779 38.221 M111.200 38.773 C 112.190 39.637,113.990 40.838,115.200 41.441 C 116.410 42.045,118.271 43.408,119.336 44.470 C 120.400 45.531,121.480 46.406,121.736 46.413 C 122.386 46.432,123.793 47.667,124.350 48.707 C 124.608 49.188,125.219 49.792,125.709 50.049 L 126.600 50.516 125.806 49.558 C 124.270 47.705,121.927 45.600,121.400 45.600 C 121.107 45.600,120.331 44.925,119.675 44.100 C 119.019 43.275,117.430 42.060,116.143 41.400 C 114.064 40.334,112.634 39.311,110.973 37.700 C 110.689 37.425,110.219 37.200,109.929 37.201 C 109.638 37.202,110.210 37.909,111.200 38.773 M58.492 42.181 C 59.533 42.698,61.063 43.652,61.892 44.302 C 63.841 45.830,65.125 46.494,65.722 46.283 C 65.985 46.190,65.557 45.841,64.771 45.507 C 63.985 45.173,62.725 44.378,61.971 43.741 C 60.544 42.534,57.928 41.185,57.086 41.221 C 56.819 41.233,57.452 41.665,58.492 42.181 M66.433 46.544 C 66.525 46.623,67.551 47.523,68.713 48.544 C 71.544 51.030,72.101 50.920,69.437 48.400 C 68.274 47.300,67.085 46.400,66.795 46.400 C 66.504 46.400,66.342 46.465,66.433 46.544 M73.400 51.814 C 74.280 52.585,76.080 54.061,77.400 55.095 C 78.720 56.128,80.250 57.436,80.800 58.001 C 83.288 60.559,86.703 64.322,87.698 65.602 C 88.297 66.373,89.600 67.889,90.594 68.971 C 91.587 70.053,92.400 71.104,92.400 71.305 C 92.400 71.507,93.300 72.540,94.400 73.600 C 95.500 74.660,96.400 75.778,96.400 76.084 C 96.400 76.390,97.212 77.442,98.204 78.420 C 99.196 79.399,100.407 80.983,100.895 81.939 C 101.382 82.896,102.166 84.094,102.636 84.601 C 106.773 89.065,108.862 95.600,106.151 95.600 C 105.848 95.600,105.599 95.735,105.599 95.900 C 105.598 96.065,104.833 96.516,103.899 96.903 C 102.964 97.289,101.537 98.234,100.727 99.003 C 99.916 99.771,99.078 100.400,98.864 100.400 C 98.173 100.400,93.200 102.756,93.199 103.083 C 93.198 103.478,89.880 105.600,89.264 105.600 C 86.868 105.600,84.390 108.653,83.909 112.200 C 83.781 113.139,87.084 114.935,88.534 114.716 C 89.149 114.623,88.840 114.414,87.469 113.996 C 84.878 113.206,84.698 112.913,85.243 110.375 C 85.647 108.488,86.769 106.856,87.689 106.813 C 88.492 106.776,92.398 104.639,93.497 103.635 C 94.187 103.005,96.022 101.991,97.575 101.382 C 99.129 100.772,100.400 100.122,100.400 99.937 C 100.400 99.752,100.599 99.600,100.842 99.600 C 101.086 99.600,101.639 99.150,102.071 98.600 C 102.504 98.050,103.124 97.600,103.448 97.600 C 105.199 97.600,109.077 94.343,108.292 93.532 C 108.008 93.240,107.526 92.190,107.221 91.200 C 106.638 89.307,105.255 86.693,104.717 86.467 C 104.543 86.393,104.400 86.154,104.400 85.936 C 104.400 85.717,103.871 85.010,103.225 84.364 C 102.579 83.718,101.639 82.365,101.136 81.359 C 100.634 80.352,99.733 79.179,99.134 78.753 C 98.536 78.327,97.482 76.992,96.793 75.787 C 96.103 74.582,95.196 73.412,94.778 73.188 C 94.359 72.964,93.279 71.694,92.377 70.366 C 91.475 69.037,90.496 67.858,90.202 67.745 C 89.907 67.632,89.189 66.819,88.606 65.937 C 88.022 65.056,86.252 62.962,84.673 61.284 C 80.829 57.203,80.410 56.795,78.637 55.400 C 77.798 54.740,76.096 53.347,74.856 52.304 C 72.268 50.128,70.983 49.696,73.400 51.814 M128.950 52.900 C 130.170 54.275,131.617 55.760,132.165 56.200 C 132.714 56.640,133.171 57.243,133.182 57.540 C 133.192 57.836,134.082 58.943,135.160 59.999 C 136.238 61.054,137.240 62.296,137.387 62.759 C 137.534 63.221,137.822 63.600,138.027 63.600 C 138.232 63.600,138.400 63.830,138.400 64.111 C 138.400 64.392,138.895 65.175,139.500 65.852 C 141.465 68.049,142.190 68.992,142.761 70.093 C 143.069 70.688,143.728 71.556,144.224 72.022 L 145.126 72.870 149.263 70.857 C 151.538 69.750,153.148 68.834,152.840 68.822 C 152.316 68.801,149.148 70.159,146.738 71.437 C 145.100 72.306,144.623 72.134,143.595 70.306 C 143.072 69.374,141.981 67.889,141.172 67.006 C 140.363 66.123,139.101 64.410,138.368 63.200 C 137.186 61.249,134.985 58.824,134.380 58.806 C 134.260 58.803,133.944 58.200,133.679 57.466 C 133.391 56.671,132.471 55.612,131.398 54.842 C 130.409 54.131,129.600 53.400,129.600 53.216 C 129.600 52.748,127.496 50.400,127.077 50.400 C 126.887 50.400,127.730 51.525,128.950 52.900 M172.004 57.796 C 171.390 58.535,169.561 59.457,168.051 59.789 C 167.415 59.929,166.182 60.652,165.312 61.397 C 163.866 62.635,159.773 64.800,158.880 64.800 C 158.676 64.800,157.899 65.353,157.154 66.030 C 156.409 66.706,155.260 67.606,154.600 68.028 C 153.940 68.451,153.580 68.797,153.800 68.796 C 154.255 68.796,155.524 67.982,158.006 66.100 C 158.949 65.385,159.953 64.800,160.239 64.800 C 160.983 64.800,164.023 63.108,165.209 62.034 C 165.764 61.532,167.679 60.540,169.464 59.831 L 172.711 58.541 173.407 59.719 C 174.470 61.519,174.198 64.083,172.407 69.137 C 171.523 71.633,170.815 74.243,170.832 74.937 C 170.859 75.986,170.967 75.827,171.469 74.000 C 171.801 72.790,172.215 71.440,172.389 71.000 C 175.082 64.170,175.281 60.891,173.170 58.104 C 172.584 57.331,172.424 57.289,172.004 57.796 M170.304 77.800 C 170.142 78.680,170.025 80.030,170.045 80.800 L 170.080 82.200 170.457 80.600 C 170.663 79.720,170.780 78.370,170.716 77.600 L 170.600 76.200 170.304 77.800 M169.269 85.000 C 168.629 87.889,167.957 90.030,167.486 90.678 C 167.029 91.307,165.987 96.323,166.048 97.600 C 166.074 98.150,166.315 97.494,166.584 96.141 C 166.853 94.789,167.448 92.719,167.906 91.541 C 169.419 87.652,170.055 85.251,169.927 83.917 C 169.816 82.770,169.731 82.910,169.269 85.000 M165.255 102.600 C 164.766 105.836,164.135 108.279,163.190 110.600 C 162.351 112.658,161.604 115.439,161.638 116.371 C 161.666 117.115,161.847 116.845,162.292 115.400 C 162.630 114.300,163.321 112.230,163.827 110.800 C 164.989 107.520,166.090 102.010,165.926 100.304 C 165.844 99.453,165.611 100.251,165.255 102.600 M91.200 115.421 C 92.190 115.733,93.360 115.977,93.800 115.963 C 95.069 115.925,91.993 114.861,90.600 114.857 C 89.552 114.854,89.629 114.926,91.200 115.421 M96.000 116.674 C 96.770 117.008,97.490 117.425,97.600 117.600 C 97.905 118.086,104.041 120.004,105.189 119.972 C 105.865 119.954,105.538 119.753,104.200 119.367 C 100.079 118.176,99.082 117.826,98.647 117.414 C 97.983 116.785,96.059 115.995,95.281 116.033 C 94.907 116.051,95.230 116.339,96.000 116.674 M160.993 120.114 C 160.844 121.313,160.798 122.633,160.892 123.047 C 160.987 123.461,161.206 122.577,161.380 121.082 C 161.555 119.587,161.600 118.267,161.482 118.148 C 161.363 118.030,161.143 118.914,160.993 120.114 M107.200 120.400 C 107.530 120.613,108.064 120.791,108.386 120.794 C 108.708 120.797,110.470 121.532,112.300 122.426 C 114.131 123.320,116.027 123.995,116.514 123.926 C 117.180 123.831,116.954 123.655,115.600 123.214 C 114.610 122.892,113.171 122.262,112.403 121.814 C 110.026 120.429,105.226 119.124,107.200 120.400 M118.600 124.400 C 119.040 124.589,119.940 124.738,120.600 124.732 C 121.770 124.721,121.775 124.712,120.800 124.400 C 119.333 123.930,117.506 123.930,118.600 124.400 M160.033 126.400 C 159.186 130.279,158.515 131.625,156.494 133.500 C 154.480 135.368,154.259 135.434,152.800 134.600 C 152.250 134.286,151.440 134.031,151.000 134.035 C 150.509 134.039,150.951 134.414,152.146 135.007 C 156.081 136.959,161.291 130.919,160.723 125.063 C 160.623 124.038,160.493 124.290,160.033 126.400 M122.600 125.221 C 123.040 125.422,123.850 125.772,124.400 125.999 C 124.950 126.225,125.940 126.737,126.600 127.137 C 128.052 128.016,132.901 129.370,133.657 129.106 C 133.956 129.002,133.120 128.677,131.800 128.384 C 129.127 127.790,127.759 127.239,125.400 125.806 C 124.520 125.272,123.350 124.839,122.800 124.844 C 121.877 124.853,121.862 124.882,122.600 125.221 M136.200 129.706 C 137.080 129.979,138.430 130.556,139.200 130.987 C 141.864 132.481,143.692 133.200,144.744 133.168 L 145.800 133.137 144.600 132.732 C 143.940 132.510,142.108 131.705,140.529 130.943 C 138.949 130.182,136.969 129.480,136.129 129.384 L 134.600 129.210 136.200 129.706 M146.800 133.600 C 147.350 133.776,148.340 133.920,149.000 133.920 C 150.167 133.920,150.172 133.911,149.200 133.600 C 148.650 133.424,147.660 133.280,147.000 133.280 C 145.833 133.280,145.828 133.289,146.800 133.600 M121.055 152.057 C 118.604 153.481,118.800 149.565,118.800 197.174 C 118.800 243.158,118.742 241.889,120.890 243.198 C 122.501 244.180,206.988 244.481,210.590 243.518 C 213.416 242.762,214.693 241.561,214.086 240.230 C 213.366 238.648,213.441 231.163,214.187 230.176 C 214.510 229.749,214.780 229.079,214.787 228.686 C 214.794 228.293,215.085 227.537,215.433 227.006 C 215.781 226.474,216.006 225.733,215.933 225.358 C 215.770 224.520,215.162 225.712,213.214 230.693 C 212.761 231.852,212.793 238.209,213.266 240.985 C 213.362 241.548,213.006 241.965,212.000 242.465 C 210.071 243.425,121.920 243.569,120.661 242.615 C 119.305 241.587,119.171 236.949,119.287 194.911 L 119.400 154.022 120.311 153.111 L 121.222 152.200 148.511 152.083 C 180.224 151.947,179.276 151.869,180.170 154.700 C 180.326 155.195,180.622 155.600,180.827 155.600 C 181.032 155.600,181.200 155.788,181.200 156.017 C 181.200 156.246,181.551 156.810,181.980 157.270 C 182.408 157.730,183.111 159.208,183.542 160.553 C 184.642 163.989,185.452 165.779,186.182 166.385 C 186.879 166.964,188.400 170.180,188.400 171.076 C 188.400 173.213,192.858 179.236,194.396 179.176 C 194.840 179.159,194.790 179.027,194.209 178.676 C 191.972 177.330,189.770 173.982,188.766 170.400 C 188.488 169.410,187.572 167.544,186.729 166.253 C 185.887 164.962,184.660 162.363,184.003 160.479 C 183.345 158.594,182.659 156.950,182.477 156.826 C 182.296 156.702,181.584 155.772,180.896 154.761 C 178.570 151.341,181.123 151.598,149.714 151.612 C 130.434 151.621,121.570 151.758,121.055 152.057 M131.640 162.523 C 129.187 163.384,129.212 163.021,129.212 197.600 C 129.212 230.805,129.216 230.874,131.203 232.483 C 132.048 233.167,133.848 233.199,166.331 233.102 L 200.568 233.000 201.394 231.775 C 201.848 231.102,202.555 229.482,202.966 228.175 C 203.830 225.425,204.351 224.043,204.842 223.200 C 206.183 220.897,206.826 219.479,206.700 219.100 C 206.620 218.859,206.165 219.488,205.690 220.499 C 205.214 221.510,204.654 222.443,204.445 222.572 C 204.236 222.702,203.676 224.111,203.202 225.704 C 201.988 229.784,201.534 230.887,200.692 231.800 C 199.969 232.585,199.353 232.603,168.877 232.735 C 133.641 232.888,131.852 232.791,130.568 230.669 C 129.419 228.770,129.365 166.197,130.510 164.100 L 131.221 162.800 150.310 162.806 C 172.940 162.813,172.245 162.694,174.398 166.937 C 174.715 167.563,175.041 167.878,175.121 167.637 C 175.518 166.445,172.942 163.400,170.972 162.732 C 168.454 161.879,133.996 161.696,131.640 162.523 M175.200 168.955 C 175.200 169.260,175.794 170.385,176.521 171.455 C 178.084 173.757,179.200 176.060,179.200 176.986 C 179.200 177.861,181.234 182.000,181.665 182.000 C 181.849 182.000,182.000 182.211,182.000 182.469 C 182.000 182.726,182.233 183.221,182.517 183.569 C 182.802 183.916,183.273 184.920,183.565 185.800 C 184.180 187.655,185.464 189.205,186.370 189.188 C 186.850 189.179,186.809 189.066,186.200 188.717 C 185.065 188.066,184.529 187.262,183.835 185.165 C 183.500 184.157,182.531 182.267,181.681 180.965 C 180.831 179.664,179.917 177.790,179.651 176.800 C 178.997 174.371,177.954 172.000,177.539 172.000 C 177.353 172.000,177.200 171.730,177.200 171.400 C 177.200 171.070,177.038 170.800,176.839 170.800 C 176.641 170.800,176.290 170.260,176.060 169.600 C 175.619 168.335,175.200 168.021,175.200 168.955 M215.868 179.585 L 236.736 179.800 237.768 180.770 L 238.800 181.739 238.779 192.770 C 238.749 209.344,238.444 210.740,234.839 210.840 C 234.047 210.862,232.950 211.039,232.400 211.234 C 231.676 211.490,232.029 211.543,233.681 211.425 C 237.055 211.184,238.109 210.544,238.668 208.397 C 239.269 206.087,239.390 181.200,238.800 181.200 C 238.580 181.200,238.400 180.966,238.400 180.680 C 238.400 179.340,236.067 179.199,215.372 179.285 L 195.000 179.370 215.868 179.585 M187.366 189.500 C 187.531 189.665,195.989 189.890,206.162 190.000 C 225.335 190.207,226.000 190.269,226.000 191.840 C 226.000 192.003,226.315 192.485,226.700 192.911 C 227.263 193.534,227.382 194.313,227.310 196.891 C 227.207 200.548,227.216 200.536,223.299 202.442 C 221.924 203.111,220.561 203.896,220.272 204.186 C 219.982 204.475,218.497 205.517,216.972 206.501 C 214.605 208.029,210.800 211.513,210.800 212.154 C 210.800 212.265,210.163 213.040,209.385 213.878 C 207.846 215.533,206.546 217.879,206.946 218.279 C 207.084 218.417,207.395 217.961,207.637 217.265 C 207.880 216.569,208.241 216.000,208.439 216.000 C 208.638 216.000,208.800 215.815,208.800 215.589 C 208.800 214.448,216.214 207.167,217.931 206.622 C 218.409 206.470,218.800 206.178,218.800 205.973 C 218.800 205.768,219.051 205.600,219.357 205.600 C 219.664 205.600,220.019 205.328,220.147 204.995 C 220.274 204.662,221.718 203.745,223.355 202.957 C 227.528 200.949,227.985 200.369,228.075 196.973 C 228.180 192.987,227.470 191.350,225.118 190.158 L 223.227 189.200 205.147 189.200 C 195.203 189.200,187.201 189.335,187.366 189.500 M258.618 203.418 L 257.600 204.436 257.694 216.318 L 257.787 228.200 257.900 216.419 C 258.031 202.733,257.966 202.961,261.752 202.693 L 263.800 202.548 261.718 202.474 C 259.965 202.412,259.476 202.561,258.618 203.418 M377.944 202.695 C 378.955 202.785,380.047 203.185,380.544 203.648 L 381.400 204.446 381.400 289.800 L 381.400 375.154 380.554 375.942 C 380.089 376.376,379.279 376.811,378.754 376.911 C 377.842 377.083,377.847 377.093,378.864 377.146 C 379.603 377.183,380.246 376.823,380.964 375.969 L 382.000 374.739 382.000 289.691 L 382.000 204.644 380.925 203.522 C 380.026 202.583,379.553 202.411,378.025 202.470 L 376.200 202.540 377.944 202.695 M227.600 212.292 C 226.830 212.663,225.840 213.348,225.400 213.815 C 224.960 214.282,223.745 215.189,222.701 215.832 C 221.656 216.474,220.801 217.126,220.801 217.281 C 220.800 217.435,219.923 218.438,218.852 219.510 C 216.707 221.654,215.984 222.774,216.032 223.874 C 216.051 224.320,216.225 224.137,216.484 223.400 C 216.716 222.740,217.562 221.570,218.364 220.800 C 219.167 220.030,220.220 218.837,220.704 218.149 C 221.188 217.461,222.173 216.619,222.892 216.276 C 223.611 215.934,224.903 215.027,225.763 214.261 C 226.623 213.494,228.243 212.597,229.363 212.266 C 231.047 211.769,231.192 211.661,230.200 211.641 C 229.540 211.629,228.370 211.922,227.600 212.292 M271.800 213.200 C 271.664 213.420,271.293 213.600,270.976 213.600 C 270.132 213.600,269.071 214.816,268.500 216.437 C 267.628 218.913,267.870 232.699,268.811 234.200 C 269.226 234.860,269.867 235.993,270.236 236.718 C 270.882 237.985,273.029 239.504,273.504 239.029 C 273.630 238.903,273.550 238.800,273.325 238.800 C 272.600 238.800,270.994 237.039,270.406 235.600 C 270.091 234.830,269.601 233.962,269.317 233.671 C 268.929 233.275,268.800 231.127,268.800 225.055 L 268.800 216.967 270.617 215.183 L 272.434 213.400 319.862 213.400 L 367.290 213.400 369.045 215.339 L 370.800 217.277 370.800 236.390 C 370.800 257.604,371.022 256.006,367.944 256.973 C 366.841 257.320,366.524 257.535,367.081 257.560 C 368.195 257.610,369.991 256.846,370.900 255.935 C 372.058 254.774,371.961 219.394,370.790 216.266 C 369.389 212.520,373.549 212.800,319.310 212.800 C 288.233 212.800,271.963 212.937,271.800 213.200 M257.011 230.476 C 256.691 232.515,255.955 233.426,254.400 233.709 L 253.400 233.891 254.425 233.946 C 256.276 234.044,258.185 231.042,257.493 229.121 C 257.390 228.835,257.173 229.444,257.011 230.476 M248.400 234.635 L 247.000 235.210 248.400 235.002 C 249.170 234.888,250.520 234.637,251.400 234.443 L 253.000 234.092 251.400 234.076 C 250.520 234.068,249.170 234.319,248.400 234.635 M244.200 236.617 C 243.320 237.383,241.807 238.593,240.838 239.305 C 239.869 240.017,238.879 240.939,238.638 241.354 C 238.397 241.768,237.492 242.800,236.627 243.647 C 235.761 244.494,235.152 245.285,235.273 245.407 C 235.572 245.706,238.312 242.926,238.988 241.638 C 239.287 241.067,239.863 240.373,240.266 240.096 C 244.216 237.383,246.940 235.200,246.360 235.212 C 246.052 235.219,245.080 235.851,244.200 236.617 M274.000 239.524 C 274.000 239.839,275.468 241.200,275.808 241.200 C 275.917 241.200,275.784 240.843,275.512 240.408 C 274.998 239.585,274.000 239.002,274.000 239.524 M276.000 241.931 C 276.000 242.464,277.614 245.144,278.472 246.036 C 278.770 246.346,279.224 247.050,279.480 247.600 C 279.736 248.150,279.958 248.366,279.973 248.080 C 280.013 247.310,279.000 245.505,278.041 244.637 C 277.578 244.218,277.194 243.679,277.187 243.438 C 277.169 242.823,276.000 241.339,276.000 241.931 M234.071 248.643 C 233.592 250.207,233.200 251.802,233.200 252.189 C 233.200 253.632,231.170 256.615,229.446 257.706 L 227.716 258.800 184.158 258.813 C 150.532 258.823,140.462 258.937,139.995 259.313 C 139.192 259.960,138.390 261.822,138.442 262.919 C 138.473 263.576,138.600 263.444,138.942 262.400 C 140.037 259.053,134.718 259.425,184.672 259.200 L 229.000 259.000 230.470 257.875 C 232.537 256.294,233.055 255.347,233.787 251.803 C 234.140 250.093,234.614 248.348,234.840 247.926 C 235.066 247.503,235.181 246.853,235.096 246.479 C 235.012 246.106,234.550 247.079,234.071 248.643 M280.037 249.200 C 280.044 249.530,280.303 251.060,280.613 252.600 L 281.178 255.400 281.003 252.690 C 280.854 250.375,279.997 247.281,280.037 249.200 M281.200 255.977 C 281.200 256.748,283.029 257.598,284.589 257.552 C 286.186 257.505,286.182 257.502,284.100 257.122 C 282.729 256.872,282.000 256.541,282.000 256.169 C 282.000 255.856,281.820 255.600,281.600 255.600 C 281.380 255.600,281.200 255.770,281.200 255.977 M292.060 257.976 C 298.818 258.275,299.693 259.013,297.543 262.600 C 295.215 266.483,294.400 269.430,294.400 273.962 C 294.400 278.222,295.372 282.261,296.765 283.786 C 297.175 284.234,297.977 285.590,298.547 286.800 C 299.118 288.010,300.045 289.360,300.606 289.800 C 301.167 290.240,302.496 291.455,303.560 292.500 C 304.623 293.545,305.832 294.379,306.247 294.354 C 306.918 294.312,306.923 294.287,306.300 294.124 C 305.915 294.024,305.600 293.775,305.600 293.571 C 305.600 293.367,305.407 293.200,305.171 293.200 C 304.618 293.200,303.600 292.182,303.600 291.629 C 303.600 291.393,303.458 291.200,303.286 291.200 C 302.440 291.200,299.606 287.930,298.605 285.800 C 297.985 284.480,297.251 283.220,296.973 283.000 C 294.316 280.896,294.297 269.858,296.941 265.028 C 299.404 260.531,299.482 260.138,298.182 258.781 L 297.050 257.600 292.025 257.676 L 287.000 257.753 292.060 257.976 M339.000 258.292 C 336.508 259.307,336.314 259.835,337.835 261.475 C 339.997 263.808,341.466 271.334,340.787 276.600 C 340.311 280.290,340.340 281.944,340.846 280.000 C 342.307 274.389,340.660 263.289,338.009 260.885 C 337.018 259.986,337.014 259.960,337.800 259.485 C 339.552 258.423,341.478 258.244,353.600 258.016 L 366.200 257.778 353.400 257.710 C 342.389 257.651,340.376 257.732,339.000 258.292 M138.194 318.200 C 138.194 348.120,138.242 360.301,138.300 345.269 C 138.358 330.237,138.358 305.757,138.300 290.869 C 138.242 275.981,138.194 288.280,138.194 318.200 M354.921 268.709 C 353.700 269.669,352.400 272.922,352.400 275.018 C 352.400 275.981,351.952 278.171,351.405 279.885 C 350.858 281.598,350.408 283.255,350.405 283.567 C 350.387 285.610,352.332 280.001,352.821 276.600 C 353.919 268.975,354.111 268.800,361.379 268.800 L 367.099 268.800 368.496 270.100 C 370.937 272.373,370.800 269.562,370.800 317.529 C 370.800 367.470,371.146 362.292,367.640 364.761 L 365.880 366.000 317.440 365.999 L 269.000 365.999 267.800 364.101 C 266.602 362.206,266.600 362.195,266.473 355.235 C 266.270 344.021,263.236 345.200,292.307 345.200 L 315.491 345.200 316.545 344.145 C 317.691 343.000,318.021 336.692,317.190 331.800 C 316.973 330.518,316.927 332.126,317.063 336.280 L 317.276 342.760 316.256 343.780 L 315.236 344.800 292.077 344.800 L 268.918 344.800 267.559 345.716 L 266.200 346.631 266.091 354.393 C 265.975 362.634,266.125 363.508,267.995 365.506 L 268.843 366.412 318.179 366.306 C 364.519 366.206,367.563 366.157,368.290 365.500 C 368.715 365.115,369.254 364.800,369.487 364.800 C 371.672 364.800,373.046 278.372,370.963 272.004 C 369.843 268.579,368.397 267.996,361.040 268.009 C 356.690 268.016,355.651 268.135,354.921 268.709 M281.600 269.400 C 281.326 269.730,280.791 270.000,280.411 270.000 C 279.143 270.000,277.200 270.871,277.200 271.439 C 277.200 271.748,277.028 272.000,276.819 272.000 C 276.609 272.000,276.145 272.616,275.788 273.369 C 275.431 274.122,274.882 274.836,274.569 274.957 C 273.941 275.198,273.786 276.000,274.367 276.000 C 274.569 276.000,275.149 275.325,275.655 274.500 C 276.161 273.675,276.895 272.651,277.287 272.225 C 277.679 271.798,278.000 271.320,278.000 271.163 C 278.000 271.006,278.855 270.802,279.900 270.710 C 280.945 270.617,282.070 270.418,282.401 270.266 C 283.208 269.896,283.992 272.420,284.025 275.494 C 284.038 276.762,284.299 278.970,284.605 280.400 L 285.161 283.000 284.962 278.800 C 284.608 271.349,283.215 267.454,281.600 269.400 M152.200 270.669 C 151.320 270.985,150.105 271.718,149.500 272.297 L 148.400 273.350 148.407 317.575 L 148.413 361.800 149.307 363.370 C 149.882 364.383,150.840 365.267,152.000 365.859 L 153.800 366.777 202.428 366.789 L 251.056 366.800 252.228 365.700 C 254.507 363.561,254.590 363.206,254.730 354.944 C 254.858 347.424,254.844 347.272,253.955 346.444 C 252.974 345.530,252.400 345.366,252.400 346.000 C 252.400 346.220,252.641 346.400,252.936 346.400 C 254.039 346.400,254.400 348.414,254.400 354.573 C 254.400 360.998,254.258 361.700,252.396 364.495 L 251.400 365.990 202.325 365.995 L 153.250 366.000 151.325 364.232 L 149.400 362.465 149.295 317.979 C 149.220 286.224,149.315 273.344,149.627 272.967 C 151.493 270.719,149.867 270.800,193.155 270.800 L 232.858 270.800 234.729 271.892 C 235.758 272.492,237.590 273.977,238.800 275.192 C 242.920 279.327,244.670 280.450,247.910 281.038 C 251.826 281.747,252.302 282.186,254.018 286.662 C 254.630 288.258,252.157 289.690,248.200 290.030 L 245.400 290.271 248.471 290.335 C 250.736 290.383,251.701 290.242,252.143 289.800 C 252.473 289.470,252.908 289.200,253.109 289.200 C 255.107 289.200,254.715 283.413,252.643 282.323 C 252.179 282.080,251.710 281.767,251.600 281.628 C 251.490 281.490,250.050 281.040,248.400 280.629 C 244.860 279.746,243.610 279.166,242.812 278.034 C 242.488 277.575,242.008 277.200,241.745 277.200 C 241.482 277.200,240.267 276.095,239.044 274.743 C 237.664 273.219,235.961 271.853,234.554 271.143 L 232.287 270.000 193.044 270.047 C 160.004 270.086,153.547 270.184,152.200 270.669 M271.018 277.700 C 270.036 278.635,268.504 280.028,267.616 280.797 L 266.000 282.193 266.000 285.255 C 266.000 289.389,267.164 290.567,271.664 290.983 C 273.279 291.133,275.951 291.681,277.603 292.202 C 287.392 295.289,292.173 293.649,287.554 288.788 C 287.199 288.414,286.573 287.049,286.164 285.754 C 285.754 284.459,285.356 283.718,285.279 284.107 C 285.066 285.180,286.410 288.438,287.674 289.914 C 288.862 291.300,288.946 291.553,288.557 292.567 C 288.121 293.705,281.092 293.224,279.370 291.939 C 278.641 291.395,273.263 290.400,271.052 290.400 C 267.884 290.400,266.400 288.752,266.400 285.234 C 266.400 282.432,266.366 282.479,271.621 277.901 C 272.819 276.857,273.576 276.002,273.302 276.001 C 273.029 276.001,272.001 276.765,271.018 277.700 M340.054 282.088 C 339.986 282.946,338.594 285.453,337.458 286.764 C 335.732 288.754,330.978 293.413,330.200 293.876 C 329.513 294.286,329.496 294.356,330.086 294.376 C 330.849 294.403,337.200 288.500,337.200 287.765 C 337.200 287.508,337.494 287.054,337.854 286.755 C 339.041 285.770,340.452 283.160,340.278 282.270 C 340.164 281.685,340.091 281.625,340.054 282.088 M349.896 284.933 C 349.733 285.336,349.611 286.146,349.625 286.733 L 349.651 287.800 350.043 286.819 C 350.258 286.279,350.380 285.469,350.314 285.019 C 350.201 284.259,350.171 284.253,349.896 284.933 M348.455 289.693 C 347.951 290.673,347.139 291.907,346.649 292.437 C 346.159 292.967,345.626 293.670,345.464 294.000 C 344.363 296.239,342.587 298.400,341.850 298.400 C 341.624 298.400,340.687 299.197,339.767 300.170 C 338.279 301.746,333.649 304.400,332.390 304.400 C 332.146 304.400,331.299 304.894,330.507 305.498 C 328.394 307.109,326.152 307.556,318.800 307.828 C 309.554 308.169,307.418 309.118,309.891 311.785 C 310.453 312.391,311.336 313.722,311.854 314.743 C 312.455 315.926,312.797 316.307,312.798 315.793 C 312.800 314.919,310.995 312.000,310.132 311.480 C 309.335 311.001,309.491 309.861,310.432 309.273 C 310.963 308.941,313.829 308.619,318.332 308.383 C 326.910 307.935,328.035 307.717,331.042 305.918 C 332.339 305.142,334.263 304.185,335.318 303.792 C 336.373 303.399,338.308 302.122,339.617 300.954 C 340.926 299.786,342.350 298.641,342.783 298.409 C 343.484 298.034,344.902 296.092,348.534 290.536 C 349.157 289.582,349.600 288.601,349.519 288.357 C 349.437 288.112,348.959 288.714,348.455 289.693 M236.800 290.983 C 235.590 291.259,234.150 291.672,233.600 291.901 C 233.050 292.129,231.880 292.504,231.000 292.734 C 226.139 294.000,225.091 294.339,225.940 294.368 C 226.872 294.400,232.937 292.910,236.400 291.799 C 237.390 291.481,239.640 291.062,241.400 290.867 L 244.600 290.513 241.800 290.498 C 240.260 290.489,238.010 290.708,236.800 290.983 M221.600 295.069 C 220.830 295.401,219.660 296.065,219.000 296.544 C 218.340 297.023,216.405 298.101,214.700 298.940 C 212.995 299.778,211.600 300.653,211.600 300.885 C 211.600 301.411,210.150 302.694,208.707 303.445 C 208.105 303.758,207.342 304.538,207.011 305.179 C 206.679 305.820,205.506 307.285,204.404 308.435 C 203.302 309.584,202.411 310.812,202.424 311.162 C 202.443 311.678,202.538 311.652,202.924 311.028 C 203.186 310.604,204.165 309.474,205.100 308.518 C 206.035 307.561,206.800 306.636,206.800 306.462 C 206.800 305.988,209.012 303.600,209.451 303.600 C 209.659 303.600,210.717 302.700,211.800 301.600 C 212.883 300.500,213.939 299.600,214.145 299.600 C 214.750 299.600,218.895 297.521,220.200 296.562 C 220.860 296.078,222.210 295.401,223.200 295.060 C 224.468 294.622,224.705 294.442,224.000 294.452 C 223.450 294.459,222.370 294.737,221.600 295.069 M307.373 294.756 C 307.494 294.951,308.083 295.235,308.683 295.385 C 309.283 295.536,310.770 296.141,311.987 296.729 C 315.211 298.289,322.328 298.284,324.691 296.720 C 325.538 296.159,326.807 295.574,327.511 295.420 C 328.701 295.158,329.714 294.400,328.872 294.400 C 328.532 294.400,326.662 295.092,324.600 295.981 C 319.110 298.348,315.524 298.104,309.538 294.958 C 308.349 294.333,307.036 294.210,307.373 294.756 M201.716 313.071 C 201.466 313.770,200.608 315.363,199.810 316.612 C 199.011 317.861,198.412 319.166,198.479 319.513 C 198.550 319.885,198.996 319.374,199.566 318.266 C 200.097 317.234,200.772 316.189,201.066 315.945 C 201.360 315.702,201.600 315.200,201.600 314.831 C 201.600 314.462,201.797 313.963,202.038 313.722 C 202.278 313.482,202.406 312.951,202.322 312.542 C 202.205 311.976,202.062 312.100,201.716 313.071 M312.846 317.400 C 312.831 318.532,313.728 321.783,314.238 322.444 C 314.856 323.246,315.596 325.227,316.192 327.671 C 316.594 329.317,316.721 329.527,316.751 328.600 C 316.801 327.110,315.984 324.452,314.632 321.702 C 314.064 320.548,313.587 319.288,313.572 318.902 C 313.556 318.516,313.389 317.840,313.200 317.400 L 312.856 316.600 312.846 317.400 M197.788 322.138 C 197.639 323.135,197.599 324.186,197.700 324.475 C 197.800 324.764,198.018 324.043,198.182 322.874 C 198.347 321.705,198.387 320.654,198.271 320.538 C 198.155 320.422,197.938 321.142,197.788 322.138 M196.924 327.800 C 196.083 332.060,195.552 335.721,195.258 339.287 L 194.969 342.775 196.105 343.614 C 196.729 344.076,197.456 344.380,197.720 344.291 C 197.984 344.202,197.598 343.816,196.861 343.434 C 195.672 342.817,195.547 342.598,195.739 341.470 C 195.858 340.771,196.067 338.760,196.203 337.000 C 196.340 335.240,196.722 332.405,197.052 330.699 C 197.383 328.994,197.595 327.104,197.525 326.499 C 197.433 325.707,197.265 326.071,196.924 327.800 M198.972 344.889 C 199.257 345.048,211.291 345.228,225.716 345.289 C 240.142 345.350,251.712 345.270,251.428 345.111 C 251.143 344.952,239.109 344.772,224.684 344.711 C 210.258 344.650,198.688 344.730,198.972 344.889 M138.400 375.076 C 138.400 375.287,138.817 375.853,139.327 376.332 L 140.254 377.203 198.827 377.100 L 257.400 376.997 198.955 376.899 L 140.509 376.800 139.455 375.745 C 138.875 375.165,138.400 374.864,138.400 375.076 " stroke="none" fill="#7c7c7c" fill-rule="evenodd"></path><path id="path3" d="M46.200 23.828 C 40.718 24.343,38.815 24.682,36.800 25.504 C 33.725 26.759,32.311 27.171,29.600 27.601 C 20.195 29.091,20.027 31.184,29.200 32.562 C 35.019 33.436,37.537 33.971,38.800 34.601 C 40.287 35.343,43.465 36.264,46.400 36.804 C 49.249 37.328,52.396 38.428,52.399 38.900 C 52.399 39.065,52.670 39.200,53.000 39.200 C 53.330 39.200,53.600 39.356,53.600 39.546 C 53.600 39.736,54.455 40.199,55.500 40.575 C 59.297 41.940,60.619 42.563,61.600 43.452 C 62.707 44.455,66.193 46.400,66.883 46.400 C 67.125 46.400,68.274 47.300,69.437 48.400 C 70.600 49.500,71.788 50.402,72.076 50.404 C 72.364 50.406,73.615 51.261,74.856 52.304 C 76.096 53.347,77.798 54.740,78.637 55.400 C 80.410 56.795,80.829 57.203,84.673 61.284 C 86.252 62.962,88.022 65.056,88.606 65.937 C 89.189 66.819,89.907 67.632,90.202 67.745 C 90.496 67.858,91.475 69.037,92.377 70.366 C 93.279 71.694,94.359 72.964,94.778 73.188 C 95.196 73.412,96.103 74.582,96.793 75.787 C 97.482 76.992,98.536 78.327,99.134 78.753 C 99.733 79.179,100.634 80.352,101.136 81.359 C 101.639 82.365,102.579 83.718,103.225 84.364 C 103.871 85.010,104.400 85.717,104.400 85.936 C 104.400 86.154,104.543 86.393,104.717 86.467 C 105.255 86.693,106.638 89.307,107.221 91.200 C 107.526 92.190,108.008 93.240,108.292 93.532 C 109.077 94.343,105.199 97.600,103.448 97.600 C 103.124 97.600,102.504 98.050,102.071 98.600 C 101.639 99.150,101.086 99.600,100.842 99.600 C 100.599 99.600,100.400 99.752,100.400 99.937 C 100.400 100.122,99.129 100.772,97.575 101.382 C 96.022 101.991,94.187 103.005,93.497 103.635 C 92.398 104.639,88.492 106.776,87.689 106.813 C 86.246 106.880,84.165 111.925,85.168 112.928 C 85.706 113.466,89.586 114.800,90.613 114.800 C 91.078 114.800,92.255 115.049,93.229 115.353 C 94.203 115.657,95.765 116.136,96.700 116.417 C 97.635 116.698,98.400 117.055,98.400 117.210 C 98.400 117.619,101.348 118.633,104.800 119.410 C 109.562 120.483,110.906 120.904,112.400 121.790 C 114.277 122.904,117.168 123.811,120.800 124.424 C 122.450 124.703,124.520 125.350,125.400 125.861 C 128.175 127.472,131.704 128.594,136.466 129.381 C 137.272 129.514,138.892 130.132,140.066 130.754 C 142.599 132.095,145.185 132.921,149.000 133.605 C 150.540 133.881,152.286 134.353,152.880 134.653 C 153.474 134.954,154.118 135.200,154.311 135.200 C 155.004 135.200,158.361 131.775,158.819 130.600 C 159.564 128.692,160.790 123.509,160.795 122.246 C 160.805 119.791,162.445 111.806,163.186 110.600 C 163.783 109.629,164.798 105.466,165.381 101.600 C 166.623 93.361,166.919 91.790,167.377 91.000 C 168.272 89.459,170.000 82.770,170.000 80.850 C 170.000 78.167,170.964 73.580,172.459 69.153 C 174.203 63.985,174.453 61.491,173.405 59.717 L 172.711 58.541 169.464 59.831 C 167.679 60.540,165.764 61.532,165.209 62.034 C 164.012 63.119,161.401 64.565,160.000 64.920 C 159.450 65.060,158.137 65.890,157.082 66.766 C 156.027 67.641,154.767 68.481,154.282 68.633 C 153.797 68.785,151.538 69.800,149.263 70.889 L 145.126 72.870 144.224 72.022 C 143.728 71.556,143.069 70.688,142.761 70.093 C 142.190 68.992,141.465 68.049,139.500 65.852 C 138.895 65.175,138.400 64.392,138.400 64.111 C 138.400 63.830,138.232 63.600,138.027 63.600 C 137.822 63.600,137.534 63.221,137.387 62.759 C 137.240 62.296,136.238 61.054,135.160 59.999 C 134.082 58.943,133.200 57.909,133.200 57.701 C 133.200 57.384,129.144 53.184,124.990 49.200 C 124.417 48.650,123.558 47.795,123.082 47.300 C 122.606 46.805,122.006 46.400,121.748 46.400 C 121.490 46.400,120.455 45.564,119.447 44.542 C 118.440 43.520,116.628 42.186,115.422 41.577 C 114.215 40.969,112.366 39.770,111.314 38.914 C 110.261 38.058,108.681 37.114,107.801 36.817 C 106.922 36.520,105.302 35.614,104.201 34.804 C 103.024 33.937,100.733 32.854,98.637 32.174 C 96.677 31.537,94.877 30.833,94.637 30.608 C 93.509 29.554,89.671 28.258,85.800 27.623 C 82.689 27.113,79.126 26.152,77.600 25.411 C 73.757 23.545,57.787 22.740,46.200 23.828 M64.200 24.579 C 70.271 25.053,71.714 25.293,73.400 26.108 C 75.495 27.120,77.108 27.491,85.002 28.771 C 90.359 29.640,91.052 29.837,91.335 30.575 C 91.598 31.261,96.506 33.200,97.981 33.200 C 98.625 33.200,99.264 33.380,99.400 33.600 C 99.536 33.820,99.924 34.000,100.262 34.000 C 100.600 34.000,101.656 34.685,102.608 35.523 C 103.676 36.464,105.284 37.344,106.811 37.823 C 108.259 38.278,109.640 39.017,110.142 39.607 C 111.139 40.777,114.946 43.200,115.787 43.200 C 116.103 43.200,116.939 43.918,117.644 44.795 C 118.349 45.672,119.700 46.764,120.648 47.223 C 121.610 47.689,122.739 48.654,123.206 49.410 C 123.666 50.155,124.793 51.178,125.710 51.684 C 126.628 52.190,127.579 53.007,127.825 53.499 C 128.475 54.804,129.644 56.002,130.899 56.651 C 131.505 56.964,132.000 57.554,132.000 57.961 C 132.000 58.369,132.270 58.926,132.600 59.200 C 132.930 59.474,133.200 59.918,133.200 60.186 C 133.200 60.454,133.819 61.007,134.575 61.415 C 135.545 61.937,136.151 62.679,136.629 63.931 C 137.356 65.836,137.389 65.882,140.405 69.187 C 141.502 70.391,142.400 71.549,142.400 71.762 C 142.400 74.590,148.371 74.575,151.000 71.740 C 151.440 71.265,152.676 70.585,153.748 70.227 C 156.340 69.362,157.246 68.850,158.097 67.768 C 158.488 67.270,159.662 66.549,160.704 66.165 C 161.747 65.782,162.771 65.318,162.980 65.134 C 163.189 64.950,163.665 64.800,164.039 64.800 C 164.412 64.800,165.309 64.125,166.032 63.300 C 167.230 61.934,171.967 60.352,172.765 61.052 C 173.229 61.459,172.717 64.193,171.985 65.221 C 170.923 66.712,170.215 69.683,169.413 76.000 C 169.065 78.750,168.704 81.591,168.613 82.313 C 168.521 83.034,167.958 84.654,167.361 85.913 C 166.061 88.651,164.824 93.833,164.811 96.600 C 164.796 99.517,163.595 105.152,162.593 107.000 C 161.457 109.098,160.994 111.118,160.212 117.400 C 159.400 123.925,158.818 126.687,158.135 127.254 C 157.841 127.498,157.600 128.025,157.600 128.425 C 157.600 128.825,157.420 129.264,157.200 129.400 C 156.980 129.536,156.800 129.942,156.800 130.302 C 156.800 131.263,154.787 133.200,153.789 133.200 C 151.213 133.200,143.200 131.110,143.200 130.439 C 143.200 129.858,138.922 128.364,136.000 127.925 C 134.570 127.710,132.770 127.439,132.000 127.324 C 131.230 127.208,130.150 126.705,129.600 126.205 C 127.948 124.706,121.771 122.800,118.564 122.800 C 117.619 122.800,116.467 122.270,114.594 120.973 C 113.187 119.998,109.815 119.031,105.495 118.364 C 103.538 118.062,102.059 117.596,101.495 117.104 C 99.612 115.462,96.809 114.534,91.400 113.764 C 88.064 113.289,87.600 112.921,87.600 110.751 C 87.600 108.546,88.438 107.375,90.290 106.989 C 91.954 106.643,93.618 105.730,95.395 104.186 C 96.272 103.425,97.892 102.510,98.995 102.154 C 100.163 101.776,101.674 100.858,102.615 99.953 C 103.503 99.099,104.439 98.400,104.695 98.400 C 105.682 98.400,109.429 96.028,110.000 95.042 C 110.608 93.990,109.328 90.400,108.344 90.400 C 108.155 90.400,108.000 90.159,108.000 89.864 C 108.000 89.045,105.534 84.243,104.925 83.877 C 103.839 83.223,102.681 81.756,101.917 80.067 C 101.448 79.030,100.605 78.022,99.817 77.557 C 98.933 77.036,98.273 76.182,97.805 74.957 C 97.365 73.806,96.661 72.860,95.897 72.396 C 95.231 71.991,94.199 70.826,93.604 69.807 C 93.009 68.788,91.667 67.019,90.623 65.877 C 87.600 62.571,87.200 62.101,87.200 61.857 C 87.200 61.402,79.134 53.600,78.664 53.600 C 78.592 53.600,77.769 52.894,76.834 52.031 C 75.900 51.169,74.202 50.021,73.062 49.481 C 71.921 48.941,70.746 48.047,70.450 47.494 C 70.154 46.941,69.527 46.313,69.056 46.098 C 65.279 44.379,64.343 43.854,63.883 43.197 C 63.232 42.268,59.589 40.400,58.428 40.400 C 57.496 40.400,55.971 39.557,54.400 38.174 C 53.850 37.690,52.770 37.108,52.000 36.882 C 49.211 36.062,45.246 35.200,44.263 35.200 C 43.710 35.200,42.987 34.930,42.657 34.600 C 42.327 34.270,41.864 34.000,41.629 34.000 C 41.393 34.000,41.200 33.848,41.200 33.663 C 41.200 33.071,36.743 32.066,32.000 31.588 C 26.040 30.988,25.200 30.811,25.200 30.158 C 25.200 29.613,25.634 29.466,28.600 29.001 C 36.668 27.737,38.746 27.247,41.200 26.030 C 42.919 25.177,46.128 24.737,54.000 24.277 C 55.210 24.206,56.380 24.119,56.600 24.083 C 56.820 24.047,60.240 24.271,64.200 24.579 M121.386 152.381 C 119.300 153.226,119.409 151.021,119.287 194.961 C 119.171 236.948,119.305 241.587,120.661 242.615 C 121.920 243.569,210.071 243.425,212.000 242.465 C 213.006 241.965,213.362 241.548,213.266 240.985 C 212.793 238.209,212.761 231.852,213.214 230.693 C 213.875 229.005,214.754 226.897,215.422 225.400 C 215.717 224.740,216.060 223.711,216.183 223.114 C 216.307 222.516,217.397 221.015,218.604 219.778 C 219.812 218.541,220.800 217.410,220.801 217.265 C 220.801 217.119,221.656 216.474,222.701 215.832 C 223.745 215.189,224.962 214.289,225.404 213.832 C 227.008 212.174,228.083 211.827,234.656 210.851 C 238.594 210.266,238.748 209.591,238.779 192.770 L 238.800 181.739 237.768 180.770 L 236.736 179.800 215.437 179.600 L 194.138 179.400 192.729 178.200 C 191.033 176.755,189.471 174.374,188.794 172.200 C 187.858 169.198,187.054 167.401,186.200 166.400 C 185.272 165.313,184.390 163.355,183.381 160.140 C 183.025 159.007,182.389 157.710,181.967 157.257 C 181.545 156.804,181.200 156.246,181.200 156.017 C 181.200 155.788,181.032 155.600,180.827 155.600 C 180.622 155.600,180.328 155.203,180.174 154.719 C 179.813 153.581,179.118 152.901,177.804 152.402 C 176.515 151.911,122.593 151.891,121.386 152.381 M178.400 154.000 C 178.840 154.440,179.200 155.187,179.200 155.660 C 179.200 156.132,179.806 157.108,180.547 157.828 C 181.288 158.547,181.990 159.555,182.107 160.068 C 182.223 160.581,182.506 161.540,182.735 162.200 C 182.964 162.860,183.369 164.159,183.635 165.086 C 183.901 166.013,184.554 167.181,185.085 167.680 C 186.377 168.894,188.400 173.625,188.400 175.433 C 188.400 176.625,192.117 179.849,193.815 180.129 C 194.687 180.273,203.680 180.402,213.800 180.414 C 226.435 180.430,233.015 180.589,234.800 180.923 L 237.400 181.408 237.400 194.204 C 237.400 208.016,237.140 209.602,234.873 209.599 C 234.503 209.598,233.030 209.861,231.600 210.182 C 230.170 210.503,228.304 210.875,227.454 211.009 C 226.353 211.183,225.391 211.764,224.109 213.027 C 223.120 214.002,222.106 214.805,221.855 214.812 C 221.351 214.825,218.800 217.033,218.800 217.456 C 218.800 217.603,218.122 218.371,217.294 219.162 C 216.411 220.005,215.553 221.345,215.221 222.400 C 214.909 223.390,214.049 225.045,213.310 226.077 C 211.678 228.355,211.206 230.824,211.202 237.086 C 211.200 241.110,211.120 241.614,210.426 241.986 C 209.239 242.622,121.917 242.557,121.280 241.920 C 120.565 241.205,120.585 153.754,121.300 153.465 C 123.144 152.721,177.631 153.231,178.400 154.000 M129.320 162.269 L 128.200 163.738 128.200 197.169 C 128.200 233.737,128.113 232.370,130.553 234.110 L 131.800 235.000 165.911 235.121 C 200.000 235.241,200.022 235.241,201.085 234.405 C 202.547 233.254,203.385 231.765,204.020 229.188 C 204.316 227.985,205.029 226.370,205.603 225.600 C 206.544 224.338,207.069 223.014,207.822 220.000 C 208.308 218.053,208.988 216.835,209.845 216.376 C 210.322 216.121,210.957 215.437,211.256 214.856 C 212.072 213.271,218.017 207.600,218.863 207.600 C 219.268 207.600,220.334 206.866,221.232 205.968 C 222.130 205.070,223.435 204.155,224.132 203.933 C 225.918 203.364,228.000 202.275,228.000 201.909 C 228.000 201.739,228.270 201.600,228.600 201.600 C 228.930 201.600,229.200 201.330,229.200 201.000 C 229.200 200.670,229.400 200.400,229.644 200.400 C 230.418 200.400,229.936 191.972,229.088 190.679 C 227.524 188.291,227.239 188.258,206.000 187.984 C 195.330 187.847,186.568 187.704,186.529 187.667 C 185.519 186.719,185.200 186.179,185.200 185.421 C 185.200 184.040,183.364 180.160,182.386 179.475 C 181.834 179.088,181.200 177.758,180.605 175.737 C 179.325 171.390,178.964 170.561,178.085 169.940 C 177.238 169.342,176.000 167.161,176.000 166.266 C 176.000 164.943,173.891 161.861,172.576 161.262 C 171.852 160.932,165.687 160.800,151.002 160.800 L 130.441 160.800 129.320 162.269 M170.654 162.633 C 172.839 163.268,174.338 164.839,175.186 167.381 C 175.913 169.563,176.512 170.800,176.839 170.800 C 177.038 170.800,177.200 171.070,177.200 171.400 C 177.200 171.730,177.353 172.000,177.539 172.000 C 177.954 172.000,178.997 174.371,179.651 176.800 C 179.917 177.790,180.831 179.664,181.681 180.965 C 182.531 182.267,183.500 184.157,183.835 185.165 C 185.235 189.391,184.224 189.200,205.187 189.200 L 223.227 189.200 225.118 190.158 C 227.470 191.350,228.180 192.987,228.075 196.973 C 227.985 200.369,227.528 200.949,223.355 202.957 C 221.718 203.745,220.274 204.662,220.147 204.995 C 220.019 205.328,219.664 205.600,219.357 205.600 C 219.051 205.600,218.800 205.768,218.800 205.973 C 218.800 206.178,218.409 206.470,217.931 206.622 C 216.214 207.167,208.800 214.448,208.800 215.589 C 208.800 215.815,208.655 216.000,208.477 216.000 C 208.299 216.000,207.839 216.765,207.455 217.700 C 206.702 219.533,205.423 222.231,204.848 223.200 C 204.356 224.031,203.839 225.397,202.966 228.175 C 202.555 229.482,201.848 231.102,201.394 231.775 L 200.568 233.000 166.331 233.102 C 133.848 233.199,132.048 233.167,131.203 232.483 C 129.216 230.874,129.212 230.805,129.212 197.600 C 129.212 163.021,129.187 163.384,131.640 162.523 C 133.924 161.721,167.847 161.817,170.654 162.633 M261.800 202.692 C 257.968 202.996,258.099 202.500,257.906 217.535 C 257.695 233.985,257.869 233.453,252.400 234.359 C 247.427 235.184,246.413 235.495,244.966 236.644 C 243.605 237.726,241.983 238.917,240.266 240.096 C 239.863 240.373,239.283 241.076,238.978 241.658 C 238.673 242.240,237.698 243.427,236.811 244.296 C 235.925 245.164,235.200 246.185,235.200 246.564 C 235.200 246.943,235.027 247.577,234.815 247.973 C 234.603 248.369,234.140 250.093,233.787 251.803 C 233.055 255.347,232.537 256.294,230.470 257.875 L 229.000 259.000 184.672 259.200 C 140.874 259.398,140.338 259.410,139.875 260.200 C 138.418 262.685,138.412 262.918,138.406 319.445 L 138.400 374.691 139.405 375.696 L 140.410 376.701 257.488 377.001 C 380.537 377.316,379.067 377.328,380.501 375.992 L 381.400 375.154 381.400 289.800 L 381.400 204.446 380.409 203.523 L 379.419 202.600 321.609 202.566 C 289.814 202.548,262.900 202.604,261.800 202.692 M379.771 204.229 C 380.570 205.028,380.752 373.794,379.956 375.283 L 379.512 376.113 260.086 375.815 C 152.207 375.546,140.599 375.456,140.030 374.887 C 139.464 374.321,139.389 368.701,139.288 319.532 C 139.168 261.035,139.107 263.129,140.956 261.906 C 141.200 261.744,160.787 261.609,184.481 261.606 C 228.714 261.600,228.764 261.598,230.329 260.105 C 230.619 259.827,231.114 259.600,231.429 259.600 C 231.743 259.600,232.000 259.420,232.000 259.200 C 232.000 258.980,232.270 258.800,232.600 258.800 C 232.930 258.800,233.200 258.530,233.200 258.200 C 233.200 257.870,233.344 257.600,233.520 257.600 C 234.018 257.600,234.892 254.845,235.234 252.200 C 235.696 248.617,236.565 245.962,237.430 245.487 C 238.553 244.870,239.623 243.584,240.263 242.083 C 240.572 241.358,241.135 240.669,241.513 240.551 C 243.005 240.087,244.648 239.065,245.600 238.010 C 246.753 236.731,249.690 235.773,253.708 235.364 C 256.125 235.118,256.544 234.942,257.608 233.730 L 258.800 232.372 258.823 219.886 C 258.849 205.569,258.970 204.356,260.404 203.957 C 262.767 203.299,379.107 203.564,379.771 204.229 M270.903 211.617 C 266.973 212.405,266.261 214.826,266.469 226.699 C 266.624 235.554,268.355 239.451,272.503 240.281 C 273.811 240.542,274.658 241.601,275.219 243.675 C 275.438 244.486,276.373 246.106,277.297 247.275 C 278.824 249.207,279.020 249.721,279.462 252.950 C 280.232 258.583,280.315 258.634,289.120 258.902 C 298.378 259.185,298.469 259.222,296.185 261.789 C 295.407 262.663,294.668 263.833,294.544 264.389 C 294.419 264.945,294.065 266.288,293.758 267.373 C 292.199 272.881,293.441 282.633,296.047 285.345 C 296.901 286.234,297.600 287.174,297.600 287.435 C 297.600 288.724,299.304 290.925,300.626 291.345 C 301.060 291.483,301.744 292.205,302.145 292.951 C 302.893 294.338,303.653 294.818,306.796 295.886 C 307.784 296.222,308.819 296.821,309.096 297.216 C 311.263 300.309,324.130 300.337,327.083 297.255 C 327.477 296.843,328.520 296.280,329.400 296.005 C 331.819 295.246,333.630 294.048,335.400 292.035 C 336.280 291.035,337.495 289.704,338.100 289.077 C 338.705 288.451,339.200 287.772,339.200 287.569 C 339.200 287.366,339.367 287.200,339.571 287.200 C 340.072 287.200,341.199 284.880,341.204 283.839 C 341.207 283.377,341.477 282.116,341.804 281.036 C 342.132 279.956,342.400 278.417,342.400 277.616 C 342.400 276.815,342.600 275.960,342.845 275.715 C 343.106 275.454,343.197 274.634,343.064 273.735 C 342.361 268.967,342.040 267.286,341.643 266.274 C 341.399 265.655,341.200 264.611,341.200 263.955 C 341.200 263.298,340.870 262.079,340.468 261.246 L 339.735 259.730 341.473 259.265 C 342.625 258.957,347.607 258.800,356.244 258.800 C 370.049 258.800,370.727 258.715,372.286 256.800 C 373.090 255.812,373.001 217.133,372.190 214.751 C 370.945 211.099,375.605 211.408,320.800 211.338 C 294.290 211.304,271.836 211.430,270.903 211.617 M368.277 213.451 C 371.514 214.687,371.600 215.290,371.600 236.832 C 371.600 260.215,373.668 257.667,354.400 258.025 C 341.473 258.265,339.532 258.436,337.800 259.485 C 337.014 259.960,337.018 259.986,338.009 260.885 C 342.517 264.974,342.409 282.975,337.854 286.755 C 337.494 287.054,337.200 287.508,337.200 287.765 C 337.200 288.528,330.837 294.400,330.009 294.400 C 329.590 294.400,329.145 294.566,329.019 294.769 C 328.894 294.972,328.215 295.265,327.511 295.420 C 326.807 295.574,325.538 296.159,324.691 296.720 C 322.328 298.284,315.211 298.289,311.987 296.729 C 310.770 296.141,309.283 295.536,308.683 295.385 C 308.083 295.235,307.494 294.951,307.373 294.756 C 307.252 294.560,306.779 294.400,306.323 294.400 C 305.867 294.400,304.623 293.545,303.560 292.500 C 302.496 291.455,301.167 290.240,300.606 289.800 C 300.045 289.360,299.118 288.010,298.547 286.800 C 297.977 285.590,297.175 284.234,296.765 283.786 C 295.372 282.261,294.400 278.222,294.400 273.962 C 294.400 269.430,295.215 266.483,297.543 262.600 C 299.680 259.035,298.551 258.011,292.446 257.975 C 281.945 257.914,281.447 257.687,280.581 252.580 C 279.926 248.716,279.351 246.923,278.482 246.036 C 277.675 245.212,276.000 242.485,276.000 241.994 C 276.000 241.335,273.904 239.468,272.342 238.736 C 271.527 238.355,270.637 237.505,270.245 236.736 C 269.871 236.001,269.226 234.860,268.811 234.200 C 267.870 232.699,267.628 218.913,268.500 216.437 C 269.071 214.816,270.132 213.600,270.976 213.600 C 271.293 213.600,271.664 213.420,271.800 213.200 C 272.276 212.430,366.242 212.674,368.277 213.451 M353.963 267.327 C 351.607 268.567,350.855 270.263,350.130 275.983 C 349.808 278.522,349.287 281.736,348.972 283.125 C 348.658 284.513,348.400 286.166,348.400 286.796 C 348.400 287.557,347.929 288.442,347.000 289.428 C 345.488 291.030,343.470 294.119,343.032 295.500 C 342.882 295.971,341.914 296.882,340.880 297.524 C 339.846 298.167,338.370 299.307,337.600 300.059 C 336.295 301.333,333.776 302.800,332.893 302.800 C 332.184 302.800,328.208 304.564,327.616 305.142 C 326.168 306.553,324.455 306.833,317.474 306.799 C 313.694 306.781,310.282 306.774,309.894 306.783 C 307.502 306.841,307.032 311.032,309.177 313.177 C 310.789 314.789,311.059 315.467,312.214 320.800 C 312.977 324.323,313.351 325.441,314.755 328.400 C 316.015 331.056,316.626 342.557,315.544 343.243 C 315.245 343.433,304.740 343.593,292.200 343.600 C 268.021 343.613,267.603 343.643,265.589 345.524 L 264.600 346.448 264.619 354.924 C 264.640 364.196,264.892 365.471,267.044 367.163 L 268.108 368.000 318.154 367.993 L 368.200 367.987 369.800 367.081 C 372.801 365.382,372.587 368.995,372.717 317.800 C 372.841 269.218,372.859 269.747,371.020 268.019 C 369.022 266.141,357.133 265.660,353.963 267.327 M280.120 267.719 C 277.463 268.844,275.755 270.396,274.945 272.420 C 274.422 273.728,273.910 274.208,272.152 275.040 C 270.968 275.600,270.000 276.272,270.000 276.533 C 270.000 276.795,269.423 277.457,268.719 278.004 C 261.809 283.374,262.827 290.421,270.795 292.385 C 271.568 292.575,273.190 293.020,274.400 293.372 C 283.310 295.969,289.401 295.894,290.349 293.174 C 290.965 291.408,289.060 286.400,287.772 286.400 C 287.118 286.400,286.835 284.832,286.217 277.800 C 285.279 267.129,284.511 265.858,280.120 267.719 M151.716 268.976 C 146.325 270.927,146.795 266.259,146.832 317.549 C 146.869 367.819,146.711 365.351,150.000 367.192 L 151.800 368.200 201.800 368.200 L 251.800 368.200 253.605 367.058 C 256.531 365.207,256.923 363.908,257.109 355.459 C 257.293 347.069,257.263 346.900,255.344 345.600 C 252.425 343.623,252.266 343.613,225.326 343.606 C 208.945 343.602,199.670 343.455,198.967 343.187 L 197.882 342.775 198.160 335.464 C 198.544 325.388,199.365 320.282,200.785 319.132 C 201.596 318.475,202.736 315.966,203.980 312.102 C 204.355 310.937,204.930 310.167,205.811 309.646 C 206.554 309.208,207.498 308.083,208.048 306.979 C 208.572 305.928,209.270 304.939,209.600 304.781 C 209.930 304.622,210.718 304.249,211.352 303.951 C 211.986 303.653,212.770 302.850,213.096 302.167 C 213.583 301.147,214.128 300.793,216.144 300.191 C 218.859 299.379,222.000 297.649,222.000 296.967 C 222.000 296.493,223.930 296.034,230.200 295.017 C 234.779 294.274,239.057 293.345,241.454 292.573 C 242.363 292.281,245.189 291.860,247.733 291.639 C 256.861 290.847,258.987 287.995,254.800 282.163 C 253.741 280.687,249.998 279.312,246.800 279.224 C 246.147 279.206,245.329 278.641,244.444 277.598 C 243.698 276.719,242.862 276.000,242.586 276.000 C 241.909 276.000,239.914 274.080,239.041 272.587 C 238.335 271.383,236.403 270.000,235.423 270.000 C 235.142 270.000,234.249 269.550,233.438 269.000 L 231.964 268.000 193.082 268.039 L 154.200 268.078 151.716 268.976 M367.640 268.457 C 371.833 269.865,371.600 266.974,371.600 317.580 C 371.600 361.134,371.599 361.212,370.756 363.004 C 370.292 363.992,369.721 364.800,369.487 364.800 C 369.254 364.800,368.715 365.115,368.290 365.500 C 367.563 366.157,364.519 366.206,318.179 366.306 L 268.843 366.412 267.995 365.506 C 266.125 363.508,265.975 362.634,266.091 354.393 L 266.200 346.631 267.559 345.716 L 268.918 344.800 292.077 344.800 L 315.236 344.800 316.259 343.777 L 317.282 342.754 317.000 336.477 C 316.667 329.084,315.588 323.711,314.149 322.281 C 313.777 321.911,312.844 318.543,312.818 317.478 C 312.790 316.329,311.367 313.500,310.072 312.017 C 307.485 309.053,309.307 308.179,318.800 307.828 C 326.152 307.556,328.394 307.109,330.507 305.498 C 331.299 304.894,332.146 304.400,332.390 304.400 C 333.649 304.400,338.279 301.746,339.767 300.170 C 340.687 299.197,341.624 298.400,341.850 298.400 C 342.584 298.400,344.336 296.272,345.459 294.017 C 345.618 293.697,346.120 293.011,346.575 292.494 C 347.929 290.949,349.565 287.869,349.583 286.828 C 349.592 286.294,349.779 285.304,349.997 284.628 C 351.648 279.519,352.400 276.510,352.400 275.013 C 352.400 272.921,353.701 269.668,354.921 268.709 C 355.981 267.875,365.356 267.689,367.640 268.457 M283.455 269.900 C 284.313 271.993,284.768 274.619,285.026 278.958 C 285.286 283.333,286.546 288.071,287.698 289.008 C 289.273 290.289,289.589 292.324,288.383 293.416 C 287.382 294.321,282.626 293.786,277.603 292.202 C 275.951 291.681,273.279 291.133,271.664 290.983 C 267.164 290.567,266.000 289.389,266.000 285.255 L 266.000 282.193 267.616 280.797 C 268.504 280.028,270.036 278.635,271.018 277.700 C 272.001 276.765,272.994 276.000,273.225 276.000 C 273.802 276.000,276.000 273.544,276.000 272.898 C 276.000 272.610,276.270 272.271,276.600 272.145 C 276.930 272.018,277.200 271.681,277.200 271.396 C 277.200 270.863,279.184 270.000,280.411 270.000 C 280.791 270.000,281.326 269.730,281.600 269.400 C 282.342 268.506,282.951 268.670,283.455 269.900 M234.554 271.143 C 235.961 271.853,237.664 273.219,239.044 274.743 C 240.267 276.095,241.482 277.200,241.745 277.200 C 242.008 277.200,242.488 277.575,242.812 278.034 C 243.610 279.166,244.860 279.746,248.400 280.629 C 250.050 281.040,251.490 281.490,251.600 281.628 C 251.710 281.767,252.179 282.080,252.643 282.323 C 254.715 283.413,255.107 289.200,253.109 289.200 C 252.908 289.200,252.473 289.470,252.143 289.800 C 251.719 290.224,250.643 290.407,248.471 290.424 C 245.149 290.449,237.222 291.292,236.582 291.688 C 235.942 292.083,226.946 294.400,226.050 294.400 C 224.754 294.400,221.516 295.597,220.200 296.563 C 218.894 297.521,214.750 299.600,214.145 299.600 C 213.939 299.600,212.883 300.500,211.800 301.600 C 210.717 302.700,209.659 303.600,209.451 303.600 C 208.998 303.600,206.800 305.995,206.800 306.488 C 206.800 306.677,206.117 307.500,205.283 308.316 C 203.425 310.132,202.400 311.714,202.400 312.762 C 202.400 313.197,202.220 313.664,202.000 313.800 C 201.780 313.936,201.600 314.337,201.600 314.692 C 201.600 315.047,201.348 315.621,201.040 315.969 C 199.550 317.648,198.503 320.382,198.041 323.800 C 197.773 325.780,197.307 328.840,197.005 330.600 C 196.704 332.360,196.344 335.240,196.206 337.000 C 196.068 338.760,195.860 340.758,195.744 341.441 C 195.557 342.542,195.706 342.790,197.067 343.641 L 198.600 344.600 225.000 344.800 C 258.400 345.053,254.950 343.816,254.733 355.459 C 254.590 363.157,254.486 363.581,252.228 365.700 L 251.056 366.800 202.428 366.789 L 153.800 366.777 152.000 365.859 C 150.840 365.267,149.882 364.383,149.307 363.370 L 148.413 361.800 148.407 317.575 L 148.400 273.350 149.500 272.297 C 151.875 270.023,150.438 270.097,193.044 270.047 L 232.287 270.000 234.554 271.143 " stroke="none" fill="#747474" fill-rule="evenodd"></path></g></svg>