<svg id="svg" version="1.1" xmlns="http://www.w3.org/2000/svg" xmlns:xlink="http://www.w3.org/1999/xlink" width="400" height="348.51485148514854" viewBox="0, 0, 400,348.51485148514854"><g id="svgg"><path id="path0" d="M62.198 25.366 L 21.693 25.461 21.295 28.336 C 20.862 31.470,21.006 315.267,21.444 320.710 L 21.672 323.547 33.242 323.783 C 49.678 324.118,376.652 323.852,377.560 323.503 C 378.063 323.310,378.438 322.713,378.694 321.697 C 379.243 319.517,379.236 69.304,378.687 68.278 C 377.181 65.463,375.096 64.515,370.428 64.521 C 366.342 64.527,364.358 65.010,363.523 66.202 L 362.994 66.957 251.601 66.957 L 140.208 66.957 139.689 66.165 C 139.379 65.693,138.496 65.188,137.501 64.915 C 134.049 63.969,133.900 63.768,133.589 59.634 C 133.416 57.346,133.302 57.006,132.682 56.917 C 130.747 56.640,129.947 55.373,129.745 52.269 L 129.555 49.346 128.091 48.649 C 126.731 48.001,126.230 47.426,125.779 45.991 C 125.681 45.680,124.906 45.089,124.057 44.678 C 122.158 43.758,121.709 42.830,121.709 39.826 L 121.709 37.488 120.229 36.775 C 118.370 35.879,117.884 34.923,117.878 32.146 C 117.872 29.760,117.525 29.134,115.993 28.749 C 115.019 28.505,113.857 27.139,113.637 25.981 C 113.481 25.158,119.676 25.232,62.198 25.366 M107.095 47.385 C 107.788 47.946,107.930 48.454,108.093 50.959 L 108.282 53.880 109.762 54.548 C 110.877 55.053,111.424 55.596,111.986 56.756 C 112.396 57.603,112.986 58.375,113.297 58.473 C 115.491 59.163,116.129 60.220,116.129 63.162 C 116.129 65.520,116.359 66.260,117.092 66.260 C 118.901 66.260,119.965 67.930,119.965 70.768 C 119.965 73.675,120.150 74.051,121.780 74.460 C 123.254 74.830,123.953 76.212,124.150 79.144 L 124.324 81.741 125.951 82.576 C 127.076 83.154,127.649 83.697,127.810 84.337 C 127.938 84.846,128.206 85.459,128.406 85.700 C 128.696 86.050,151.982 86.138,244.071 86.139 L 359.372 86.141 360.418 86.978 L 361.465 87.815 361.465 196.310 L 361.465 304.804 360.418 305.659 L 359.372 306.514 202.092 306.515 C 52.535 306.516,44.777 306.485,44.079 305.902 C 43.676 305.565,43.166 304.953,42.946 304.542 C 42.365 303.456,42.370 49.455,42.951 48.364 C 43.840 46.695,42.679 46.753,75.375 46.742 C 105.096 46.731,106.318 46.756,107.095 47.385 M191.892 124.381 C 191.652 124.478,191.455 124.818,191.454 125.138 C 191.449 126.820,189.921 127.788,187.050 127.928 C 184.007 128.076,183.579 128.279,183.261 129.728 C 183.043 130.719,181.791 131.826,180.484 132.184 C 180.107 132.286,179.715 132.682,179.612 133.063 C 179.286 134.265,178.416 135.204,177.002 135.878 C 176.058 136.327,175.552 136.836,175.372 137.515 C 175.076 138.637,173.841 139.843,172.989 139.843 C 171.924 139.843,171.578 140.633,171.578 143.064 C 171.578 145.910,171.007 146.982,169.080 147.753 L 167.742 148.288 167.742 154.664 L 167.742 161.040 169.080 161.576 C 171.012 162.349,171.578 163.417,171.578 166.292 C 171.578 168.815,171.771 169.192,173.305 169.663 C 174.435 170.011,175.075 170.684,175.378 171.847 C 175.551 172.514,176.062 172.998,177.086 173.467 C 178.177 173.967,178.736 174.525,179.292 175.675 C 179.702 176.521,180.292 177.294,180.603 177.392 C 182.035 177.842,182.840 178.433,183.125 179.243 C 183.773 181.083,183.912 181.160,186.917 181.358 C 189.982 181.560,191.253 182.369,191.529 184.294 C 191.689 185.411,212.496 185.411,212.656 184.294 C 212.933 182.360,214.200 181.560,217.303 181.358 L 220.224 181.168 220.875 179.783 C 221.812 177.789,222.318 177.530,225.312 177.518 C 228.475 177.504,228.669 177.282,228.847 173.463 C 228.969 170.836,229.344 170.136,230.879 169.663 C 232.414 169.192,232.607 168.815,232.607 166.292 C 232.607 163.377,233.133 162.425,235.264 161.482 L 236.792 160.806 236.792 154.664 L 236.792 148.522 235.264 147.846 C 233.138 146.906,232.607 145.950,232.607 143.064 C 232.607 140.633,232.261 139.843,231.195 139.843 C 230.361 139.843,229.280 138.782,228.887 137.576 C 228.658 136.874,228.106 136.320,227.209 135.892 C 225.710 135.175,224.615 134.031,224.597 133.161 C 224.591 132.829,223.941 132.270,223.075 131.850 C 221.944 131.303,221.396 130.747,220.895 129.640 L 220.227 128.160 217.304 127.971 C 214.250 127.772,212.736 126.837,212.731 125.146 C 212.730 124.831,212.481 124.478,212.177 124.362 C 211.519 124.109,192.521 124.127,191.892 124.381 M206.452 142.052 C 208.614 142.471,210.288 143.409,210.288 144.203 C 210.288 144.637,211.044 145.207,212.726 146.040 C 213.532 146.439,214.244 147.216,214.834 148.337 C 215.323 149.269,216.235 150.449,216.860 150.959 C 218.328 152.157,219.516 157.629,218.309 157.629 C 218.117 157.629,217.960 157.864,217.960 158.152 C 217.960 158.439,217.724 158.675,217.437 158.675 C 217.149 158.675,216.914 158.832,216.914 159.024 C 216.914 159.215,216.673 159.372,216.379 159.372 C 216.073 159.372,215.515 160.113,215.076 161.101 C 214.612 162.147,213.962 162.989,213.432 163.234 C 211.381 164.179,211.608 163.952,210.664 165.998 C 209.958 167.527,208.901 167.742,202.092 167.742 C 195.284 167.742,194.227 167.527,193.521 165.998 C 192.577 163.952,192.804 164.179,190.753 163.234 C 190.222 162.989,189.573 162.147,189.109 161.101 C 188.687 160.150,188.122 159.372,187.854 159.372 C 184.852 159.372,184.719 152.848,187.676 150.593 C 188.424 150.023,189.067 149.112,189.370 148.194 C 189.779 146.955,190.113 146.601,191.428 146.019 C 193.042 145.306,193.897 144.651,193.897 144.130 C 193.897 142.210,201.107 141.016,206.452 142.052 M184.484 192.053 C 183.815 192.139,183.187 192.331,183.089 192.478 C 182.036 194.071,178.416 195.088,171.738 195.668 C 167.262 196.056,167.180 196.079,166.613 197.068 C 165.984 198.163,163.792 199.321,161.725 199.650 C 160.638 199.822,160.296 200.093,159.706 201.251 C 159.280 202.085,158.616 202.781,158.050 202.986 C 156.254 203.635,155.536 204.131,155.536 204.719 C 155.536 205.482,153.872 207.149,153.111 207.149 C 152.706 207.149,152.337 207.744,151.918 209.076 C 151.433 210.614,151.044 211.170,149.990 211.836 C 148.623 212.699,148.499 213.026,147.702 217.873 C 147.241 220.674,147.028 221.162,145.841 222.141 L 144.596 223.166 144.334 226.927 C 143.910 233.007,143.967 239.730,144.446 240.209 C 144.768 240.531,158.101 240.628,202.337 240.628 L 259.808 240.628 259.808 237.165 C 259.808 234.798,259.665 233.557,259.356 233.242 C 257.904 231.762,256.516 225.865,256.192 219.796 C 256.000 216.183,255.618 214.821,254.800 214.821 C 254.178 214.821,252.833 213.330,252.833 212.640 C 252.833 212.328,252.677 211.976,252.485 211.857 C 252.293 211.738,252.134 211.219,252.131 210.703 C 252.122 208.956,251.748 208.334,250.297 207.653 C 249.144 207.112,248.760 206.688,248.395 205.559 C 247.995 204.321,247.725 204.067,246.251 203.537 C 244.792 203.012,244.503 202.744,244.109 201.552 C 243.859 200.794,243.494 200.174,243.298 200.174 C 241.038 200.174,237.469 198.620,236.932 197.402 L 236.355 196.095 231.255 195.647 C 224.302 195.036,221.983 194.427,220.112 192.720 C 219.328 192.006,189.213 191.441,184.484 192.053 " stroke="none" fill="#ffffff" fill-rule="evenodd"></path><path id="path1" d="M21.049 23.362 C 20.638 23.528,20.049 24.024,19.741 24.464 C 18.842 25.748,18.899 323.435,19.799 324.545 C 20.130 324.954,20.744 325.464,21.163 325.678 C 22.221 326.220,377.190 326.238,378.612 325.697 C 379.150 325.492,379.905 324.986,380.292 324.571 C 380.993 323.819,380.994 323.628,380.994 194.713 L 380.994 65.608 379.957 64.526 C 379.387 63.931,378.568 63.356,378.137 63.248 C 377.706 63.139,323.302 63.027,257.240 62.999 C 139.651 62.948,137.111 62.933,136.392 62.282 C 135.787 61.734,135.658 61.214,135.658 59.309 C 135.658 56.627,135.176 55.719,133.278 54.828 C 131.999 54.227,131.996 54.222,131.819 51.612 C 131.618 48.636,131.084 47.587,129.476 47.004 C 128.739 46.737,128.149 46.171,127.766 45.364 C 127.125 44.014,126.471 43.243,125.966 43.243 C 124.697 43.243,123.801 41.761,123.789 39.643 C 123.774 37.044,123.272 36.041,121.490 35.046 L 120.139 34.292 119.965 31.645 C 119.781 28.848,119.043 27.509,117.398 26.987 C 116.496 26.701,116.114 26.283,115.306 24.698 C 114.949 23.999,114.321 23.336,113.911 23.226 C 112.695 22.900,21.864 23.033,21.049 23.362 M113.976 24.690 C 114.489 25.226,115.301 26.161,115.780 26.767 C 116.260 27.373,116.799 27.876,116.978 27.884 C 118.151 27.937,118.919 29.456,118.919 31.725 C 118.919 33.896,118.984 34.086,120.008 34.890 C 122.782 37.070,123.104 37.586,123.104 39.861 C 123.104 41.975,124.179 43.931,125.349 43.945 C 125.552 43.947,126.065 44.483,126.487 45.135 C 126.909 45.787,127.851 46.766,128.579 47.310 C 130.577 48.803,130.753 49.151,130.765 51.648 C 130.775 53.834,130.833 53.992,131.907 54.787 C 134.658 56.822,134.961 57.311,134.961 59.721 C 134.961 62.413,135.731 63.370,138.354 63.939 C 141.051 64.524,361.751 64.675,363.557 64.094 C 364.464 63.802,366.906 63.648,370.532 63.655 C 376.949 63.667,378.114 63.993,379.470 66.160 L 380.296 67.480 380.296 195.168 C 380.296 319.430,380.279 322.876,379.644 323.577 C 378.098 325.285,388.025 325.196,199.238 325.196 L 22.016 325.196 20.947 324.172 L 19.878 323.148 19.890 174.564 L 19.901 25.981 20.626 25.109 L 21.351 24.237 62.725 24.060 C 85.480 23.962,106.111 23.845,108.571 23.798 L 113.044 23.714 113.976 24.690 M44.652 48.540 L 43.941 49.303 43.941 176.460 L 43.941 303.617 44.652 304.381 L 45.363 305.144 202.092 305.144 L 358.822 305.144 359.533 304.381 L 360.244 303.617 360.244 196.277 C 360.244 95.210,360.209 88.895,359.644 88.234 C 359.044 87.534,358.823 87.533,243.950 87.522 C 154.011 87.513,128.744 87.418,128.335 87.086 C 128.047 86.852,127.213 85.915,126.481 85.004 C 125.748 84.093,124.982 83.348,124.777 83.348 C 123.664 83.348,122.755 81.561,122.755 79.373 C 122.755 77.232,122.068 75.676,121.123 75.676 C 119.944 75.676,118.919 73.685,118.919 71.396 L 118.919 69.072 117.031 67.647 C 114.824 65.981,114.734 65.803,114.734 63.120 C 114.734 61.160,112.917 58.588,111.533 58.588 C 111.375 58.588,111.247 58.368,111.247 58.101 C 111.247 57.629,109.948 56.359,108.005 54.930 C 107.140 54.295,107.062 54.040,107.062 51.862 C 107.062 49.742,106.963 49.395,106.139 48.632 L 105.216 47.777 75.290 47.777 L 45.363 47.777 44.652 48.540 M105.517 48.972 C 105.850 49.305,106.016 50.245,106.016 51.795 C 106.016 54.416,106.587 55.472,108.533 56.450 C 109.155 56.763,109.902 57.488,110.193 58.062 C 110.784 59.225,111.863 60.331,112.406 60.331 C 113.466 60.331,114.037 61.521,114.037 63.732 C 114.037 66.049,114.904 68.003,115.931 68.003 C 117.410 68.003,118.221 69.395,118.233 71.952 C 118.245 74.744,118.506 75.256,120.363 76.125 C 121.867 76.828,122.058 77.229,122.058 79.692 C 122.058 82.265,122.504 83.224,124.041 83.950 C 124.848 84.331,125.644 85.093,126.116 85.936 C 126.538 86.688,127.248 87.506,127.696 87.754 C 128.356 88.121,150.067 88.208,243.353 88.218 C 321.828 88.226,358.411 88.344,358.872 88.591 C 359.879 89.130,359.942 303.197,358.936 303.961 C 358.027 304.651,46.158 304.651,45.248 303.961 C 44.298 303.240,44.298 49.681,45.248 48.960 C 46.192 48.243,104.801 48.256,105.517 48.972 M190.671 122.795 C 190.144 123.189,189.712 123.712,189.712 123.958 C 189.712 125.441,188.320 126.242,185.742 126.242 C 182.995 126.242,181.912 126.813,181.493 128.479 C 181.373 128.957,180.754 129.573,180.012 129.951 C 178.435 130.756,178.186 131.003,177.407 132.532 C 177.048 133.239,176.312 133.962,175.664 134.247 C 174.469 134.771,173.700 135.556,173.682 136.269 C 173.675 136.508,173.357 137.018,172.973 137.402 C 172.589 137.786,172.079 138.104,171.840 138.110 C 170.489 138.145,169.487 140.027,169.480 142.541 C 169.474 144.895,169.304 145.235,167.714 146.082 C 165.806 147.099,165.660 147.708,165.660 154.664 C 165.660 161.621,165.806 162.230,167.714 163.246 C 169.306 164.095,169.474 164.433,169.480 166.806 C 169.487 169.407,170.436 171.182,171.840 171.218 C 172.404 171.233,173.667 172.496,173.682 173.060 C 173.695 173.596,174.517 174.717,174.897 174.717 C 175.482 174.717,177.471 176.496,177.703 177.228 C 178.006 178.184,178.407 178.559,179.978 179.359 C 180.767 179.761,181.365 180.398,181.623 181.111 C 182.210 182.734,183.627 183.435,186.323 183.435 C 188.736 183.435,189.146 183.669,189.549 185.273 C 190.123 187.561,190.435 187.620,201.998 187.620 C 213.530 187.620,214.072 187.521,214.625 185.315 C 215.008 183.789,215.639 183.435,217.968 183.435 C 220.450 183.435,221.911 182.749,222.511 181.301 C 223.175 179.697,223.882 179.335,226.635 179.187 C 230.041 179.003,230.853 178.146,230.872 174.717 C 230.885 172.426,231.369 171.239,232.297 171.218 C 233.737 171.185,234.699 169.443,234.699 166.870 C 234.699 164.842,235.131 163.557,235.812 163.557 C 236.027 163.557,236.728 163.157,237.369 162.668 L 238.535 161.778 238.535 154.664 L 238.535 147.551 237.369 146.661 C 236.728 146.172,236.027 145.772,235.812 145.772 C 235.133 145.772,234.699 144.488,234.699 142.477 C 234.699 139.948,233.683 138.140,232.244 138.110 C 231.949 138.104,231.248 137.312,230.686 136.351 C 229.983 135.147,229.314 134.475,228.542 134.196 C 227.826 133.937,227.189 133.340,226.787 132.550 C 226.004 131.013,225.706 130.703,224.498 130.169 C 223.970 129.935,223.236 129.231,222.866 128.603 C 221.610 126.470,221.191 126.242,218.520 126.242 C 216.015 126.242,214.473 125.367,214.473 123.945 C 214.473 121.920,193.220 120.893,190.671 122.795 M213.017 123.736 C 213.530 124.276,214.340 125.217,214.817 125.829 C 215.638 126.880,215.811 126.940,218.007 126.940 C 220.082 126.940,220.415 127.038,221.149 127.868 C 221.601 128.378,222.951 129.789,224.150 131.004 C 225.349 132.218,226.330 133.332,226.330 133.481 C 226.330 133.629,226.947 134.132,227.702 134.598 C 228.457 135.065,229.276 135.822,229.521 136.281 C 229.767 136.740,230.875 137.901,231.985 138.862 L 234.002 140.610 234.002 142.967 C 234.002 145.133,234.078 145.379,234.942 145.984 C 235.460 146.347,236.323 147.063,236.860 147.576 L 237.838 148.508 237.838 154.664 L 237.838 160.821 236.860 161.753 C 236.323 162.266,235.460 162.982,234.942 163.344 C 234.079 163.950,234.002 164.196,234.002 166.359 C 234.002 168.907,234.119 168.707,231.125 171.241 C 229.849 172.320,229.817 172.407,229.817 174.727 C 229.817 177.846,229.073 178.553,225.790 178.553 C 223.742 178.553,223.543 178.626,222.682 179.686 C 220.488 182.389,220.488 182.389,218.078 182.389 C 215.771 182.389,214.169 183.389,213.599 185.183 C 213.102 186.751,211.931 186.923,201.864 186.911 C 191.416 186.898,191.744 186.960,190.299 184.720 C 188.874 182.510,188.660 182.389,186.175 182.389 C 183.965 182.389,181.343 180.696,181.343 179.270 C 181.343 179.158,180.715 178.678,179.948 178.204 C 179.180 177.730,178.553 177.159,178.553 176.936 C 178.553 176.712,177.645 175.743,176.536 174.782 C 175.426 173.821,174.316 172.655,174.067 172.191 C 173.819 171.727,173.153 171.074,172.586 170.739 C 170.558 169.541,170.183 168.854,170.183 166.330 C 170.183 164.216,170.099 163.943,169.264 163.344 C 168.759 162.982,167.896 162.259,167.346 161.738 L 166.347 160.791 166.347 154.664 L 166.347 148.538 167.346 147.591 C 167.896 147.070,168.759 146.347,169.264 145.984 C 170.102 145.383,170.183 145.116,170.183 142.953 C 170.183 140.594,170.192 140.573,171.615 139.427 C 172.402 138.793,173.304 137.961,173.620 137.579 C 173.935 137.197,174.900 136.210,175.763 135.386 C 176.626 134.561,177.448 133.775,177.589 133.639 C 177.730 133.503,178.363 132.842,178.995 132.171 C 179.627 131.500,180.453 130.692,180.830 130.377 C 181.208 130.061,182.036 129.159,182.670 128.371 C 183.818 126.946,183.834 126.940,186.215 126.940 L 188.607 126.940 189.736 125.458 C 191.940 122.563,191.057 122.755,202.158 122.755 L 212.085 122.755 213.017 123.736 M197.559 143.913 C 196.792 144.189,195.772 144.774,195.292 145.212 C 194.813 145.651,193.793 146.382,193.025 146.836 C 191.228 147.902,191.048 148.099,190.271 149.852 C 189.914 150.658,189.314 151.647,188.938 152.051 C 188.562 152.455,188.008 153.649,187.708 154.705 L 187.162 156.625 188.227 157.597 C 188.812 158.132,189.561 159.103,189.890 159.755 C 190.554 161.069,192.112 162.860,192.592 162.860 C 192.992 162.860,193.897 163.765,193.897 164.164 C 193.897 164.334,194.337 164.895,194.875 165.410 L 195.853 166.347 202.092 166.347 L 208.331 166.347 209.310 165.410 C 209.848 164.895,210.288 164.334,210.288 164.164 C 210.288 163.751,211.199 162.860,211.622 162.860 C 212.103 162.860,214.017 160.607,214.304 159.702 C 214.437 159.283,215.070 158.431,215.710 157.809 L 216.874 156.679 216.393 155.080 C 215.913 153.483,215.252 152.029,214.856 151.700 C 214.741 151.604,214.202 150.634,213.657 149.544 C 212.953 148.133,212.385 147.464,211.687 147.220 C 211.147 147.032,210.041 146.278,209.229 145.545 C 206.887 143.428,201.141 142.625,197.559 143.913 M206.626 145.516 C 207.393 146.035,208.188 146.597,208.391 146.765 C 208.779 147.086,210.745 148.003,211.737 148.326 C 212.055 148.430,212.425 149.035,212.560 149.671 C 212.696 150.308,213.001 151.064,213.238 151.351 C 213.475 151.639,213.863 152.659,214.100 153.618 C 214.337 154.577,214.659 155.687,214.815 156.085 C 215.020 156.607,214.934 156.910,214.506 157.178 C 214.180 157.382,213.697 158.233,213.433 159.071 C 212.897 160.771,212.152 161.813,211.470 161.813 C 210.914 161.813,209.241 163.441,209.241 163.981 C 209.241 165.425,208.288 165.650,202.153 165.650 C 196.020 165.650,194.943 165.409,194.943 164.042 C 194.943 163.454,193.302 161.813,192.715 161.813 C 192.018 161.813,191.215 160.733,190.813 159.256 C 190.614 158.521,190.102 157.618,189.677 157.249 C 189.009 156.670,188.959 156.459,189.308 155.693 C 189.531 155.205,189.712 154.554,189.712 154.247 C 189.712 153.939,190.089 152.887,190.549 151.909 C 191.010 150.931,191.538 149.738,191.723 149.259 C 191.936 148.705,192.553 148.208,193.414 147.897 C 194.159 147.628,195.161 147.144,195.641 146.823 C 196.120 146.501,197.140 145.811,197.908 145.287 C 199.889 143.937,204.468 144.057,206.626 145.516 M191.107 189.217 C 183.457 189.513,175.489 190.185,174.413 190.626 C 173.766 190.891,172.942 191.107,172.582 191.107 C 172.221 191.107,171.927 191.264,171.927 191.456 C 171.927 191.648,171.704 191.805,171.433 191.805 C 171.161 191.805,170.886 191.960,170.822 192.150 C 170.700 192.515,167.130 193.548,165.993 193.548 C 164.871 193.548,162.744 194.693,161.630 195.896 C 161.050 196.523,160.329 197.036,160.027 197.036 C 159.104 197.036,157.362 198.059,155.802 199.519 C 152.682 202.437,152.057 202.964,151.709 202.964 C 151.512 202.964,151.351 203.128,151.351 203.328 C 151.351 203.528,151.155 203.925,150.915 204.212 C 149.528 205.868,148.910 206.933,148.910 207.667 C 148.910 207.958,148.732 208.195,148.515 208.195 C 147.928 208.195,146.480 209.985,146.257 210.985 C 145.874 212.707,144.610 215.585,144.162 215.757 C 143.362 216.064,142.254 219.729,141.920 223.172 C 141.372 228.823,140.891 232.300,140.575 232.902 C 139.947 234.096,139.443 239.531,139.882 240.365 C 140.410 241.369,142.924 243.889,143.918 244.412 C 144.483 244.709,159.520 244.813,202.081 244.813 L 259.483 244.813 260.430 243.841 C 262.085 242.145,262.251 241.358,262.233 235.293 C 262.208 226.975,261.649 222.891,260.121 219.874 C 259.443 218.534,258.686 216.417,258.440 215.170 C 257.772 211.787,257.797 211.842,256.129 210.075 C 255.275 209.172,254.577 208.241,254.577 208.005 C 254.577 206.925,253.167 205.036,252.044 204.610 C 251.705 204.482,251.283 203.995,251.105 203.528 C 250.927 203.060,250.197 202.232,249.483 201.688 C 248.768 201.143,247.580 200.055,246.842 199.269 C 246.087 198.465,244.925 197.668,244.183 197.446 C 243.458 197.229,242.402 196.567,241.835 195.976 C 240.683 194.773,238.193 193.548,236.900 193.548 C 235.906 193.548,232.515 192.503,232.251 192.115 C 230.841 190.044,209.170 188.518,191.107 189.217 M220.924 190.905 C 225.836 191.476,227.159 191.756,229.287 192.676 C 230.050 193.006,231.855 193.573,233.297 193.936 C 237.877 195.089,238.682 195.381,239.942 196.350 C 240.620 196.870,241.994 197.712,242.995 198.219 C 243.996 198.726,245.498 199.844,246.334 200.704 C 247.169 201.564,247.993 202.268,248.164 202.270 C 248.334 202.272,248.865 202.782,249.343 203.403 C 249.821 204.025,250.774 205.083,251.461 205.754 C 252.775 207.039,253.880 208.624,253.880 209.225 C 253.880 209.618,254.761 210.779,255.711 211.636 C 256.046 211.939,256.321 212.389,256.321 212.637 C 256.321 212.884,256.476 213.360,256.667 213.693 C 256.966 214.217,257.780 217.067,258.759 221.021 C 258.914 221.650,259.194 222.356,259.379 222.591 C 260.108 223.510,260.846 228.766,261.373 236.792 C 261.548 239.454,261.486 239.898,260.764 241.151 L 259.960 242.546 202.129 242.634 L 144.297 242.722 142.960 241.386 L 141.624 240.050 141.790 236.764 C 142.214 228.394,143.443 220.094,144.525 218.309 C 145.490 216.715,145.874 215.861,146.995 212.816 C 147.506 211.426,148.108 210.171,148.332 210.026 C 148.925 209.646,150.654 207.260,150.654 206.824 C 150.654 206.619,150.811 206.452,151.003 206.452 C 151.194 206.452,151.351 206.246,151.351 205.995 C 151.351 205.745,152.392 204.607,153.665 203.467 C 154.937 202.327,156.392 200.978,156.897 200.468 C 157.403 199.958,158.755 199.029,159.902 198.402 C 161.049 197.776,162.537 196.836,163.208 196.315 C 164.469 195.334,165.280 195.026,169.137 194.063 C 172.199 193.297,173.713 192.834,174.527 192.412 C 175.794 191.754,179.055 191.182,183.784 190.786 C 186.373 190.569,189.119 190.334,189.887 190.263 C 193.476 189.931,216.675 190.411,220.924 190.905 " stroke="none" fill="#121012" fill-rule="evenodd"></path><path id="path2" d="M62.725 24.060 L 21.351 24.237 20.626 25.109 L 19.901 25.981 19.890 174.564 L 19.878 323.148 20.947 324.172 L 22.016 325.196 199.238 325.196 C 388.025 325.196,378.098 325.285,379.644 323.577 C 380.279 322.876,380.296 319.430,380.296 195.168 L 380.296 67.480 379.470 66.160 C 378.114 63.993,376.949 63.667,370.532 63.655 C 366.906 63.648,364.464 63.802,363.557 64.094 C 361.751 64.675,141.051 64.524,138.354 63.939 C 135.731 63.370,134.961 62.413,134.961 59.721 C 134.961 57.311,134.658 56.822,131.907 54.787 C 130.833 53.992,130.775 53.834,130.765 51.648 C 130.753 49.151,130.577 48.803,128.579 47.310 C 127.851 46.766,126.909 45.787,126.487 45.135 C 126.065 44.483,125.552 43.947,125.349 43.945 C 124.179 43.931,123.104 41.975,123.104 39.861 C 123.104 37.586,122.782 37.070,120.008 34.890 C 118.984 34.086,118.919 33.896,118.919 31.725 C 118.919 29.456,118.151 27.937,116.978 27.884 C 116.799 27.876,116.260 27.373,115.780 26.767 C 115.301 26.161,114.489 25.226,113.976 24.690 L 113.044 23.714 108.571 23.798 C 106.111 23.845,85.480 23.962,62.725 24.060 M113.637 25.981 C 113.857 27.139,115.019 28.505,115.993 28.749 C 117.525 29.134,117.872 29.760,117.878 32.146 C 117.884 34.923,118.370 35.879,120.229 36.775 L 121.709 37.488 121.709 39.826 C 121.709 42.830,122.158 43.758,124.057 44.678 C 124.906 45.089,125.681 45.680,125.779 45.991 C 126.230 47.426,126.731 48.001,128.091 48.649 L 129.555 49.346 129.745 52.269 C 129.947 55.373,130.747 56.640,132.682 56.917 C 133.302 57.006,133.416 57.346,133.589 59.634 C 133.900 63.768,134.049 63.969,137.501 64.915 C 138.496 65.188,139.379 65.693,139.689 66.165 L 140.208 66.957 251.601 66.957 L 362.994 66.957 363.523 66.202 C 364.358 65.010,366.342 64.527,370.428 64.521 C 375.096 64.515,377.181 65.463,378.687 68.278 C 379.236 69.304,379.243 319.517,378.694 321.697 C 378.438 322.713,378.063 323.310,377.560 323.503 C 376.652 323.852,49.678 324.118,33.242 323.783 L 21.672 323.547 21.444 320.710 C 21.006 315.267,20.862 31.470,21.295 28.336 L 21.693 25.461 62.198 25.366 C 119.676 25.232,113.481 25.158,113.637 25.981 M43.910 47.178 C 43.606 47.411,43.175 47.945,42.951 48.364 C 42.370 49.455,42.365 303.456,42.946 304.542 C 43.166 304.953,43.676 305.565,44.079 305.902 C 44.777 306.485,52.535 306.516,202.092 306.515 L 359.372 306.514 360.418 305.659 L 361.465 304.804 361.465 196.310 L 361.465 87.815 360.418 86.978 L 359.372 86.141 244.071 86.139 C 151.982 86.138,128.696 86.050,128.406 85.700 C 128.206 85.459,127.938 84.846,127.810 84.337 C 127.649 83.697,127.076 83.154,125.951 82.576 L 124.324 81.741 124.150 79.144 C 123.953 76.212,123.254 74.830,121.780 74.460 C 120.150 74.051,119.965 73.675,119.965 70.768 C 119.965 67.930,118.901 66.260,117.092 66.260 C 116.359 66.260,116.129 65.520,116.129 63.162 C 116.129 60.220,115.491 59.163,113.297 58.473 C 112.986 58.375,112.396 57.603,111.986 56.756 C 111.424 55.596,110.877 55.053,109.762 54.548 L 108.282 53.880 108.093 50.959 C 107.787 46.251,111.489 46.729,75.375 46.742 C 51.626 46.750,44.336 46.851,43.910 47.178 M106.139 48.632 C 106.963 49.395,107.062 49.742,107.062 51.862 C 107.062 54.040,107.140 54.295,108.005 54.930 C 109.948 56.359,111.247 57.629,111.247 58.101 C 111.247 58.368,111.375 58.588,111.533 58.588 C 112.917 58.588,114.734 61.160,114.734 63.120 C 114.734 65.803,114.824 65.981,117.031 67.647 L 118.919 69.072 118.919 71.396 C 118.919 73.685,119.944 75.676,121.123 75.676 C 122.068 75.676,122.755 77.232,122.755 79.373 C 122.755 81.561,123.664 83.348,124.777 83.348 C 124.982 83.348,125.748 84.093,126.481 85.004 C 127.213 85.915,128.047 86.852,128.335 87.086 C 128.744 87.418,154.011 87.513,243.950 87.522 C 358.823 87.533,359.044 87.534,359.644 88.234 C 360.209 88.895,360.244 95.210,360.244 196.277 L 360.244 303.617 359.533 304.381 L 358.822 305.144 202.092 305.144 L 45.363 305.144 44.652 304.381 L 43.941 303.617 43.941 176.460 L 43.941 49.303 44.652 48.540 L 45.363 47.777 75.290 47.777 L 105.216 47.777 106.139 48.632 M191.548 123.365 C 191.172 123.701,190.357 124.643,189.736 125.458 L 188.607 126.940 186.215 126.940 C 183.834 126.940,183.818 126.946,182.670 128.371 C 182.036 129.159,181.208 130.061,180.830 130.377 C 180.453 130.692,179.627 131.500,178.995 132.171 C 178.363 132.842,177.730 133.503,177.589 133.639 C 177.448 133.775,176.626 134.561,175.763 135.386 C 174.900 136.210,173.935 137.197,173.620 137.579 C 173.304 137.961,172.402 138.793,171.615 139.427 C 170.192 140.573,170.183 140.594,170.183 142.953 C 170.183 145.116,170.102 145.383,169.264 145.984 C 168.759 146.347,167.896 147.070,167.346 147.591 L 166.347 148.538 166.347 154.664 L 166.347 160.791 167.346 161.738 C 167.896 162.259,168.759 162.982,169.264 163.344 C 170.099 163.943,170.183 164.216,170.183 166.330 C 170.183 168.854,170.558 169.541,172.586 170.739 C 173.153 171.074,173.819 171.727,174.067 172.191 C 174.316 172.655,175.426 173.821,176.536 174.782 C 177.645 175.743,178.553 176.712,178.553 176.936 C 178.553 177.159,179.180 177.730,179.948 178.204 C 180.715 178.678,181.343 179.158,181.343 179.270 C 181.343 180.696,183.965 182.389,186.175 182.389 C 188.660 182.389,188.874 182.510,190.299 184.720 C 191.744 186.960,191.416 186.898,201.864 186.911 C 211.931 186.923,213.102 186.751,213.599 185.183 C 214.169 183.389,215.771 182.389,218.078 182.389 C 220.488 182.389,220.488 182.389,222.682 179.686 C 223.543 178.626,223.742 178.553,225.790 178.553 C 229.073 178.553,229.817 177.846,229.817 174.727 C 229.817 172.407,229.849 172.320,231.125 171.241 C 234.119 168.707,234.002 168.907,234.002 166.359 C 234.002 164.196,234.079 163.950,234.942 163.344 C 235.460 162.982,236.323 162.266,236.860 161.753 L 237.838 160.821 237.838 154.664 L 237.838 148.508 236.860 147.576 C 236.323 147.063,235.460 146.347,234.942 145.984 C 234.078 145.379,234.002 145.133,234.002 142.967 L 234.002 140.610 231.985 138.862 C 230.875 137.901,229.767 136.740,229.521 136.281 C 229.276 135.822,228.457 135.065,227.702 134.598 C 226.947 134.132,226.330 133.629,226.330 133.481 C 226.330 133.332,225.349 132.218,224.150 131.004 C 222.951 129.789,221.601 128.378,221.149 127.868 C 220.415 127.038,220.082 126.940,218.007 126.940 C 215.811 126.940,215.638 126.880,214.817 125.829 C 214.340 125.217,213.530 124.276,213.017 123.736 L 212.085 122.755 202.158 122.755 C 193.196 122.755,192.164 122.814,191.548 123.365 M212.177 124.362 C 212.481 124.478,212.730 124.831,212.731 125.146 C 212.736 126.837,214.250 127.772,217.304 127.971 L 220.227 128.160 220.895 129.640 C 221.396 130.747,221.944 131.303,223.075 131.850 C 223.941 132.270,224.591 132.829,224.597 133.161 C 224.615 134.031,225.710 135.175,227.209 135.892 C 228.106 136.320,228.658 136.874,228.887 137.576 C 229.280 138.782,230.361 139.843,231.195 139.843 C 232.261 139.843,232.607 140.633,232.607 143.064 C 232.607 145.950,233.138 146.906,235.264 147.846 L 236.792 148.522 236.792 154.664 L 236.792 160.806 235.264 161.482 C 233.133 162.425,232.607 163.377,232.607 166.292 C 232.607 168.815,232.414 169.192,230.879 169.663 C 229.344 170.136,228.969 170.836,228.847 173.463 C 228.669 177.282,228.475 177.504,225.312 177.518 C 222.318 177.530,221.812 177.789,220.875 179.783 L 220.224 181.168 217.303 181.358 C 214.200 181.560,212.933 182.360,212.656 184.294 C 212.496 185.411,191.689 185.411,191.529 184.294 C 191.253 182.369,189.982 181.560,186.917 181.358 C 183.912 181.160,183.773 181.083,183.125 179.243 C 182.840 178.433,182.035 177.842,180.603 177.392 C 180.292 177.294,179.702 176.521,179.292 175.675 C 178.736 174.525,178.177 173.967,177.086 173.467 C 176.062 172.998,175.551 172.514,175.378 171.847 C 175.075 170.684,174.435 170.011,173.305 169.663 C 171.771 169.192,171.578 168.815,171.578 166.292 C 171.578 163.417,171.012 162.349,169.080 161.576 L 167.742 161.040 167.742 154.664 L 167.742 148.288 169.080 147.753 C 171.007 146.982,171.578 145.910,171.578 143.064 C 171.578 140.633,171.924 139.843,172.989 139.843 C 173.841 139.843,175.076 138.637,175.372 137.515 C 175.552 136.836,176.058 136.327,177.002 135.878 C 178.416 135.204,179.286 134.265,179.612 133.063 C 179.715 132.682,180.107 132.286,180.484 132.184 C 181.791 131.826,183.043 130.719,183.261 129.728 C 183.579 128.279,184.007 128.076,187.050 127.928 C 189.921 127.788,191.449 126.820,191.454 125.138 C 191.455 124.818,191.652 124.478,191.892 124.381 C 192.521 124.127,211.519 124.109,212.177 124.362 M197.559 142.065 C 195.637 142.427,193.897 143.408,193.897 144.130 C 193.897 144.651,193.042 145.306,191.428 146.019 C 190.113 146.601,189.779 146.955,189.370 148.194 C 189.067 149.112,188.424 150.023,187.676 150.593 C 184.719 152.848,184.852 159.372,187.854 159.372 C 188.122 159.372,188.687 160.150,189.109 161.101 C 189.573 162.147,190.222 162.989,190.753 163.234 C 192.804 164.179,192.577 163.952,193.521 165.998 C 194.227 167.527,195.284 167.742,202.092 167.742 C 208.901 167.742,209.958 167.527,210.664 165.998 C 211.608 163.952,211.381 164.179,213.432 163.234 C 213.962 162.989,214.612 162.147,215.076 161.101 C 215.515 160.113,216.073 159.372,216.379 159.372 C 216.673 159.372,216.914 159.215,216.914 159.024 C 216.914 158.832,217.149 158.675,217.437 158.675 C 217.724 158.675,217.960 158.439,217.960 158.152 C 217.960 157.864,218.117 157.629,218.309 157.629 C 219.516 157.629,218.328 152.157,216.860 150.959 C 216.235 150.449,215.323 149.269,214.834 148.337 C 214.244 147.216,213.532 146.439,212.726 146.040 C 211.044 145.207,210.288 144.637,210.288 144.203 C 210.288 142.209,203.160 141.012,197.559 142.065 M206.144 143.786 C 207.097 144.038,208.356 144.756,209.229 145.545 C 210.041 146.278,211.147 147.032,211.687 147.220 C 212.385 147.464,212.953 148.133,213.657 149.544 C 214.202 150.634,214.741 151.604,214.856 151.700 C 215.252 152.029,215.913 153.483,216.393 155.080 L 216.874 156.679 215.710 157.809 C 215.070 158.431,214.437 159.283,214.304 159.702 C 214.017 160.607,212.103 162.860,211.622 162.860 C 211.199 162.860,210.288 163.751,210.288 164.164 C 210.288 164.334,209.848 164.895,209.310 165.410 L 208.331 166.347 202.092 166.347 L 195.853 166.347 194.875 165.410 C 194.337 164.895,193.897 164.334,193.897 164.164 C 193.897 163.765,192.992 162.860,192.592 162.860 C 192.112 162.860,190.554 161.069,189.890 159.755 C 189.561 159.103,188.812 158.132,188.227 157.597 L 187.162 156.625 187.708 154.705 C 188.008 153.649,188.562 152.455,188.938 152.051 C 189.314 151.647,189.914 150.658,190.271 149.852 C 191.048 148.099,191.228 147.902,193.025 146.836 C 193.793 146.382,194.813 145.651,195.292 145.212 C 197.174 143.491,202.417 142.802,206.144 143.786 M189.887 190.263 C 189.119 190.334,186.373 190.569,183.784 190.786 C 179.055 191.182,175.794 191.754,174.527 192.412 C 173.713 192.834,172.199 193.297,169.137 194.063 C 165.280 195.026,164.469 195.334,163.208 196.315 C 162.537 196.836,161.049 197.776,159.902 198.402 C 158.755 199.029,157.403 199.958,156.897 200.468 C 156.392 200.978,154.937 202.327,153.665 203.467 C 152.392 204.607,151.351 205.745,151.351 205.995 C 151.351 206.246,151.194 206.452,151.003 206.452 C 150.811 206.452,150.654 206.619,150.654 206.824 C 150.654 207.260,148.925 209.646,148.332 210.026 C 148.108 210.171,147.506 211.426,146.995 212.816 C 145.874 215.861,145.490 216.715,144.525 218.309 C 143.443 220.094,142.214 228.394,141.790 236.764 L 141.624 240.050 142.960 241.386 L 144.297 242.722 202.129 242.634 L 259.960 242.546 260.764 241.151 C 261.486 239.898,261.548 239.454,261.373 236.792 C 260.846 228.766,260.108 223.510,259.379 222.591 C 259.194 222.356,258.914 221.650,258.759 221.021 C 257.780 217.067,256.966 214.217,256.667 213.693 C 256.476 213.360,256.321 212.884,256.321 212.637 C 256.321 212.389,256.046 211.939,255.711 211.636 C 254.761 210.779,253.880 209.618,253.880 209.225 C 253.880 208.624,252.775 207.039,251.461 205.754 C 250.774 205.083,249.821 204.025,249.343 203.403 C 248.865 202.782,248.334 202.272,248.164 202.270 C 247.993 202.268,247.169 201.564,246.334 200.704 C 245.498 199.844,243.996 198.726,242.995 198.219 C 241.994 197.712,240.620 196.870,239.942 196.350 C 238.682 195.381,237.877 195.089,233.297 193.936 C 231.855 193.573,230.050 193.006,229.287 192.676 C 225.388 190.991,219.229 190.406,203.836 190.256 C 196.931 190.189,190.654 190.192,189.887 190.263 M220.112 192.720 C 221.983 194.427,224.302 195.036,231.255 195.647 L 236.355 196.095 236.932 197.402 C 237.469 198.620,241.038 200.174,243.298 200.174 C 243.494 200.174,243.859 200.794,244.109 201.552 C 244.503 202.744,244.792 203.012,246.251 203.537 C 247.725 204.067,247.995 204.321,248.395 205.559 C 248.760 206.688,249.144 207.112,250.297 207.653 C 251.748 208.334,252.122 208.956,252.131 210.703 C 252.134 211.219,252.293 211.738,252.485 211.857 C 252.677 211.976,252.833 212.328,252.833 212.640 C 252.833 213.330,254.178 214.821,254.800 214.821 C 255.618 214.821,256.000 216.183,256.192 219.796 C 256.516 225.865,257.904 231.762,259.356 233.242 C 259.665 233.557,259.808 234.798,259.808 237.165 L 259.808 240.628 202.337 240.628 C 158.101 240.628,144.768 240.531,144.446 240.209 C 143.967 239.730,143.910 233.007,144.334 226.927 L 144.596 223.166 145.841 222.141 C 147.028 221.162,147.241 220.674,147.702 217.873 C 148.499 213.026,148.623 212.699,149.990 211.836 C 151.044 211.170,151.433 210.614,151.918 209.076 C 152.337 207.744,152.706 207.149,153.111 207.149 C 153.872 207.149,155.536 205.482,155.536 204.719 C 155.536 204.131,156.254 203.635,158.050 202.986 C 158.616 202.781,159.280 202.085,159.706 201.251 C 160.296 200.093,160.638 199.822,161.725 199.650 C 163.792 199.321,165.984 198.163,166.613 197.068 C 167.180 196.079,167.262 196.056,171.738 195.668 C 178.416 195.088,182.036 194.071,183.089 192.478 C 183.765 191.457,218.979 191.687,220.112 192.720 " stroke="none" fill="#5c5c5c" fill-rule="evenodd"></path><path id="path3" d="M20.845 22.565 C 20.321 22.646,19.576 23.116,19.188 23.609 L 18.483 24.506 18.488 174.328 C 18.492 292.536,18.584 324.328,18.924 324.993 C 19.855 326.813,9.243 326.711,199.100 326.739 C 386.980 326.767,380.296 326.827,381.212 325.115 C 381.940 323.755,381.929 65.952,381.201 64.225 C 380.312 62.117,388.709 62.263,257.716 62.075 L 136.530 61.901 136.304 58.685 C 136.052 55.105,135.788 54.636,133.819 54.266 L 132.520 54.022 132.493 51.684 C 132.454 48.226,131.940 47.106,130.074 46.417 C 128.780 45.939,128.498 45.664,128.297 44.682 C 127.995 43.204,127.326 42.536,125.845 42.235 L 124.673 41.996 124.438 38.928 C 124.174 35.474,123.750 34.724,121.860 34.369 L 120.663 34.145 120.636 31.806 C 120.596 28.256,120.071 27.149,118.144 26.550 C 116.742 26.115,116.530 25.917,116.362 24.881 C 115.939 22.274,120.361 22.498,68.377 22.455 C 42.758 22.435,21.368 22.484,20.845 22.565 M113.911 23.226 C 114.321 23.336,114.949 23.999,115.306 24.698 C 116.114 26.283,116.496 26.701,117.398 26.987 C 119.043 27.509,119.781 28.848,119.965 31.645 L 120.139 34.292 121.490 35.046 C 123.272 36.041,123.774 37.044,123.789 39.643 C 123.801 41.761,124.697 43.243,125.966 43.243 C 126.471 43.243,127.125 44.014,127.766 45.364 C 128.149 46.171,128.739 46.737,129.476 47.004 C 131.084 47.587,131.618 48.636,131.819 51.612 C 131.996 54.222,131.999 54.227,133.278 54.828 C 135.176 55.719,135.658 56.627,135.658 59.309 C 135.658 61.214,135.787 61.734,136.392 62.282 C 137.111 62.933,139.651 62.948,257.240 62.999 C 323.302 63.027,377.706 63.139,378.137 63.248 C 378.568 63.356,379.387 63.931,379.957 64.526 L 380.994 65.608 380.994 194.713 C 380.994 323.628,380.993 323.819,380.292 324.571 C 379.905 324.986,379.150 325.492,378.612 325.697 C 377.190 326.238,22.221 326.220,21.163 325.678 C 20.744 325.464,20.130 324.954,19.799 324.545 C 18.899 323.435,18.842 25.748,19.741 24.464 C 20.049 24.024,20.638 23.528,21.049 23.362 C 21.864 23.033,112.695 22.900,113.911 23.226 M45.248 48.960 C 44.298 49.681,44.298 303.240,45.248 303.961 C 46.158 304.651,358.027 304.651,358.936 303.961 C 359.942 303.197,359.879 89.130,358.872 88.591 C 358.411 88.344,321.828 88.226,243.353 88.218 C 150.067 88.208,128.356 88.121,127.696 87.754 C 127.248 87.506,126.538 86.688,126.116 85.936 C 125.644 85.093,124.848 84.331,124.041 83.950 C 122.504 83.224,122.058 82.265,122.058 79.692 C 122.058 77.229,121.867 76.828,120.363 76.125 C 118.506 75.256,118.245 74.744,118.233 71.952 C 118.221 69.395,117.410 68.003,115.931 68.003 C 114.904 68.003,114.037 66.049,114.037 63.732 C 114.037 61.521,113.466 60.331,112.406 60.331 C 111.863 60.331,110.784 59.225,110.193 58.062 C 109.902 57.488,109.155 56.763,108.533 56.450 C 106.587 55.472,106.016 54.416,106.016 51.795 C 106.016 50.245,105.850 49.305,105.517 48.972 C 104.801 48.256,46.192 48.243,45.248 48.960 M105.335 51.700 C 105.356 54.903,106.084 56.551,107.615 56.862 C 109.138 57.172,109.503 57.468,109.503 58.395 C 109.503 59.579,110.564 60.700,111.953 60.983 L 113.165 61.230 113.393 64.467 C 113.630 67.818,114.049 68.662,115.490 68.690 C 116.957 68.718,117.175 69.062,117.175 71.347 C 117.175 74.599,117.884 76.103,119.712 76.736 L 121.186 77.245 121.420 80.314 C 121.683 83.771,121.927 84.223,123.845 84.797 C 124.987 85.139,125.266 85.417,125.604 86.547 C 125.825 87.285,126.241 88.084,126.527 88.321 C 126.937 88.662,151.523 88.790,242.861 88.928 L 358.675 89.102 358.675 196.338 L 358.675 303.575 202.092 303.575 L 45.510 303.575 45.421 176.809 C 45.372 107.088,45.406 49.847,45.497 49.608 C 45.628 49.264,51.949 49.172,75.490 49.172 L 105.318 49.172 105.335 51.700 M190.720 121.605 C 189.789 121.749,189.229 122.541,188.861 124.237 C 188.660 125.163,188.575 125.196,186.400 125.196 C 183.128 125.196,181.615 125.901,180.980 127.721 C 180.561 128.924,180.275 129.222,179.361 129.407 C 177.952 129.693,177.121 130.524,176.835 131.933 C 176.649 132.848,176.352 133.133,175.140 133.555 C 173.921 133.980,173.576 134.313,173.122 135.502 C 172.668 136.689,172.288 137.057,170.910 137.639 C 169.062 138.420,168.800 139.071,168.792 142.907 L 168.788 144.750 167.243 145.412 C 165.005 146.372,164.952 146.587,164.952 154.664 C 164.952 162.742,165.005 162.957,167.243 163.916 L 168.788 164.579 168.792 166.422 C 168.800 170.246,169.065 170.910,170.886 171.680 C 172.282 172.269,172.634 172.626,173.243 174.068 C 173.784 175.348,174.143 175.763,174.710 175.763 C 175.908 175.763,176.809 176.419,176.809 177.291 C 176.809 178.421,177.977 179.641,179.323 179.916 C 180.272 180.110,180.555 180.404,181.029 181.687 C 181.718 183.551,182.838 184.067,186.284 184.106 L 188.611 184.133 188.839 185.266 C 189.249 187.304,189.390 187.581,190.136 187.818 C 191.747 188.329,189.630 188.602,180.994 188.994 C 171.352 189.432,169.785 189.768,168.801 191.607 C 168.445 192.271,167.972 192.495,166.564 192.666 C 162.768 193.127,161.540 193.559,160.629 194.752 C 160.061 195.498,158.931 196.244,157.385 196.897 C 155.026 197.894,153.826 198.862,153.804 199.787 C 153.790 200.364,152.777 201.194,152.068 201.209 C 151.461 201.223,149.608 202.936,149.608 203.483 C 149.608 204.336,148.691 205.733,147.777 206.273 C 146.689 206.916,145.423 209.134,145.423 210.396 C 145.423 211.637,144.718 213.426,144.229 213.426 C 142.555 213.426,141.681 216.016,141.262 222.221 C 141.041 225.488,140.817 226.800,140.412 227.205 C 139.242 228.375,138.552 230.756,138.126 235.095 C 137.594 240.503,137.865 241.697,140.147 243.979 C 142.954 246.786,137.453 246.556,201.891 246.556 C 262.033 246.556,261.210 246.575,261.696 245.161 C 261.795 244.874,262.114 244.010,262.406 243.243 C 263.329 240.817,263.080 223.905,262.055 219.403 C 261.952 218.950,261.315 218.058,260.639 217.421 C 259.559 216.402,259.358 215.933,258.973 213.537 C 258.436 210.198,257.990 209.320,256.514 208.704 C 255.568 208.308,255.330 207.984,255.147 206.840 C 255.025 206.078,254.727 205.248,254.485 204.994 C 254.243 204.741,253.763 204.094,253.419 203.556 C 253.075 203.018,252.573 202.494,252.305 202.391 C 252.036 202.288,250.643 201.056,249.209 199.654 C 247.116 197.608,246.321 197.057,245.186 196.866 C 244.039 196.672,243.589 196.354,242.803 195.184 C 241.713 193.560,240.204 192.922,237.348 192.878 C 235.829 192.854,235.499 192.701,234.384 191.505 C 232.619 189.611,231.748 189.432,222.145 188.989 C 217.446 188.772,213.365 188.459,213.078 188.292 C 212.640 188.039,212.657 187.988,213.181 187.979 C 214.176 187.962,215.519 186.384,215.519 185.232 L 215.519 184.206 218.221 184.071 C 221.557 183.904,222.911 183.297,223.209 181.835 C 223.572 180.052,223.757 179.948,226.547 179.948 C 230.600 179.948,231.561 178.923,231.561 174.601 L 231.561 172.370 233.126 171.772 C 235.100 171.018,235.063 171.090,235.340 167.465 L 235.571 164.429 237.028 163.925 C 239.125 163.200,239.233 162.748,239.233 154.664 C 239.233 146.581,239.125 146.128,237.028 145.403 L 235.571 144.900 235.340 141.864 C 235.064 138.241,235.098 138.310,233.142 137.562 C 231.837 137.064,231.517 136.748,231.124 135.570 C 230.731 134.389,230.418 134.082,229.117 133.602 C 227.832 133.127,227.538 132.844,227.344 131.894 C 227.069 130.549,225.849 129.381,224.719 129.381 C 223.851 129.381,223.191 128.480,223.191 127.294 C 223.191 126.166,220.767 125.213,217.873 125.204 C 215.718 125.197,215.519 125.134,215.519 124.465 C 215.519 123.079,214.450 121.797,213.111 121.575 C 211.748 121.350,192.205 121.376,190.720 121.605 M213.460 122.779 C 214.017 123.175,214.473 123.700,214.473 123.945 C 214.473 125.367,216.015 126.242,218.520 126.242 C 221.191 126.242,221.610 126.470,222.866 128.603 C 223.236 129.231,223.970 129.935,224.498 130.169 C 225.706 130.703,226.004 131.013,226.787 132.550 C 227.189 133.340,227.826 133.937,228.542 134.196 C 229.314 134.475,229.983 135.147,230.686 136.351 C 231.248 137.312,231.949 138.104,232.244 138.110 C 233.683 138.140,234.699 139.948,234.699 142.477 C 234.699 144.488,235.133 145.772,235.812 145.772 C 236.027 145.772,236.728 146.172,237.369 146.661 L 238.535 147.551 238.535 154.664 L 238.535 161.778 237.369 162.668 C 236.728 163.157,236.027 163.557,235.812 163.557 C 235.131 163.557,234.699 164.842,234.699 166.870 C 234.699 169.443,233.737 171.185,232.297 171.218 C 231.369 171.239,230.885 172.426,230.872 174.717 C 230.853 178.146,230.041 179.003,226.635 179.187 C 223.882 179.335,223.175 179.697,222.511 181.301 C 221.911 182.749,220.450 183.435,217.968 183.435 C 215.639 183.435,215.008 183.789,214.625 185.315 C 214.072 187.521,213.530 187.620,201.998 187.620 C 190.435 187.620,190.123 187.561,189.549 185.273 C 189.146 183.669,188.736 183.435,186.323 183.435 C 183.627 183.435,182.210 182.734,181.623 181.111 C 181.365 180.398,180.767 179.761,179.978 179.359 C 178.407 178.559,178.006 178.184,177.703 177.228 C 177.471 176.496,175.482 174.717,174.897 174.717 C 174.517 174.717,173.695 173.596,173.682 173.060 C 173.667 172.496,172.404 171.233,171.840 171.218 C 170.436 171.182,169.487 169.407,169.480 166.806 C 169.474 164.433,169.306 164.095,167.714 163.246 C 165.806 162.230,165.660 161.621,165.660 154.664 C 165.660 147.708,165.806 147.099,167.714 146.082 C 169.304 145.235,169.474 144.895,169.480 142.541 C 169.487 140.027,170.489 138.145,171.840 138.110 C 172.079 138.104,172.589 137.786,172.973 137.402 C 173.357 137.018,173.675 136.508,173.682 136.269 C 173.700 135.556,174.469 134.771,175.664 134.247 C 176.312 133.962,177.048 133.239,177.407 132.532 C 178.186 131.003,178.435 130.756,180.012 129.951 C 180.754 129.573,181.373 128.957,181.493 128.479 C 181.912 126.813,182.995 126.242,185.742 126.242 C 188.320 126.242,189.712 125.441,189.712 123.958 C 189.712 121.930,210.798 120.884,213.460 122.779 M197.908 145.287 C 197.140 145.811,196.120 146.501,195.641 146.823 C 195.161 147.144,194.159 147.628,193.414 147.897 C 192.553 148.208,191.936 148.705,191.723 149.259 C 191.538 149.738,191.010 150.931,190.549 151.909 C 190.089 152.887,189.712 153.939,189.712 154.247 C 189.712 154.554,189.531 155.205,189.308 155.693 C 188.959 156.459,189.009 156.670,189.677 157.249 C 190.102 157.618,190.614 158.521,190.813 159.256 C 191.215 160.733,192.018 161.813,192.715 161.813 C 193.302 161.813,194.943 163.454,194.943 164.042 C 194.943 165.409,196.020 165.650,202.153 165.650 C 208.288 165.650,209.241 165.425,209.241 163.981 C 209.241 163.441,210.914 161.813,211.470 161.813 C 212.152 161.813,212.897 160.771,213.433 159.071 C 213.697 158.233,214.180 157.382,214.506 157.178 C 214.934 156.910,215.020 156.607,214.815 156.085 C 214.659 155.687,214.337 154.577,214.100 153.618 C 213.863 152.659,213.475 151.639,213.238 151.351 C 213.001 151.064,212.696 150.308,212.560 149.671 C 212.425 149.035,212.055 148.430,211.737 148.326 C 210.745 148.003,208.779 147.086,208.391 146.765 C 205.236 144.157,200.538 143.495,197.908 145.287 M205.017 146.865 C 205.474 147.223,206.214 147.515,206.661 147.515 C 207.805 147.515,209.954 148.576,210.900 149.608 C 213.496 152.440,213.727 161.116,211.207 161.116 C 209.996 161.116,208.876 162.164,208.589 163.565 L 208.341 164.778 202.092 164.778 L 195.844 164.778 195.596 163.565 C 195.309 162.164,194.189 161.116,192.978 161.116 C 192.053 161.116,191.456 160.040,191.456 158.373 C 191.456 157.849,191.307 157.270,191.125 157.088 C 190.773 156.735,191.431 151.957,191.896 151.492 C 192.038 151.351,192.153 150.947,192.153 150.596 C 192.153 150.244,192.372 149.956,192.639 149.956 C 192.906 149.956,193.217 149.717,193.329 149.424 C 193.570 148.796,196.398 147.515,197.545 147.515 C 197.985 147.515,198.541 147.280,198.779 146.992 C 199.018 146.704,199.430 146.469,199.694 146.469 C 199.958 146.469,200.174 146.338,200.174 146.179 C 200.174 145.631,204.160 146.196,205.017 146.865 M222.842 189.859 C 228.290 190.313,231.557 191.096,232.251 192.115 C 232.515 192.503,235.906 193.548,236.900 193.548 C 238.193 193.548,240.683 194.773,241.835 195.976 C 242.402 196.567,243.458 197.229,244.183 197.446 C 244.925 197.668,246.087 198.465,246.842 199.269 C 247.580 200.055,248.768 201.143,249.483 201.688 C 250.197 202.232,250.927 203.060,251.105 203.528 C 251.283 203.995,251.705 204.482,252.044 204.610 C 253.167 205.036,254.577 206.925,254.577 208.005 C 254.577 208.241,255.275 209.172,256.129 210.075 C 257.797 211.842,257.772 211.787,258.440 215.170 C 258.686 216.417,259.443 218.534,260.121 219.874 C 261.649 222.891,262.208 226.975,262.233 235.293 C 262.251 241.358,262.085 242.145,260.430 243.841 L 259.483 244.813 202.081 244.813 C 159.520 244.813,144.483 244.709,143.918 244.412 C 142.924 243.889,140.410 241.369,139.882 240.365 C 139.443 239.531,139.947 234.096,140.575 232.902 C 140.891 232.300,141.372 228.823,141.920 223.172 C 142.254 219.729,143.362 216.064,144.162 215.757 C 144.610 215.585,145.874 212.707,146.257 210.985 C 146.480 209.985,147.928 208.195,148.515 208.195 C 148.732 208.195,148.910 207.958,148.910 207.667 C 148.910 206.933,149.528 205.868,150.915 204.212 C 151.155 203.925,151.351 203.528,151.351 203.328 C 151.351 203.128,151.512 202.964,151.709 202.964 C 152.057 202.964,152.682 202.437,155.802 199.519 C 157.362 198.059,159.104 197.036,160.027 197.036 C 160.329 197.036,161.050 196.523,161.630 195.896 C 162.744 194.693,164.871 193.548,165.993 193.548 C 167.130 193.548,170.700 192.515,170.822 192.150 C 170.886 191.960,171.161 191.805,171.433 191.805 C 171.704 191.805,171.927 191.648,171.927 191.456 C 171.927 191.264,172.221 191.107,172.582 191.107 C 172.942 191.107,173.766 190.891,174.413 190.626 C 175.489 190.185,183.457 189.513,191.107 189.217 C 197.088 188.985,217.252 189.393,222.842 189.859 " stroke="none" fill="#0a080a" fill-rule="evenodd"></path></g></svg>