<svg id="svg" version="1.1" xmlns="http://www.w3.org/2000/svg" xmlns:xlink="http://www.w3.org/1999/xlink" width="400" height="363.265306122449" viewBox="0, 0, 400,363.265306122449"><g id="svgg"><path id="path0" d="M298.819 22.939 C 287.009 24.019,277.899 31.359,273.314 43.488 C 267.738 58.235,278.531 77.465,294.096 80.518 C 313.972 84.415,330.609 71.529,330.609 52.237 C 330.609 46.225,329.230 40.876,326.719 37.147 C 320.045 27.235,309.661 21.947,298.819 22.939 M307.192 26.367 C 311.896 27.585,313.090 28.134,316.864 30.816 C 333.276 42.480,330.929 67.052,312.528 76.221 L 307.668 78.642 302.679 78.779 C 296.614 78.946,294.396 78.466,289.853 76.007 C 277.882 69.526,273.164 58.609,276.266 44.565 C 279.102 31.721,294.002 22.954,307.192 26.367 M74.841 95.422 C 71.231 95.966,64.733 99.653,61.035 103.257 C 49.214 114.778,50.074 137.299,62.699 146.810 C 69.458 151.903,75.024 153.806,82.603 153.617 L 88.102 153.480 92.551 151.416 C 107.700 144.391,113.771 131.529,109.574 115.350 C 107.408 106.999,97.628 97.448,89.475 95.721 C 87.208 95.240,77.379 95.040,74.841 95.422 M294.096 95.560 C 289.370 95.871,289.654 95.807,281.562 98.377 C 274.335 100.672,272.023 101.842,263.103 107.719 C 255.436 112.770,253.538 114.672,243.448 127.425 C 241.987 129.270,240.197 131.142,239.470 131.583 C 231.836 136.219,227.863 140.128,225.047 145.775 C 221.936 152.012,221.901 152.167,221.654 160.763 C 221.380 170.281,221.406 170.220,216.705 172.570 C 214.906 173.470,212.945 174.554,212.348 174.981 C 211.751 175.408,210.200 176.203,208.901 176.747 C 207.602 177.292,205.851 178.140,205.010 178.631 C 204.169 179.123,202.177 180.067,200.584 180.729 C 198.991 181.390,197.227 182.260,196.664 182.660 C 196.101 183.061,192.698 184.896,189.101 186.739 C 185.504 188.582,181.641 190.644,180.516 191.321 C 179.390 191.998,178.331 192.552,178.162 192.552 C 177.992 192.552,175.829 193.567,173.355 194.808 C 166.465 198.264,164.664 198.212,159.682 194.410 C 151.467 188.140,146.910 186.563,136.966 186.548 C 129.872 186.538,128.428 186.148,125.145 183.355 C 123.357 181.834,116.838 177.346,115.982 177.047 C 115.634 176.925,113.960 176.036,112.262 175.071 C 110.563 174.106,108.264 173.004,107.152 172.623 C 106.041 172.242,103.928 171.402,102.458 170.757 C 95.916 167.885,80.612 167.125,66.848 168.988 C 59.133 170.032,43.147 178.564,35.459 185.740 C 27.686 192.996,19.235 206.284,17.471 214.025 C 16.351 218.944,15.294 221.031,13.319 222.224 C 10.057 224.194,8.385 232.273,10.686 234.948 L 11.563 235.967 61.640 236.149 C 109.908 236.324,111.763 236.355,112.988 237.019 C 113.688 237.397,115.813 238.952,117.711 240.474 C 125.921 247.056,129.390 248.324,139.146 248.310 C 148.914 248.296,152.636 246.870,160.471 240.141 C 166.150 235.263,165.191 235.079,182.743 244.413 C 184.441 245.316,186.975 246.611,188.374 247.289 C 189.773 247.968,191.735 248.947,192.734 249.465 C 193.733 249.984,197.888 252.112,201.966 254.195 C 206.045 256.278,209.805 258.279,210.322 258.643 C 210.839 259.006,212.630 259.893,214.301 260.614 C 221.003 263.504,221.617 264.603,221.555 273.608 C 221.498 281.848,221.804 283.399,224.573 288.925 C 227.152 294.073,231.825 299.179,236.392 301.840 C 241.193 304.638,242.641 307.369,242.190 312.778 C 241.975 315.347,242.607 321.839,243.222 323.384 C 243.788 324.807,243.274 324.796,309.572 324.796 C 380.516 324.796,375.582 324.963,376.323 322.531 C 378.155 316.511,378.120 312.733,376.167 305.996 C 375.689 304.344,374.953 301.404,374.532 299.464 C 374.002 297.015,373.224 294.873,371.989 292.459 C 371.010 290.546,370.209 288.812,370.209 288.606 C 370.209 288.151,366.669 282.496,363.783 278.341 C 356.286 267.547,340.638 256.749,328.429 253.943 C 312.374 250.253,307.134 250.252,291.008 253.936 C 288.311 254.552,285.064 255.399,283.794 255.818 C 280.415 256.932,279.185 256.654,276.088 254.075 C 267.342 246.793,262.585 244.686,253.899 244.247 C 245.486 243.822,238.962 246.269,230.412 253.057 C 227.300 255.527,223.110 255.221,217.998 252.152 C 216.691 251.368,214.765 250.392,213.718 249.984 C 212.671 249.575,211.199 248.854,210.448 248.380 C 208.943 247.431,199.861 242.698,186.739 236.024 C 182.044 233.636,177.010 231.072,175.554 230.327 C 170.706 227.844,170.403 227.257,170.360 220.266 C 170.343 217.512,170.207 214.278,170.057 213.079 C 169.413 207.923,170.850 206.051,178.020 202.707 C 179.319 202.101,182.343 200.555,184.741 199.270 C 187.139 197.986,190.636 196.189,192.513 195.277 C 194.390 194.364,196.371 193.301,196.915 192.913 C 197.460 192.526,199.143 191.732,200.657 191.149 C 202.170 190.566,203.868 189.763,204.429 189.365 C 204.990 188.967,206.973 187.890,208.834 186.971 C 210.696 186.053,212.699 184.959,213.287 184.541 C 213.875 184.122,215.310 183.392,216.477 182.918 C 217.643 182.444,219.432 181.538,220.452 180.904 C 224.330 178.493,226.243 178.864,230.937 182.935 C 235.408 186.813,241.389 190.146,244.898 190.715 C 248.288 191.265,257.314 191.182,260.180 190.575 C 268.426 188.827,278.566 179.924,281.156 172.160 C 282.547 167.988,284.957 165.456,288.353 164.599 C 289.377 164.341,302.323 164.214,327.809 164.214 L 365.742 164.214 366.971 163.386 C 369.357 161.778,369.549 159.858,368.035 152.739 C 365.866 142.545,365.356 140.565,364.344 138.420 C 363.732 137.121,362.917 135.164,362.534 134.071 C 358.103 121.436,338.441 103.610,324.251 99.365 C 322.452 98.827,319.303 97.820,317.253 97.128 C 312.066 95.377,304.591 94.871,294.096 95.560 M86.649 98.139 C 95.651 100.547,101.783 105.555,106.030 113.968 C 109.152 120.153,108.573 130.653,104.756 137.074 C 93.967 155.221,70.731 155.714,58.893 138.048 C 54.662 131.734,53.918 120.009,57.314 113.170 C 62.687 102.350,76.304 95.373,86.649 98.139 M306.812 98.473 C 314.132 99.526,322.533 101.662,325.733 103.283 C 326.719 103.783,328.833 104.704,330.430 105.330 C 342.258 109.966,355.434 124.774,361.709 140.484 C 366.030 151.302,366.266 157.547,362.462 160.366 C 361.238 161.274,291.409 161.796,288.228 160.921 C 285.590 160.196,284.778 158.925,282.335 151.699 C 279.102 142.137,276.286 138.485,267.838 132.903 C 266.742 132.179,260.680 130.047,256.635 128.963 C 248.938 126.900,248.786 123.692,256.074 117.082 C 263.376 110.459,269.138 106.435,273.639 104.816 C 275.099 104.291,276.948 103.485,277.748 103.025 C 279.824 101.830,281.991 101.213,289.192 99.770 C 297.963 98.012,301.697 97.737,306.812 98.473 M89.555 170.787 C 91.353 171.004,94.787 171.800,97.184 172.557 C 99.582 173.314,102.688 174.224,104.087 174.579 C 108.828 175.782,119.723 182.191,121.835 185.021 C 124.119 188.080,123.200 190.474,118.128 194.677 C 109.808 201.572,105.736 215.503,108.997 225.918 C 110.057 229.302,109.960 230.530,108.521 231.970 C 106.472 234.018,107.662 233.965,63.746 233.967 L 23.042 233.969 21.442 233.152 C 19.306 232.060,18.444 230.789,18.250 228.443 C 18.032 225.817,19.455 217.569,20.588 214.896 C 21.096 213.697,22.144 211.097,22.918 209.118 C 23.692 207.139,24.960 204.441,25.736 203.123 C 26.512 201.805,27.597 199.930,28.147 198.956 C 33.495 189.493,49.976 176.871,60.490 174.186 C 62.489 173.676,65.186 172.879,66.485 172.415 C 68.512 171.690,70.805 171.198,74.841 170.620 C 76.967 170.315,86.545 170.424,89.555 170.787 M304.632 178.971 C 295.018 181.404,290.909 184.070,285.286 191.523 C 279.002 199.852,279.001 216.404,285.284 224.523 C 293.197 234.749,304.357 238.910,316.541 236.175 C 341.456 230.584,347.018 196.879,325.349 182.801 C 320.982 179.964,309.268 177.798,304.632 178.971 M316.520 182.389 C 320.230 183.186,320.445 183.287,324.251 186.036 C 332.896 192.282,336.157 198.301,336.146 207.993 C 336.135 217.846,332.462 224.442,323.706 230.334 C 318.693 233.707,317.065 234.151,309.718 234.151 C 299.722 234.151,293.830 231.025,287.650 222.442 C 281.956 214.534,281.742 202.362,287.154 194.232 C 294.167 183.699,304.053 179.712,316.520 182.389 M318.199 254.652 C 320.129 255.038,323.177 255.623,324.973 255.952 C 327.096 256.341,329.843 257.240,332.822 258.520 C 335.342 259.604,337.532 260.490,337.688 260.490 C 337.843 260.490,339.933 261.584,342.332 262.921 C 348.216 266.201,353.753 271.234,361.633 280.467 C 363.758 282.957,367.651 290.262,369.337 294.924 C 370.040 296.867,371.012 299.538,371.498 300.861 C 373.505 306.328,373.525 313.025,371.541 315.129 C 369.523 317.269,372.200 317.185,309.114 317.081 L 250.863 316.985 249.184 315.998 C 243.218 312.490,246.679 306.616,255.143 305.884 C 262.584 305.242,263.479 304.978,268.265 302.022 C 280.368 294.546,286.511 280.042,282.810 267.678 C 281.480 263.233,281.784 262.274,285.375 259.594 C 291.235 255.223,308.242 252.662,318.199 254.652 " stroke="none" fill="#121212" fill-rule="evenodd"></path><path id="path1" d="M296.673 21.099 C 294.179 21.442,289.387 23.157,285.553 25.078 C 279.147 28.289,271.864 38.639,270.282 46.780 C 268.445 56.236,272.199 67.166,279.971 74.990 C 291.134 86.227,312.690 85.931,323.580 74.390 C 344.425 52.302,326.594 16.986,296.673 21.099 M311.265 24.726 C 320.965 27.936,328.216 36.184,330.047 46.089 C 333.605 65.332,320.483 81.254,301.181 81.117 C 278.843 80.958,265.074 58.464,275.258 38.770 C 282.066 25.606,296.691 19.901,311.265 24.726 M295.848 26.329 C 285.227 29.075,278.253 35.569,276.266 44.565 C 273.164 58.609,277.882 69.526,289.853 76.007 C 294.396 78.466,296.614 78.946,302.679 78.779 L 307.668 78.642 312.528 76.221 C 328.595 68.215,332.851 48.056,321.318 34.582 C 315.379 27.643,304.456 24.104,295.848 26.329 M308.000 28.531 C 318.865 31.043,327.473 43.790,325.908 55.047 C 323.113 75.139,299.184 83.935,284.768 70.169 C 279.169 64.824,277.467 60.681,277.430 52.316 C 277.387 42.627,280.119 37.121,287.487 32.051 C 291.436 29.334,293.322 28.632,298.819 27.834 C 300.561 27.581,305.523 27.958,308.000 28.531 M78.474 93.225 C 72.758 93.894,70.496 94.539,67.148 96.455 C 44.459 109.433,44.726 140.471,67.628 152.235 C 84.356 160.827,105.335 152.275,111.230 134.460 C 116.543 118.404,109.747 103.279,93.532 95.076 C 91.202 93.897,82.190 92.789,78.474 93.225 M290.645 94.127 C 282.862 94.990,272.270 99.225,263.579 104.948 C 254.459 110.953,250.668 114.667,243.133 124.977 C 240.378 128.748,239.457 129.731,237.709 130.772 C 225.101 138.278,220.208 146.702,220.176 160.958 C 220.156 169.788,221.119 168.794,204.905 176.732 C 201.408 178.444,197.729 180.281,196.730 180.813 C 195.731 181.345,193.279 182.634,191.281 183.676 C 189.282 184.719,185.767 186.571,183.470 187.793 C 181.172 189.015,177.902 190.681,176.203 191.496 C 174.505 192.311,171.829 193.618,170.258 194.400 C 165.823 196.607,165.475 196.522,158.623 191.565 C 151.544 186.442,144.820 184.295,136.996 184.659 C 134.682 184.767,132.018 184.695,131.076 184.498 C 129.249 184.118,129.065 184.003,123.680 179.872 C 121.752 178.393,118.926 176.496,117.399 175.657 C 115.872 174.819,113.833 173.677,112.867 173.122 C 111.901 172.566,109.939 171.657,108.507 171.102 C 107.075 170.547,104.855 169.652,103.574 169.114 C 92.761 164.567,67.168 165.045,57.508 169.974 C 56.685 170.393,54.957 171.134,53.666 171.620 C 52.374 172.106,50.678 172.907,49.896 173.401 C 49.114 173.894,47.418 174.830,46.126 175.479 C 36.878 180.131,25.887 191.832,19.852 203.451 C 17.052 208.843,16.855 209.293,16.169 211.882 C 15.331 215.044,14.266 216.763,12.542 217.740 C 8.346 220.116,6.506 234.444,10.095 236.795 C 11.828 237.931,15.502 238.032,63.965 238.272 L 112.127 238.510 114.241 239.964 C 115.404 240.763,117.028 242.005,117.851 242.725 C 119.433 244.108,123.340 246.626,126.067 248.020 C 128.078 249.048,135.284 250.318,139.092 250.316 C 147.750 250.312,154.210 247.842,160.945 241.961 C 164.138 239.173,164.913 238.692,166.219 238.692 C 167.414 238.692,174.396 241.634,176.793 243.147 C 177.590 243.650,179.377 244.630,180.765 245.326 C 185.606 247.753,200.756 255.495,204.541 257.478 C 206.639 258.577,210.400 260.508,212.897 261.770 C 215.590 263.131,217.956 264.603,218.710 265.386 L 219.982 266.708 220.013 273.681 C 220.076 287.530,224.354 295.978,234.733 302.750 C 238.220 305.025,240.501 307.306,240.523 308.539 C 240.824 325.603,240.936 325.967,246.031 326.419 C 253.229 327.058,375.073 326.451,376.442 325.769 C 380.076 323.961,380.347 312.520,377.017 301.544 C 376.319 299.246,375.633 296.794,375.492 296.094 C 375.351 295.395,374.075 292.452,372.658 289.555 C 365.173 274.258,355.238 264.132,339.895 256.163 C 335.710 253.990,334.053 253.422,324.267 250.806 C 316.833 248.820,302.478 248.845,295.005 250.857 C 278.720 255.243,279.924 255.221,275.234 251.224 C 260.812 238.935,245.862 238.990,229.835 251.390 C 226.464 253.998,225.239 253.861,217.620 250.023 C 209.254 245.808,207.658 244.978,204.448 243.172 C 202.898 242.300,200.837 241.274,199.868 240.892 C 198.899 240.510,197.077 239.532,195.818 238.718 C 194.559 237.905,193.382 237.239,193.202 237.239 C 192.893 237.239,184.699 233.187,177.519 229.484 C 171.937 226.606,172.013 226.761,171.705 217.509 C 171.383 207.812,171.409 207.762,178.834 204.148 C 180.884 203.151,184.523 201.295,186.921 200.025 C 189.319 198.755,193.978 196.386,197.275 194.760 C 203.435 191.722,204.084 191.389,210.899 187.769 C 225.230 180.156,225.273 180.148,230.205 184.470 C 237.986 191.285,245.789 193.705,256.402 192.594 C 267.930 191.387,277.929 184.152,282.152 173.963 C 283.566 170.551,285.290 168.214,287.139 167.202 C 288.196 166.624,291.270 166.562,327.520 166.394 C 372.095 166.188,368.426 166.469,370.118 163.130 C 371.379 160.643,370.952 154.041,369.154 148.229 C 368.752 146.930,368.082 144.396,367.665 142.598 C 367.247 140.799,366.278 137.938,365.511 136.240 C 364.744 134.541,363.714 132.252,363.223 131.153 C 361.247 126.736,357.825 122.025,351.545 115.076 C 345.602 108.502,333.170 100.148,326.249 98.078 C 324.750 97.629,322.298 96.778,320.799 96.185 C 315.593 94.126,300.159 93.073,290.645 94.127 M89.475 95.721 C 94.877 96.865,102.452 102.596,106.541 108.631 C 112.401 117.281,112.224 131.887,106.153 140.599 C 102.780 145.440,99.060 148.398,92.551 151.416 L 88.102 153.480 82.603 153.617 C 64.699 154.064,50.375 138.685,52.666 121.473 C 54.406 108.398,64.071 97.044,74.841 95.422 C 77.379 95.040,87.208 95.240,89.475 95.721 M308.352 95.536 C 312.752 95.820,314.082 96.058,317.253 97.128 C 319.303 97.820,322.452 98.827,324.251 99.365 C 336.388 102.996,352.340 116.133,359.776 128.622 C 360.910 130.526,362.151 132.979,362.534 134.071 C 362.917 135.164,363.732 137.121,364.344 138.420 C 365.356 140.565,365.866 142.545,368.035 152.739 C 369.549 159.858,369.357 161.778,366.971 163.386 L 365.742 164.214 327.809 164.214 C 302.323 164.214,289.377 164.341,288.353 164.599 C 284.957 165.456,282.547 167.988,281.156 172.160 C 275.900 187.920,253.687 196.274,238.540 188.187 C 235.783 186.715,233.387 185.060,230.937 182.935 C 226.243 178.864,224.330 178.493,220.452 180.904 C 219.432 181.538,217.643 182.444,216.477 182.918 C 215.310 183.392,213.875 184.122,213.287 184.541 C 212.699 184.959,210.696 186.053,208.834 186.971 C 206.973 187.890,204.990 188.967,204.429 189.365 C 203.868 189.763,202.170 190.566,200.657 191.149 C 199.143 191.732,197.460 192.526,196.915 192.913 C 196.371 193.301,194.390 194.364,192.513 195.277 C 190.636 196.189,187.139 197.986,184.741 199.270 C 182.343 200.555,179.319 202.101,178.020 202.707 C 170.850 206.051,169.413 207.923,170.057 213.079 C 170.207 214.278,170.343 217.512,170.360 220.266 C 170.403 227.257,170.706 227.844,175.554 230.327 C 177.010 231.072,182.044 233.636,186.739 236.024 C 199.861 242.698,208.943 247.431,210.448 248.380 C 211.199 248.854,212.671 249.575,213.718 249.984 C 214.765 250.392,216.691 251.368,217.998 252.152 C 223.110 255.221,227.300 255.527,230.412 253.057 C 238.962 246.269,245.486 243.822,253.899 244.247 C 262.585 244.686,267.342 246.793,276.088 254.075 C 279.185 256.654,280.415 256.932,283.794 255.818 C 285.064 255.399,288.311 254.552,291.008 253.936 C 307.134 250.252,312.374 250.253,328.429 253.943 C 340.638 256.749,356.286 267.547,363.783 278.341 C 366.669 282.496,370.209 288.151,370.209 288.606 C 370.209 288.812,371.010 290.546,371.989 292.459 C 373.224 294.873,374.002 297.015,374.532 299.464 C 374.953 301.404,375.689 304.344,376.167 305.996 C 378.120 312.733,378.155 316.511,376.323 322.531 C 375.582 324.963,380.516 324.796,309.572 324.796 C 243.274 324.796,243.788 324.807,243.222 323.384 C 242.607 321.839,241.975 315.347,242.190 312.778 C 242.641 307.369,241.193 304.638,236.392 301.840 C 231.825 299.179,227.152 294.073,224.573 288.925 C 221.804 283.399,221.498 281.848,221.555 273.608 C 221.617 264.603,221.003 263.504,214.301 260.614 C 212.630 259.893,210.839 259.006,210.322 258.643 C 209.805 258.279,206.045 256.278,201.966 254.195 C 197.888 252.112,193.733 249.984,192.734 249.465 C 191.735 248.947,189.773 247.968,188.374 247.289 C 186.975 246.611,184.441 245.316,182.743 244.413 C 165.191 235.079,166.150 235.263,160.471 240.141 C 152.636 246.870,148.914 248.296,139.146 248.310 C 129.390 248.324,125.921 247.056,117.711 240.474 C 115.813 238.952,113.688 237.397,112.988 237.019 C 111.763 236.355,109.908 236.324,61.640 236.149 L 11.563 235.967 10.686 234.948 C 8.385 232.273,10.057 224.194,13.319 222.224 C 15.294 221.031,16.351 218.944,17.471 214.025 C 19.235 206.284,27.686 192.996,35.459 185.740 C 43.147 178.564,59.133 170.032,66.848 168.988 C 80.612 167.125,95.916 167.885,102.458 170.757 C 103.928 171.402,106.041 172.242,107.152 172.623 C 108.264 173.004,110.563 174.106,112.262 175.071 C 113.960 176.036,115.634 176.925,115.982 177.047 C 116.838 177.346,123.357 181.834,125.145 183.355 C 128.428 186.148,129.872 186.538,136.966 186.548 C 146.910 186.563,151.467 188.140,159.682 194.410 C 164.664 198.212,166.465 198.264,173.355 194.808 C 175.829 193.567,177.992 192.552,178.162 192.552 C 178.331 192.552,179.390 191.998,180.516 191.321 C 181.641 190.644,185.504 188.582,189.101 186.739 C 192.698 184.896,196.101 183.061,196.664 182.660 C 197.227 182.260,198.991 181.390,200.584 180.729 C 202.177 180.067,204.169 179.123,205.010 178.631 C 205.851 178.140,207.602 177.292,208.901 176.747 C 210.200 176.203,211.751 175.408,212.348 174.981 C 212.945 174.554,214.906 173.470,216.705 172.570 C 221.406 170.220,221.380 170.281,221.654 160.763 C 221.901 152.167,221.936 152.012,225.047 145.775 C 227.863 140.128,231.836 136.219,239.470 131.583 C 240.197 131.142,241.987 129.270,243.448 127.425 C 253.538 114.672,255.436 112.770,263.103 107.719 C 272.793 101.335,279.015 98.542,289.010 96.090 C 291.981 95.361,301.446 95.090,308.352 95.536 M78.225 97.744 C 69.560 99.290,61.111 105.523,57.314 113.170 C 53.918 120.009,54.662 131.734,58.893 138.048 C 70.731 155.714,93.967 155.221,104.756 137.074 C 107.696 132.129,108.668 125.852,107.577 118.868 C 105.659 106.601,90.346 95.580,78.225 97.744 M296.821 98.352 C 291.044 99.004,280.058 101.695,277.748 103.025 C 276.948 103.485,275.099 104.291,273.639 104.816 C 269.138 106.435,263.376 110.459,256.074 117.082 C 248.786 123.692,248.938 126.900,256.635 128.963 C 260.680 130.047,266.742 132.179,267.838 132.903 C 276.286 138.485,279.102 142.137,282.335 151.699 C 284.778 158.925,285.590 160.196,288.228 160.921 C 291.409 161.796,361.238 161.274,362.462 160.366 C 367.652 156.520,364.826 143.498,355.495 128.266 C 349.677 118.768,338.409 108.457,330.430 105.330 C 328.833 104.704,326.719 103.783,325.733 103.283 C 323.005 101.901,321.519 101.451,315.186 100.091 C 306.221 98.166,302.012 97.767,296.821 98.352 M89.296 101.187 C 100.572 104.933,107.519 115.859,106.094 127.605 C 104.999 136.628,97.404 145.477,88.828 147.723 C 75.836 151.126,64.807 145.943,58.567 133.503 C 55.840 128.067,56.577 118.295,60.162 112.370 C 66.606 101.719,77.876 97.394,89.296 101.187 M312.988 101.537 C 319.016 102.562,320.172 102.873,322.728 104.154 C 323.690 104.636,325.799 105.518,327.417 106.114 C 337.247 109.739,350.378 121.698,355.308 131.517 C 355.759 132.416,356.674 134.051,357.341 135.150 C 358.008 136.249,359.306 139.273,360.227 141.871 C 364.170 153.004,364.405 157.931,361.048 159.101 C 359.167 159.757,289.516 159.637,287.933 158.975 C 286.480 158.368,285.802 157.198,285.059 154.011 C 282.841 144.508,276.010 135.229,268.285 131.229 C 266.004 130.048,259.864 127.818,257.554 127.332 C 251.578 126.075,251.684 123.780,257.986 118.010 C 264.739 111.828,270.146 108.150,275.528 106.078 C 277.023 105.502,279.045 104.626,280.021 104.132 C 282.736 102.756,285.477 102.168,297.003 100.489 C 299.545 100.119,307.854 100.664,312.988 101.537 M74.841 170.620 C 70.805 171.198,68.512 171.690,66.485 172.415 C 65.186 172.879,62.489 173.676,60.490 174.186 C 49.976 176.871,33.495 189.493,28.147 198.956 C 27.597 199.930,26.512 201.805,25.736 203.123 C 24.960 204.441,23.692 207.139,22.918 209.118 C 22.144 211.097,21.096 213.697,20.588 214.896 C 19.455 217.569,18.032 225.817,18.250 228.443 C 18.444 230.789,19.306 232.060,21.442 233.152 L 23.042 233.969 63.746 233.967 C 107.662 233.965,106.472 234.018,108.521 231.970 C 109.960 230.530,110.057 229.302,108.997 225.918 C 105.736 215.503,109.808 201.572,118.128 194.677 C 123.200 190.474,124.119 188.080,121.835 185.021 C 119.723 182.191,108.828 175.782,104.087 174.579 C 102.688 174.224,99.582 173.314,97.184 172.557 C 91.239 170.680,80.762 169.772,74.841 170.620 M87.930 172.579 C 89.623 172.784,92.725 173.429,94.823 174.013 C 96.921 174.597,99.782 175.335,101.181 175.653 C 106.058 176.762,115.677 181.888,119.441 185.384 C 121.706 187.488,121.170 190.046,117.955 192.473 C 109.160 199.114,104.855 212.081,107.006 225.451 C 108.159 232.615,112.436 231.971,63.696 231.971 L 22.942 231.971 21.916 231.210 C 18.868 228.948,19.537 222.849,24.137 210.950 C 25.053 208.580,26.099 206.209,26.462 205.682 C 26.825 205.154,27.728 203.603,28.470 202.233 C 34.695 190.739,50.711 178.333,63.215 175.318 C 65.313 174.812,68.256 174.065,69.755 173.657 C 74.863 172.267,81.894 171.850,87.930 172.579 M304.087 176.812 C 276.689 182.487,269.065 218.050,291.916 233.586 C 315.822 249.840,346.799 228.392,339.825 200.416 C 337.115 189.545,330.835 182.443,320.488 178.545 L 315.895 176.814 310.445 176.719 C 307.448 176.667,304.587 176.708,304.087 176.812 M319.536 180.326 C 342.154 187.671,345.769 221.406,325.159 232.802 C 320.961 235.124,320.604 235.264,316.541 236.175 C 304.357 238.910,293.197 234.749,285.284 224.523 C 279.001 216.404,279.002 199.852,285.286 191.523 C 290.909 184.070,295.018 181.404,304.632 178.971 C 307.308 178.294,315.600 179.048,319.536 180.326 M304.742 182.017 C 290.620 184.563,280.971 198.590,283.742 212.545 C 285.398 220.883,288.783 225.720,296.646 230.983 C 303.999 235.905,315.848 235.621,323.706 230.334 C 341.899 218.092,340.247 193.838,320.516 183.503 C 317.336 181.837,309.717 181.120,304.742 182.017 M317.233 184.304 C 322.518 185.959,328.956 191.653,331.827 197.210 C 342.613 218.095,318.718 241.219,298.304 229.651 C 279.700 219.109,281.279 192.957,301.017 184.710 C 304.111 183.418,313.638 183.179,317.233 184.304 M297.911 255.248 C 290.342 256.718,288.266 257.437,285.375 259.594 C 281.784 262.274,281.480 263.233,282.810 267.678 C 286.511 280.042,280.368 294.546,268.265 302.022 C 263.479 304.978,262.584 305.242,255.143 305.884 C 246.679 306.616,243.218 312.490,249.184 315.998 L 250.863 316.985 309.114 317.081 C 372.200 317.185,369.523 317.269,371.541 315.129 C 373.525 313.025,373.505 306.328,371.498 300.861 C 371.012 299.538,370.040 296.867,369.337 294.924 C 367.651 290.262,363.758 282.957,361.633 280.467 C 353.753 271.234,348.216 266.201,342.332 262.921 C 339.933 261.584,337.843 260.490,337.688 260.490 C 337.532 260.490,335.342 259.604,332.822 258.520 C 329.843 257.240,327.096 256.341,324.973 255.952 C 323.177 255.623,320.129 255.038,318.199 254.652 C 312.511 253.515,305.821 253.712,297.911 255.248 M316.363 256.512 C 326.201 257.573,332.744 259.757,342.301 265.168 C 349.412 269.194,360.854 280.901,363.517 286.875 C 363.973 287.899,364.838 289.536,365.440 290.514 C 368.210 295.015,372.070 309.302,371.285 312.145 C 370.475 315.079,376.789 314.805,310.073 314.805 L 250.740 314.805 249.802 313.924 C 247.490 311.752,249.281 308.678,253.224 308.049 C 264.383 306.270,265.447 305.946,270.118 302.906 C 281.870 295.255,288.180 279.695,284.668 267.030 C 283.910 264.298,283.960 263.625,285.014 262.373 C 288.718 257.971,303.785 255.154,316.363 256.512 " stroke="none" fill="#747474" fill-rule="evenodd"></path><path id="path2" d="M296.458 20.585 C 275.788 23.800,263.607 46.313,272.409 65.032 C 276.822 74.417,283.434 80.222,292.336 82.528 C 324.769 90.929,347.134 53.659,323.939 29.863 C 316.820 22.559,306.396 19.040,296.458 20.585 M308.653 21.578 C 325.787 26.124,336.127 43.227,331.722 59.733 C 327.088 77.096,311.530 86.336,293.734 82.294 C 284.587 80.216,277.109 74.126,273.207 65.577 C 268.865 56.064,268.676 49.274,272.504 40.360 C 277.979 27.612,289.442 20.313,303.021 20.928 C 305.133 21.024,307.667 21.316,308.653 21.578 M298.819 27.834 C 293.322 28.632,291.436 29.334,287.487 32.051 C 280.119 37.121,277.387 42.627,277.430 52.316 C 277.467 60.681,279.169 64.824,284.768 70.169 C 299.184 83.935,323.113 75.139,325.908 55.047 C 327.986 40.103,313.633 25.684,298.819 27.834 M307.268 28.914 C 310.427 29.566,311.236 29.934,314.819 32.347 C 321.665 36.958,325.840 45.202,325.448 53.333 C 324.786 67.041,310.797 78.738,297.974 76.306 C 276.182 72.173,270.027 44.487,288.187 32.277 C 293.801 28.502,299.993 27.411,307.268 28.914 M74.114 93.366 C 64.833 95.128,55.836 102.869,52.431 112.026 C 50.343 117.639,50.094 118.521,49.752 121.530 C 48.152 135.610,58.407 150.645,72.612 155.043 C 75.631 155.977,87.547 155.960,90.602 155.017 C 98.549 152.563,107.564 144.959,110.416 138.305 C 112.855 132.615,113.497 129.731,113.501 124.432 L 113.506 119.346 111.792 114.260 C 106.424 98.331,91.515 90.064,74.114 93.366 M89.442 93.949 C 92.705 94.568,93.232 94.792,97.631 97.430 C 115.849 108.352,118.336 133.756,102.544 147.612 C 83.534 164.291,54.871 153.682,50.456 128.333 C 47.963 114.016,60.010 96.322,73.869 93.945 C 79.951 92.902,83.929 92.903,89.442 93.949 M295.368 93.263 C 289.588 93.617,284.711 94.508,281.098 95.870 C 279.055 96.640,276.485 97.557,275.386 97.908 C 269.755 99.704,256.399 108.615,251.589 113.783 C 247.826 117.829,241.309 126.083,240.095 128.344 C 239.905 128.697,238.866 129.484,237.786 130.094 C 225.173 137.212,219.866 146.180,219.636 160.763 C 219.514 168.547,219.238 169.067,213.806 171.738 C 212.207 172.524,210.082 173.605,209.083 174.139 C 208.084 174.674,204.242 176.603,200.545 178.425 C 196.848 180.248,192.189 182.599,190.191 183.650 C 165.923 196.414,166.081 196.354,162.986 194.035 C 152.021 185.823,146.093 183.657,135.835 184.115 C 131.579 184.305,128.917 183.723,127.654 182.326 C 126.391 180.929,120.397 176.649,118.048 175.466 C 116.764 174.820,115.049 173.835,114.238 173.279 C 113.427 172.722,111.383 171.699,109.697 171.005 C 108.010 170.311,105.568 169.290,104.269 168.737 C 93.522 164.162,67.463 164.389,58.087 169.140 C 57.136 169.622,55.245 170.434,53.883 170.945 C 52.522 171.457,50.345 172.501,49.046 173.267 C 47.748 174.033,45.867 175.078,44.868 175.588 C 36.987 179.616,24.209 193.101,20.187 201.635 C 19.763 202.534,18.824 204.332,18.100 205.631 C 17.376 206.930,16.359 209.406,15.840 211.133 C 14.849 214.429,13.864 215.826,11.736 216.950 C 8.097 218.872,6.336 234.242,9.433 237.046 C 10.962 238.429,11.786 238.454,62.140 238.666 L 111.382 238.874 113.467 240.138 C 114.614 240.833,116.324 242.072,117.267 242.891 C 123.644 248.428,130.186 250.788,139.146 250.783 C 148.328 250.778,154.197 248.446,162.212 241.617 C 163.608 240.427,165.126 239.360,165.584 239.245 C 166.591 238.992,172.901 241.455,175.893 243.268 C 177.021 243.952,178.884 244.927,180.032 245.435 C 181.181 245.943,182.815 246.836,183.662 247.419 C 184.510 248.002,186.080 248.823,187.152 249.242 C 188.224 249.662,190.163 250.606,191.462 251.340 C 192.761 252.074,194.878 253.132,196.167 253.691 C 197.455 254.251,198.723 254.885,198.983 255.101 C 199.447 255.486,203.805 257.755,212.203 261.983 C 214.519 263.149,217.135 264.744,218.016 265.527 L 219.619 266.951 219.501 272.713 C 219.210 286.901,223.494 295.815,233.977 302.839 C 235.967 304.172,238.144 305.870,238.814 306.612 L 240.033 307.962 240.232 315.389 C 240.450 323.529,240.758 324.955,242.551 326.130 C 244.100 327.145,375.154 327.169,377.010 326.154 C 380.375 324.315,380.813 310.694,377.787 301.953 C 377.398 300.829,376.667 298.438,376.163 296.639 C 375.658 294.841,374.634 292.225,373.887 290.827 C 373.139 289.428,372.217 287.548,371.838 286.649 C 370.269 282.928,363.865 274.003,359.754 269.805 C 353.165 263.079,340.527 254.862,333.919 253.007 C 332.798 252.692,330.163 251.893,328.065 251.232 C 317.868 248.020,301.579 248.045,291.190 251.289 C 281.103 254.438,279.912 254.439,276.224 251.302 C 271.637 247.400,268.167 245.325,263.209 243.518 L 258.492 241.799 252.679 241.795 C 246.385 241.791,247.288 241.603,239.630 244.513 C 237.538 245.308,231.707 249.031,229.347 251.079 C 226.969 253.142,224.293 253.100,220.536 250.940 C 219.432 250.306,217.336 249.266,215.878 248.630 C 214.420 247.993,213.002 247.286,212.728 247.058 C 212.453 246.830,210.458 245.734,208.294 244.621 C 206.130 243.509,202.561 241.665,200.363 240.524 C 193.304 236.860,185.120 232.721,183.270 231.880 C 172.838 227.139,172.471 226.673,172.133 217.746 C 171.780 208.421,171.880 208.235,179.182 204.548 C 182.962 202.640,189.583 199.213,193.097 197.347 C 193.896 196.922,195.531 196.100,196.730 195.519 C 197.929 194.939,199.564 194.117,200.363 193.693 C 201.163 193.269,203.043 192.344,204.541 191.637 C 206.040 190.931,209.064 189.381,211.262 188.194 C 224.636 180.971,225.211 180.869,229.847 184.901 C 231.455 186.300,233.817 188.045,235.096 188.781 C 236.374 189.516,238.074 190.490,238.874 190.946 C 244.206 193.988,260.541 193.876,266.122 190.759 C 267.121 190.201,268.852 189.234,269.968 188.610 C 274.980 185.809,279.765 180.339,282.788 173.955 C 284.760 169.789,286.004 168.206,287.853 167.507 C 288.552 167.243,300.835 167.121,326.618 167.121 C 367.191 167.121,367.175 167.122,369.307 165.250 C 371.551 163.280,371.996 156.449,370.287 150.227 C 369.903 148.828,368.989 145.426,368.256 142.666 C 367.524 139.906,366.302 136.391,365.541 134.855 C 364.780 133.319,363.935 131.490,363.664 130.790 C 361.067 124.092,349.143 110.589,341.689 105.904 C 340.490 105.151,339.183 104.244,338.783 103.890 C 337.309 102.585,329.629 98.686,326.266 97.535 C 324.358 96.883,321.735 95.943,320.436 95.447 C 315.624 93.610,304.927 92.678,295.368 93.263 M315.350 94.577 C 316.848 94.869,319.301 95.592,320.799 96.185 C 322.298 96.778,324.750 97.629,326.249 98.078 C 333.170 100.148,345.602 108.502,351.545 115.076 C 357.825 122.025,361.247 126.736,363.223 131.153 C 363.714 132.252,364.744 134.541,365.511 136.240 C 366.278 137.938,367.247 140.799,367.665 142.598 C 368.082 144.396,368.752 146.930,369.154 148.229 C 370.952 154.041,371.379 160.643,370.118 163.130 C 368.426 166.469,372.095 166.188,327.520 166.394 C 291.270 166.562,288.196 166.624,287.139 167.202 C 285.290 168.214,283.566 170.551,282.152 173.963 C 277.929 184.152,267.930 191.387,256.402 192.594 C 245.789 193.705,237.986 191.285,230.205 184.470 C 225.273 180.148,225.230 180.156,210.899 187.769 C 204.084 191.389,203.435 191.722,197.275 194.760 C 193.978 196.386,189.319 198.755,186.921 200.025 C 184.523 201.295,180.884 203.151,178.834 204.148 C 171.409 207.762,171.383 207.812,171.705 217.509 C 172.013 226.761,171.937 226.606,177.519 229.484 C 184.699 233.187,192.893 237.239,193.202 237.239 C 193.382 237.239,194.559 237.905,195.818 238.718 C 197.077 239.532,198.899 240.510,199.868 240.892 C 200.837 241.274,202.898 242.300,204.448 243.172 C 207.658 244.978,209.254 245.808,217.620 250.023 C 225.239 253.861,226.464 253.998,229.835 251.390 C 245.862 238.990,260.812 238.935,275.234 251.224 C 279.924 255.221,278.720 255.243,295.005 250.857 C 302.478 248.845,316.833 248.820,324.267 250.806 C 334.053 253.422,335.710 253.990,339.895 256.163 C 355.238 264.132,365.173 274.258,372.658 289.555 C 374.075 292.452,375.351 295.395,375.492 296.094 C 375.633 296.794,376.319 299.246,377.017 301.544 C 380.347 312.520,380.076 323.961,376.442 325.769 C 375.073 326.451,253.229 327.058,246.031 326.419 C 240.936 325.967,240.824 325.603,240.523 308.539 C 240.501 307.306,238.220 305.025,234.733 302.750 C 224.354 295.978,220.076 287.530,220.013 273.681 L 219.982 266.708 218.710 265.386 C 217.956 264.603,215.590 263.131,212.897 261.770 C 210.400 260.508,206.639 258.577,204.541 257.478 C 200.756 255.495,185.606 247.753,180.765 245.326 C 179.377 244.630,177.590 243.650,176.793 243.147 C 174.396 241.634,167.414 238.692,166.219 238.692 C 164.913 238.692,164.138 239.173,160.945 241.961 C 154.210 247.842,147.750 250.312,139.092 250.316 C 135.284 250.318,128.078 249.048,126.067 248.020 C 123.340 246.626,119.433 244.108,117.851 242.725 C 117.028 242.005,115.404 240.763,114.241 239.964 L 112.127 238.510 63.965 238.272 C 15.502 238.032,11.828 237.931,10.095 236.795 C 6.506 234.444,8.346 220.116,12.542 217.740 C 14.266 216.763,15.331 215.044,16.169 211.882 C 16.855 209.293,17.052 208.843,19.852 203.451 C 25.887 191.832,36.878 180.131,46.126 175.479 C 47.418 174.830,49.114 173.894,49.896 173.401 C 50.678 172.907,52.374 172.106,53.666 171.620 C 54.957 171.134,56.685 170.393,57.508 169.974 C 67.168 165.045,92.761 164.567,103.574 169.114 C 104.855 169.652,107.075 170.547,108.507 171.102 C 109.939 171.657,111.901 172.566,112.867 173.122 C 113.833 173.677,115.872 174.819,117.399 175.657 C 118.926 176.496,121.752 178.393,123.680 179.872 C 129.065 184.003,129.249 184.118,131.076 184.498 C 132.018 184.695,134.682 184.767,136.996 184.659 C 144.820 184.295,151.544 186.442,158.623 191.565 C 165.475 196.522,165.823 196.607,170.258 194.400 C 171.829 193.618,174.505 192.311,176.203 191.496 C 177.902 190.681,181.172 189.015,183.470 187.793 C 185.767 186.571,189.282 184.719,191.281 183.676 C 193.279 182.634,195.731 181.345,196.730 180.813 C 197.729 180.281,201.408 178.444,204.905 176.732 C 221.119 168.794,220.156 169.788,220.176 160.958 C 220.208 146.702,225.101 138.278,237.709 130.772 C 239.457 129.731,240.378 128.748,243.133 124.977 C 250.668 114.667,254.459 110.953,263.579 104.948 C 272.270 99.225,282.862 94.990,290.645 94.127 C 295.194 93.623,312.018 93.929,315.350 94.577 M77.566 100.055 C 63.020 103.388,54.790 115.586,57.435 129.895 C 57.904 132.427,58.625 133.944,61.253 137.923 C 72.463 154.895,97.895 151.352,105.327 131.783 C 111.344 115.941,94.125 96.262,77.566 100.055 M89.011 101.672 C 103.134 106.255,109.981 122.474,103.099 135.043 C 95.207 149.457,76.802 152.724,65.315 141.750 C 56.721 133.539,54.920 122.284,60.654 112.614 C 66.694 102.426,77.951 98.083,89.011 101.672 M297.003 100.489 C 285.477 102.168,282.736 102.756,280.021 104.132 C 279.045 104.626,277.023 105.502,275.528 106.078 C 270.146 108.150,264.739 111.828,257.986 118.010 C 251.684 123.780,251.578 126.075,257.554 127.332 C 259.864 127.818,266.004 130.048,268.285 131.229 C 276.010 135.229,282.841 144.508,285.059 154.011 C 285.802 157.198,286.480 158.368,287.933 158.975 C 289.516 159.637,359.167 159.757,361.048 159.101 C 364.405 157.931,364.170 153.004,360.227 141.871 C 359.306 139.273,358.008 136.249,357.341 135.150 C 356.674 134.051,355.759 132.416,355.308 131.517 C 350.378 121.698,337.247 109.739,327.417 106.114 C 325.799 105.518,323.690 104.636,322.728 104.154 C 318.096 101.832,302.771 99.649,297.003 100.489 M311.717 101.926 C 316.812 102.667,318.687 103.105,321.163 104.134 C 322.861 104.840,325.567 105.935,327.176 106.569 C 334.952 109.630,346.376 118.718,350.544 125.159 C 351.061 125.958,352.083 127.430,352.814 128.429 C 353.546 129.428,354.673 131.308,355.320 132.607 C 355.966 133.906,356.814 135.419,357.203 135.970 C 357.592 136.521,358.724 139.300,359.719 142.146 C 363.846 153.948,364.010 157.793,360.429 158.757 C 359.471 159.015,347.565 159.107,323.764 159.043 C 282.359 158.930,287.031 159.567,285.519 153.826 C 281.787 139.659,271.804 129.748,258.508 127.011 C 251.450 125.557,252.213 123.295,262.716 114.548 C 266.661 111.262,271.662 108.206,276.113 106.360 C 284.128 103.036,284.653 102.873,289.737 102.127 C 296.829 101.087,296.542 101.114,301.181 101.055 C 304.001 101.019,307.424 101.302,311.717 101.926 M74.841 172.607 C 73.542 172.777,71.253 173.249,69.755 173.657 C 68.256 174.065,65.313 174.812,63.215 175.318 C 50.711 178.333,34.695 190.739,28.470 202.233 C 27.728 203.603,26.825 205.154,26.462 205.682 C 26.099 206.209,25.053 208.580,24.137 210.950 C 19.537 222.849,18.868 228.948,21.916 231.210 L 22.942 231.971 63.696 231.971 C 112.436 231.971,108.159 232.615,107.006 225.451 C 104.855 212.081,109.160 199.114,117.955 192.473 C 121.170 190.046,121.706 187.488,119.441 185.384 C 115.677 181.888,106.058 176.762,101.181 175.653 C 99.782 175.335,96.921 174.597,94.823 174.013 C 88.642 172.292,81.241 171.772,74.841 172.607 M96.639 175.029 C 101.343 176.234,104.823 177.361,106.994 178.382 C 108.792 179.228,110.644 180.065,111.108 180.243 C 112.500 180.775,118.671 185.215,119.249 186.100 C 120.764 188.417,120.356 189.954,117.689 191.989 C 108.804 198.765,104.523 211.348,106.411 225.141 C 106.928 228.913,106.632 230.128,104.995 230.956 C 103.710 231.606,24.121 231.641,22.696 230.992 C 19.887 229.712,20.061 222.471,23.071 215.438 C 23.754 213.842,24.496 211.841,24.719 210.991 C 24.943 210.141,25.789 208.220,26.600 206.721 C 27.410 205.223,28.462 203.260,28.937 202.361 C 35.213 190.477,50.658 179.108,65.758 175.257 C 74.602 173.002,74.911 172.963,82.652 173.096 L 89.555 173.214 96.639 175.029 M305.540 176.080 C 284.211 179.398,271.930 201.575,280.657 221.013 C 284.991 230.668,292.554 236.415,304.914 239.447 C 316.371 242.258,332.352 233.988,338.317 222.162 C 349.465 200.060,329.733 172.318,305.540 176.080 M320.488 178.545 C 332.392 183.029,339.468 192.591,340.960 206.210 C 341.473 210.895,339.201 219.836,336.352 224.342 C 326.721 239.573,306.813 243.714,291.916 233.586 C 271.032 219.387,275.054 187.350,298.819 178.604 C 304.403 176.550,304.048 176.607,310.445 176.719 L 315.895 176.814 320.488 178.545 M304.171 183.849 C 301.554 184.318,300.278 184.899,296.738 187.230 C 280.554 197.888,281.372 220.056,298.304 229.651 C 318.718 241.219,342.613 218.095,331.827 197.210 C 326.552 186.998,315.743 181.775,304.171 183.849 M316.640 184.723 C 324.842 187.173,332.849 196.588,333.878 204.990 C 336.171 223.706,315.611 238.219,299.184 229.480 C 286.209 222.578,281.699 206.945,289.357 195.413 C 295.657 185.925,306.475 181.686,316.640 184.723 M301.181 256.705 C 295.119 257.425,292.297 258.140,288.919 259.811 C 284.246 262.123,283.608 263.206,284.668 267.030 C 288.180 279.695,281.870 295.255,270.118 302.906 C 265.447 305.946,264.383 306.270,253.224 308.049 C 249.281 308.678,247.490 311.752,249.802 313.924 L 250.740 314.805 310.073 314.805 C 376.789 314.805,370.475 315.079,371.285 312.145 C 372.070 309.302,368.210 295.015,365.440 290.514 C 364.838 289.536,363.973 287.899,363.517 286.875 C 360.854 280.901,349.412 269.194,342.301 265.168 C 328.574 257.396,316.420 254.895,301.181 256.705 M322.162 257.735 C 324.010 258.053,326.381 258.657,327.430 259.077 C 328.479 259.496,331.013 260.465,333.062 261.229 C 335.111 261.994,337.727 263.184,338.875 263.875 C 340.023 264.565,341.698 265.498,342.598 265.947 C 354.979 272.137,369.836 294.892,370.838 309.199 C 371.258 315.206,377.762 314.627,310.184 314.603 C 248.600 314.581,250.475 314.638,249.819 312.767 C 248.949 310.284,250.415 309.038,254.935 308.420 C 262.446 307.391,265.828 306.308,269.987 303.597 C 282.384 295.516,287.861 282.649,285.324 267.563 C 284.561 263.023,284.754 262.631,288.761 260.552 C 295.484 257.064,310.782 255.774,322.162 257.735 " stroke="none" fill="#8c8c8c" fill-rule="evenodd"></path><path id="path3" d="M295.913 19.119 C 285.932 20.176,276.389 27.479,271.019 38.171 C 267.136 45.902,266.846 59.151,270.433 65.021 C 271.108 66.126,271.981 67.766,272.373 68.665 C 274.711 74.033,283.111 81.560,288.430 83.054 C 289.548 83.368,292.016 84.120,293.915 84.725 C 298.541 86.199,302.883 86.446,306.449 85.436 C 315.142 82.976,316.971 82.265,319.891 80.207 C 324.799 76.747,330.465 70.148,331.912 66.203 C 332.258 65.259,333.114 63.015,333.814 61.217 C 336.518 54.270,335.976 48.394,331.606 37.255 C 329.014 30.647,317.670 21.283,310.263 19.636 C 308.237 19.185,298.574 18.837,295.913 19.119 M307.720 20.860 C 324.074 23.795,336.599 42.315,332.804 57.947 C 328.037 77.583,311.656 87.533,292.336 82.528 C 283.434 80.222,276.822 74.417,272.409 65.032 C 263.607 46.313,275.788 23.800,296.458 20.585 C 298.618 20.249,305.216 20.410,307.720 20.860 M295.731 28.884 C 280.139 32.039,272.397 51.566,281.308 65.260 C 292.311 82.168,315.638 79.545,323.734 60.490 C 328.517 49.233,323.141 36.223,311.158 30.057 C 308.108 28.487,300.536 27.912,295.731 28.884 M308.154 30.648 C 314.689 32.614,319.715 37.803,322.285 45.236 C 328.041 61.885,312.217 78.955,295.879 73.722 C 288.424 71.334,285.451 69.070,282.126 63.248 C 275.249 51.207,280.253 37.030,293.448 31.174 C 296.607 29.773,304.327 29.496,308.154 30.648 M79.019 90.699 C 76.361 91.118,68.430 93.109,67.496 93.592 C 58.449 98.270,52.814 105.200,48.769 116.621 C 47.818 119.309,47.923 129.973,48.928 132.607 C 52.958 143.175,57.099 148.839,63.397 152.398 C 64.396 152.963,65.949 153.875,66.848 154.426 C 71.860 157.493,81.991 158.311,91.291 156.399 C 98.776 154.861,108.846 146.136,112.128 138.347 C 114.639 132.389,114.834 131.743,115.236 128.062 C 116.738 114.304,108.857 100.337,95.847 93.700 C 92.700 92.094,82.128 90.209,79.019 90.699 M295.701 91.695 C 295.618 91.773,293.506 92.025,291.008 92.255 C 284.405 92.864,282.442 93.273,279.250 94.708 C 277.678 95.414,275.300 96.349,273.966 96.786 C 263.945 100.069,250.886 110.702,242.023 122.797 C 238.370 127.782,237.806 128.384,235.746 129.496 C 224.136 135.760,217.816 146.887,217.989 160.763 C 218.012 162.561,218.020 164.558,218.007 165.201 C 217.972 166.978,216.157 168.757,212.562 170.540 C 210.848 171.389,208.465 172.591,207.266 173.210 C 203.228 175.295,195.280 179.113,194.979 179.111 C 194.815 179.111,193.997 179.581,193.161 180.156 C 192.325 180.731,190.170 181.930,188.373 182.820 C 186.575 183.710,183.388 185.340,181.290 186.443 C 179.192 187.546,176.658 188.876,175.658 189.398 C 167.284 193.772,165.776 194.094,163.108 192.080 C 158.375 188.507,156.647 187.316,155.495 186.836 C 154.796 186.544,152.916 185.674,151.317 184.902 C 147.256 182.942,145.701 182.667,138.056 182.564 C 130.731 182.465,129.881 182.286,127.884 180.424 C 125.547 178.245,121.811 175.540,119.587 174.417 C 118.376 173.806,116.371 172.650,115.131 171.848 C 113.890 171.046,112.726 170.391,112.542 170.391 C 112.359 170.391,110.463 169.579,108.330 168.588 C 105.316 167.188,103.275 166.541,99.183 165.689 C 96.285 165.086,92.770 164.311,91.371 163.967 C 87.224 162.946,75.344 163.059,71.026 164.161 C 69.228 164.619,65.713 165.392,63.215 165.878 C 59.748 166.552,57.901 167.139,55.404 168.360 C 53.606 169.239,51.072 170.464,49.773 171.081 C 39.741 175.847,28.525 185.371,23.416 193.460 C 23.038 194.060,22.116 195.375,21.367 196.383 C 20.619 197.392,19.651 199.027,19.215 200.017 C 18.780 201.007,17.878 202.674,17.211 203.721 C 16.544 204.769,15.581 206.915,15.071 208.490 C 14.075 211.565,13.485 212.309,11.138 213.442 C 8.277 214.824,7.506 216.943,6.846 225.246 C 6.091 234.736,6.910 238.235,10.173 239.467 C 13.538 240.737,18.802 240.872,65.230 240.875 L 110.627 240.879 112.443 241.735 C 113.442 242.206,115.077 243.246,116.076 244.046 C 122.038 248.820,123.983 249.806,130.926 251.576 C 136.672 253.041,140.762 253.257,144.429 252.290 C 145.620 251.975,148.146 251.311,150.044 250.814 C 153.769 249.839,158.138 247.273,162.641 243.418 C 163.806 242.420,165.255 241.510,165.860 241.394 C 167.090 241.160,172.228 242.865,173.931 244.073 C 174.481 244.464,176.455 245.535,178.316 246.453 C 180.178 247.371,182.140 248.434,182.676 248.815 C 183.212 249.196,184.714 249.952,186.013 250.494 C 187.312 251.037,189.273 252.023,190.372 252.686 C 191.471 253.349,193.269 254.245,194.368 254.678 C 195.466 255.111,196.580 255.643,196.844 255.862 C 197.107 256.080,199.314 257.270,201.749 258.507 C 218.779 267.157,218.725 267.115,217.991 270.987 C 215.737 282.873,222.198 297.087,233.147 304.327 C 234.792 305.416,236.733 306.867,237.459 307.552 L 238.780 308.797 238.539 312.891 C 238.254 317.738,238.990 324.632,239.950 326.097 C 241.459 328.400,236.490 328.247,309.718 328.247 L 376.203 328.247 377.903 327.461 C 380.563 326.232,380.794 325.494,381.020 317.524 C 381.262 308.990,380.783 304.796,379.031 300.100 C 378.325 298.207,377.450 295.591,377.088 294.287 C 376.400 291.809,371.744 282.286,370.603 281.021 C 370.240 280.619,369.330 279.317,368.580 278.127 C 364.397 271.490,357.485 264.495,350.954 260.286 C 350.054 259.707,348.501 258.631,347.502 257.895 C 346.503 257.158,344.782 256.159,343.678 255.673 C 342.574 255.187,340.972 254.349,340.119 253.810 C 338.582 252.840,331.261 250.171,326.520 248.853 C 317.858 246.444,296.570 247.096,289.338 249.992 C 283.113 252.484,280.353 252.573,277.799 250.362 C 265.264 239.514,251.851 236.994,238.904 243.054 C 235.176 244.800,232.391 246.553,228.396 249.672 C 225.862 251.650,224.639 251.348,215.259 246.425 C 213.169 245.329,208.926 243.117,202.180 239.609 C 199.582 238.258,194.678 235.771,191.281 234.082 C 187.884 232.394,184.369 230.605,183.470 230.106 C 182.570 229.608,180.527 228.568,178.928 227.795 C 177.330 227.022,175.537 225.882,174.944 225.263 L 173.867 224.138 173.579 217.778 C 173.201 209.407,173.439 208.988,180.356 205.836 C 181.879 205.142,184.062 204.003,185.205 203.306 C 186.349 202.609,188.020 201.757,188.919 201.413 C 189.818 201.069,191.399 200.236,192.431 199.561 C 193.463 198.887,195.320 197.938,196.557 197.454 C 197.794 196.969,199.565 196.123,200.493 195.573 C 201.421 195.023,203.345 194.063,204.769 193.439 C 206.193 192.814,207.979 191.910,208.738 191.429 C 210.071 190.583,213.802 188.625,219.409 185.825 C 221.194 184.935,222.803 184.416,224.165 184.292 L 226.223 184.106 228.552 186.080 C 238.367 194.400,248.161 196.772,261.127 193.969 C 270.985 191.838,279.000 185.284,284.056 175.223 C 286.377 170.603,287.298 169.480,289.222 168.929 C 289.991 168.708,304.829 168.574,328.451 168.574 C 370.341 168.574,369.177 168.634,371.076 166.377 C 373.582 163.399,373.421 152.895,370.750 145.148 C 370.060 143.146,369.165 140.212,368.761 138.628 C 368.357 137.044,367.548 134.902,366.965 133.868 C 366.381 132.834,365.482 130.987,364.968 129.764 C 361.876 122.418,350.847 109.804,343.153 104.814 C 334.029 98.896,332.054 97.801,328.111 96.473 C 326.188 95.825,323.959 94.960,323.159 94.552 C 319.601 92.736,297.090 90.394,295.701 91.695 M88.310 93.228 C 98.936 95.042,108.073 103.226,111.792 114.260 L 113.506 119.346 113.501 124.432 C 113.491 136.513,107.466 146.400,96.507 152.321 C 90.736 155.439,89.678 155.677,81.562 155.677 C 72.362 155.677,67.196 153.855,60.456 148.234 C 52.163 141.319,47.458 126.343,50.639 116.985 C 54.251 106.356,57.603 101.810,65.577 96.725 C 71.420 92.999,79.600 91.741,88.310 93.228 M308.303 93.370 C 314.620 93.860,317.625 94.374,320.436 95.447 C 321.735 95.943,324.358 96.883,326.266 97.535 C 329.629 98.686,337.309 102.585,338.783 103.890 C 339.183 104.244,340.490 105.151,341.689 105.904 C 349.143 110.589,361.067 124.092,363.664 130.790 C 363.935 131.490,364.780 133.319,365.541 134.855 C 366.302 136.391,367.524 139.906,368.256 142.666 C 368.989 145.426,369.903 148.828,370.287 150.227 C 371.996 156.449,371.551 163.280,369.307 165.250 C 367.175 167.122,367.191 167.121,326.618 167.121 C 300.835 167.121,288.552 167.243,287.853 167.507 C 286.004 168.206,284.760 169.789,282.788 173.955 C 279.765 180.339,274.980 185.809,269.968 188.610 C 268.852 189.234,267.121 190.201,266.122 190.759 C 260.541 193.876,244.206 193.988,238.874 190.946 C 238.074 190.490,236.374 189.516,235.096 188.781 C 233.817 188.045,231.455 186.300,229.847 184.901 C 225.211 180.869,224.636 180.971,211.262 188.194 C 209.064 189.381,206.040 190.931,204.541 191.637 C 203.043 192.344,201.163 193.269,200.363 193.693 C 199.564 194.117,197.929 194.939,196.730 195.519 C 195.531 196.100,193.896 196.922,193.097 197.347 C 189.583 199.213,182.962 202.640,179.182 204.548 C 171.880 208.235,171.780 208.421,172.133 217.746 C 172.471 226.673,172.838 227.139,183.270 231.880 C 185.120 232.721,193.304 236.860,200.363 240.524 C 202.561 241.665,206.130 243.509,208.294 244.621 C 210.458 245.734,212.453 246.830,212.728 247.058 C 213.002 247.286,214.420 247.993,215.878 248.630 C 217.336 249.266,219.432 250.306,220.536 250.940 C 224.293 253.100,226.969 253.142,229.347 251.079 C 231.707 249.031,237.538 245.308,239.630 244.513 C 247.288 241.603,246.385 241.791,252.679 241.795 L 258.492 241.799 263.209 243.518 C 268.167 245.325,271.637 247.400,276.224 251.302 C 279.912 254.439,281.103 254.438,291.190 251.289 C 301.579 248.045,317.868 248.020,328.065 251.232 C 330.163 251.893,332.798 252.692,333.919 253.007 C 340.527 254.862,353.165 263.079,359.754 269.805 C 363.865 274.003,370.269 282.928,371.838 286.649 C 372.217 287.548,373.139 289.428,373.887 290.827 C 374.634 292.225,375.658 294.841,376.163 296.639 C 376.667 298.438,377.398 300.829,377.787 301.953 C 380.813 310.694,380.375 324.315,377.010 326.154 C 375.154 327.169,244.100 327.145,242.551 326.130 C 240.758 324.955,240.450 323.529,240.232 315.389 L 240.033 307.962 238.814 306.612 C 238.144 305.870,235.967 304.172,233.977 302.839 C 223.494 295.815,219.210 286.901,219.501 272.713 L 219.619 266.951 218.016 265.527 C 217.135 264.744,214.519 263.149,212.203 261.983 C 203.805 257.755,199.447 255.486,198.983 255.101 C 198.723 254.885,197.455 254.251,196.167 253.691 C 194.878 253.132,192.761 252.074,191.462 251.340 C 190.163 250.606,188.224 249.662,187.152 249.242 C 186.080 248.823,184.510 248.002,183.662 247.419 C 182.815 246.836,181.181 245.943,180.032 245.435 C 178.884 244.927,177.021 243.952,175.893 243.268 C 172.901 241.455,166.591 238.992,165.584 239.245 C 165.126 239.360,163.608 240.427,162.212 241.617 C 154.197 248.446,148.328 250.778,139.146 250.783 C 130.186 250.788,123.644 248.428,117.267 242.891 C 116.324 242.072,114.614 240.833,113.467 240.138 L 111.382 238.874 62.140 238.666 C 11.786 238.454,10.962 238.429,9.433 237.046 C 6.336 234.242,8.097 218.872,11.736 216.950 C 13.864 215.826,14.849 214.429,15.840 211.133 C 16.359 209.406,17.376 206.930,18.100 205.631 C 18.824 204.332,19.763 202.534,20.187 201.635 C 24.209 193.101,36.987 179.616,44.868 175.588 C 45.867 175.078,47.748 174.033,49.046 173.267 C 50.345 172.501,52.522 171.457,53.883 170.945 C 55.245 170.434,57.136 169.622,58.087 169.140 C 67.463 164.389,93.522 164.162,104.269 168.737 C 105.568 169.290,108.010 170.311,109.697 171.005 C 111.383 171.699,113.427 172.722,114.238 173.279 C 115.049 173.835,116.764 174.820,118.048 175.466 C 120.397 176.649,126.391 180.929,127.654 182.326 C 128.917 183.723,131.579 184.305,135.835 184.115 C 146.093 183.657,152.021 185.823,162.986 194.035 C 166.081 196.354,165.923 196.414,190.191 183.650 C 192.189 182.599,196.848 180.248,200.545 178.425 C 204.242 176.603,208.084 174.674,209.083 174.139 C 210.082 173.605,212.207 172.524,213.806 171.738 C 219.238 169.067,219.514 168.547,219.636 160.763 C 219.866 146.180,225.173 137.212,237.786 130.094 C 238.866 129.484,239.905 128.697,240.095 128.344 C 241.309 126.083,247.826 117.829,251.589 113.783 C 256.399 108.615,269.755 99.704,275.386 97.908 C 276.485 97.557,279.055 96.640,281.098 95.870 C 287.354 93.511,297.777 92.553,308.303 93.370 M76.476 100.968 C 64.385 104.304,57.559 112.790,57.603 124.432 C 57.653 137.882,67.630 147.845,81.199 147.998 C 90.963 148.107,98.333 143.747,103.099 135.043 C 112.478 117.914,95.202 95.802,76.476 100.968 M295.913 101.245 C 295.313 101.320,292.534 101.717,289.737 102.127 C 284.653 102.873,284.128 103.036,276.113 106.360 C 271.662 108.206,266.661 111.262,262.716 114.548 C 252.213 123.295,251.450 125.557,258.508 127.011 C 271.804 129.748,281.787 139.659,285.519 153.826 C 287.031 159.567,282.359 158.930,323.764 159.043 C 347.565 159.107,359.471 159.015,360.429 158.757 C 364.010 157.793,363.846 153.948,359.719 142.146 C 358.724 139.300,357.592 136.521,357.203 135.970 C 356.814 135.419,355.966 133.906,355.320 132.607 C 354.673 131.308,353.546 129.428,352.814 128.429 C 352.083 127.430,351.061 125.958,350.544 125.159 C 346.376 118.718,334.952 109.630,327.176 106.569 C 325.567 105.935,322.861 104.840,321.163 104.134 C 315.921 101.955,302.498 100.419,295.913 101.245 M88.083 103.218 C 97.414 105.189,105.640 117.123,104.280 126.714 C 103.490 132.285,99.588 138.554,94.283 142.775 C 88.106 147.690,75.552 147.734,69.102 142.862 C 56.580 133.404,55.390 118.897,66.277 108.435 C 69.934 104.921,71.912 103.795,75.749 103.045 C 80.913 102.036,82.602 102.060,88.083 103.218 M310.434 103.365 C 314.938 103.797,316.648 104.117,318.394 104.856 C 319.617 105.373,321.926 106.287,323.524 106.886 C 339.403 112.836,354.180 128.308,358.358 143.355 C 358.852 145.136,359.757 147.984,360.368 149.682 C 361.808 153.683,361.858 155.879,360.532 156.922 C 359.347 157.855,290.659 158.128,288.828 157.207 C 287.874 156.727,287.419 155.561,286.717 151.790 C 284.615 140.501,271.784 127.996,259.781 125.540 C 256.788 124.927,255.932 124.359,256.293 123.222 C 256.806 121.607,266.826 112.929,270.086 111.277 C 271.083 110.772,272.485 109.971,273.201 109.497 C 273.917 109.023,275.887 108.162,277.579 107.583 C 279.270 107.005,281.692 106.034,282.960 105.427 C 287.781 103.118,299.038 102.273,310.434 103.365 M73.933 173.307 C 53.952 176.931,36.371 188.284,28.937 202.361 C 28.462 203.260,27.410 205.223,26.600 206.721 C 25.789 208.220,24.943 210.141,24.719 210.991 C 24.496 211.841,23.754 213.842,23.071 215.438 C 20.061 222.471,19.887 229.712,22.696 230.992 C 24.121 231.641,103.710 231.606,104.995 230.956 C 106.632 230.128,106.928 228.913,106.411 225.141 C 104.523 211.348,108.804 198.765,117.689 191.989 C 120.356 189.954,120.764 188.417,119.249 186.100 C 118.671 185.215,112.500 180.775,111.108 180.243 C 110.644 180.065,108.792 179.228,106.994 178.382 C 104.823 177.361,101.343 176.234,96.639 175.029 L 89.555 173.214 82.652 173.096 C 78.856 173.030,74.932 173.125,73.933 173.307 M302.659 174.799 C 301.574 174.979,298.675 176.055,296.218 177.189 C 272.338 188.211,268.982 219.814,290.075 235.041 C 293.015 237.163,298.914 239.813,303.542 241.089 C 306.356 241.865,313.693 241.762,316.316 240.909 C 330.719 236.228,336.955 230.699,341.188 218.858 C 344.382 209.922,344.387 206.062,341.212 197.190 C 335.270 180.584,320.278 171.877,302.659 174.799 M93.753 176.224 C 99.520 177.326,101.999 177.968,103.580 178.766 C 104.743 179.353,106.934 180.325,108.448 180.927 C 110.915 181.907,116.287 185.279,117.272 186.467 C 118.462 187.900,118.225 188.908,116.250 190.811 C 107.221 199.514,104.398 206.622,104.712 219.863 C 104.888 227.317,104.669 228.876,103.371 229.373 C 101.525 230.082,23.985 229.616,23.261 228.892 C 21.654 227.285,21.842 223.233,23.737 218.636 C 24.420 216.978,25.401 214.233,25.917 212.534 C 26.433 210.836,27.368 208.640,27.994 207.655 C 28.620 206.670,29.499 205.035,29.947 204.022 C 32.724 197.752,46.553 184.512,53.406 181.562 C 54.305 181.175,56.613 180.134,58.535 179.248 C 61.803 177.743,66.389 176.624,75.931 175.003 C 79.804 174.346,86.228 174.786,93.753 176.224 M314.623 176.228 C 344.616 181.084,351.276 222.600,324.251 236.246 C 318.972 238.911,309.273 240.517,304.914 239.447 C 292.554 236.415,284.991 230.668,280.657 221.013 C 270.342 198.038,289.917 172.228,314.623 176.228 M305.323 184.170 C 297.333 185.450,288.222 193.792,286.444 201.453 C 284.856 208.302,286.049 215.707,289.573 220.871 C 298.719 234.273,315.051 235.988,326.714 224.770 C 343.505 208.620,328.653 180.431,305.323 184.170 M314.465 185.763 C 324.117 187.787,332.901 199.202,332.346 209.000 C 331.661 221.098,318.798 232.240,307.357 230.646 C 300.891 229.744,293.792 224.753,289.973 218.422 C 280.534 202.775,296.169 181.927,314.465 185.763 M299.452 257.395 C 294.652 258.042,292.208 258.764,288.761 260.552 C 284.754 262.631,284.561 263.023,285.324 267.563 C 287.861 282.649,282.384 295.516,269.987 303.597 C 265.828 306.308,262.446 307.391,254.935 308.420 C 249.511 309.162,247.313 312.741,251.416 314.148 C 253.451 314.847,367.245 314.808,368.920 314.109 C 374.999 311.569,366.371 288.738,354.524 276.013 C 350.595 271.792,345.226 267.262,342.598 265.947 C 341.698 265.498,340.023 264.565,338.875 263.875 C 337.727 263.184,335.111 261.994,333.062 261.229 C 331.013 260.465,328.479 259.496,327.430 259.077 C 322.731 257.197,307.650 256.291,299.452 257.395 M317.368 258.690 C 320.710 258.961,322.761 259.331,324.596 259.994 C 326.005 260.503,329.013 261.567,331.281 262.359 C 333.549 263.150,336.007 264.178,336.744 264.643 C 337.481 265.108,339.140 266.021,340.431 266.673 C 351.026 272.022,363.002 286.931,366.398 299.001 C 367.045 301.299,368.003 304.361,368.528 305.806 C 369.716 309.077,369.782 311.333,368.717 312.296 C 367.858 313.073,258.909 313.360,254.859 312.595 C 252.778 312.203,252.407 311.353,254.133 310.934 C 264.185 308.488,267.494 307.293,271.185 304.775 C 283.790 296.174,289.022 284.128,287.030 268.296 C 286.455 263.730,286.631 263.465,291.774 261.158 C 297.555 258.564,305.906 257.759,317.368 258.690 " stroke="none" fill="#9c9c9c" fill-rule="evenodd"></path></g></svg>