<svg id="svg" version="1.1" xmlns="http://www.w3.org/2000/svg" xmlns:xlink="http://www.w3.org/1999/xlink" width="400" height="409.0909090909091" viewBox="0, 0, 400,409.0909090909091"><g id="svgg"><path id="path0" d="M42.200 24.565 C 40.440 24.810,38.460 25.299,37.800 25.652 C 36.008 26.612,31.064 27.884,27.006 28.428 C 20.532 29.297,21.387 30.761,28.400 30.813 C 35.480 30.866,40.061 31.856,43.200 34.010 C 43.750 34.388,45.280 34.917,46.600 35.186 C 50.292 35.939,52.388 36.794,53.961 38.186 C 54.753 38.887,56.437 39.778,57.704 40.168 C 59.206 40.630,60.450 41.346,61.279 42.225 C 61.979 42.967,63.192 43.859,63.976 44.207 C 66.337 45.257,67.128 45.799,68.832 47.537 C 69.728 48.452,70.716 49.200,71.028 49.200 C 71.817 49.200,73.615 50.818,74.036 51.907 C 74.228 52.406,74.794 52.983,75.293 53.189 C 76.691 53.767,77.848 54.870,78.578 56.321 C 78.943 57.047,79.547 57.756,79.921 57.897 C 80.875 58.257,82.797 60.233,82.813 60.869 C 82.830 61.517,84.188 63.200,84.694 63.200 C 85.184 63.200,86.506 64.739,87.187 66.102 C 87.490 66.708,88.249 67.698,88.874 68.302 C 90.525 69.898,92.628 72.863,92.921 74.009 C 93.060 74.554,93.657 75.270,94.248 75.600 C 94.851 75.937,95.866 77.253,96.561 78.600 C 97.242 79.920,98.182 81.168,98.649 81.373 C 101.019 82.414,101.244 90.400,98.904 90.400 C 98.627 90.400,98.400 90.556,98.400 90.746 C 98.400 91.186,95.250 92.400,94.107 92.400 C 93.590 92.400,92.818 92.954,92.193 93.774 C 91.450 94.748,90.250 95.519,88.072 96.420 C 86.382 97.120,84.413 98.273,83.696 98.983 C 82.979 99.693,81.629 100.522,80.696 100.825 C 77.154 101.975,77.715 103.279,81.994 103.840 C 84.438 104.161,87.297 105.297,88.376 106.376 C 89.152 107.152,90.175 107.462,93.800 108.015 C 97.573 108.591,100.360 109.463,101.952 110.567 C 103.699 111.777,106.834 112.790,108.854 112.796 C 110.769 112.801,114.297 113.916,115.800 114.991 C 117.422 116.151,118.763 116.599,123.000 117.395 C 127.243 118.193,129.518 118.986,130.377 119.965 C 131.232 120.940,134.798 121.735,140.614 122.247 C 144.050 122.549,144.294 122.221,144.821 116.600 C 145.353 110.924,145.899 108.406,147.158 105.812 C 148.310 103.440,149.581 96.992,149.614 93.346 C 149.634 91.203,150.534 87.677,151.494 85.980 C 152.566 84.084,153.599 80.439,153.603 78.538 C 153.613 73.935,154.943 67.224,156.262 65.114 C 157.329 63.410,158.226 57.355,157.536 56.523 C 157.096 55.993,155.200 56.617,155.200 57.293 C 155.200 58.303,153.374 59.290,148.538 60.893 C 147.844 61.123,147.059 61.716,146.794 62.211 C 146.529 62.707,145.837 63.328,145.256 63.593 C 144.675 63.858,143.690 64.327,143.068 64.637 C 142.445 64.947,141.712 65.200,141.440 65.200 C 141.167 65.200,140.237 65.802,139.372 66.538 C 135.549 69.792,132.381 69.754,130.360 66.430 C 129.948 65.754,129.379 65.200,129.095 65.200 C 128.369 65.200,127.291 63.844,126.555 62.005 C 126.211 61.145,125.333 59.986,124.603 59.429 C 123.873 58.873,122.871 57.738,122.376 56.909 C 121.881 56.079,121.098 55.017,120.638 54.549 C 120.177 54.081,118.482 52.326,116.871 50.649 C 115.259 48.972,113.874 47.600,113.791 47.600 C 113.709 47.600,113.156 47.150,112.562 46.600 C 111.969 46.050,111.321 45.600,111.122 45.600 C 110.786 45.600,109.073 43.926,108.468 43.007 C 108.103 42.453,106.532 41.600,105.875 41.600 C 105.259 41.600,103.600 39.950,103.600 39.337 C 103.600 38.839,101.641 37.860,99.204 37.139 C 98.177 36.836,96.791 35.991,95.965 35.165 C 94.487 33.687,92.606 32.800,90.951 32.800 C 89.900 32.800,85.600 30.870,85.600 30.399 C 85.600 29.769,82.895 28.881,79.600 28.430 C 73.552 27.602,69.383 26.527,67.200 25.232 C 65.270 24.088,48.804 23.648,42.200 24.565 M192.200 88.230 C 191.403 88.832,191.400 89.367,191.290 210.917 C 191.178 335.210,191.175 334.800,192.208 334.800 C 192.533 334.800,192.800 334.980,192.800 335.200 C 192.800 336.007,265.448 335.722,266.395 334.911 C 267.577 333.900,267.681 89.053,266.500 88.157 C 265.380 87.307,193.328 87.378,192.200 88.230 M258.400 94.301 C 261.482 95.840,261.218 84.323,261.101 212.099 C 260.990 333.891,261.099 327.642,259.041 330.200 L 258.076 331.400 228.738 331.400 C 195.843 331.400,197.832 331.578,196.165 328.484 C 195.417 327.093,195.400 324.557,195.400 211.742 L 195.400 96.422 196.259 95.563 C 198.058 93.765,199.672 93.670,229.200 93.635 C 254.906 93.604,257.105 93.654,258.400 94.301 M283.500 150.906 C 282.372 153.649,282.418 333.437,283.547 334.739 L 284.294 335.600 320.671 335.600 C 356.728 335.600,357.057 335.593,357.925 334.784 L 358.800 333.969 358.800 243.139 L 358.800 152.309 357.926 150.754 L 357.053 149.200 320.626 149.201 L 284.200 149.203 283.500 150.906 M351.854 154.688 C 352.769 155.066,353.761 155.741,354.059 156.188 C 354.509 156.863,354.618 171.171,354.706 240.998 C 354.827 336.016,355.098 328.048,351.672 330.216 L 349.800 331.400 320.958 331.400 L 292.117 331.400 290.958 330.028 C 288.700 327.353,288.813 331.950,288.806 241.997 C 288.800 154.292,288.751 156.525,290.695 154.933 L 291.800 154.029 320.996 154.014 C 347.712 154.001,350.333 154.058,351.854 154.688 M99.800 209.964 C 98.920 210.109,97.975 210.367,97.700 210.538 C 97.303 210.783,97.200 223.631,97.200 272.610 L 97.200 334.372 98.100 334.886 C 99.914 335.922,170.563 335.824,172.024 334.783 L 173.200 333.946 173.200 272.564 L 173.200 211.183 172.200 210.727 C 171.650 210.477,171.200 210.120,171.200 209.936 C 171.200 209.544,102.178 209.572,99.800 209.964 M163.798 214.334 C 166.444 215.011,166.662 215.156,167.798 216.994 L 169.000 218.937 169.104 271.968 C 169.220 330.661,169.359 327.294,166.706 330.200 L 165.611 331.400 136.044 331.517 L 106.478 331.634 105.515 330.717 C 103.295 328.604,103.400 331.481,103.400 272.800 C 103.400 213.389,103.253 216.971,105.780 214.706 L 107.000 213.613 134.000 213.616 C 158.629 213.618,161.246 213.681,163.798 214.334 M83.608 358.500 C 82.252 360.586,82.000 361.420,82.000 363.815 C 82.000 367.119,82.762 370.351,83.652 370.828 C 84.846 371.467,374.638 371.122,375.280 370.481 C 375.980 369.783,376.245 361.156,375.613 359.631 C 374.733 357.506,381.558 357.600,227.666 357.600 L 84.192 357.600 83.608 358.500 " stroke="none" fill="#0f0f0f" fill-rule="evenodd"></path><path id="path1" d="M44.300 23.082 C 44.795 23.178,45.605 23.178,46.100 23.082 C 46.595 22.987,46.190 22.909,45.200 22.909 C 44.210 22.909,43.805 22.987,44.300 23.082 M59.705 23.087 C 60.314 23.179,61.214 23.177,61.705 23.082 C 62.197 22.987,61.700 22.911,60.600 22.914 C 59.500 22.917,59.097 22.995,59.705 23.087 M63.700 23.476 C 64.085 23.576,64.715 23.576,65.100 23.476 C 65.485 23.375,65.170 23.293,64.400 23.293 C 63.630 23.293,63.315 23.375,63.700 23.476 M35.000 24.400 C 34.496 24.617,34.422 24.744,34.800 24.744 C 35.130 24.744,35.760 24.589,36.200 24.400 C 36.704 24.183,36.778 24.056,36.400 24.056 C 36.070 24.056,35.440 24.211,35.000 24.400 M73.200 25.400 C 73.750 25.714,74.380 25.972,74.600 25.972 C 74.820 25.972,74.550 25.714,74.000 25.400 C 73.450 25.086,72.820 24.828,72.600 24.828 C 72.380 24.828,72.650 25.086,73.200 25.400 M26.700 31.882 C 27.195 31.978,28.005 31.978,28.500 31.882 C 28.995 31.787,28.590 31.709,27.600 31.709 C 26.610 31.709,26.205 31.787,26.700 31.882 M58.435 42.100 C 58.528 42.155,59.233 42.740,60.002 43.400 L 61.400 44.600 60.225 43.300 C 59.579 42.585,58.874 42.000,58.658 42.000 C 58.443 42.000,58.343 42.045,58.435 42.100 M158.901 59.800 C 158.905 60.680,158.987 60.993,159.083 60.495 C 159.179 59.998,159.175 59.278,159.075 58.895 C 158.975 58.513,158.896 58.920,158.901 59.800 M144.770 61.888 C 144.058 62.686,144.013 62.819,144.598 62.388 C 145.872 61.450,146.486 60.800,146.098 60.800 C 145.901 60.800,145.303 61.290,144.770 61.888 M157.915 65.410 C 157.792 65.845,157.569 66.560,157.420 67.000 C 157.271 67.440,157.442 67.294,157.800 66.676 C 158.158 66.058,158.381 65.342,158.295 65.086 C 158.210 64.830,158.039 64.976,157.915 65.410 M155.646 72.039 C 155.401 72.743,155.213 73.518,155.228 73.760 C 155.244 74.002,155.514 73.496,155.830 72.635 C 156.145 71.774,156.333 71.000,156.248 70.915 C 156.162 70.829,155.892 71.335,155.646 72.039 M153.829 83.429 C 153.681 84.015,153.638 84.572,153.732 84.666 C 153.827 84.760,154.024 84.358,154.171 83.771 C 154.319 83.185,154.362 82.628,154.268 82.534 C 154.173 82.440,153.976 82.842,153.829 83.429 M98.600 86.400 C 98.446 87.310,98.404 88.138,98.507 88.240 C 98.610 88.343,98.813 87.677,98.960 86.760 C 99.107 85.843,99.148 85.015,99.053 84.920 C 98.958 84.824,98.754 85.490,98.600 86.400 M152.865 87.417 C 152.195 88.888,152.323 89.202,153.047 87.865 C 153.386 87.240,153.588 86.654,153.496 86.563 C 153.405 86.471,153.121 86.856,152.865 87.417 M189.324 88.500 C 188.911 89.138,188.681 333.641,189.093 334.053 C 189.262 334.222,189.354 280.559,189.299 214.802 C 189.243 149.046,189.340 93.615,189.515 91.622 C 189.849 87.817,189.842 87.699,189.324 88.500 M150.629 94.229 C 150.481 94.815,150.438 95.372,150.532 95.466 C 150.627 95.560,150.824 95.158,150.971 94.571 C 151.119 93.985,151.162 93.428,151.068 93.334 C 150.973 93.240,150.776 93.642,150.629 94.229 M215.700 95.100 C 223.345 95.161,235.855 95.161,243.500 95.100 C 251.145 95.039,244.890 94.989,229.600 94.989 C 214.310 94.989,208.055 95.039,215.700 95.100 M198.900 95.612 C 197.561 96.151,197.811 96.424,199.200 95.940 C 199.860 95.710,200.400 95.449,200.400 95.361 C 200.400 95.124,199.913 95.205,198.900 95.612 M259.400 211.600 C 259.400 274.478,259.532 325.716,259.694 325.462 C 260.082 324.852,260.088 97.702,259.700 97.462 C 259.535 97.360,259.400 148.722,259.400 211.600 M89.800 108.614 C 90.460 108.917,91.270 109.158,91.600 109.152 C 91.930 109.145,91.570 108.897,90.800 108.600 C 88.974 107.897,88.255 107.907,89.800 108.614 M146.865 111.817 C 146.609 112.378,146.407 113.054,146.416 113.319 C 146.424 113.583,146.697 113.188,147.022 112.439 C 147.705 110.865,147.561 110.290,146.865 111.817 M140.800 124.221 C 141.790 124.533,142.780 124.777,143.000 124.763 C 143.700 124.721,140.634 123.661,139.800 123.657 C 139.360 123.655,139.810 123.909,140.800 124.221 M352.719 241.476 C 352.851 333.722,353.078 325.872,350.217 328.000 C 349.478 328.550,348.935 329.063,349.010 329.140 C 349.309 329.447,352.082 327.002,352.624 325.954 C 353.230 324.781,353.462 161.414,352.860 159.276 C 352.717 158.768,352.653 195.758,352.719 241.476 M290.103 242.800 C 290.053 288.010,290.144 325.208,290.306 325.462 C 290.570 325.876,290.564 244.923,290.296 184.000 C 290.240 171.130,290.153 197.590,290.103 242.800 M117.530 208.700 C 127.502 208.759,143.702 208.759,153.530 208.700 C 163.359 208.640,155.200 208.592,135.400 208.592 C 115.600 208.592,107.559 208.640,117.530 208.700 M95.795 272.600 C 95.795 306.480,95.842 320.281,95.900 303.269 C 95.958 286.256,95.958 258.536,95.900 241.669 C 95.842 224.801,95.795 238.720,95.795 272.600 M105.832 217.113 L 105.064 218.200 106.069 217.290 L 107.074 216.379 135.323 216.490 C 150.860 216.550,163.263 216.478,162.886 216.328 C 162.509 216.179,149.690 216.049,134.400 216.041 L 106.600 216.025 105.832 217.113 M165.456 217.569 C 166.146 217.990,166.807 218.574,166.924 218.867 C 167.059 219.206,167.148 219.228,167.168 218.929 C 167.205 218.391,165.318 216.799,164.646 216.801 C 164.401 216.802,164.765 217.148,165.456 217.569 M258.063 328.000 L 257.176 329.200 229.288 329.206 C 211.135 329.210,201.609 329.348,202.000 329.600 C 202.372 329.840,212.900 329.990,229.717 329.994 C 259.476 330.001,257.481 330.158,258.760 327.700 C 259.411 326.450,259.116 326.577,258.063 328.000 M165.933 327.512 C 165.860 327.684,165.170 328.130,164.400 328.503 C 163.630 328.876,163.234 329.186,163.520 329.191 C 164.299 329.205,166.400 328.036,166.400 327.590 C 166.400 327.122,166.120 327.076,165.933 327.512 M105.993 328.700 L 106.854 330.000 134.127 329.994 C 151.044 329.990,161.628 329.841,162.000 329.600 C 162.391 329.348,152.848 329.210,134.664 329.206 L 106.728 329.200 105.929 328.300 C 105.240 327.523,105.248 327.578,105.993 328.700 M199.424 328.587 C 199.851 328.910,200.380 329.175,200.600 329.175 C 200.820 329.175,200.651 328.910,200.224 328.587 C 199.796 328.264,199.267 328.000,199.047 328.000 C 198.827 328.000,198.996 328.264,199.424 328.587 M292.370 328.903 L 293.339 330.000 320.646 330.000 C 338.419 330.000,348.039 329.860,348.200 329.600 C 348.364 329.335,339.115 329.200,320.755 329.200 C 295.010 329.200,293.005 329.151,292.231 328.503 C 291.628 327.997,291.666 328.107,292.370 328.903 M283.549 336.500 C 284.066 337.159,286.252 337.194,320.749 337.102 L 357.400 337.004 320.838 336.900 C 292.411 336.819,284.135 336.685,283.638 336.298 C 283.073 335.857,283.063 335.880,283.549 336.500 M118.930 337.100 C 128.572 337.160,144.232 337.160,153.730 337.100 C 163.229 337.040,155.340 336.991,136.200 336.991 C 117.060 336.991,109.289 337.040,118.930 337.100 M210.900 337.100 C 220.745 337.159,236.855 337.159,246.700 337.100 C 256.545 337.040,248.490 336.992,228.800 336.992 C 209.110 336.992,201.055 337.040,210.900 337.100 M373.200 355.755 C 373.200 355.840,373.730 355.987,374.379 356.082 C 375.027 356.177,375.467 356.108,375.355 355.928 C 375.157 355.607,373.200 355.450,373.200 355.755 M376.946 364.200 C 376.947 366.400,377.014 367.249,377.095 366.087 C 377.176 364.924,377.176 363.124,377.093 362.087 C 377.011 361.049,376.945 362.000,376.946 364.200 M80.028 367.633 C 80.044 368.385,80.220 369.360,80.420 369.800 C 80.665 370.339,80.705 369.946,80.541 368.600 C 80.251 366.219,79.989 365.724,80.028 367.633 M155.700 372.300 C 195.245 372.356,259.955 372.356,299.500 372.300 C 339.045 372.244,306.690 372.198,227.600 372.198 C 148.510 372.198,116.155 372.244,155.700 372.300 " stroke="none" fill="#7c7c7c" fill-rule="evenodd"></path><path id="path2" d="M43.400 22.065 C 33.263 22.385,32.215 22.589,28.770 24.907 C 28.204 25.288,26.044 25.891,23.970 26.246 C 13.363 28.062,13.879 32.235,24.800 32.962 C 30.363 33.332,34.510 33.930,34.804 34.406 C 35.294 35.199,39.934 36.739,43.800 37.391 C 47.307 37.983,48.046 38.255,49.800 39.602 C 51.836 41.166,54.673 42.384,56.304 42.394 C 56.895 42.398,57.587 42.937,58.304 43.952 C 59.068 45.034,59.975 45.713,61.300 46.192 C 62.345 46.571,63.200 47.042,63.200 47.240 C 63.200 47.438,63.425 47.602,63.700 47.604 C 63.975 47.607,64.805 48.231,65.544 48.991 C 66.283 49.752,67.784 50.780,68.880 51.275 C 70.309 51.921,71.079 52.578,71.599 53.598 C 72.075 54.530,72.944 55.330,74.121 55.918 C 75.338 56.525,76.000 57.147,76.176 57.846 C 76.452 58.945,78.658 61.200,79.458 61.200 C 79.722 61.200,80.138 61.807,80.383 62.548 C 80.628 63.290,81.722 64.707,82.814 65.698 C 83.906 66.689,84.800 67.792,84.800 68.150 C 84.800 68.507,84.980 68.800,85.200 68.800 C 85.420 68.800,85.600 69.048,85.600 69.352 C 85.600 69.655,86.455 70.815,87.500 71.929 C 89.951 74.543,90.800 75.650,90.800 76.233 C 90.800 76.492,91.596 77.356,92.568 78.153 C 93.664 79.050,94.438 80.062,94.602 80.810 C 94.748 81.475,95.291 82.522,95.808 83.136 C 96.782 84.295,96.691 86.362,95.572 88.452 C 95.152 89.237,92.791 90.400,91.618 90.400 C 91.241 90.400,90.309 91.024,89.547 91.787 C 88.281 93.053,84.269 95.181,83.089 95.213 C 82.414 95.232,81.018 96.451,80.690 97.309 C 80.540 97.699,80.099 98.123,79.709 98.252 C 77.775 98.889,76.478 99.674,75.240 100.954 L 73.881 102.361 75.240 103.689 C 76.688 105.104,78.369 106.000,79.574 106.000 C 79.979 106.000,81.248 106.645,82.393 107.433 C 84.706 109.024,87.003 109.790,90.600 110.171 C 93.431 110.471,95.509 111.138,96.554 112.080 C 97.857 113.255,99.694 113.912,103.000 114.385 C 107.179 114.983,109.877 115.853,111.114 117.001 C 112.221 118.027,113.585 118.435,119.200 119.419 C 122.071 119.922,123.422 120.379,124.725 121.285 C 126.517 122.532,129.727 123.583,131.800 123.601 C 133.393 123.615,137.057 124.792,138.800 125.849 C 143.996 129.000,145.884 126.947,147.490 116.400 C 147.607 115.630,147.819 114.910,147.961 114.800 C 149.510 113.597,150.597 108.915,151.571 99.256 C 151.806 96.928,152.224 95.408,153.093 93.723 C 154.381 91.225,154.810 89.203,155.831 80.800 C 156.192 77.830,156.760 74.860,157.093 74.200 C 157.427 73.540,157.937 72.550,158.227 72.000 C 158.698 71.107,159.518 67.543,160.160 63.600 C 160.620 60.773,160.511 55.615,159.978 54.973 C 158.096 52.706,154.959 53.100,151.387 56.051 C 150.396 56.871,148.677 57.842,147.567 58.211 C 146.387 58.603,144.889 59.528,143.959 60.441 C 143.084 61.298,142.049 62.000,141.660 62.000 C 141.271 62.000,140.604 62.264,140.176 62.587 C 139.749 62.910,138.995 63.180,138.500 63.187 C 137.995 63.194,136.897 63.903,136.000 64.800 C 134.070 66.730,134.261 66.716,133.197 64.994 C 132.719 64.221,131.534 63.043,130.564 62.375 C 129.594 61.708,128.800 60.921,128.800 60.627 C 128.800 59.692,127.748 58.017,125.944 56.079 C 124.981 55.046,123.848 53.542,123.426 52.737 C 123.004 51.933,122.299 51.033,121.860 50.737 C 120.391 49.749,118.000 47.511,118.000 47.125 C 118.000 46.655,116.979 45.600,116.524 45.600 C 116.342 45.600,115.707 45.150,115.113 44.600 C 114.520 44.050,113.847 43.600,113.617 43.600 C 113.388 43.600,113.200 43.407,113.200 43.171 C 113.200 42.638,112.190 41.600,111.671 41.600 C 111.459 41.600,111.193 41.357,111.079 41.061 C 110.965 40.765,109.866 40.114,108.636 39.615 C 107.406 39.115,106.400 38.467,106.400 38.174 C 106.400 37.464,104.174 35.886,102.258 35.239 C 101.410 34.952,100.019 34.041,99.166 33.213 C 98.156 32.233,96.949 31.541,95.707 31.229 C 91.875 30.266,90.800 29.862,90.800 29.385 C 90.800 28.552,86.742 26.868,83.600 26.397 C 79.534 25.788,77.750 25.293,77.032 24.575 C 74.661 22.203,64.067 21.413,43.400 22.065 M67.400 23.606 C 68.940 23.883,71.190 24.455,72.400 24.877 C 76.048 26.151,78.035 26.703,81.600 27.436 C 83.470 27.821,85.558 28.420,86.241 28.768 C 86.924 29.115,88.442 29.895,89.616 30.500 C 90.790 31.105,91.963 31.600,92.224 31.600 C 93.065 31.600,96.331 33.194,97.492 34.170 C 98.112 34.692,99.906 35.708,101.479 36.428 C 103.169 37.201,104.542 38.117,104.836 38.668 C 105.111 39.181,105.575 39.600,105.868 39.600 C 106.160 39.600,106.400 39.780,106.400 40.000 C 106.400 40.220,106.642 40.400,106.939 40.400 C 107.235 40.400,107.893 40.760,108.400 41.200 C 108.907 41.640,109.430 42.003,109.561 42.007 C 109.693 42.011,110.660 42.821,111.712 43.807 C 112.763 44.793,113.755 45.600,113.916 45.600 C 114.474 45.600,122.684 54.208,123.341 55.481 C 123.704 56.186,124.598 57.356,125.327 58.081 C 126.057 58.807,127.078 60.120,127.597 61.000 C 128.116 61.880,129.787 63.814,131.311 65.298 L 134.082 67.997 135.341 67.298 C 136.033 66.914,136.891 66.285,137.247 65.900 C 137.603 65.515,138.062 65.200,138.267 65.200 C 138.472 65.200,138.860 64.980,139.130 64.710 C 139.399 64.441,140.499 63.945,141.573 63.608 C 142.647 63.272,144.218 62.364,145.063 61.591 C 145.908 60.817,147.860 59.656,149.400 59.011 C 150.940 58.365,152.405 57.649,152.655 57.418 C 159.345 51.271,161.122 56.913,156.680 70.200 C 155.925 72.460,155.132 75.940,154.859 78.200 C 154.076 84.653,153.738 86.116,151.993 90.600 C 151.343 92.270,150.453 96.748,150.006 100.600 C 149.730 102.978,148.920 106.546,148.010 109.400 C 147.167 112.040,146.268 115.550,146.012 117.200 C 144.936 124.117,144.182 125.163,140.894 124.299 C 139.633 123.967,137.520 123.485,136.200 123.227 C 132.482 122.500,129.636 121.589,126.800 120.217 C 125.370 119.526,122.850 118.728,121.200 118.444 C 117.653 117.834,115.125 116.997,113.200 115.795 C 112.430 115.315,110.810 114.698,109.600 114.426 C 103.345 113.017,101.992 112.618,99.600 111.474 C 96.766 110.118,93.976 109.245,92.386 109.218 C 91.053 109.194,87.420 107.903,84.467 106.402 C 83.166 105.741,81.673 105.197,81.151 105.192 C 80.099 105.184,76.400 103.021,76.400 102.415 C 76.400 101.843,77.749 100.702,79.473 99.813 C 80.313 99.381,81.634 98.474,82.408 97.798 C 83.183 97.121,85.073 96.037,86.608 95.387 C 88.144 94.737,89.760 93.824,90.200 93.358 C 90.926 92.590,95.053 90.400,95.777 90.400 C 96.884 90.400,98.306 88.689,98.525 87.095 C 98.655 86.143,98.871 85.081,99.003 84.735 C 99.158 84.333,98.746 83.637,97.856 82.798 C 97.093 82.078,96.051 80.659,95.540 79.644 C 95.029 78.630,94.382 77.655,94.101 77.478 C 93.178 76.894,91.600 75.018,91.600 74.504 C 91.600 74.227,91.420 74.000,91.200 74.000 C 90.980 74.000,90.800 73.760,90.800 73.467 C 90.800 73.173,90.080 72.153,89.200 71.200 C 88.320 70.247,87.600 69.317,87.600 69.133 C 87.600 68.950,87.461 68.800,87.291 68.800 C 87.121 68.800,86.646 68.175,86.234 67.412 C 85.823 66.648,84.808 65.396,83.978 64.628 C 83.148 63.860,82.070 62.523,81.583 61.656 C 81.096 60.790,80.259 59.846,79.723 59.559 C 79.187 59.272,78.142 58.211,77.400 57.200 C 76.658 56.189,75.635 55.132,75.126 54.850 C 74.617 54.568,73.660 53.640,73.000 52.789 C 72.340 51.937,71.243 50.966,70.562 50.631 C 69.882 50.296,68.532 49.294,67.562 48.404 C 66.593 47.514,64.712 46.237,63.382 45.566 C 62.052 44.895,60.334 43.752,59.565 43.026 C 58.796 42.301,57.724 41.569,57.183 41.401 C 55.525 40.886,52.664 39.494,51.400 38.588 C 49.939 37.541,48.696 37.084,44.800 36.162 C 43.150 35.771,41.629 35.305,41.420 35.126 C 41.211 34.947,40.716 34.800,40.320 34.800 C 39.924 34.800,39.600 34.633,39.600 34.428 C 39.600 33.634,33.337 32.398,26.200 31.784 C 20.065 31.255,17.726 29.941,20.700 28.691 C 22.047 28.125,23.615 27.708,29.600 26.320 C 30.590 26.091,32.142 25.560,33.049 25.140 C 34.460 24.488,37.548 23.816,42.600 23.061 C 45.105 22.687,64.676 23.117,67.400 23.606 M189.733 86.182 C 189.037 86.485,188.092 87.108,187.633 87.567 L 186.800 88.400 186.800 211.566 L 186.800 334.733 188.300 336.296 C 190.783 338.884,189.404 338.800,229.528 338.800 C 265.735 338.800,268.000 338.724,268.000 337.507 C 268.000 337.307,268.270 336.873,268.600 336.543 C 269.131 336.012,269.200 321.611,269.200 211.753 L 269.200 87.564 268.218 86.582 L 267.236 85.600 229.118 85.616 C 197.647 85.629,190.779 85.727,189.733 86.182 M266.946 87.229 L 268.000 88.058 268.000 211.249 C 268.000 319.365,267.927 334.580,267.407 335.587 C 266.547 337.249,266.268 337.260,226.991 337.122 L 192.181 337.000 190.491 335.436 L 188.800 333.871 188.847 213.636 C 188.899 78.938,188.718 88.678,191.194 87.357 L 192.988 86.400 229.440 86.400 C 265.712 86.400,265.897 86.404,266.946 87.229 M199.306 95.831 C 198.595 96.143,197.650 96.708,197.206 97.088 C 196.111 98.025,195.907 324.693,197.000 325.600 C 197.330 325.874,197.600 326.269,197.600 326.478 C 197.600 326.993,198.378 327.662,199.951 328.500 C 201.166 329.147,203.363 329.200,229.212 329.200 L 257.159 329.200 258.280 327.731 L 259.400 326.262 259.400 211.565 L 259.400 96.867 258.439 96.034 C 257.190 94.950,201.753 94.761,199.306 95.831 M257.669 97.062 C 258.773 98.062,258.818 324.170,257.714 326.038 L 257.028 327.200 229.730 327.200 L 202.433 327.200 200.616 326.103 L 198.800 325.006 198.800 211.357 L 198.800 97.709 200.300 97.093 C 202.669 96.121,256.597 96.092,257.669 97.062 M282.645 146.055 C 280.704 148.323,280.800 143.309,280.800 242.440 L 280.800 335.306 281.636 336.658 C 282.095 337.402,282.804 338.188,283.209 338.405 C 284.650 339.176,357.408 338.920,358.920 338.139 C 360.423 337.362,362.321 335.338,362.615 334.200 C 363.285 331.604,362.583 150.465,361.900 149.710 C 361.515 149.285,361.194 148.681,361.187 148.369 C 361.171 147.642,360.236 146.400,359.705 146.400 C 359.481 146.400,359.074 146.130,358.800 145.800 C 358.364 145.274,353.652 145.200,320.840 145.200 L 283.378 145.200 282.645 146.055 M359.222 149.400 L 360.366 151.400 360.383 242.886 L 360.400 334.372 359.116 335.686 L 357.832 337.000 320.957 337.106 L 284.081 337.212 283.041 335.975 L 282.000 334.739 282.000 243.116 C 282.000 150.951,282.021 149.412,283.321 147.698 C 283.622 147.300,291.431 147.217,320.890 147.298 L 358.078 147.400 359.222 149.400 M291.800 156.164 L 290.600 157.124 290.600 241.693 L 290.600 326.262 291.720 327.731 L 292.841 329.200 320.756 329.200 L 348.671 329.200 350.112 328.100 C 353.099 325.820,352.852 334.022,352.719 241.377 C 352.587 148.744,352.863 156.835,349.791 155.766 C 348.496 155.315,343.065 155.211,320.600 155.208 L 293.000 155.204 291.800 156.164 M348.502 156.900 C 350.462 158.395,350.388 155.038,350.394 243.011 L 350.400 325.022 349.159 326.111 L 347.918 327.200 320.634 327.200 L 293.350 327.200 292.475 326.016 L 291.600 324.832 291.604 243.116 C 291.609 158.646,291.575 160.748,292.991 156.900 C 293.136 156.507,299.007 156.400,320.511 156.400 C 341.764 156.400,347.993 156.511,348.502 156.900 M96.213 208.213 L 94.800 209.627 94.800 272.433 C 94.800 340.684,94.667 336.634,96.965 338.141 C 97.882 338.741,101.258 338.800,134.736 338.800 C 173.866 338.800,173.597 338.812,175.683 336.925 C 177.699 335.100,177.600 338.434,177.600 272.405 L 177.600 210.933 176.300 209.510 C 173.703 206.667,175.755 206.800,134.605 206.800 L 97.627 206.800 96.213 208.213 M172.298 209.015 C 175.516 210.360,175.200 203.420,175.197 272.762 L 175.195 334.600 173.897 335.477 C 171.323 337.217,171.662 337.202,136.274 337.157 C 97.122 337.107,97.790 337.139,96.514 335.241 L 95.600 333.882 95.600 272.735 C 95.600 209.062,95.564 210.491,97.200 209.400 C 98.472 208.552,100.819 208.493,135.313 208.447 C 166.439 208.406,171.008 208.476,172.298 209.015 M106.132 217.287 C 105.674 217.789,105.097 218.593,104.850 219.074 C 104.083 220.562,104.223 324.699,104.993 326.451 C 106.318 329.462,103.476 329.200,134.784 329.200 C 166.750 329.200,165.872 329.292,167.198 325.804 C 167.898 323.965,167.736 221.101,167.032 219.414 C 165.810 216.489,167.149 216.613,135.382 216.487 L 106.963 216.375 106.132 217.287 M164.046 219.464 L 166.000 220.527 166.000 272.820 L 166.000 325.113 164.434 325.740 C 163.573 326.084,162.752 326.554,162.610 326.783 C 162.436 327.066,153.414 327.200,134.587 327.200 L 106.821 327.200 106.210 326.020 C 105.398 324.448,105.272 221.963,106.080 219.728 L 106.561 218.400 134.326 218.400 L 162.092 218.400 164.046 219.464 M82.772 354.142 C 78.451 355.528,77.800 356.901,77.800 364.629 C 77.800 370.622,78.107 372.000,79.440 372.000 C 79.603 372.000,80.085 372.315,80.510 372.700 C 81.244 373.364,88.867 373.400,228.742 373.400 L 376.200 373.400 377.200 372.400 C 378.128 371.472,378.210 371.072,378.344 366.870 C 378.664 356.810,377.882 354.523,373.929 353.961 C 370.236 353.436,84.420 353.613,82.772 354.142 M376.178 357.200 C 377.384 359.253,377.421 370.236,376.227 371.431 C 375.092 372.565,85.862 372.862,82.719 371.732 C 79.079 370.423,78.718 360.420,82.178 356.754 L 83.269 355.599 229.312 355.699 L 375.355 355.800 376.178 357.200 " stroke="none" fill="#848484" fill-rule="evenodd"></path><path id="path3" d="M46.200 22.995 C 45.760 23.073,43.510 23.356,41.200 23.624 C 38.890 23.892,36.010 24.452,34.800 24.869 C 31.035 26.165,29.111 26.711,25.800 27.419 C 20.163 28.625,18.350 29.584,20.314 30.323 C 22.958 31.317,24.251 31.600,26.160 31.602 C 30.612 31.608,38.697 33.155,40.012 34.253 C 40.568 34.718,41.508 35.022,47.200 36.576 C 49.773 37.279,51.600 38.029,51.600 38.384 C 51.600 38.686,53.119 39.483,57.000 41.217 C 58.100 41.709,59.484 42.559,60.074 43.106 C 61.221 44.168,62.206 44.784,64.324 45.766 C 65.053 46.103,66.664 47.284,67.904 48.390 C 69.145 49.495,70.363 50.400,70.611 50.400 C 70.859 50.400,71.989 51.345,73.123 52.500 C 74.257 53.655,75.593 54.996,76.092 55.481 C 78.841 58.148,81.871 61.537,82.366 62.497 C 82.678 63.101,83.361 63.876,83.885 64.219 C 84.409 64.562,85.490 65.868,86.288 67.121 C 87.086 68.375,88.349 70.014,89.095 70.765 C 89.840 71.516,90.820 72.855,91.272 73.742 C 91.725 74.628,92.779 76.012,93.616 76.816 C 94.453 77.620,95.412 78.933,95.746 79.733 C 96.081 80.534,97.054 81.866,97.909 82.694 C 99.577 84.309,99.559 84.161,98.586 88.333 C 98.421 89.040,97.521 89.663,94.884 90.895 C 92.968 91.790,90.693 93.125,89.828 93.861 C 88.963 94.598,87.973 95.206,87.628 95.213 C 87.283 95.220,86.651 95.490,86.224 95.813 C 85.796 96.136,85.121 96.400,84.724 96.400 C 84.326 96.400,84.000 96.580,84.000 96.800 C 84.000 97.020,83.834 97.200,83.631 97.200 C 83.428 97.200,82.743 97.695,82.110 98.300 C 81.476 98.905,80.022 99.895,78.879 100.500 C 76.839 101.579,75.951 103.200,77.400 103.200 C 77.730 103.200,78.000 103.356,78.000 103.546 C 78.000 103.931,81.098 105.203,82.013 105.194 C 82.336 105.191,83.860 105.804,85.400 106.556 C 88.039 107.846,89.996 108.458,95.200 109.622 C 96.410 109.893,98.570 110.688,100.000 111.390 C 101.430 112.091,104.040 112.981,105.800 113.367 C 110.163 114.326,113.200 115.220,113.200 115.545 C 113.200 116.027,118.918 117.913,121.994 118.445 C 123.734 118.747,125.996 119.495,127.394 120.231 C 128.717 120.928,131.150 121.808,132.800 122.187 C 134.450 122.565,136.353 123.038,137.028 123.237 C 137.704 123.437,138.716 123.600,139.278 123.600 C 139.840 123.600,141.042 123.862,141.950 124.182 C 143.394 124.692,143.600 124.692,143.600 124.182 C 143.600 123.862,143.756 123.600,143.946 123.600 C 144.445 123.600,145.600 120.381,145.600 118.987 C 145.601 117.079,146.663 112.481,147.999 108.600 C 149.143 105.277,149.472 103.601,150.393 96.400 C 150.575 94.970,151.294 92.180,151.990 90.200 C 152.685 88.220,153.423 85.790,153.629 84.800 C 154.009 82.976,154.106 82.322,154.848 76.600 C 155.220 73.734,155.920 70.900,156.824 68.600 C 158.710 63.798,159.552 57.710,158.543 56.169 C 157.496 54.572,156.623 54.715,153.403 57.013 C 152.061 57.971,150.078 59.055,148.997 59.422 C 147.915 59.789,146.431 60.689,145.697 61.423 C 144.964 62.156,143.427 63.110,142.282 63.542 C 139.675 64.526,138.652 65.080,136.440 66.706 C 135.472 67.418,134.482 67.997,134.240 67.994 C 133.480 67.985,128.320 62.838,127.440 61.211 C 126.978 60.357,125.835 58.845,124.900 57.852 C 123.965 56.859,123.200 55.934,123.200 55.797 C 123.200 55.008,119.025 50.400,118.311 50.400 C 118.140 50.400,118.000 50.207,118.000 49.972 C 118.000 49.490,114.994 46.671,112.230 44.560 C 111.223 43.792,110.400 42.992,110.400 42.782 C 110.400 42.572,110.130 42.400,109.800 42.400 C 109.470 42.400,109.200 42.265,109.200 42.100 C 109.199 41.935,108.344 41.314,107.300 40.721 C 106.255 40.128,104.900 39.103,104.288 38.444 C 103.676 37.785,102.776 37.133,102.288 36.996 C 100.781 36.570,98.668 35.443,97.617 34.503 C 96.517 33.519,92.697 31.600,91.838 31.600 C 91.016 31.600,88.722 30.568,87.600 29.693 C 86.405 28.762,84.870 28.259,80.600 27.400 C 77.324 26.741,75.171 26.135,72.000 24.979 C 68.400 23.668,50.263 22.273,46.200 22.995 M62.600 24.434 C 64.800 24.678,66.870 25.037,67.200 25.232 C 69.383 26.527,73.552 27.602,79.600 28.430 C 82.895 28.881,85.600 29.769,85.600 30.399 C 85.600 30.870,89.900 32.800,90.951 32.800 C 92.606 32.800,94.487 33.687,95.965 35.165 C 96.791 35.991,98.177 36.836,99.204 37.139 C 101.641 37.860,103.600 38.839,103.600 39.337 C 103.600 39.950,105.259 41.600,105.875 41.600 C 106.532 41.600,108.103 42.453,108.468 43.007 C 109.073 43.926,110.786 45.600,111.122 45.600 C 111.321 45.600,111.969 46.050,112.562 46.600 C 113.156 47.150,113.709 47.600,113.791 47.600 C 113.874 47.600,115.259 48.972,116.871 50.649 C 118.482 52.326,120.177 54.081,120.638 54.549 C 121.098 55.017,121.881 56.079,122.376 56.909 C 122.871 57.738,123.873 58.873,124.603 59.429 C 125.333 59.986,126.211 61.145,126.555 62.005 C 127.291 63.844,128.369 65.200,129.095 65.200 C 129.379 65.200,129.948 65.754,130.360 66.430 C 132.381 69.754,135.549 69.792,139.372 66.538 C 140.237 65.802,141.167 65.200,141.440 65.200 C 141.712 65.200,142.445 64.947,143.068 64.637 C 143.690 64.327,144.675 63.858,145.256 63.593 C 145.837 63.328,146.529 62.707,146.794 62.211 C 147.059 61.716,147.844 61.123,148.538 60.893 C 153.374 59.290,155.200 58.303,155.200 57.293 C 155.200 56.617,157.096 55.993,157.536 56.523 C 158.226 57.355,157.329 63.410,156.262 65.114 C 154.943 67.224,153.613 73.935,153.603 78.538 C 153.599 80.439,152.566 84.084,151.494 85.980 C 150.534 87.677,149.634 91.203,149.614 93.346 C 149.581 96.992,148.310 103.440,147.158 105.812 C 145.899 108.406,145.353 110.924,144.821 116.600 C 144.294 122.221,144.050 122.549,140.614 122.247 C 134.798 121.735,131.232 120.940,130.377 119.965 C 129.518 118.986,127.243 118.193,123.000 117.395 C 118.763 116.599,117.422 116.151,115.800 114.991 C 114.297 113.916,110.769 112.801,108.854 112.796 C 106.834 112.790,103.699 111.777,101.952 110.567 C 100.360 109.463,97.573 108.591,93.800 108.015 C 90.175 107.462,89.152 107.152,88.376 106.376 C 87.297 105.297,84.438 104.161,81.994 103.840 C 77.715 103.279,77.154 101.975,80.696 100.825 C 81.629 100.522,82.979 99.693,83.696 98.983 C 84.413 98.273,86.382 97.120,88.072 96.420 C 90.250 95.519,91.450 94.748,92.193 93.774 C 92.818 92.954,93.590 92.400,94.107 92.400 C 95.250 92.400,98.400 91.186,98.400 90.746 C 98.400 90.556,98.627 90.400,98.904 90.400 C 101.244 90.400,101.019 82.414,98.649 81.373 C 98.182 81.168,97.242 79.920,96.561 78.600 C 95.866 77.253,94.851 75.937,94.248 75.600 C 93.657 75.270,93.060 74.554,92.921 74.009 C 92.628 72.863,90.525 69.898,88.874 68.302 C 88.249 67.698,87.490 66.708,87.187 66.102 C 86.506 64.739,85.184 63.200,84.694 63.200 C 84.188 63.200,82.830 61.517,82.813 60.869 C 82.797 60.233,80.875 58.257,79.921 57.897 C 79.547 57.756,78.943 57.047,78.578 56.321 C 77.848 54.870,76.691 53.767,75.293 53.189 C 74.794 52.983,74.228 52.406,74.036 51.907 C 73.615 50.818,71.817 49.200,71.028 49.200 C 70.716 49.200,69.728 48.452,68.832 47.537 C 67.128 45.799,66.337 45.257,63.976 44.207 C 63.192 43.859,61.979 42.967,61.279 42.225 C 60.450 41.346,59.206 40.630,57.704 40.168 C 56.437 39.778,54.753 38.887,53.961 38.186 C 52.388 36.794,50.292 35.939,46.600 35.186 C 45.280 34.917,43.750 34.388,43.200 34.010 C 40.061 31.856,35.480 30.866,28.400 30.813 C 21.387 30.761,20.532 29.297,27.006 28.428 C 31.064 27.884,36.008 26.612,37.800 25.652 C 40.512 24.200,54.336 23.521,62.600 24.434 M191.562 87.388 L 189.723 88.353 189.462 92.038 C 189.318 94.065,189.200 149.309,189.200 214.803 L 189.200 333.883 190.136 334.893 C 191.962 336.863,190.661 336.800,229.546 336.800 L 266.346 336.800 267.173 335.638 L 268.000 334.477 268.000 211.508 L 268.000 88.539 266.968 87.570 L 265.936 86.600 229.668 86.512 L 193.400 86.424 191.562 87.388 M266.500 88.157 C 267.681 89.053,267.577 333.900,266.395 334.911 C 265.448 335.722,192.800 336.007,192.800 335.200 C 192.800 334.980,192.533 334.800,192.208 334.800 C 191.175 334.800,191.178 335.210,191.290 210.917 C 191.400 89.367,191.403 88.832,192.200 88.230 C 193.328 87.378,265.380 87.307,266.500 88.157 M199.259 94.186 C 198.082 94.471,196.732 95.090,196.259 95.563 L 195.400 96.422 195.400 211.742 C 195.400 324.557,195.417 327.093,196.165 328.484 C 197.832 331.578,195.843 331.400,228.738 331.400 L 258.076 331.400 259.041 330.200 C 261.099 327.642,260.990 333.891,261.101 212.099 C 261.218 84.323,261.482 95.840,258.400 94.301 C 256.564 93.383,203.006 93.280,199.259 94.186 M258.653 96.228 L 260.000 97.657 260.000 211.195 L 260.000 324.734 259.174 326.662 C 257.609 330.312,260.352 330.000,229.836 330.000 C 210.683 330.000,202.513 329.869,201.719 329.548 C 198.995 328.447,197.911 327.713,197.181 326.477 C 196.411 325.173,196.400 323.520,196.400 211.324 L 196.400 97.493 197.500 96.547 C 198.105 96.026,199.230 95.495,200.000 95.367 C 200.770 95.239,201.580 95.073,201.800 94.999 C 202.020 94.924,214.599 94.849,229.753 94.832 L 257.306 94.800 258.653 96.228 M283.680 147.703 C 281.952 149.786,282.012 146.359,282.006 242.905 C 282.000 337.951,281.948 334.916,283.600 336.279 C 284.067 336.665,292.339 336.777,320.933 336.787 L 357.667 336.800 359.033 335.393 L 360.400 333.985 360.400 243.244 L 360.400 152.502 359.566 150.617 C 357.892 146.831,362.089 147.200,320.649 147.200 C 291.774 147.200,284.010 147.306,283.680 147.703 M357.926 150.754 L 358.800 152.309 358.800 243.139 L 358.800 333.969 357.925 334.784 C 357.057 335.593,356.728 335.600,320.671 335.600 L 284.294 335.600 283.547 334.739 C 282.418 333.437,282.372 153.649,283.500 150.906 L 284.200 149.203 320.626 149.201 L 357.053 149.200 357.926 150.754 M290.695 154.933 C 288.751 156.525,288.800 154.292,288.806 241.997 C 288.813 331.950,288.700 327.353,290.958 330.028 L 292.117 331.400 320.958 331.400 L 349.800 331.400 351.672 330.216 C 355.098 328.048,354.827 336.016,354.706 240.998 C 354.618 171.171,354.509 156.863,354.059 156.188 C 352.596 153.993,352.679 153.999,320.996 154.014 L 291.800 154.029 290.695 154.933 M350.777 155.919 C 353.318 157.176,353.184 152.353,353.192 242.720 C 353.201 333.207,353.406 326.138,350.712 328.068 C 347.903 330.080,349.161 330.000,320.390 330.000 L 293.271 330.000 292.221 328.752 C 289.842 325.924,290.000 332.019,290.000 243.284 C 290.000 158.386,290.020 157.337,291.680 155.900 C 292.907 154.838,348.627 154.856,350.777 155.919 M96.900 209.841 L 96.000 210.868 96.000 272.460 C 96.000 335.263,95.991 334.848,97.435 336.292 C 98.179 337.036,170.666 337.037,172.054 336.293 C 172.574 336.014,173.495 335.454,174.100 335.047 L 175.200 334.308 175.193 272.854 L 175.186 211.400 174.293 210.562 C 172.365 208.754,173.402 208.800,134.726 208.807 L 97.800 208.814 96.900 209.841 M171.200 209.936 C 171.200 210.120,171.650 210.477,172.200 210.727 L 173.200 211.183 173.200 272.564 L 173.200 333.946 172.024 334.783 C 170.563 335.824,99.914 335.922,98.100 334.886 L 97.200 334.372 97.200 272.610 C 97.200 223.631,97.303 210.783,97.700 210.538 C 97.975 210.367,98.920 210.109,99.800 209.964 C 102.178 209.572,171.200 209.544,171.200 209.936 M105.780 214.706 C 103.253 216.971,103.400 213.389,103.400 272.800 C 103.400 331.481,103.295 328.604,105.515 330.717 L 106.478 331.634 136.044 331.517 L 165.611 331.400 166.706 330.200 C 169.359 327.294,169.220 330.661,169.104 271.968 L 169.000 218.937 167.798 216.994 C 165.700 213.600,165.885 213.619,134.000 213.616 L 107.000 213.613 105.780 214.706 M163.789 216.614 C 167.806 217.782,167.400 211.466,167.400 272.803 L 167.400 326.723 166.283 327.758 C 165.669 328.327,164.679 328.897,164.083 329.024 C 163.487 329.151,162.587 329.423,162.081 329.628 C 161.545 329.845,149.832 330.000,133.987 330.000 L 106.811 330.000 105.706 328.329 L 104.600 326.659 104.496 273.016 L 104.391 219.373 105.485 217.687 L 106.579 216.000 134.128 216.000 C 157.712 216.000,161.981 216.088,163.789 216.614 M83.177 356.187 C 79.643 358.114,78.820 369.449,82.078 371.319 C 83.995 372.419,375.142 372.369,376.138 371.269 C 377.619 369.632,376.837 356.933,375.205 356.106 C 373.982 355.487,84.313 355.567,83.177 356.187 M373.147 358.064 C 374.748 358.433,375.248 358.751,375.613 359.631 C 376.245 361.156,375.980 369.783,375.280 370.481 C 374.638 371.122,84.846 371.467,83.652 370.828 C 82.762 370.351,82.000 367.119,82.000 363.815 C 82.000 361.420,82.252 360.586,83.608 358.500 L 84.192 357.600 227.666 357.600 C 335.010 357.600,371.645 357.717,373.147 358.064 " stroke="none" fill="#747474" fill-rule="evenodd"></path></g></svg>