<svg id="svg" version="1.1" xmlns="http://www.w3.org/2000/svg" xmlns:xlink="http://www.w3.org/1999/xlink" width="400" height="293.6170212765957" viewBox="0, 0, 400,293.6170212765957"><g id="svgg"><path id="path0" d="M162.865 7.483 C 161.613 9.441,161.050 9.692,157.902 9.692 C 155.349 9.692,154.186 10.133,154.184 11.103 C 154.182 12.020,153.037 13.492,151.917 14.018 L 150.808 14.540 150.636 17.182 C 150.420 20.507,150.138 21.172,148.075 23.235 C 147.155 24.155,146.091 25.321,145.711 25.826 C 145.331 26.331,144.495 27.012,143.854 27.339 C 143.097 27.726,142.543 28.280,142.276 28.918 C 142.050 29.459,141.123 30.740,140.217 31.764 C 138.518 33.684,137.621 35.326,137.280 37.143 C 137.173 37.716,136.967 38.258,136.824 38.347 C 136.681 38.435,136.564 38.770,136.564 39.090 C 136.564 39.411,135.969 40.309,135.242 41.086 C 134.515 41.863,133.921 42.658,133.921 42.853 C 133.921 44.282,132.658 47.211,130.936 49.780 C 130.178 50.910,129.407 52.430,129.222 53.157 C 128.274 56.888,127.011 57.976,122.203 59.208 C 119.137 59.993,113.582 60.793,111.192 60.793 C 109.101 60.793,107.011 61.462,105.904 62.485 C 105.022 63.300,102.592 64.214,99.413 64.925 C 96.332 65.614,95.171 66.111,94.525 67.019 C 93.934 67.849,91.263 69.310,90.337 69.310 C 89.675 69.310,87.225 70.492,87.225 70.812 C 87.225 71.353,85.144 73.086,84.262 73.280 C 83.393 73.471,82.214 74.518,80.661 76.477 C 80.201 77.058,79.596 77.533,79.317 77.533 C 78.676 77.533,77.667 78.629,77.426 79.589 C 77.324 79.993,76.768 80.653,76.191 81.057 C 74.629 82.149,73.757 83.135,73.560 84.031 C 73.354 84.970,71.904 87.294,70.744 88.546 C 69.732 89.637,69.017 91.304,69.014 92.575 C 69.010 94.050,68.007 97.027,67.019 98.490 C 64.979 101.513,65.081 98.844,64.911 153.891 C 64.817 184.182,64.650 203.605,64.479 203.965 C 63.779 205.439,62.178 206.935,61.019 207.198 C 58.338 207.807,23.737 207.690,23.077 207.070 C 20.118 204.290,10.751 204.523,7.694 207.453 C 5.118 209.922,5.286 208.192,5.286 232.163 L 5.286 253.348 5.947 253.953 C 6.311 254.286,6.899 254.646,7.254 254.754 C 8.215 255.045,9.692 256.538,9.692 257.219 C 9.692 258.554,10.324 258.737,14.934 258.737 C 19.714 258.737,20.347 258.546,20.654 257.008 C 20.865 255.952,21.893 254.936,22.970 254.718 C 24.607 254.386,24.670 254.004,24.670 244.358 L 24.670 235.538 25.732 234.362 L 26.794 233.186 193.655 233.186 C 343.952 233.186,360.580 233.232,361.166 233.642 C 362.522 234.592,362.547 234.805,362.702 246.696 L 362.849 258.003 364.067 258.590 C 365.716 259.385,366.430 260.081,367.218 261.661 L 367.883 262.996 372.240 263.077 C 376.740 263.161,377.974 262.832,377.974 261.544 C 377.974 260.673,379.502 259.037,380.590 258.744 C 382.181 258.316,382.085 259.889,382.085 234.089 C 382.085 208.490,382.164 209.692,380.486 209.692 C 379.851 209.692,377.974 207.712,377.974 207.042 C 377.974 204.563,366.285 204.569,364.548 207.049 C 364.143 207.627,363.803 207.636,342.738 207.636 L 321.338 207.636 320.306 206.430 C 318.185 203.952,318.357 208.112,318.344 158.840 C 318.331 106.918,318.172 102.305,316.314 100.163 C 315.381 99.088,313.950 94.272,313.950 92.209 C 313.950 91.003,313.112 89.394,312.288 89.019 C 311.903 88.844,311.456 88.351,311.294 87.924 C 311.131 87.497,310.752 86.802,310.452 86.379 C 310.151 85.956,309.733 85.036,309.523 84.335 C 309.263 83.464,308.810 82.818,308.095 82.296 C 306.509 81.139,305.727 80.262,305.727 79.641 C 305.727 78.784,304.599 77.533,303.827 77.533 C 303.180 77.533,302.582 76.960,300.829 74.660 C 300.464 74.181,299.670 73.665,298.979 73.458 C 298.234 73.235,297.236 72.559,296.388 71.704 C 294.908 70.212,293.941 69.672,291.231 68.824 C 289.675 68.337,288.106 67.245,288.106 66.648 C 288.106 66.340,285.528 65.397,282.966 64.768 C 279.593 63.940,277.843 63.267,277.004 62.475 C 276.014 61.541,273.530 60.795,271.386 60.788 C 267.324 60.774,259.556 59.219,257.232 57.955 C 255.110 56.800,254.879 56.275,254.613 52.008 C 254.318 47.267,253.720 45.192,252.387 44.285 C 251.843 43.915,251.211 43.216,250.984 42.731 C 250.418 41.527,249.339 37.813,249.339 37.070 C 249.339 36.686,248.937 36.219,248.238 35.792 C 246.920 34.988,246.424 34.407,246.412 33.655 C 246.407 33.347,246.052 31.929,245.624 30.503 C 244.845 27.907,244.569 27.531,242.743 26.579 C 242.426 26.414,241.831 25.604,241.421 24.779 C 240.855 23.639,240.377 23.129,239.434 22.659 C 238.522 22.205,237.953 21.616,237.292 20.445 C 236.607 19.231,236.121 18.741,235.263 18.398 C 234.076 17.923,233.179 16.983,232.543 15.545 C 232.304 15.004,231.812 14.567,231.224 14.373 C 230.709 14.203,229.321 13.302,228.139 12.371 C 225.794 10.523,225.437 10.369,222.614 9.983 C 221.564 9.840,219.648 9.522,218.355 9.277 C 215.339 8.705,212.728 8.699,209.257 9.257 C 206.913 9.635,205.963 9.649,203.167 9.347 C 201.344 9.151,196.747 8.977,192.952 8.962 C 188.699 8.945,185.098 8.782,183.568 8.536 C 181.750 8.245,180.101 8.203,177.401 8.378 C 171.894 8.736,171.590 8.706,169.102 7.557 C 167.863 6.984,166.411 6.427,165.876 6.319 C 165.342 6.212,164.681 6.061,164.409 5.985 C 164.056 5.886,163.610 6.318,162.865 7.483 M212.789 29.967 C 213.068 30.199,213.589 30.853,213.948 31.421 C 214.445 32.209,214.924 32.542,215.961 32.819 C 217.047 33.109,217.853 33.701,219.959 35.754 C 221.411 37.169,223.292 38.987,224.140 39.794 C 225.865 41.437,226.725 42.882,226.725 44.138 C 226.725 45.071,228.119 46.696,228.920 46.696 C 229.613 46.696,230.529 48.939,230.539 50.661 C 230.551 53.000,230.998 54.127,232.341 55.206 C 236.196 58.304,236.477 76.004,232.742 80.475 C 232.187 81.139,231.550 82.389,231.283 83.338 C 230.270 86.933,229.509 88.452,228.314 89.264 C 227.581 89.761,227.016 90.460,226.730 91.222 C 226.047 93.038,225.344 93.934,224.158 94.495 C 223.562 94.777,222.771 95.470,222.399 96.035 C 222.028 96.601,221.561 97.309,221.361 97.610 C 221.162 97.911,220.438 98.402,219.753 98.700 C 219.068 98.999,217.838 99.962,217.020 100.841 C 215.473 102.502,215.159 102.675,212.098 103.543 C 210.757 103.923,210.084 104.295,209.660 104.890 C 208.575 106.414,205.658 107.262,200.147 107.655 C 198.693 107.759,196.975 108.017,196.329 108.229 C 193.242 109.240,190.082 109.526,187.739 109.006 C 184.519 108.291,183.321 108.088,180.470 107.772 C 177.052 107.394,173.647 106.680,173.407 106.291 C 173.315 106.142,173.030 106.021,172.774 106.021 C 172.517 106.021,171.681 105.435,170.916 104.719 C 169.958 103.823,169.170 103.359,168.389 103.230 C 166.339 102.894,165.047 102.174,164.608 101.122 C 164.384 100.586,164.004 100.147,163.763 100.147 C 163.207 100.147,159.451 97.592,158.934 96.861 C 158.719 96.557,158.037 95.840,157.418 95.268 C 156.799 94.695,156.146 93.874,155.967 93.442 C 155.788 93.011,155.211 92.364,154.685 92.004 C 153.797 91.397,152.675 89.549,151.835 87.312 C 151.641 86.795,151.165 86.164,150.777 85.910 C 149.116 84.822,148.400 83.006,148.016 78.910 C 147.787 76.467,147.565 75.652,146.563 73.561 C 145.574 71.499,145.348 70.680,145.186 68.572 L 144.992 66.050 146.607 64.523 C 147.495 63.683,148.493 62.597,148.825 62.110 C 149.156 61.623,149.978 60.632,150.650 59.907 C 152.176 58.262,152.475 57.663,153.141 54.919 C 153.583 53.101,153.894 52.486,154.926 51.395 C 156.178 50.071,156.425 49.536,157.300 46.256 C 157.715 44.698,158.018 44.254,159.904 42.438 C 161.079 41.307,162.116 40.157,162.209 39.883 C 162.464 39.131,164.023 38.449,166.191 38.142 C 168.238 37.852,170.338 36.757,170.338 35.978 C 170.338 34.884,175.543 33.488,179.641 33.482 C 180.599 33.481,181.325 33.317,181.603 33.040 C 181.845 32.797,182.169 32.599,182.323 32.599 C 182.477 32.599,182.954 32.138,183.384 31.575 C 184.745 29.791,184.522 29.824,196.329 29.637 C 210.533 29.413,212.161 29.446,212.789 29.967 M158.060 123.106 C 159.871 123.649,161.689 125.463,162.890 127.927 C 163.766 129.723,164.189 130.245,165.348 130.958 C 166.431 131.624,166.864 132.123,167.263 133.168 C 167.648 134.177,168.071 134.682,168.938 135.169 C 169.831 135.671,170.293 136.241,170.953 137.651 C 171.423 138.658,172.091 139.633,172.437 139.818 C 173.436 140.353,174.419 141.572,175.304 143.375 C 175.755 144.294,176.739 145.618,177.490 146.317 C 178.240 147.016,178.855 147.751,178.855 147.950 C 178.855 148.149,178.971 148.311,179.114 148.311 C 179.257 148.311,179.668 149.036,180.028 149.923 C 180.492 151.065,180.977 151.717,181.697 152.162 C 182.817 152.853,183.996 154.471,184.304 155.737 C 184.415 156.192,184.847 156.734,185.277 156.957 C 186.385 157.534,187.207 158.544,187.788 160.042 C 188.066 160.759,188.561 161.723,188.889 162.183 L 189.484 163.019 190.261 162.242 C 190.688 161.815,191.642 161.159,192.380 160.785 C 193.913 160.008,194.211 159.694,194.650 158.385 C 195.058 157.173,197.288 154.152,197.907 153.973 C 198.170 153.897,198.758 153.053,199.214 152.098 C 200.175 150.086,201.299 148.655,202.183 148.319 C 202.807 148.082,203.015 147.747,203.983 145.429 C 204.363 144.518,204.867 143.954,205.780 143.419 C 206.595 142.941,207.048 142.469,207.048 142.097 C 207.048 141.045,209.040 138.231,210.979 136.542 C 211.456 136.127,212.191 135.136,212.611 134.340 C 213.062 133.486,213.837 132.594,214.500 132.164 C 215.179 131.723,215.909 130.873,216.343 130.017 C 217.038 128.646,217.748 127.859,219.465 126.555 C 219.914 126.214,220.543 125.422,220.863 124.795 C 221.805 122.947,222.698 122.662,227.002 122.835 C 231.018 122.996,234.464 123.667,236.105 124.607 C 238.138 125.771,238.704 125.998,240.269 126.272 C 241.139 126.425,243.469 126.833,245.448 127.180 C 247.427 127.527,249.120 127.930,249.210 128.076 C 249.300 128.222,249.592 128.341,249.858 128.341 C 250.124 128.341,250.823 128.810,251.412 129.385 C 252.516 130.463,254.766 131.230,256.975 131.280 C 258.395 131.312,260.009 131.933,261.269 132.932 C 262.979 134.287,263.763 134.718,265.786 135.412 C 268.209 136.244,268.871 136.680,269.308 137.734 C 269.619 138.486,271.645 139.794,272.498 139.794 C 272.980 139.794,274.346 141.044,274.603 141.721 C 274.744 142.092,275.333 142.620,275.913 142.895 C 276.492 143.170,277.161 143.675,277.400 144.018 C 277.639 144.360,278.818 145.635,280.020 146.850 C 281.223 148.065,282.407 149.539,282.652 150.125 C 282.898 150.714,283.538 151.463,284.083 151.800 C 285.088 152.421,285.886 153.687,286.188 155.142 C 286.280 155.587,286.987 156.586,287.758 157.361 C 289.368 158.980,289.991 160.155,290.646 162.810 C 291.001 164.247,291.456 165.119,292.549 166.453 L 293.986 168.208 294.426 171.842 C 295.019 176.736,295.056 176.875,296.139 178.324 C 298.367 181.304,298.970 186.383,299.005 202.442 C 299.006 203.215,297.956 205.260,296.903 206.535 L 295.992 207.636 189.587 207.636 L 83.181 207.636 82.161 206.506 C 80.186 204.320,80.099 203.756,80.259 194.080 C 80.341 189.094,80.543 184.906,80.737 184.141 C 81.217 182.249,82.246 179.761,82.652 179.510 C 83.371 179.064,84.288 176.267,84.288 174.515 C 84.288 172.631,85.298 168.195,85.762 168.037 C 85.921 167.983,86.050 167.777,86.050 167.578 C 86.050 167.380,86.437 166.846,86.910 166.393 C 87.924 165.421,88.268 164.625,88.676 162.303 C 89.022 160.334,89.656 159.198,91.274 157.646 C 91.939 157.009,92.566 156.040,92.782 155.319 C 93.208 153.898,94.683 151.932,95.522 151.665 C 95.842 151.563,96.414 150.785,96.821 149.896 C 97.336 148.772,97.926 148.049,98.847 147.415 C 99.562 146.923,100.147 146.348,100.147 146.137 C 100.147 145.636,103.220 142.731,103.751 142.731 C 103.976 142.731,104.568 142.101,105.068 141.330 C 105.817 140.174,106.208 139.866,107.302 139.574 C 108.146 139.348,108.820 138.937,109.159 138.442 C 110.138 137.015,111.443 135.963,112.628 135.647 C 114.655 135.107,116.719 134.114,117.282 133.409 C 118.158 132.311,119.962 131.574,122.546 131.258 C 125.743 130.868,126.849 130.483,127.850 129.412 C 128.899 128.289,130.800 127.616,134.602 127.022 C 139.098 126.319,141.637 125.694,142.291 125.129 C 144.378 123.323,154.466 122.029,158.060 123.106 " stroke="none" fill="#ffffff" fill-rule="evenodd"></path><path id="path1" d="M162.922 5.500 C 162.478 5.965,162.115 6.504,162.115 6.696 C 162.115 7.711,159.719 8.811,157.508 8.811 C 154.918 8.811,154.182 9.199,153.293 11.036 C 152.898 11.851,152.321 12.500,151.737 12.785 C 149.989 13.638,149.192 15.088,149.192 17.414 C 149.192 19.754,148.671 20.871,146.974 22.165 C 146.405 22.599,145.618 23.463,145.226 24.085 C 144.833 24.707,143.909 25.631,143.172 26.138 C 142.435 26.645,141.519 27.546,141.137 28.141 C 140.755 28.735,139.723 29.969,138.843 30.882 C 137.246 32.540,136.871 33.365,136.414 36.223 C 136.299 36.939,135.833 37.797,135.137 38.573 C 133.542 40.348,133.172 41.038,132.328 43.805 C 131.747 45.708,131.260 46.655,130.255 47.833 C 128.929 49.386,128.047 51.548,128.047 53.245 C 128.047 54.314,126.206 56.264,124.943 56.533 C 124.470 56.633,121.703 57.296,118.796 58.005 C 115.888 58.714,112.254 59.504,110.720 59.761 C 105.772 60.589,102.790 61.538,102.790 62.285 C 102.790 62.555,100.678 63.263,98.015 63.885 C 96.761 64.178,95.422 64.626,95.039 64.881 C 94.657 65.136,93.608 65.834,92.710 66.432 C 91.811 67.030,89.945 68.010,88.563 68.610 C 87.181 69.211,86.050 69.855,86.050 70.042 C 86.050 70.541,84.895 71.509,83.560 72.129 C 80.935 73.347,71.953 82.858,71.953 84.419 C 71.953 84.658,71.366 85.421,70.649 86.113 C 69.529 87.194,69.213 87.786,68.412 90.308 C 67.898 91.924,66.979 94.304,66.368 95.599 C 65.260 97.949,64.833 99.243,64.245 102.040 C 64.036 103.034,63.875 119.957,63.758 153.304 C 63.563 208.648,63.734 204.354,61.711 204.923 C 60.792 205.181,25.531 205.121,16.300 204.846 C 8.861 204.624,8.124 204.748,6.447 206.512 C 4.336 208.731,4.405 207.860,4.405 232.041 L 4.405 253.699 5.309 254.603 C 5.806 255.100,6.387 255.507,6.600 255.507 C 6.813 255.507,7.365 255.968,7.826 256.533 C 8.287 257.097,9.040 258.022,9.500 258.588 L 10.337 259.618 14.888 259.618 C 19.641 259.618,21.145 259.228,21.145 257.993 C 21.145 257.403,22.884 255.507,23.426 255.507 C 23.677 255.507,24.258 255.086,24.717 254.573 L 25.551 253.639 25.552 244.954 L 25.553 236.270 26.565 235.169 L 27.577 234.068 193.670 234.068 L 359.763 234.068 360.939 235.130 L 362.115 236.192 362.115 247.313 L 362.115 258.435 363.351 259.247 C 364.606 260.071,366.226 261.599,366.226 261.958 C 366.226 262.067,366.601 262.576,367.060 263.090 L 367.894 264.023 372.471 264.023 L 377.047 264.023 377.951 263.120 C 378.448 262.623,378.858 261.995,378.863 261.725 C 378.867 261.455,379.341 260.903,379.917 260.499 C 380.492 260.095,381.413 259.388,381.964 258.927 L 382.966 258.089 382.966 234.334 C 382.966 207.442,383.241 210.222,380.396 208.317 C 379.513 207.726,378.855 207.065,378.855 206.769 C 378.855 206.485,378.526 205.898,378.124 205.464 L 377.393 204.676 371.296 204.841 C 357.312 205.220,321.447 205.306,320.800 204.962 C 319.181 204.102,319.237 205.914,319.234 154.424 C 319.231 100.588,319.313 102.582,316.888 96.916 C 316.370 95.705,315.548 93.458,315.062 91.924 C 313.968 88.466,313.382 87.303,312.218 86.268 C 311.717 85.822,311.307 85.251,311.307 84.999 C 311.307 84.175,309.791 81.928,308.515 80.861 C 307.829 80.288,306.981 79.309,306.631 78.687 C 306.282 78.064,305.572 77.265,305.053 76.909 C 304.535 76.554,303.301 75.428,302.310 74.406 C 301.293 73.357,299.946 72.307,299.216 71.995 C 298.506 71.690,297.559 70.962,297.112 70.375 C 296.665 69.789,296.165 69.310,296.001 69.310 C 295.838 69.310,294.982 68.979,294.099 68.576 C 293.216 68.172,292.429 67.841,292.349 67.841 C 292.097 67.841,289.757 66.276,288.805 65.471 C 288.231 64.986,286.968 64.458,285.427 64.061 C 284.074 63.712,282.489 63.296,281.906 63.138 C 281.323 62.979,280.371 62.472,279.790 62.011 C 278.647 61.102,276.814 60.578,271.366 59.604 C 269.508 59.272,265.965 58.478,263.492 57.841 C 261.019 57.203,258.724 56.681,258.392 56.681 C 257.509 56.681,255.568 54.555,255.392 53.394 C 255.310 52.860,255.171 50.705,255.081 48.605 L 254.919 44.787 253.445 43.465 C 252.634 42.739,251.973 41.939,251.977 41.689 C 251.980 41.438,251.869 41.108,251.731 40.954 C 251.593 40.801,251.251 39.684,250.969 38.473 C 250.544 36.640,250.250 36.048,249.216 34.949 C 247.409 33.026,247.031 32.280,246.653 29.895 C 246.338 27.905,246.216 27.660,244.933 26.432 C 244.173 25.705,242.992 24.417,242.308 23.571 C 241.625 22.724,240.515 21.664,239.842 21.216 C 239.170 20.767,238.391 19.945,238.112 19.389 C 237.833 18.833,237.160 18.109,236.617 17.779 C 236.073 17.450,234.868 16.283,233.939 15.186 C 232.932 13.998,231.756 12.958,231.029 12.614 C 230.358 12.296,229.526 11.598,229.180 11.063 C 228.590 10.151,228.330 10.040,225.068 9.307 C 223.153 8.877,220.463 8.176,219.090 7.749 C 215.926 6.765,211.824 6.720,209.095 7.639 C 206.833 8.401,205.657 8.376,201.278 7.474 C 199.278 7.062,197.526 6.797,197.383 6.885 C 196.631 7.350,186.535 7.052,183.790 6.483 C 180.920 5.889,176.825 5.979,173.568 6.708 C 172.788 6.882,172.187 6.785,171.072 6.304 C 167.352 4.699,164.001 4.369,162.922 5.500 M165.876 6.319 C 166.411 6.427,167.863 6.984,169.102 7.557 C 171.590 8.706,171.894 8.736,177.401 8.378 C 180.101 8.203,181.750 8.245,183.568 8.536 C 185.098 8.782,188.699 8.945,192.952 8.962 C 196.747 8.977,201.344 9.151,203.167 9.347 C 205.963 9.649,206.913 9.635,209.257 9.257 C 212.728 8.699,215.339 8.705,218.355 9.277 C 219.648 9.522,221.564 9.840,222.614 9.983 C 225.437 10.369,225.794 10.523,228.139 12.371 C 229.321 13.302,230.709 14.203,231.224 14.373 C 231.812 14.567,232.304 15.004,232.543 15.545 C 233.179 16.983,234.076 17.923,235.263 18.398 C 236.121 18.741,236.607 19.231,237.292 20.445 C 237.953 21.616,238.522 22.205,239.434 22.659 C 240.377 23.129,240.855 23.639,241.421 24.779 C 241.831 25.604,242.426 26.414,242.743 26.579 C 244.569 27.531,244.845 27.907,245.624 30.503 C 246.052 31.929,246.407 33.347,246.412 33.655 C 246.424 34.407,246.920 34.988,248.238 35.792 C 248.937 36.219,249.339 36.686,249.339 37.070 C 249.339 37.813,250.418 41.527,250.984 42.731 C 251.211 43.216,251.843 43.915,252.387 44.285 C 253.720 45.192,254.318 47.267,254.613 52.008 C 254.879 56.275,255.110 56.800,257.232 57.955 C 259.556 59.219,267.324 60.774,271.386 60.788 C 273.530 60.795,276.014 61.541,277.004 62.475 C 277.843 63.267,279.593 63.940,282.966 64.768 C 285.528 65.397,288.106 66.340,288.106 66.648 C 288.106 67.245,289.675 68.337,291.231 68.824 C 293.941 69.672,294.908 70.212,296.388 71.704 C 297.236 72.559,298.234 73.235,298.979 73.458 C 299.670 73.665,300.464 74.181,300.829 74.660 C 302.582 76.960,303.180 77.533,303.827 77.533 C 304.599 77.533,305.727 78.784,305.727 79.641 C 305.727 80.262,306.509 81.139,308.095 82.296 C 308.810 82.818,309.263 83.464,309.523 84.335 C 309.733 85.036,310.151 85.956,310.452 86.379 C 310.752 86.802,311.131 87.497,311.294 87.924 C 311.456 88.351,311.903 88.844,312.288 89.019 C 313.112 89.394,313.950 91.003,313.950 92.209 C 313.950 94.272,315.381 99.088,316.314 100.163 C 318.172 102.305,318.331 106.918,318.344 158.840 C 318.357 208.112,318.185 203.952,320.306 206.430 L 321.338 207.636 342.738 207.636 C 363.803 207.636,364.143 207.627,364.548 207.049 C 366.285 204.569,377.974 204.563,377.974 207.042 C 377.974 207.712,379.851 209.692,380.486 209.692 C 382.164 209.692,382.085 208.490,382.085 234.089 C 382.085 259.889,382.181 258.316,380.590 258.744 C 379.502 259.037,377.974 260.673,377.974 261.544 C 377.974 262.832,376.740 263.161,372.240 263.077 L 367.883 262.996 367.218 261.661 C 366.430 260.081,365.716 259.385,364.067 258.590 L 362.849 258.003 362.702 246.696 C 362.547 234.805,362.522 234.592,361.166 233.642 C 360.580 233.232,343.952 233.186,193.655 233.186 L 26.794 233.186 25.732 234.362 L 24.670 235.538 24.670 244.358 C 24.670 254.004,24.607 254.386,22.970 254.718 C 21.893 254.936,20.865 255.952,20.654 257.008 C 20.347 258.546,19.714 258.737,14.934 258.737 C 10.324 258.737,9.692 258.554,9.692 257.219 C 9.692 256.538,8.215 255.045,7.254 254.754 C 6.899 254.646,6.311 254.286,5.947 253.953 L 5.286 253.348 5.286 232.163 C 5.286 208.192,5.118 209.922,7.694 207.453 C 10.751 204.523,20.118 204.290,23.077 207.070 C 23.737 207.690,58.338 207.807,61.019 207.198 C 62.178 206.935,63.779 205.439,64.479 203.965 C 64.650 203.605,64.817 184.182,64.911 153.891 C 65.081 98.844,64.979 101.513,67.019 98.490 C 68.007 97.027,69.010 94.050,69.014 92.575 C 69.017 91.304,69.732 89.637,70.744 88.546 C 71.904 87.294,73.354 84.970,73.560 84.031 C 73.757 83.135,74.629 82.149,76.191 81.057 C 76.768 80.653,77.324 79.993,77.426 79.589 C 77.667 78.629,78.676 77.533,79.317 77.533 C 79.596 77.533,80.201 77.058,80.661 76.477 C 82.214 74.518,83.393 73.471,84.262 73.280 C 85.144 73.086,87.225 71.353,87.225 70.812 C 87.225 70.492,89.675 69.310,90.337 69.310 C 91.263 69.310,93.934 67.849,94.525 67.019 C 95.171 66.111,96.332 65.614,99.413 64.925 C 102.592 64.214,105.022 63.300,105.904 62.485 C 107.011 61.462,109.101 60.793,111.192 60.793 C 113.582 60.793,119.137 59.993,122.203 59.208 C 127.011 57.976,128.274 56.888,129.222 53.157 C 129.407 52.430,130.178 50.910,130.936 49.780 C 132.658 47.211,133.921 44.282,133.921 42.853 C 133.921 42.658,134.515 41.863,135.242 41.086 C 135.969 40.309,136.564 39.411,136.564 39.090 C 136.564 38.770,136.681 38.435,136.824 38.347 C 136.967 38.258,137.173 37.716,137.280 37.143 C 137.621 35.326,138.518 33.684,140.217 31.764 C 141.123 30.740,142.050 29.459,142.276 28.918 C 142.543 28.280,143.097 27.726,143.854 27.339 C 144.495 27.012,145.331 26.331,145.711 25.826 C 146.091 25.321,147.155 24.155,148.075 23.235 C 150.138 21.172,150.420 20.507,150.636 17.182 L 150.808 14.540 151.917 14.018 C 153.037 13.492,154.182 12.020,154.184 11.103 C 154.186 10.133,155.349 9.692,157.902 9.692 C 161.050 9.692,161.613 9.441,162.865 7.483 C 163.610 6.318,164.056 5.886,164.409 5.985 C 164.681 6.061,165.342 6.212,165.876 6.319 M196.329 29.637 C 184.522 29.824,184.745 29.791,183.384 31.575 C 182.954 32.138,182.477 32.599,182.323 32.599 C 182.169 32.599,181.845 32.797,181.603 33.040 C 181.325 33.317,180.599 33.481,179.641 33.482 C 175.543 33.488,170.338 34.884,170.338 35.978 C 170.338 36.757,168.238 37.852,166.191 38.142 C 164.023 38.449,162.464 39.131,162.209 39.883 C 162.116 40.157,161.079 41.307,159.904 42.438 C 158.018 44.254,157.715 44.698,157.300 46.256 C 156.425 49.536,156.178 50.071,154.926 51.395 C 153.894 52.486,153.583 53.101,153.141 54.919 C 152.475 57.663,152.176 58.262,150.650 59.907 C 149.978 60.632,149.156 61.623,148.825 62.110 C 148.493 62.597,147.495 63.683,146.607 64.523 L 144.992 66.050 145.186 68.572 C 145.348 70.680,145.574 71.499,146.563 73.561 C 147.565 75.652,147.787 76.467,148.016 78.910 C 148.400 83.006,149.116 84.822,150.777 85.910 C 151.165 86.164,151.641 86.795,151.835 87.312 C 152.675 89.549,153.797 91.397,154.685 92.004 C 155.211 92.364,155.788 93.011,155.967 93.442 C 156.146 93.874,156.799 94.695,157.418 95.268 C 158.037 95.840,158.719 96.557,158.934 96.861 C 159.451 97.592,163.207 100.147,163.763 100.147 C 164.004 100.147,164.384 100.586,164.608 101.122 C 165.047 102.174,166.339 102.894,168.389 103.230 C 169.170 103.359,169.958 103.823,170.916 104.719 C 171.681 105.435,172.517 106.021,172.774 106.021 C 173.030 106.021,173.315 106.142,173.407 106.291 C 173.647 106.680,177.052 107.394,180.470 107.772 C 183.321 108.088,184.519 108.291,187.739 109.006 C 190.082 109.526,193.242 109.240,196.329 108.229 C 196.975 108.017,198.693 107.759,200.147 107.655 C 205.658 107.262,208.575 106.414,209.660 104.890 C 210.084 104.295,210.757 103.923,212.098 103.543 C 215.159 102.675,215.473 102.502,217.020 100.841 C 217.838 99.962,219.068 98.999,219.753 98.700 C 220.438 98.402,221.162 97.911,221.361 97.610 C 221.561 97.309,222.028 96.601,222.399 96.035 C 222.771 95.470,223.562 94.777,224.158 94.495 C 225.344 93.934,226.047 93.038,226.730 91.222 C 227.016 90.460,227.581 89.761,228.314 89.264 C 229.509 88.452,230.270 86.933,231.283 83.338 C 231.550 82.389,232.187 81.139,232.742 80.475 C 234.516 78.352,235.227 74.581,235.237 67.246 C 235.247 60.045,234.501 56.942,232.341 55.206 C 230.998 54.127,230.551 53.000,230.539 50.661 C 230.529 48.939,229.613 46.696,228.920 46.696 C 228.119 46.696,226.725 45.071,226.725 44.138 C 226.725 42.882,225.865 41.437,224.140 39.794 C 223.292 38.987,221.411 37.169,219.959 35.754 C 217.853 33.701,217.047 33.109,215.961 32.819 C 214.924 32.542,214.445 32.209,213.948 31.421 C 212.582 29.257,213.637 29.364,196.329 29.637 M211.672 31.241 C 212.196 31.584,212.630 31.997,212.636 32.159 C 212.650 32.538,213.750 33.332,214.659 33.620 C 216.064 34.064,218.160 35.823,218.358 36.722 C 218.602 37.835,221.427 40.555,222.855 41.052 C 224.008 41.453,225.419 43.408,226.115 45.572 C 226.327 46.230,226.962 47.059,227.744 47.701 C 228.982 48.715,229.032 48.821,229.184 50.734 C 229.572 55.646,229.799 56.281,231.471 57.146 C 234.552 58.739,234.705 76.146,231.657 78.359 C 230.821 78.966,230.362 80.141,229.974 82.673 C 229.571 85.304,228.867 86.586,227.000 88.086 C 226.168 88.754,225.733 89.394,225.489 90.308 C 225.122 91.680,223.984 93.036,222.320 94.086 C 221.755 94.442,221.251 95.016,221.202 95.360 C 221.071 96.265,219.817 97.503,219.030 97.505 C 218.034 97.506,216.505 98.545,215.840 99.673 C 215.176 100.797,211.809 102.643,209.838 102.962 C 209.051 103.089,208.276 103.517,207.489 104.259 C 205.618 106.021,205.141 106.088,193.860 106.173 C 188.272 106.215,183.142 106.346,182.460 106.465 C 179.511 106.978,174.121 105.506,173.371 103.983 C 172.891 103.008,171.774 102.479,169.796 102.287 C 168.088 102.122,167.328 101.708,165.367 99.874 C 164.814 99.357,163.984 98.739,163.523 98.501 C 162.307 97.872,157.758 93.621,156.861 92.275 C 156.439 91.642,155.547 90.610,154.878 89.982 C 154.133 89.282,153.581 88.454,153.451 87.843 C 153.082 86.107,152.449 84.912,151.548 84.246 C 150.206 83.254,149.083 80.050,149.205 77.565 C 149.358 74.460,149.203 72.345,148.741 71.239 C 148.138 69.794,148.165 66.272,148.785 65.758 C 149.326 65.309,150.661 62.526,150.661 61.847 C 150.661 61.599,151.056 61.191,151.539 60.941 C 152.424 60.483,153.592 58.620,153.604 57.648 C 153.618 56.442,155.085 52.992,155.807 52.464 C 156.921 51.651,159.169 46.569,159.176 44.850 C 159.177 44.512,159.631 44.131,160.454 43.779 C 161.387 43.378,161.942 42.869,162.521 41.882 C 163.447 40.302,163.981 39.990,167.634 38.897 C 169.887 38.223,170.523 37.897,171.277 37.029 C 172.665 35.429,175.275 34.695,179.674 34.665 C 181.515 34.653,183.194 33.886,184.205 32.594 C 185.653 30.743,186.958 30.573,199.559 30.596 C 210.425 30.616,210.745 30.633,211.672 31.241 M147.959 123.201 C 145.363 123.638,143.140 124.394,142.291 125.129 C 141.637 125.694,139.098 126.319,134.602 127.022 C 130.800 127.616,128.899 128.289,127.850 129.412 C 126.849 130.483,125.743 130.868,122.546 131.258 C 119.962 131.574,118.158 132.311,117.282 133.409 C 116.719 134.114,114.655 135.107,112.628 135.647 C 111.443 135.963,110.138 137.015,109.159 138.442 C 108.820 138.937,108.146 139.348,107.302 139.574 C 106.208 139.866,105.817 140.174,105.068 141.330 C 104.568 142.101,103.976 142.731,103.751 142.731 C 103.220 142.731,100.147 145.636,100.147 146.137 C 100.147 146.348,99.562 146.923,98.847 147.415 C 97.926 148.049,97.336 148.772,96.821 149.896 C 96.414 150.785,95.842 151.563,95.522 151.665 C 94.683 151.932,93.208 153.898,92.782 155.319 C 92.566 156.040,91.939 157.009,91.274 157.646 C 89.656 159.198,89.022 160.334,88.676 162.303 C 88.268 164.625,87.924 165.421,86.910 166.393 C 86.437 166.846,86.050 167.380,86.050 167.578 C 86.050 167.777,85.921 167.983,85.762 168.037 C 85.298 168.195,84.288 172.631,84.288 174.515 C 84.288 176.267,83.371 179.064,82.652 179.510 C 82.246 179.761,81.217 182.249,80.737 184.141 C 80.543 184.906,80.341 189.094,80.259 194.080 C 80.099 203.756,80.186 204.320,82.161 206.506 L 83.181 207.636 189.587 207.636 L 295.992 207.636 296.903 206.535 C 297.956 205.260,299.006 203.215,299.005 202.442 C 298.970 186.383,298.367 181.304,296.139 178.324 C 295.056 176.875,295.019 176.736,294.426 171.842 L 293.986 168.208 292.549 166.453 C 291.456 165.119,291.001 164.247,290.646 162.810 C 289.991 160.155,289.368 158.980,287.758 157.361 C 286.987 156.586,286.280 155.587,286.188 155.142 C 285.886 153.687,285.088 152.421,284.083 151.800 C 283.538 151.463,282.898 150.714,282.652 150.125 C 282.407 149.539,281.223 148.065,280.020 146.850 C 278.818 145.635,277.639 144.360,277.400 144.018 C 277.161 143.675,276.492 143.170,275.913 142.895 C 275.333 142.620,274.744 142.092,274.603 141.721 C 274.346 141.044,272.980 139.794,272.498 139.794 C 271.645 139.794,269.619 138.486,269.308 137.734 C 268.871 136.680,268.209 136.244,265.786 135.412 C 263.763 134.718,262.979 134.287,261.269 132.932 C 260.009 131.933,258.395 131.312,256.975 131.280 C 254.766 131.230,252.516 130.463,251.412 129.385 C 250.823 128.810,250.124 128.341,249.858 128.341 C 249.592 128.341,249.300 128.222,249.210 128.076 C 249.120 127.930,247.427 127.527,245.448 127.180 C 243.469 126.833,241.139 126.425,240.269 126.272 C 238.704 125.998,238.138 125.771,236.105 124.607 C 234.464 123.667,231.018 122.996,227.002 122.835 C 222.698 122.662,221.805 122.947,220.863 124.795 C 220.543 125.422,219.914 126.214,219.465 126.555 C 217.748 127.859,217.038 128.646,216.343 130.017 C 215.909 130.873,215.179 131.723,214.500 132.164 C 213.837 132.594,213.062 133.486,212.611 134.340 C 212.191 135.136,211.456 136.127,210.979 136.542 C 209.040 138.231,207.048 141.045,207.048 142.097 C 207.048 142.469,206.595 142.941,205.780 143.419 C 204.867 143.954,204.363 144.518,203.983 145.429 C 203.015 147.747,202.807 148.082,202.183 148.319 C 201.299 148.655,200.175 150.086,199.214 152.098 C 198.758 153.053,198.170 153.897,197.907 153.973 C 197.288 154.152,195.058 157.173,194.650 158.385 C 194.211 159.694,193.913 160.008,192.380 160.785 C 191.642 161.159,190.688 161.815,190.261 162.242 L 189.484 163.019 188.889 162.183 C 188.561 161.723,188.066 160.759,187.788 160.042 C 187.207 158.544,186.385 157.534,185.277 156.957 C 184.847 156.734,184.415 156.192,184.304 155.737 C 183.996 154.471,182.817 152.853,181.697 152.162 C 180.977 151.717,180.492 151.065,180.028 149.923 C 179.668 149.036,179.257 148.311,179.114 148.311 C 178.971 148.311,178.855 148.149,178.855 147.950 C 178.855 147.751,178.240 147.016,177.490 146.317 C 176.739 145.618,175.755 144.294,175.304 143.375 C 174.419 141.572,173.436 140.353,172.437 139.818 C 172.091 139.633,171.423 138.658,170.953 137.651 C 170.293 136.241,169.831 135.671,168.938 135.169 C 168.071 134.682,167.648 134.177,167.263 133.168 C 166.864 132.123,166.431 131.624,165.348 130.958 C 164.189 130.245,163.766 129.723,162.890 127.927 C 160.518 123.061,156.448 121.773,147.959 123.201 M157.766 124.870 C 159.454 125.770,162.115 128.376,162.115 129.129 C 162.115 129.949,162.865 131.034,163.709 131.434 C 164.237 131.685,165.163 132.683,165.944 133.843 C 166.677 134.932,167.816 136.185,168.476 136.628 C 169.608 137.388,169.891 137.846,170.523 139.933 C 170.680 140.455,171.273 141.132,171.997 141.619 C 172.919 142.238,173.256 142.686,173.407 143.494 C 173.795 145.561,174.752 147.048,176.203 147.838 C 177.890 148.756,178.328 149.244,179.132 151.101 C 179.555 152.079,180.157 152.840,180.932 153.378 C 181.586 153.833,182.302 154.669,182.567 155.287 C 183.474 157.404,183.794 157.863,184.973 158.737 C 185.626 159.222,186.169 159.853,186.179 160.139 C 186.301 163.684,189.127 166.229,190.651 164.167 C 191.011 163.680,192.105 162.776,193.083 162.157 C 194.231 161.430,195.028 160.678,195.333 160.031 C 195.593 159.481,195.990 158.645,196.214 158.174 C 196.439 157.703,197.305 156.880,198.140 156.345 C 199.998 155.155,200.690 154.206,201.163 152.202 C 201.470 150.901,201.717 150.533,202.738 149.847 C 203.663 149.225,204.038 148.724,204.331 147.718 C 204.774 146.197,205.097 145.735,206.322 144.876 C 206.811 144.533,207.710 143.400,208.320 142.358 C 209.525 140.297,210.653 139.088,211.652 138.787 C 212.359 138.573,213.944 136.281,214.255 135.020 C 214.377 134.526,214.931 133.892,215.671 133.396 C 216.772 132.658,217.150 132.109,218.324 129.535 C 218.503 129.142,219.168 128.547,219.802 128.213 C 220.610 127.788,221.055 127.304,221.291 126.594 C 221.980 124.525,223.230 123.952,226.437 124.235 C 229.632 124.517,232.993 125.490,234.068 126.443 C 235.331 127.564,236.007 127.753,238.742 127.753 C 243.620 127.753,248.414 128.902,249.161 130.251 C 249.643 131.120,249.821 131.195,252.254 131.550 C 256.416 132.159,260.499 133.819,260.499 134.902 C 260.499 135.894,261.827 136.560,264.188 136.752 C 266.702 136.957,267.717 137.437,268.421 138.752 C 268.650 139.181,269.423 139.783,270.162 140.110 C 270.893 140.433,272.421 141.592,273.558 142.684 C 274.694 143.776,276.054 144.970,276.579 145.336 C 277.104 145.702,277.533 146.151,277.533 146.333 C 277.533 146.805,279.035 148.311,279.506 148.311 C 279.723 148.311,279.988 148.543,280.095 148.825 C 280.452 149.768,282.363 152.263,283.595 153.394 C 284.536 154.258,284.962 154.979,285.475 156.573 C 285.951 158.053,286.353 158.768,286.901 159.107 C 287.982 159.777,288.679 160.686,288.687 161.436 C 288.690 161.790,288.812 162.153,288.957 162.243 C 289.102 162.333,289.448 163.425,289.725 164.670 C 290.112 166.409,290.426 167.119,291.082 167.731 C 292.636 169.183,293.432 171.525,293.355 174.418 C 293.284 177.105,293.563 179.332,294.005 179.605 C 294.152 179.696,294.273 180.015,294.273 180.314 C 294.273 180.613,294.678 181.199,295.172 181.615 C 296.774 182.963,298.307 191.377,297.620 195.055 C 297.489 195.756,297.376 197.804,297.369 199.607 C 297.358 202.663,297.309 202.937,296.645 203.645 L 295.933 204.405 189.544 204.405 L 83.156 204.405 82.267 203.327 C 81.778 202.734,81.439 202.151,81.513 202.032 C 81.586 201.913,81.474 200.977,81.262 199.953 C 80.340 195.493,82.095 183.810,83.899 182.391 C 85.287 181.299,85.793 179.467,85.887 175.190 C 85.982 170.869,86.544 168.980,87.922 168.352 C 88.611 168.038,89.280 166.239,89.281 164.701 C 89.281 163.443,91.464 159.471,92.155 159.471 C 92.784 159.471,93.613 157.984,93.956 156.240 C 94.282 154.585,94.415 154.376,95.759 153.410 C 96.557 152.837,97.210 152.179,97.210 151.949 C 97.210 151.249,98.734 149.176,99.761 148.478 C 100.293 148.117,101.117 147.284,101.592 146.628 C 102.067 145.972,102.961 145.058,103.578 144.597 C 104.194 144.136,105.507 142.948,106.494 141.956 C 107.614 140.831,108.638 140.076,109.215 139.949 C 109.725 139.837,110.371 139.410,110.651 139.000 C 111.978 137.058,112.332 136.858,114.451 136.853 C 116.755 136.848,117.679 136.470,118.502 135.195 C 119.685 133.362,122.302 132.265,127.204 131.548 C 129.263 131.247,129.595 131.110,130.151 130.329 C 131.275 128.751,135.579 127.693,140.537 127.777 C 143.337 127.824,144.265 127.568,145.104 126.516 C 145.607 125.884,147.814 125.062,150.367 124.555 C 151.256 124.379,152.247 124.183,152.570 124.119 C 154.508 123.737,156.062 123.962,157.766 124.870 " stroke="none" fill="#050405" fill-rule="evenodd"></path><path id="path2" d="M162.942 3.899 C 162.474 4.084,161.846 4.776,161.398 5.599 C 160.498 7.253,160.308 7.342,157.676 7.342 C 154.790 7.342,153.862 7.812,152.660 9.885 C 151.894 11.206,151.342 11.769,150.256 12.335 C 148.380 13.312,148.041 14.018,148.028 16.974 C 148.017 19.632,147.499 20.602,145.874 21.010 C 145.407 21.127,144.882 21.681,144.401 22.564 C 143.990 23.318,143.252 24.172,142.761 24.460 C 141.102 25.436,140.023 26.535,139.481 27.799 C 139.095 28.700,138.635 29.205,137.859 29.580 C 136.651 30.164,135.875 31.728,135.342 34.653 C 135.000 36.534,134.294 37.792,133.304 38.286 C 132.261 38.806,131.257 40.858,131.094 42.803 C 130.914 44.958,130.259 46.291,129.196 46.661 C 128.158 47.023,127.544 48.395,127.048 51.462 C 126.565 54.451,126.135 54.919,123.877 54.919 C 120.691 54.919,116.450 56.083,114.831 57.402 C 114.589 57.600,112.078 58.124,109.251 58.567 C 104.065 59.379,102.073 60.033,100.561 61.419 C 99.888 62.036,95.790 63.436,94.658 63.436 C 93.641 63.436,92.442 64.131,91.389 65.330 C 90.885 65.904,90.234 66.373,89.942 66.373 C 89.650 66.373,89.150 66.552,88.832 66.772 C 88.513 66.991,87.790 67.322,87.225 67.507 C 86.659 67.691,85.734 68.314,85.169 68.889 C 84.604 69.465,83.849 70.234,83.492 70.600 C 83.136 70.965,82.314 71.438,81.666 71.652 C 80.534 72.026,79.001 73.686,79.001 74.539 C 79.001 74.732,78.695 74.890,78.321 74.890 C 77.528 74.890,74.954 77.323,74.707 78.305 C 74.619 78.659,73.988 79.300,73.307 79.731 C 72.340 80.342,71.984 80.801,71.683 81.819 C 71.344 82.965,70.716 83.816,69.272 85.081 C 68.182 86.036,68.084 86.259,66.519 91.332 C 66.246 92.219,65.579 93.434,65.038 94.032 C 62.746 96.570,62.557 101.368,62.546 157.337 C 62.538 192.396,62.457 202.306,62.175 202.677 C 61.309 203.815,35.471 204.192,15.859 203.354 C 11.503 203.168,8.386 203.519,6.336 204.426 C 3.288 205.774,3.242 206.185,3.236 232.079 C 3.230 256.182,3.118 255.021,5.562 256.143 C 6.675 256.653,7.105 257.079,7.744 258.297 C 9.024 260.742,9.913 261.087,14.954 261.087 C 20.132 261.087,20.768 260.866,22.030 258.629 C 22.735 257.380,23.305 256.807,24.528 256.117 C 26.795 254.837,26.725 255.189,26.725 244.985 C 26.725 236.965,26.780 235.871,27.190 235.714 C 27.797 235.481,359.574 235.481,360.182 235.714 C 360.594 235.872,360.646 237.126,360.646 246.817 L 360.646 257.741 361.510 259.103 C 362.167 260.140,362.650 260.548,363.530 260.812 C 364.512 261.106,364.738 261.332,365.033 262.314 C 365.297 263.196,365.707 263.680,366.757 264.350 L 368.135 265.229 372.740 265.140 C 377.988 265.039,378.512 264.846,379.600 262.613 C 380.053 261.683,380.557 261.206,381.675 260.649 C 382.691 260.143,383.350 259.558,383.793 258.772 L 384.435 257.629 384.435 234.214 C 384.435 206.905,384.673 208.677,380.849 207.522 C 380.573 207.438,380.045 206.744,379.674 205.978 C 378.481 203.511,378.081 203.368,372.593 203.441 C 369.980 203.476,357.401 203.581,344.640 203.676 L 321.439 203.848 320.925 203.213 C 320.441 202.615,320.411 200.045,320.410 158.484 C 320.409 100.540,320.238 96.327,317.819 94.602 C 317.189 94.153,316.922 93.556,316.467 91.588 C 315.728 88.390,314.831 86.350,313.770 85.452 C 312.551 84.421,311.711 83.147,311.339 81.763 C 311.076 80.788,310.798 80.462,309.837 80.004 C 309.005 79.608,308.479 79.079,308.056 78.213 C 307.342 76.752,305.378 74.890,304.551 74.890 C 304.229 74.890,303.965 74.717,303.965 74.506 C 303.965 73.737,302.452 72.101,301.337 71.666 C 300.204 71.222,299.789 70.896,297.797 68.883 C 297.232 68.312,296.674 67.844,296.558 67.843 C 296.442 67.842,295.624 67.511,294.741 67.107 C 293.858 66.703,292.867 66.373,292.537 66.373 C 292.170 66.373,291.764 66.034,291.485 65.495 C 291.021 64.599,289.152 63.436,288.176 63.436 C 286.894 63.436,282.747 61.995,282.335 61.407 C 282.098 61.069,281.768 60.793,281.600 60.793 C 281.432 60.793,280.897 60.510,280.411 60.164 C 279.752 59.695,278.135 59.301,274.052 58.617 C 269.583 57.868,268.320 57.547,267.185 56.871 C 265.381 55.797,263.318 55.257,260.117 55.020 C 257.000 54.790,256.685 54.499,256.674 51.844 C 256.647 45.692,255.862 42.948,253.761 41.671 C 252.658 41.000,252.352 40.264,252.100 37.668 C 251.885 35.457,251.260 34.361,249.541 33.183 C 248.580 32.525,248.478 32.299,248.032 29.862 C 247.481 26.851,246.723 25.523,244.954 24.468 C 244.297 24.076,243.754 23.531,243.749 23.258 C 243.729 22.316,243.002 21.439,241.693 20.779 C 240.772 20.314,240.052 19.615,239.273 18.430 C 238.455 17.184,237.783 16.549,236.703 16.002 C 235.900 15.595,235.242 15.072,235.242 14.840 C 235.242 13.855,234.485 12.875,233.329 12.363 C 232.216 11.871,229.662 9.577,229.662 9.069 C 229.662 8.706,227.240 7.972,225.404 7.779 C 222.705 7.496,220.234 6.781,219.334 6.024 C 217.084 4.131,211.567 3.834,209.485 5.494 C 207.042 7.443,205.659 7.476,201.909 5.678 L 199.559 4.552 193.392 4.508 C 181.804 4.426,170.588 4.129,167.640 3.826 C 164.234 3.477,163.998 3.481,162.942 3.899 M168.282 5.354 C 169.009 5.528,170.264 5.956,171.072 6.304 C 172.187 6.785,172.788 6.882,173.568 6.708 C 176.825 5.979,180.920 5.889,183.790 6.483 C 186.535 7.052,196.631 7.350,197.383 6.885 C 197.526 6.797,199.278 7.062,201.278 7.474 C 205.657 8.376,206.833 8.401,209.095 7.639 C 211.824 6.720,215.926 6.765,219.090 7.749 C 220.463 8.176,223.153 8.877,225.068 9.307 C 228.330 10.040,228.590 10.151,229.180 11.063 C 229.526 11.598,230.358 12.296,231.029 12.614 C 231.756 12.958,232.932 13.998,233.939 15.186 C 234.868 16.283,236.073 17.450,236.617 17.779 C 237.160 18.109,237.833 18.833,238.112 19.389 C 238.391 19.945,239.170 20.767,239.842 21.216 C 240.515 21.664,241.625 22.724,242.308 23.571 C 242.992 24.417,244.173 25.705,244.933 26.432 C 246.216 27.660,246.338 27.905,246.653 29.895 C 247.031 32.280,247.409 33.026,249.216 34.949 C 250.250 36.048,250.544 36.640,250.969 38.473 C 251.251 39.684,251.593 40.801,251.731 40.954 C 251.869 41.108,251.980 41.438,251.977 41.689 C 251.973 41.939,252.634 42.739,253.445 43.465 L 254.919 44.787 255.081 48.605 C 255.171 50.705,255.310 52.860,255.392 53.394 C 255.568 54.555,257.509 56.681,258.392 56.681 C 258.724 56.681,261.019 57.203,263.492 57.841 C 265.965 58.478,269.508 59.272,271.366 59.604 C 276.814 60.578,278.647 61.102,279.790 62.011 C 280.371 62.472,281.323 62.979,281.906 63.138 C 282.489 63.296,284.074 63.712,285.427 64.061 C 286.968 64.458,288.231 64.986,288.805 65.471 C 289.757 66.276,292.097 67.841,292.349 67.841 C 292.429 67.841,293.216 68.172,294.099 68.576 C 294.982 68.979,295.838 69.310,296.001 69.310 C 296.165 69.310,296.665 69.789,297.112 70.375 C 297.559 70.962,298.506 71.690,299.216 71.995 C 299.946 72.307,301.293 73.357,302.310 74.406 C 303.301 75.428,304.535 76.554,305.053 76.909 C 305.572 77.265,306.282 78.064,306.631 78.687 C 306.981 79.309,307.829 80.288,308.515 80.861 C 309.791 81.928,311.307 84.175,311.307 84.999 C 311.307 85.251,311.717 85.822,312.218 86.268 C 313.382 87.303,313.968 88.466,315.062 91.924 C 315.548 93.458,316.370 95.705,316.888 96.916 C 319.313 102.582,319.231 100.588,319.234 154.424 C 319.237 205.914,319.181 204.102,320.800 204.962 C 321.447 205.306,357.312 205.220,371.296 204.841 L 377.393 204.676 378.124 205.464 C 378.526 205.898,378.855 206.485,378.855 206.769 C 378.855 207.065,379.513 207.726,380.396 208.317 C 383.241 210.222,382.966 207.442,382.966 234.334 L 382.966 258.089 381.964 258.927 C 381.413 259.388,380.492 260.095,379.917 260.499 C 379.341 260.903,378.867 261.455,378.863 261.725 C 378.858 261.995,378.448 262.623,377.951 263.120 L 377.047 264.023 372.471 264.023 L 367.894 264.023 367.060 263.090 C 366.601 262.576,366.226 262.067,366.226 261.958 C 366.226 261.599,364.606 260.071,363.351 259.247 L 362.115 258.435 362.115 247.313 L 362.115 236.192 360.939 235.130 L 359.763 234.068 193.670 234.068 L 27.577 234.068 26.565 235.169 L 25.553 236.270 25.552 244.954 L 25.551 253.639 24.717 254.573 C 24.258 255.086,23.677 255.507,23.426 255.507 C 22.884 255.507,21.145 257.403,21.145 257.993 C 21.145 259.228,19.641 259.618,14.888 259.618 L 10.337 259.618 9.500 258.588 C 9.040 258.022,8.287 257.097,7.826 256.533 C 7.365 255.968,6.813 255.507,6.600 255.507 C 6.387 255.507,5.806 255.100,5.309 254.603 L 4.405 253.699 4.405 232.041 C 4.405 202.965,3.747 204.471,16.300 204.846 C 25.531 205.121,60.792 205.181,61.711 204.923 C 63.734 204.354,63.563 208.648,63.758 153.304 C 63.875 119.957,64.036 103.034,64.245 102.040 C 64.833 99.243,65.260 97.949,66.368 95.599 C 66.979 94.304,67.898 91.924,68.412 90.308 C 69.213 87.786,69.529 87.194,70.649 86.113 C 71.366 85.421,71.953 84.658,71.953 84.419 C 71.953 82.858,80.935 73.347,83.560 72.129 C 84.895 71.509,86.050 70.541,86.050 70.042 C 86.050 69.855,87.181 69.211,88.563 68.610 C 89.945 68.010,91.811 67.030,92.710 66.432 C 93.608 65.834,94.657 65.136,95.039 64.881 C 95.422 64.626,96.761 64.178,98.015 63.885 C 100.678 63.263,102.790 62.555,102.790 62.285 C 102.790 61.538,105.772 60.589,110.720 59.761 C 112.254 59.504,115.888 58.714,118.796 58.005 C 121.703 57.296,124.470 56.633,124.943 56.533 C 126.206 56.264,128.047 54.314,128.047 53.245 C 128.047 51.548,128.929 49.386,130.255 47.833 C 131.260 46.655,131.747 45.708,132.328 43.805 C 133.172 41.038,133.542 40.348,135.137 38.573 C 135.833 37.797,136.299 36.939,136.414 36.223 C 136.871 33.365,137.246 32.540,138.843 30.882 C 139.723 29.969,140.755 28.735,141.137 28.141 C 141.519 27.546,142.435 26.645,143.172 26.138 C 143.909 25.631,144.833 24.707,145.226 24.085 C 145.618 23.463,146.405 22.599,146.974 22.165 C 148.671 20.871,149.192 19.754,149.192 17.414 C 149.192 15.088,149.989 13.638,151.737 12.785 C 152.321 12.500,152.898 11.851,153.293 11.036 C 154.182 9.199,154.918 8.811,157.508 8.811 C 159.719 8.811,162.115 7.711,162.115 6.696 C 162.115 4.921,164.399 4.424,168.282 5.354 M208.598 30.755 L 207.650 30.873 209.038 32.241 C 211.304 34.475,212.587 35.231,214.125 35.237 C 215.815 35.244,216.594 35.955,216.313 37.236 C 216.127 38.082,216.146 38.096,217.638 38.273 C 218.471 38.372,219.369 38.613,219.635 38.808 C 219.900 39.004,219.766 38.816,219.336 38.390 C 218.906 37.965,218.467 37.220,218.361 36.736 C 218.160 35.823,216.076 34.068,214.659 33.620 C 213.750 33.332,212.650 32.538,212.636 32.159 C 212.618 31.701,210.748 30.538,210.114 30.590 C 209.801 30.616,209.119 30.690,208.598 30.755 M221.145 40.509 C 221.145 40.834,221.761 43.531,221.869 43.681 C 221.896 43.718,222.324 43.633,222.820 43.491 C 223.904 43.180,224.505 44.073,224.401 45.838 C 224.334 46.965,225.591 48.853,227.954 51.174 L 229.075 52.275 229.075 50.533 C 229.075 48.828,229.047 48.769,227.769 47.721 C 226.964 47.062,226.329 46.236,226.115 45.572 C 225.428 43.437,224.007 41.449,222.907 41.086 C 222.342 40.899,221.714 40.615,221.512 40.454 C 221.262 40.255,221.145 40.273,221.145 40.509 M229.759 57.025 C 229.858 57.780,230.030 59.498,230.143 60.843 C 230.305 62.792,230.399 63.134,230.602 62.524 C 230.743 62.103,231.164 61.619,231.538 61.449 L 232.219 61.139 232.399 64.297 C 232.499 66.035,232.498 68.805,232.398 70.453 L 232.215 73.449 231.232 72.497 L 230.250 71.544 230.250 72.800 C 230.250 75.761,229.602 79.730,229.013 80.372 C 228.565 80.862,228.478 81.225,228.636 81.946 C 228.908 83.186,228.018 85.281,227.336 85.006 C 227.081 84.903,226.721 84.757,226.535 84.680 C 226.321 84.592,226.122 85.098,225.989 86.069 C 225.796 87.469,225.591 87.788,223.535 89.888 C 222.302 91.149,220.993 92.574,220.628 93.056 C 220.263 93.539,219.569 94.108,219.086 94.322 C 218.604 94.535,218.204 94.843,218.199 95.006 C 218.168 96.003,215.552 97.948,213.862 98.230 C 212.665 98.430,212.603 98.489,212.687 99.345 C 212.809 100.591,211.313 101.540,209.894 101.117 C 209.095 100.878,208.785 100.953,207.783 101.630 C 207.081 102.103,205.957 102.513,204.993 102.649 C 204.104 102.774,203.543 102.934,203.744 103.004 C 205.354 103.567,203.381 105.309,201.482 105.002 C 200.737 104.882,200.206 104.991,199.618 105.384 L 198.796 105.934 200.562 106.118 C 203.630 106.439,206.064 105.764,207.592 104.169 C 208.313 103.416,208.923 103.089,209.875 102.947 C 211.852 102.650,215.154 100.835,215.844 99.666 C 216.506 98.545,218.036 97.506,219.030 97.505 C 219.817 97.503,221.071 96.265,221.202 95.360 C 221.251 95.016,221.755 94.442,222.320 94.086 C 223.984 93.036,225.122 91.680,225.489 90.308 C 225.733 89.394,226.168 88.754,227.000 88.086 C 228.867 86.586,229.571 85.304,229.974 82.673 C 230.362 80.141,230.821 78.966,231.657 78.359 C 234.598 76.224,234.566 58.746,231.619 57.229 C 231.270 57.049,230.668 56.621,230.282 56.278 L 229.579 55.653 229.759 57.025 M148.797 65.735 C 148.190 66.406,148.148 69.912,148.731 71.219 C 149.092 72.029,149.133 71.821,149.232 68.648 C 149.291 66.750,149.327 65.197,149.311 65.198 C 149.296 65.198,149.065 65.440,148.797 65.735 M149.388 75.398 C 148.392 77.010,149.852 82.992,151.548 84.246 C 152.449 84.912,153.082 86.107,153.451 87.843 C 153.581 88.454,154.133 89.282,154.878 89.982 C 155.547 90.610,156.439 91.642,156.861 92.275 C 157.758 93.621,162.307 97.872,163.523 98.501 C 163.984 98.739,164.814 99.357,165.367 99.874 C 167.328 101.708,168.088 102.122,169.796 102.287 C 171.774 102.479,172.891 103.008,173.371 103.983 C 174.171 105.606,179.526 106.969,182.952 106.422 L 184.554 106.166 183.716 105.617 C 183.047 105.179,182.692 105.125,181.960 105.350 C 180.584 105.772,176.175 104.714,176.416 104.019 C 176.510 103.747,176.792 103.359,177.043 103.157 C 177.293 102.955,177.351 102.790,177.170 102.790 C 174.358 102.790,170.971 101.695,170.267 100.559 C 170.118 100.320,169.725 100.281,169.033 100.437 C 167.790 100.717,167.695 100.631,167.695 99.224 C 167.695 97.795,166.755 97.082,165.127 97.278 C 163.562 97.466,162.182 96.402,162.058 94.912 C 161.974 93.912,161.878 93.811,160.745 93.538 C 159.300 93.189,158.297 92.067,158.297 90.800 C 158.297 89.477,158.015 88.987,157.256 88.987 C 155.379 88.987,154.076 87.607,154.694 86.273 C 154.947 85.725,154.877 85.477,154.290 84.850 C 153.830 84.358,153.461 83.448,153.241 82.269 C 152.968 80.801,152.814 80.485,152.442 80.639 C 151.151 81.175,151.000 81.124,150.703 80.046 C 150.541 79.458,150.481 78.526,150.571 77.974 C 150.738 76.943,149.755 74.804,149.388 75.398 M219.383 95.448 C 219.383 95.854,219.187 96.035,218.750 96.035 C 218.136 96.035,218.133 96.018,218.649 95.448 C 218.941 95.125,219.226 94.860,219.282 94.860 C 219.338 94.860,219.383 95.125,219.383 95.448 M152.570 124.119 C 152.247 124.183,151.256 124.379,150.367 124.555 C 147.774 125.070,145.603 125.888,145.104 126.538 C 144.849 126.870,144.178 127.340,143.612 127.583 C 142.280 128.155,142.543 128.161,149.017 127.707 L 153.982 127.359 153.140 126.688 C 152.136 125.888,152.162 125.852,154.026 125.461 C 156.037 125.039,156.658 125.388,156.394 126.794 C 156.150 128.094,156.471 128.330,158.483 128.336 C 160.313 128.342,161.033 129.135,160.899 130.994 C 160.788 132.532,161.792 133.677,163.032 133.429 C 164.225 133.190,164.813 133.777,164.717 135.110 C 164.614 136.528,166.125 138.179,167.526 138.179 C 168.344 138.179,168.429 138.267,168.429 139.109 C 168.429 139.644,168.693 140.329,169.051 140.724 C 169.393 141.101,169.913 141.806,170.208 142.291 C 170.502 142.775,171.559 143.965,172.557 144.934 C 174.201 146.531,174.406 146.866,174.739 148.509 C 175.096 150.268,175.128 150.313,175.804 150.005 C 176.887 149.511,177.897 150.730,177.652 152.236 C 177.499 153.180,177.573 153.413,178.146 153.788 C 178.517 154.031,178.863 154.451,178.915 154.721 C 178.985 155.083,179.320 155.213,180.181 155.213 C 181.305 155.213,181.351 155.250,181.351 156.168 C 181.351 156.864,181.780 157.700,182.934 159.252 C 184.514 161.376,187.431 163.978,186.937 162.822 C 186.805 162.514,186.562 161.667,186.397 160.940 C 186.167 159.927,185.828 159.413,184.941 158.737 C 183.791 157.861,183.468 157.392,182.567 155.287 C 182.302 154.669,181.586 153.833,180.932 153.378 C 180.157 152.840,179.555 152.079,179.132 151.101 C 178.328 149.244,177.890 148.756,176.203 147.838 C 174.752 147.048,173.795 145.561,173.407 143.494 C 173.256 142.686,172.919 142.238,171.997 141.619 C 171.273 141.132,170.680 140.455,170.523 139.933 C 169.891 137.846,169.608 137.388,168.476 136.628 C 167.816 136.185,166.677 134.932,165.944 133.843 C 165.163 132.683,164.237 131.685,163.709 131.434 C 162.865 131.034,162.115 129.949,162.115 129.129 C 162.115 126.653,156.001 123.443,152.570 124.119 M222.605 124.782 C 222.063 125.234,221.470 126.055,221.287 126.605 C 221.055 127.303,220.605 127.790,219.802 128.213 C 219.168 128.547,218.503 129.142,218.324 129.535 C 217.150 132.109,216.772 132.658,215.671 133.396 C 214.931 133.892,214.377 134.526,214.255 135.020 C 213.944 136.281,212.359 138.573,211.652 138.787 C 210.653 139.088,209.525 140.297,208.320 142.358 C 207.710 143.400,206.811 144.533,206.322 144.876 C 205.097 145.735,204.774 146.197,204.331 147.718 C 204.038 148.724,203.663 149.225,202.738 149.847 C 201.717 150.533,201.470 150.901,201.163 152.202 C 200.690 154.206,199.998 155.155,198.140 156.345 C 197.305 156.880,196.439 157.703,196.214 158.174 C 195.990 158.645,195.593 159.481,195.333 160.031 C 195.028 160.678,194.231 161.430,193.083 162.157 C 192.105 162.776,191.011 163.680,190.651 164.167 C 189.920 165.156,189.033 165.300,188.024 164.594 C 187.324 164.104,187.124 164.836,187.537 166.373 C 188.005 168.112,193.401 166.786,193.048 165.019 C 192.797 163.765,193.360 163.254,194.748 163.476 C 195.672 163.623,195.888 163.569,195.888 163.190 C 195.888 162.933,196.166 162.574,196.505 162.392 C 197.035 162.109,197.096 161.887,196.937 160.827 C 196.705 159.281,197.652 158.138,198.904 158.453 C 199.602 158.628,199.667 158.545,199.975 157.110 C 200.409 155.085,201.032 154.094,202.555 153.000 C 203.250 152.501,203.818 151.974,203.818 151.829 C 203.818 151.684,204.389 150.864,205.086 150.008 C 206.143 148.710,206.319 148.319,206.143 147.659 C 205.882 146.682,206.412 146.158,207.410 146.409 C 208.532 146.690,210.099 145.091,209.843 143.926 C 209.500 142.364,210.406 140.962,211.546 141.289 C 212.059 141.436,212.493 141.557,212.512 141.557 C 212.531 141.557,212.624 140.797,212.719 139.868 C 212.867 138.426,213.034 138.058,213.862 137.351 C 215.745 135.741,216.532 134.932,217.682 133.422 C 218.321 132.582,219.303 131.624,219.863 131.293 C 220.427 130.961,221.016 130.307,221.183 129.828 C 221.759 128.175,223.149 127.458,225.751 127.471 C 230.331 127.494,237.286 128.239,237.873 128.770 C 238.313 129.168,238.619 129.209,239.443 128.981 C 240.065 128.810,241.010 128.800,241.849 128.957 C 245.434 129.627,246.106 130.064,245.097 131.072 C 244.668 131.502,246.023 131.865,248.054 131.865 C 248.433 131.865,249.387 132.261,250.174 132.745 C 251.417 133.510,251.721 133.585,252.486 133.319 C 253.229 133.059,256.475 133.774,257.199 134.356 C 257.242 134.390,257.015 134.751,256.695 135.158 L 256.113 135.898 257.792 136.094 C 258.716 136.202,260.000 136.370,260.646 136.468 L 261.821 136.646 261.160 135.925 C 260.797 135.529,260.499 135.050,260.499 134.860 C 260.499 133.817,256.342 132.148,252.254 131.550 C 249.821 131.195,249.643 131.120,249.161 130.251 C 248.414 128.902,243.620 127.753,238.742 127.753 C 236.007 127.753,235.331 127.564,234.068 126.443 C 233.151 125.630,229.918 124.580,227.682 124.369 C 226.752 124.281,225.451 124.153,224.791 124.085 C 223.800 123.982,223.418 124.104,222.605 124.782 M225.110 126.285 C 223.595 126.986,223.495 126.986,223.495 126.285 C 223.495 125.777,223.683 125.700,224.890 125.719 L 226.285 125.741 225.110 126.285 M135.095 128.183 C 132.126 128.728,131.039 129.188,130.236 130.241 C 129.565 131.121,129.276 131.245,127.189 131.550 C 123.119 132.145,118.954 133.665,118.945 134.559 C 118.944 134.668,118.601 135.163,118.182 135.660 L 117.422 136.564 118.109 136.542 C 119.645 136.492,123.178 135.796,122.870 135.604 C 121.254 134.602,124.250 132.865,126.691 133.389 C 127.567 133.577,127.906 133.534,128.159 133.199 C 128.675 132.518,130.363 131.954,132.571 131.725 C 133.712 131.607,134.439 131.416,134.234 131.290 C 132.597 130.278,137.227 128.136,139.268 128.961 C 140.060 129.281,142.410 128.547,142.430 127.974 C 142.442 127.638,137.256 127.786,135.095 128.183 M262.408 136.779 C 262.731 136.861,263.434 137.408,263.970 137.994 C 264.506 138.581,264.862 138.895,264.761 138.693 C 264.633 138.438,264.858 138.326,265.498 138.326 C 266.352 138.326,266.407 138.386,266.241 139.138 C 265.981 140.321,268.158 142.156,269.417 141.816 C 270.791 141.446,271.953 142.496,271.953 144.108 L 271.953 145.374 273.201 145.381 C 274.930 145.390,275.834 146.154,276.208 147.924 C 276.491 149.264,276.571 149.355,277.723 149.633 C 279.561 150.077,280.229 150.821,280.136 152.324 C 280.033 154.001,280.799 154.891,282.155 154.671 C 283.275 154.489,283.871 155.229,283.570 156.428 C 283.433 156.973,283.632 157.448,284.389 158.383 C 285.067 159.221,285.454 160.067,285.590 161.013 C 285.701 161.780,285.842 162.408,285.902 162.408 C 285.962 162.408,286.329 162.288,286.717 162.140 C 287.708 161.763,288.544 163.150,288.288 164.746 C 288.116 165.823,288.645 167.449,289.299 167.853 C 289.450 167.946,289.574 168.461,289.574 168.997 C 289.574 170.693,289.910 171.854,290.348 171.675 C 290.569 171.586,290.924 171.441,291.137 171.354 C 291.671 171.137,292.171 172.370,291.920 173.285 C 291.708 174.054,292.795 176.123,293.199 175.719 C 294.209 174.709,292.780 169.318,291.082 167.731 C 290.426 167.119,290.112 166.409,289.725 164.670 C 289.448 163.425,289.102 162.333,288.957 162.243 C 288.812 162.153,288.690 161.790,288.687 161.436 C 288.679 160.686,287.982 159.777,286.901 159.107 C 286.353 158.768,285.951 158.053,285.475 156.573 C 284.962 154.979,284.536 154.258,283.595 153.394 C 282.363 152.263,280.452 149.768,280.095 148.825 C 279.988 148.543,279.723 148.311,279.506 148.311 C 279.035 148.311,277.533 146.805,277.533 146.333 C 277.533 146.151,277.104 145.702,276.579 145.336 C 276.054 144.970,274.694 143.776,273.558 142.684 C 272.421 141.592,270.893 140.433,270.162 140.110 C 269.423 139.783,268.650 139.181,268.421 138.752 C 267.706 137.416,266.711 136.955,264.170 136.786 C 262.878 136.700,262.085 136.697,262.408 136.779 M111.808 137.556 C 111.451 137.940,110.931 138.590,110.651 139.000 C 110.371 139.410,109.725 139.837,109.215 139.949 C 108.638 140.076,107.614 140.831,106.494 141.956 C 105.507 142.948,104.194 144.136,103.578 144.597 C 102.961 145.058,102.067 145.972,101.592 146.628 C 101.117 147.284,100.293 148.117,99.761 148.478 C 98.734 149.176,97.210 151.249,97.210 151.949 C 97.210 152.179,96.557 152.837,95.759 153.410 C 94.415 154.376,94.282 154.585,93.956 156.240 C 93.605 158.026,92.781 159.471,92.115 159.471 C 91.216 159.471,89.611 162.899,89.022 166.079 C 88.826 167.142,88.492 167.982,88.181 168.195 C 86.468 169.370,85.620 171.577,85.925 174.062 L 86.113 175.584 86.778 174.810 C 87.290 174.215,87.392 173.857,87.219 173.255 C 86.851 171.970,87.983 171.371,88.720 172.460 C 88.815 172.601,89.036 171.697,89.211 170.451 C 89.453 168.726,89.742 167.883,90.426 166.913 C 91.190 165.829,91.276 165.535,91.004 164.938 C 90.485 163.797,91.251 162.544,92.436 162.597 C 93.325 162.637,93.375 162.579,93.569 161.280 C 93.756 160.032,94.460 158.426,95.238 157.470 C 95.410 157.257,95.562 156.596,95.573 156.001 C 95.594 154.960,95.632 154.922,96.568 154.996 C 98.028 155.112,99.400 153.670,99.141 152.292 C 98.871 150.851,99.909 149.780,101.576 149.780 L 102.790 149.780 102.790 148.366 C 102.790 146.434,103.974 145.204,105.582 145.465 C 107.171 145.723,107.489 145.489,107.489 144.067 C 107.489 142.453,108.238 141.704,109.629 141.930 C 110.462 142.065,110.754 141.939,111.592 141.082 C 112.134 140.529,112.886 139.998,113.263 139.903 C 113.641 139.808,113.950 139.562,113.950 139.356 C 113.950 139.150,114.479 138.504,115.126 137.920 L 116.301 136.858 114.378 136.858 C 112.730 136.858,112.362 136.958,111.808 137.556 M113.950 138.427 C 113.950 138.483,113.686 138.768,113.363 139.060 C 112.793 139.576,112.775 139.573,112.775 138.959 C 112.775 138.522,112.957 138.326,113.363 138.326 C 113.686 138.326,113.950 138.372,113.950 138.427 M293.792 181.967 C 293.899 183.405,294.068 185.602,294.167 186.850 L 294.348 189.118 295.115 188.514 L 295.883 187.910 296.118 189.036 C 296.656 191.605,296.823 193.707,296.563 194.647 C 296.290 195.636,296.687 196.652,297.218 196.324 C 298.776 195.361,297.089 183.227,295.172 181.615 C 294.678 181.199,294.273 180.613,294.273 180.314 C 294.273 180.015,294.121 179.676,293.935 179.562 C 293.685 179.407,293.648 180.030,293.792 181.967 M85.027 180.893 C 84.920 181.231,84.456 181.869,83.996 182.311 C 81.774 184.442,80.137 196.955,81.530 201.159 C 81.630 201.460,81.827 201.331,82.205 200.719 C 82.605 200.073,82.666 199.709,82.446 199.284 C 82.122 198.656,82.297 195.305,82.842 191.692 L 83.188 189.405 83.987 190.300 L 84.786 191.195 85.154 185.887 C 85.503 180.856,85.468 179.504,85.027 180.893 " stroke="none" fill="#000000" fill-rule="evenodd"></path></g></svg>